<?xml version="1.0" encoding="utf-8"?>
<!-- Generator: Adobe Illustrator 15.0.0, SVG Export Plug-In . SVG Version: 6.00 Build 0)  -->
<!DOCTYPE svg PUBLIC "-//W3C//DTD SVG 1.1//EN" "http://www.w3.org/Graphics/SVG/1.1/DTD/svg11.dtd">
<svg version="1.1" id="Layer_1" xmlns="http://www.w3.org/2000/svg" xmlns:xlink="http://www.w3.org/1999/xlink" x="0px" y="0px"
	 width="1113px" height="837px" viewBox="0 0 1113 837" enable-background="new 0 0 1113 837" xml:space="preserve">
<polyline fill="#4C5CC5" points="348,702 766,702 773,702 1035,418.5 663,418.5 "/>
<polyline fill="#4C5CC5" points="359.947,127.995 556.447,316.995 739.947,143.995 "/>
<g transform="translate(0.000000,837.000000) scale(0.100000,-0.100000)">
	<path d="M3442.001,7354.999C3405,7338.998,3290,7229.999,3290,7212.001c0-7.002-19.004-24.004-42.002-39.004
		c-48.994-31.997-75-57.998-82.998-83.999c-2.998-8.999-25.996-28.999-50-43.999c-25-13.999-45-32.002-45-40
		s-2.998-13.999-7.002-12.998c-5,0.996-52.998-43.003-107.998-98.003s-152.002-150-215-211.001
		C2677.001,6622.001,2591,6536,2550,6492.001c-41.001-44.004-77.998-78.003-82.002-76.001c-2.998,1.997-15-12.002-26.997-31.001
		c-11.001-18.999-23.999-35-28.999-35S2390,6331,2373.999,6307.997c-51.001-75.996-225-233.999-245-221.997
		c-5,1.997-11.001-5-13.999-18.003c-7.002-27.998-125-145.996-177.002-176.997c-20.996-12.002-40.996-28.999-45-36.001
		c-5-7.002-35-41.001-66.997-76.001c-33.003-33.999-72.002-81.001-87.002-102.998c-35-52.002-77.998-95-170-171.001
		c-40-32.998-103.999-90-142.998-127.002c-38.999-36.997-81.001-75-93.003-82.998C1320,5286,1310,5271,1310,5262.001
		c0-9.004-12.002-29.004-27.998-44.004c-73.003-72.998-161.001-152.998-197.002-180c-21.001-15.996-61.001-47.998-87.002-70.996
		c-25.996-23.003-60.996-52.002-76.997-64.004c-16.001-12.998-43.003-43.999-60-70c-17.002-25.996-56.001-68.999-87.002-95.996
		c-31.001-28.003-60-61.001-65-74.004c-5-12.998-16.997-25.996-26.001-30c-17.998-6.997-103.999-80-275-237.002
		C322.002,4317.998,260,4239.003,260,4207.001c0-6.006,13.999-37.998,31.001-71.006c21.997-43.994,48.999-76.992,96.001-115.996
		c35.996-30,88.999-77.002,117.998-105c30-27.002,72.998-67.998,96.001-90C625,3802.998,665,3769.003,690,3750
		c53.999-40.996,470-457.998,470-470.996c0-4.004,11.001-14.004,25-22.002c13.999-7.002,57.998-52.002,97.998-99.004
		s107.002-115.996,150-152.998c42.002-35.996,77.002-70,77.002-74.004c0-13.994,177.998-190,207.998-205
		c17.002-8.994,41.001-30,53.003-47.998c12.998-17.998,33.999-43.994,46.001-57.998c12.998-14.004,22.998-29.004,22.998-35
		c0-12.002,125-140.996,157.998-162.998c12.002-7.998,22.002-21.006,22.002-27.998c0-8.008,3.999-14.004,8.999-14.004
		s33.999-22.002,63.999-50c30-27.002,59.004-50,63.003-50c10,0,122.998-109.004,281.001-270.996
		c103.999-107.002,125-125,155.996-135c9.004-4.004,17.002-11.006,17.002-18.008c0-5.996,32.998-42.998,72.002-82.998
		c121.997-120.996,171.997-175.996,200.996-220c15-22.998,56.001-67.998,90-100c34.004-32.002,76.001-75.996,92.002-97.998
		c52.002-70,142.002-165,155.996-165c4.004,0,18.008-17.002,31.006-37.998c13.994-20,45-51.006,68.994-67.002
		c24.004-15.996,60-44.004,81.006-62.998l35.996-34.004l99.004,5c53.994,2.998,133.994,11.006,177.998,17.002
		c80,10.996,175,15,605,25c269.004,5.996,209.004,5.996,1165,2.002c424.004-2.002,780.996,0.996,794.003,5
		c12.998,5,27.998,5,32.998,0c10-10,233.994-6.006,402.998,7.002c65.996,5,130.996,8.994,145,8.994c14.004,1.006,70,2.998,125,7.002
		c122.002,7.002,100.996,5.996,275,5c489.004-5,517.998,0,620,94.004c25,22.998,59.004,50,75.996,60c17.002,10,40,32.998,50,50
		c10,16.992,37.002,50.996,61.006,75c23.994,23.994,42.998,50,42.998,57.998s5,10.996,10,7.998c5.996-2.998,10,0,10,9.004
		c0,7.998,17.002,31.992,37.998,53.994c117.998,124.004,252.002,274.004,252.002,285c0,4.004,5.996,7.002,12.998,7.002
		s20,7.998,29.004,17.998c8.994,9.004,27.998,25,42.002,35c13.994,10,25.996,27.002,25.996,37.002c0,10.996,5.996,20,12.998,20
		s29.004,17.998,47.998,40.996c19.004,22.002,49.004,47.002,67.002,54.004c17.002,7.998,32.002,17.998,32.002,24.004
		c0,5,30,35,67.998,66.992c37.002,31.006,76.006,70,87.998,85c11.006,16.006,24.004,26.006,27.002,22.002
		c4.004-2.998,7.002,1.006,7.002,9.004c0,8.994,12.998,27.002,29.004,40c15,12.998,35.996,35.996,45,50.996
		c10,14.004,30.996,32.002,46.992,39.004c16.006,7.002,29.004,15.996,29.004,18.994c0,4.004,42.998,50,95,103.008
		c52.002,51.992,95,100,95,105.996c0,5,5,10,10.996,10c14.004,0,135,120.996,131.006,132.002c-1.006,5,2.002,7.002,5.996,3.994
		c10-5.996,107.998,94.004,104.004,107.002c-1.006,4.004,13.994,15,32.998,22.998c19.004,8.008,35,18.008,35,22.002
		c0,7.998,15,22.998,117.998,119.004c27.998,27.998,52.002,55,52.002,62.002c0,6.992,4.004,10,7.998,6.992
		c5-2.998,24.004,13.008,42.998,36.006c19.004,22.002,60,65,92.002,95.996c31.006,30,57.002,59.004,57.002,62.998
		c0,5,10,19.004,22.998,33.008c12.002,12.998,42.002,46.992,67.002,75c67.002,75.996,82.002,91.992,134.004,135.996
		c26.992,22.002,55,47.998,63.994,57.002c7.998,8.994,19.004,15,22.998,12.002c5-2.002,15,7.998,23.008,22.998
		c7.998,15,35,45.996,60,67.998c105,90.996,153.994,142.002,170,172.002c7.998,17.002,28.994,42.002,45,55
		c31.992,23.994,100.996,110.996,100.996,125c0,5,19.004,25,42.998,45c46.006,37.998,61.006,72.002,72.998,165
		c6.006,48.994,5,53.994-23.994,80c-16.006,15-44.004,57.998-61.006,93.994c-22.998,50.005-43.994,77.002-85,110.005
		c-30,23.999-55,47.998-55.996,51.997c-0.996,19.004-165.996,187.001-184.004,187.001c-5.996,0-21.992,11.001-35.996,22.998
		c-39.004,34.004-185.996,219.004-194.004,243.003c-5.996,20-145,152.998-190.996,183.999c-12.998,8.999-34.004,27.002-47.998,40
		c-12.998,13.999-55,55-92.998,92.002c-38.008,36.997-85,85-104.004,107.998c-19.004,22.002-40.996,47.002-47.002,53.999
		c-7.002,8.003-27.002,23.003-45,33.999c-55,35-308.994,293.003-355.996,362.002c-27.998,41.001-107.998,117.998-181.006,175
		c-27.998,22.002-61.992,56.001-75.996,75s-50,57.998-80.996,85c-31.006,27.998-90,85-132.002,127.998
		C8699.999,6354.999,8624.999,6431,8574.999,6481c-49.004,50-97.002,93.999-105.996,97.998
		c-27.002,10-217.002,192.002-262.002,251.001c-22.998,30-66.006,78.999-95,108.999c-29.004,30-59.004,68.999-67.002,87.002
		c-7.002,17.998-24.004,37.998-37.002,45c-12.002,6.997-70,57.998-127.998,113.999c-100.996,97.002-107.998,102.002-180,122.998
		c-40.996,12.002-92.998,24.004-115,28.003s-47.998,11.001-57.002,15c-17.002,8.999-195.996,10-502.998,2.998
		c-99.004-1.997-207.002-2.998-240-1.997c-87.002,1.997-100,1.997-200-6.001c-49.004-3.999-164.004-8.003-255-8.003
		c-97.002,0-170-3.999-177.002-10c-8.994-6.997-17.002-6.997-25,0c-7.998,6.001-160,10-407.998,11.001
		c-217.002,1.001-444.004,3.999-505,7.002c-60,2.998-135,5-165,3.999c-75.996-2.002-65.996-2.002-250,2.998
		c-90.996,3.003-167.002,6.001-170,7.002s-7.998,2.002-12.002,1.001c-10-1.001-598.994-15-627.998-13.999
		c-130,1.997-452.002,13.999-480,17.998C3490,7367.997,3460,7362.997,3442.001,7354.999z M4642.998,6939.999
		c40,2.002,106.006,1.001,147.002-1.001c40.996-1.997,129.004-2.998,195-3.999c67.998,0,122.998-3.999,127.002-10
		c5-7.002,7.998-6.001,7.998,0c0,11.001,790.996,12.002,820,1.001c17.002-6.001,540.996-1.001,965,8.999l290,7.002l-20-23.003
		c-10.996-12.998-54.004-56.997-95-98.999c-40.996-41.001-90.996-96.001-110.996-120c-48.008-60-128.008-137.998-233.008-230
		c-46.992-41.001-101.992-98.999-121.992-127.998c-20-29.004-57.002-68.003-83.008-87.002
		c-25-17.998-152.998-141.001-283.994-272.002c-130-130.996-261.005-260.996-290-287.998c-27.998-27.998-61.006-62.002-72.002-75
		c-10.996-13.999-55.996-56.001-99.004-95c-42.998-37.998-96.992-87.002-117.998-107.002C5630.996,5382.001,5580,5366,5580,5389.999
		c0,6.001-5,10-10.996,10c-14.004,0-69.004,55-69.004,68.999c0,6.001-4.004,11.001-10,11.001c-5,0-25.996,17.002-47.002,37.998
		c-62.998,61.001-122.002,110-140.996,117.002c-17.998,6.001-112.002,90-112.002,100c0,2.998-22.002,28.999-50,57.002
		c-27.002,27.998-50,53.999-50,58.999c0,3.999-37.002,37.998-82.002,73.999c-45.996,36.001-87.002,70-92.998,76.001
		c-5,6.001-27.002,27.998-49.004,47.998c-68.994,63.999-200,195-226.992,226.001c-14.004,17.002-44.004,46.001-65,65
		c-22.002,18.999-71.006,68.999-110,110c-86.006,90-97.002,100-152.002,133.999c-24.004,15-45,33.003-47.998,41.001
		c-3.008,7.998-16.006,17.002-27.002,21.001c-12.002,3.999-36.006,21.997-52.998,40c-17.002,18.999-34.004,33.999-38.008,33.999
		c-15.996,0-183.994,166.001-207.998,205c-5,7.998,90,12.002,300,12.998c167.998,1.001,307.998,4.004,310,7.002
		c2.998,2.002,9.004,2.002,14.004-1.001C4567.001,6941,4602.998,6938.998,4642.998,6939.999z M7694.999,6746
		c50-50,102.002-103.999,115.996-121.001c15-16.001,60-57.002,102.002-90c41.006-32.998,87.002-78.999,102.002-102.002
		c22.002-33.999,80.996-93.999,157.998-160.996c4.004-4.004,61.006-62.002,127.002-129.004c65-67.998,132.002-130.996,147.002-140
		c15.996-10,60-51.997,97.998-92.998c39.004-41.001,85-90,102.002-107.998c17.998-18.003,32.998-36.001,32.998-41.001
		c0-3.999,25.996-28.999,57.998-53.999c31.006-25,90-77.002,130-116.001s77.002-71.001,82.998-71.001
		c11.006,0,279.004-266.001,279.004-277.998c0-7.002,32.002-40,217.998-223.003c26.006-25,59.004-52.998,74.004-61.997
		c13.994-9.004,38.994-35,55-58.003c15-22.998,65-80,110-126.997c45-46.001,85-93.003,87.998-103.003c4.004-11,10-18.999,15-18.999
		c10.996,0,82.002-75,120.996-128.999c43.008-60,33.008-73.999-56.992-83.003c-439.004-43.994-855-57.998-1394.004-47.998
		c-102.002,2.002-302.002,0.996-445-2.998c-154.004-4.004-360.996-2.998-505,3.994c-135,6.006-280.996,13.008-325,15
		c-44.004,2.002-137.998,3.008-210,2.002c-332.998-2.998-335-2.998-382.998,60c-12.998,16.001-42.002,39.004-65,51.001
		c-45,23.003-127.002,92.002-127.002,107.002c-0.996,11.001-52.002,61-100,96c-19.004,13.999-67.002,56.997-105,93.999
		c-39.004,37.998-95,91.997-125.996,121.001c-31.005,27.998-59.003,57.998-62.001,65.996c-2.998,8.003-22.998,27.002-44.004,43.003
		c-82.998,61.001-83.994,81.997-0.996,155c33.994,30,87.002,81.001,118.994,113.999c31.006,32.998,63.008,65,70,72.002
		c33.008,27.998,212.002,205,292.002,287.998c129.004,132.002,207.002,207.002,255,245c22.998,17.998,42.002,37.002,42.002,42.002
		c0,3.999,65,72.998,145,152.998s170,178.999,200,220c30.996,41.001,60,75,64.004,75c15.996,0,266.992,253.999,290,292.998
		c12.998,20,25.996,37.002,28.994,37.002c4.004,0,27.002,23.999,51.006,53.999c33.994,41.001,48.994,52.002,65,48.003
		C7595.995,6838.998,7645.995,6796,7694.999,6746z M3550,6696c19.004-13.003,45.996-36.001,60-51.001s37.998-32.998,52.998-42.002
		c16.006-7.998,46.006-30,67.002-48.999s52.002-45,69.004-56.997c57.998-42.002,196.992-166.001,312.998-279.004
		c63.994-61.997,140-133.999,170-158.999C4310.996,6032.997,4360,5991,4390,5964.999c77.998-67.998,219.004-213.999,245.996-255
		c13.008-18.999,50-60,84.004-90c32.998-30,89.004-82.002,124.004-115s72.998-67.002,85-75
		c10.996-7.998,20.996-17.998,20.996-22.998c0-10,40.996-46.001,52.998-47.002c9.004,0,12.998-2.998,92.002-70
		c117.998-98.999,194.004-175,195-192.998c0-18.003-67.998-90-412.002-438.002C4802.001,4582.998,4740,4517.001,4740,4512.001
		s-44.004-49.004-97.002-97.002c-53.994-47.998-133.994-127.002-177.998-175c-74.004-80-149.004-152.002-430-415
		c-59.004-55-127.998-125.996-152.998-157.002c-24.004-32.002-69.004-75.996-97.998-97.998c-30-22.998-66.006-57.998-80-80
		c-14.004-20.996-52.002-59.004-84.004-84.004s-84.004-70.996-115.996-101.992c-31.006-31.006-70-64.004-85-73.008
		c-16.006-10-38.008-28.994-49.004-43.994c-34.004-42.998-62.998-36.006-132.998,32.998c-34.004,32.998-65,60-69.004,60
		c-3.994,0-57.002,47.998-117.998,107.002c-61.001,58.994-122.002,115.996-137.002,127.002C2828.999,3580,2675,3730.996,2605,3815
		c-22.002,27.002-57.998,67.002-81.001,89.004c-21.997,22.998-56.001,60.996-75,85.996c-41.997,55-100,112.998-205,205
		c-42.998,37.998-106.001,100-138.999,137.002s-112.002,113.999-175,170c-62.998,55.996-113.999,107.998-113.999,115
		c1.001,6.997-3.999,12.998-12.002,12.998c-7.998,0-13.999,7.002-13.999,15s-5,15-12.002,15c-5.996,0-28.999,17.998-50.996,40
		c-21.001,22.002-52.002,47.002-68.003,55c-16.001,8.999-36.001,28.999-43.999,45c-8.999,17.002-20,30-25,30
		c-20,0-58.999,47.002-57.002,71.001c2.002,26.997,110,138.999,134.004,138.999c7.998,0,132.998,117.998,277.998,262.998
		c255,255,322.002,317.002,342.998,317.002c14.004,0,78.003,72.998,98.003,112.002c8.999,17.998,36.001,50,60,71.997
		c23.999,21.001,43.999,43.003,45,50c0,6.001,26.997,33.003,60,58.999c37.998,31.001,58.999,56.001,58.999,69.004
		c0,11.997,2.998,18.999,6.001,15c3.999-3.003,36.001,23.999,71.001,60.996c35.996,37.002,78.999,82.002,96.997,99.004
		c17.002,17.998,33.999,32.998,38.999,32.998c4.004,0,7.002,3.999,7.002,10c0,5,10,20,22.998,33.999
		c12.002,13.003,31.001,36.001,42.002,50s23.999,26.001,28.999,26.001s28.003,17.002,51.001,37.998
		c83.999,73.003,134.004,112.002,144.004,112.002c5,0,42.998,36.001,82.998,80c40,45,88.994,90,107.998,102.002
		c19.004,11.997,50.996,35,70,52.998c19.004,17.002,45.996,37.998,60,47.002c22.998,15,27.002,13.999,50-4.004
		C3504.003,6727.997,3530.996,6708.998,3550,6696z M5724.003,4711c185.996-183.002,260-253.999,323.994-308.999
		c29.003-25,66.005-62.002,82.001-82.002l29.004-37.002L6097.001,4215c-34.004-37.998-89.003-92.998-122.001-124.004
		c-32.002-30.996-85.996-85-120-120.996c-32.998-35.996-85-90.996-115-122.002c-30-30.996-60-62.002-65.996-70
		c-7.002-7.002-38.008-30.996-69.004-52.998c-32.002-22.002-105.996-89.004-164.004-150c-57.998-60-135-137.998-170.996-172.002
		c-137.002-130.996-172.998-168.994-182.998-190c-6.006-12.998-15-22.998-20-22.998c-6.006,0-31.006-19.004-55-42.002
		c-25-23.994-61.006-57.998-80-75C4912.998,3055,4897.001,3040,4895,3040s-25-22.002-50.996-49.004
		c-27.002-27.998-80-80-119.004-117.998c-37.998-37.002-102.002-100-140.996-140c-39.004-38.994-85-80-102.002-90
		c-49.004-30-122.002-95.996-122.002-110c0-7.002-4.004-12.998-10-12.998c-5,0-27.002-17.002-47.998-37.002
		c-20-20.996-64.004-60.996-97.998-90c-48.008-42.002-64.004-50.996-84.004-45.996c-30.996,7.998-110,62.002-110,75
		S3804.003,2640,3790,2640c-5,0-10,4.004-10,10c0,5-27.002,37.998-60,72.002c-32.998,35-62.002,70-65,80
		c-2.998,8.994-17.002,22.998-30,32.002c-14.004,10-25,25.996-25,38.994c0,26.006,95.996,127.998,175,187.002
		c30,22.002,55,44.004,55,47.998c0,6.006,107.002,117.998,142.002,147.998c7.002,7.002,47.998,48.008,92.002,92.002
		c42.998,44.004,90.996,86.006,106.992,92.002c16.006,7.002,29.004,17.002,29.004,22.002c0,12.002,107.998,125.996,200,212.002
		c77.002,71.992,177.002,171.992,205.996,206.992c11.006,13.008,36.006,38.008,55,54.004C4710,3979.003,4820,4100,4820,4110.996
		c0,5,5.996,9.004,12.998,9.004s69.004,59.004,137.002,132.002c69.004,72.998,135,140.996,147.998,152.998
		c37.002,32.002,384.004,380,414.004,413.999c15,17.002,32.998,31.001,38.994,31.001
		C5577.998,4849.999,5647.001,4787.001,5724.003,4711z M1318.999,4511c31.001-31.001,71.001-68.999,90-83.999
		s92.002-82.998,163.003-150c70-67.002,135.996-126.006,146.997-132.002c30-15.996,83.003-67.002,128.999-122.998
		c24.004-27.998,50-52.002,58.003-52.002c7.998,0,13.999-4.004,13.999-7.998c0-4.004,17.998-27.998,41.001-52.002
		c21.997-25,58.999-65.996,81.997-92.002c63.003-70.996,118.003-127.998,124.004-127.998c2.998,0,25.996-22.998,51.997-52.002
		c77.002-85.996,355-360,417.002-410.996c32.998-27.002,76.001-70,97.998-95c21.001-26.006,55-57.998,76.001-72.002
		c63.999-42.998,200-185.996,200-210.996c0-21.006-137.998-162.002-240-245c-18.999-16.006-66.001-57.002-105-91.006
		c-37.998-35-75-62.998-81.001-62.998c-6.997,0-41.001,27.998-76.001,62.998c-35,34.004-120.996,117.002-190.996,182.998
		c-70,67.002-127.002,125-127.002,129.004c0,5-57.002,65.996-127.002,135.996c-70.996,70-136.997,138.008-147.998,151.006
		s-42.002,40.996-70,62.998c-27.002,22.002-128.999,119.004-227.002,215c-96.997,95.996-230,227.002-296.997,290
		c-66.001,62.998-142.002,140-168.999,170c-49.004,57.002-199.004,200.996-291.001,280l-52.002,45l50,47.002
		c27.002,25,62.002,65,77.002,87.002c15,22.998,31.997,40.996,38.999,40.996s30,19.004,51.001,42.998
		C1047.002,4416,1100,4467.001,1143.999,4506c58.999,52.998,85,70,100,66.001C1255,4568.999,1288.999,4541,1318.999,4511z
		 M7254.999,3975c180.996-7.002,890.996-10.996,1385-7.998c145.996,0.996,370.996,2.002,500,2.002
		c190,0.996,367.002,5.996,500,12.998c7.998,0,35.996-2.002,62.998-6.006c26.006-2.998,47.002-1.992,47.002,2.002
		c0,5,25.996,7.002,57.998,4.004c57.998-5,81.006-5,142.002,0c44.004,3.994,50-17.998,15-57.998c-15-16.006-40.996-51.006-60-79.004
		c-17.998-27.002-55.996-75-84.004-105c-28.994-30-58.994-70-67.998-87.998c-8.994-17.998-45-56.006-80.996-85
		c-80-62.998-366.006-349.004-389.004-387.998c-10-16.006-20-29.004-22.998-29.004s-30.996-22.002-60.996-50
		c-29.004-27.002-57.002-50-61.006-50c-3.994,0-20.996-20-37.998-45c-27.998-40-247.002-265-257.998-265
		c-10,0-162.002-159.004-162.002-169.004c0-5.996-15.996-20.996-34.004-32.998c-18.994-12.998-36.992-30-38.994-40
		c-2.998-8.994-30-32.998-61.006-52.998c-30-20.996-57.998-45-60.996-54.004c-2.998-8.994-22.002-28.994-42.002-45.996
		c-30-24.004-220-212.002-252.998-250c-22.998-25.996-120-124.004-165-165.996c-27.002-26.006-60.996-58.008-74.004-72.002
		c-75.996-77.998-155-157.998-196.992-197.998c-27.002-26.006-59.004-57.002-71.006-70c-65.996-72.002-80.996-82.002-148.994-95
		c-38.008-7.002-115-13.008-170-14.004c-56.006,0-146.006-4.004-200-10c-55-5-200-12.002-324.004-15
		c-124.004-4.004-259.004-10-300-14.004c-40.996-3.994-85-3.994-95.996,0c-12.002,4.004-24.004,6.006-26.006,4.004
		c-7.998-7.998-395.996-15-1197.998-20c-442.998-4.004-924.004-9.004-1070-12.002c-355-7.998-347.998-7.998-355.996-0.996
		c-8.008,8.994,91.992,145,116.992,158.994c11.006,5,19.004,16.006,19.004,23.008c0,13.994,92.998,105.996,107.998,105.996
		c5,0,22.998,22.002,40,49.004c16.006,26.992,42.998,56.992,59.004,66.992c32.998,22.002,82.998,66.006,170,151.006
		c33.994,33.994,90.996,82.998,125,108.994c65,49.004,165,148.008,230.996,228.008c21.006,25,72.002,68.994,114.004,96.992
		c42.002,28.008,113.994,90,162.002,138.008c46.992,46.992,118.994,111.992,158.994,143.994s95,86.006,122.998,121.006
		c27.002,35,70,76.992,94.004,93.994s70,64.004,102.002,104.004S5517.998,3115,5570,3165c52.002,49.004,120,115.996,150,147.002
		c30,30.996,74.004,72.002,97.002,90c95,75.996,422.998,380,440.996,410c12.002,17.998,52.998,62.002,92.998,97.998l73.008,65
		l245.996,5C6942.997,3985.996,6997.001,3985,7254.999,3975z M3357.998,2545c11.006-14.004,24.004-25,29.004-25
		c10.996,0,63.994-55.996,227.002-237.998c60-67.002,112.998-122.002,116.992-122.002c13.008,0,69.004-92.002,69.004-114.004
		c0-10-14.004-35-30-55c-17.002-20-34.004-40-37.998-45.996c-5-5-21.006-20.996-37.998-35c-16.006-14.004-80-80-142.002-147.002
		c-66.006-70.996-125-125.996-142.002-132.002c-27.002-8.994-34.004-5.996-77.002,30c-52.998,43.008-50,40-145.996,151.006
		c-37.002,42.998-96.006,107.002-130,142.002c-77.002,80-140,153.994-156.001,183.994c-11.001,20-7.002,27.998,30,72.002
		c22.998,27.998,46.001,50,51.001,50c3.999,0,78.994,70,165,155c85.996,85,163.994,155,173.994,155S3347.001,2559.003,3357.998,2545
		z"/>
</g>
<path fill="#9DABE2" d="M509,181"/>
<path fill="#9DABE2" d="M1021,650"/>
</svg>
