<?xml version="1.0" standalone="no"?>
<!DOCTYPE svg PUBLIC "-//W3C//DTD SVG 20010904//EN"
 "http://www.w3.org/TR/2001/REC-SVG-20010904/DTD/svg10.dtd">
<svg version="1.0" xmlns="http://www.w3.org/2000/svg"
 width="1113.000000pt" height="837.000000pt" viewBox="0 0 1113.000000 837.000000"
 preserveAspectRatio="xMidYMid meet">
<metadata>
Created by potrace 1.11, written by Peter Selinger 2001-2013
</metadata>
<g transform="translate(0.000000,837.000000) scale(0.100000,-0.100000)"
fill="#000000" stroke="none">
<path d="M3442 7355 c-37 -16 -152 -125 -152 -143 0 -7 -19 -24 -42 -39 -49
-32 -75 -58 -83 -84 -3 -9 -26 -29 -50 -44 -25 -14 -45 -32 -45 -40 0 -8 -3
-14 -7 -13 -5 1 -53 -43 -108 -98 -55 -55 -152 -150 -215 -211 -63 -61 -149
-147 -190 -191 -41 -44 -78 -78 -82 -76 -3 2 -15 -12 -27 -31 -11 -19 -24 -35
-29 -35 -5 0 -22 -19 -38 -42 -51 -76 -225 -234 -245 -222 -5 2 -11 -5 -14
-18 -7 -28 -125 -146 -177 -177 -21 -12 -41 -29 -45 -36 -5 -7 -35 -41 -67
-76 -33 -34 -72 -81 -87 -103 -35 -52 -78 -95 -170 -171 -40 -33 -104 -90
-143 -127 -39 -37 -81 -75 -93 -83 -13 -9 -23 -24 -23 -33 0 -9 -12 -29 -28
-44 -73 -73 -161 -153 -197 -180 -21 -16 -61 -48 -87 -71 -26 -23 -61 -52 -77
-64 -16 -13 -43 -44 -60 -70 -17 -26 -56 -69 -87 -96 -31 -28 -60 -61 -65 -74
-5 -13 -17 -26 -26 -30 -18 -7 -104 -80 -275 -237 -86 -78 -148 -157 -148
-189 0 -6 14 -38 31 -71 22 -44 49 -77 96 -116 36 -30 89 -77 118 -105 30 -27
73 -68 96 -90 24 -22 64 -56 89 -75 54 -41 470 -458 470 -471 0 -4 11 -14 25
-22 14 -7 58 -52 98 -99 40 -47 107 -116 150 -153 42 -36 77 -70 77 -74 0 -14
178 -190 208 -205 17 -9 41 -30 53 -48 13 -18 34 -44 46 -58 13 -14 23 -29 23
-35 0 -12 125 -141 158 -163 12 -8 22 -21 22 -28 0 -8 4 -14 9 -14 5 0 34 -22
64 -50 30 -27 59 -50 63 -50 10 0 123 -109 281 -271 104 -107 125 -125 156
-135 9 -4 17 -11 17 -18 0 -6 33 -43 72 -83 122 -121 172 -176 201 -220 15
-23 56 -68 90 -100 34 -32 76 -76 92 -98 52 -70 142 -165 156 -165 4 0 18 -17
31 -38 14 -20 45 -51 69 -67 24 -16 60 -44 81 -63 l36 -34 99 5 c54 3 134 11
178 17 80 11 175 15 605 25 269 6 209 6 1165 2 424 -2 781 1 794 5 13 5 28 5
33 0 10 -10 234 -6 403 7 66 5 131 9 145 9 14 1 70 3 125 7 122 7 101 6 275 5
489 -5 518 0 620 94 25 23 59 50 76 60 17 10 40 33 50 50 10 17 37 51 61 75
24 24 43 50 43 58 0 8 5 11 10 8 6 -3 10 0 10 9 0 8 17 32 38 54 118 124 252
274 252 285 0 4 6 7 13 7 7 0 20 8 29 18 9 9 28 25 42 35 14 10 26 27 26 37 0
11 6 20 13 20 7 0 29 18 48 41 19 22 49 47 67 54 17 8 32 18 32 24 0 5 30 35
68 67 37 31 76 70 88 85 11 16 24 26 27 22 4 -3 7 1 7 9 0 9 13 27 29 40 15
13 36 36 45 51 10 14 31 32 47 39 16 7 29 16 29 19 0 4 43 50 95 103 52 52 95
100 95 106 0 5 5 10 11 10 14 0 135 121 131 132 -1 5 2 7 6 4 10 -6 108 94
104 107 -1 4 14 15 33 23 19 8 35 18 35 22 0 8 15 23 118 119 28 28 52 55 52
62 0 7 4 10 8 7 5 -3 24 13 43 36 19 22 60 65 92 96 31 30 57 59 57 63 0 5 10
19 23 33 12 13 42 47 67 75 67 76 82 92 134 136 27 22 55 48 64 57 8 9 19 15
23 12 5 -2 15 8 23 23 8 15 35 46 60 68 105 91 154 142 170 172 8 17 29 42 45
55 32 24 101 111 101 125 0 5 19 25 43 45 46 38 61 72 73 165 6 49 5 54 -24
80 -16 15 -44 58 -61 94 -23 50 -44 77 -85 110 -30 24 -55 48 -56 52 -1 19
-166 187 -184 187 -6 0 -22 11 -36 23 -39 34 -186 219 -194 243 -6 20 -145
153 -191 184 -13 9 -34 27 -48 40 -13 14 -55 55 -93 92 -38 37 -85 85 -104
108 -19 22 -41 47 -47 54 -7 8 -27 23 -45 34 -55 35 -309 293 -356 362 -28 41
-108 118 -181 175 -28 22 -62 56 -76 75 -14 19 -50 58 -81 85 -31 28 -90 85
-132 128 -42 42 -117 118 -167 168 -49 50 -97 94 -106 98 -27 10 -217 192
-262 251 -23 30 -66 79 -95 109 -29 30 -59 69 -67 87 -7 18 -24 38 -37 45 -12
7 -70 58 -128 114 -101 97 -108 102 -180 123 -41 12 -93 24 -115 28 -22 4 -48
11 -57 15 -17 9 -196 10 -503 3 -99 -2 -207 -3 -240 -2 -87 2 -100 2 -200 -6
-49 -4 -164 -8 -255 -8 -97 0 -170 -4 -177 -10 -9 -7 -17 -7 -25 0 -8 6 -160
10 -408 11 -217 1 -444 4 -505 7 -60 3 -135 5 -165 4 -76 -2 -66 -2 -250 3
-91 3 -167 6 -170 7 -3 1 -8 2 -12 1 -10 -1 -599 -15 -628 -14 -130 2 -452 14
-480 18 -20 3 -50 -2 -68 -10z m1201 -415 c40 2 106 1 147 -1 41 -2 129 -3
195 -4 68 0 123 -4 127 -10 5 -7 8 -6 8 0 0 11 791 12 820 1 17 -6 541 -1 965
9 l290 7 -20 -23 c-11 -13 -54 -57 -95 -99 -41 -41 -91 -96 -111 -120 -48 -60
-128 -138 -233 -230 -47 -41 -102 -99 -122 -128 -20 -29 -57 -68 -83 -87 -25
-18 -153 -141 -284 -272 -130 -131 -261 -261 -290 -288 -28 -28 -61 -62 -72
-75 -11 -14 -56 -56 -99 -95 -43 -38 -97 -87 -118 -107 -37 -36 -88 -52 -88
-28 0 6 -5 10 -11 10 -14 0 -69 55 -69 69 0 6 -4 11 -10 11 -5 0 -26 17 -47
38 -63 61 -122 110 -141 117 -18 6 -112 90 -112 100 0 3 -22 29 -50 57 -27 28
-50 54 -50 59 0 4 -37 38 -82 74 -46 36 -87 70 -93 76 -5 6 -27 28 -49 48 -69
64 -200 195 -227 226 -14 17 -44 46 -65 65 -22 19 -71 69 -110 110 -86 90 -97
100 -152 134 -24 15 -45 33 -48 41 -3 8 -16 17 -27 21 -12 4 -36 22 -53 40
-17 19 -34 34 -38 34 -16 0 -184 166 -208 205 -5 8 90 12 300 13 168 1 308 4
310 7 3 2 9 2 14 -1 5 -3 41 -5 81 -4z m3052 -194 c50 -50 102 -104 116 -121
15 -16 60 -57 102 -90 41 -33 87 -79 102 -102 22 -34 81 -94 158 -161 4 -4 61
-62 127 -129 65 -68 132 -131 147 -140 16 -10 60 -52 98 -93 39 -41 85 -90
102 -108 18 -18 33 -36 33 -41 0 -4 26 -29 58 -54 31 -25 90 -77 130 -116 40
-39 77 -71 83 -71 11 0 279 -266 279 -278 0 -7 32 -40 218 -223 26 -25 59 -53
74 -62 14 -9 39 -35 55 -58 15 -23 65 -80 110 -127 45 -46 85 -93 88 -103 4
-11 10 -19 15 -19 11 0 82 -75 121 -129 43 -60 33 -74 -57 -83 -439 -44 -855
-58 -1394 -48 -102 2 -302 1 -445 -3 -154 -4 -361 -3 -505 4 -135 6 -281 13
-325 15 -44 2 -138 3 -210 2 -333 -3 -335 -3 -383 60 -13 16 -42 39 -65 51
-45 23 -127 92 -127 107 -1 11 -52 61 -100 96 -19 14 -67 57 -105 94 -39 38
-95 92 -126 121 -31 28 -59 58 -62 66 -3 8 -23 27 -44 43 -83 61 -84 82 -1
155 34 30 87 81 119 114 31 33 63 65 70 72 33 28 212 205 292 288 129 132 207
207 255 245 23 18 42 37 42 42 0 4 65 73 145 153 80 80 170 179 200 220 31 41
60 75 64 75 16 0 267 254 290 293 13 20 26 37 29 37 4 0 27 24 51 54 34 41 49
52 65 48 12 -3 62 -46 111 -96z m-4145 -50 c19 -13 46 -36 60 -51 14 -15 38
-33 53 -42 16 -8 46 -30 67 -49 21 -19 52 -45 69 -57 58 -42 197 -166 313
-279 64 -62 140 -134 170 -159 29 -26 78 -68 108 -94 78 -68 219 -214 246
-255 13 -19 50 -60 84 -90 33 -30 89 -82 124 -115 35 -33 73 -67 85 -75 11 -8
21 -18 21 -23 0 -10 41 -46 53 -47 9 0 13 -3 92 -70 118 -99 194 -175 195
-193 0 -18 -68 -90 -412 -438 -76 -76 -138 -142 -138 -147 0 -5 -44 -49 -97
-97 -54 -48 -134 -127 -178 -175 -74 -80 -149 -152 -430 -415 -59 -55 -128
-126 -153 -157 -24 -32 -69 -76 -98 -98 -30 -23 -66 -58 -80 -80 -14 -21 -52
-59 -84 -84 -32 -25 -84 -71 -116 -102 -31 -31 -70 -64 -85 -73 -16 -10 -38
-29 -49 -44 -34 -43 -63 -36 -133 33 -34 33 -65 60 -69 60 -4 0 -57 48 -118
107 -61 59 -122 116 -137 127 -84 66 -238 217 -308 301 -22 27 -58 67 -81 89
-22 23 -56 61 -75 86 -42 55 -100 113 -205 205 -43 38 -106 100 -139 137 -33
37 -112 114 -175 170 -63 56 -114 108 -114 115 1 7 -4 13 -12 13 -8 0 -14 7
-14 15 0 8 -5 15 -12 15 -6 0 -29 18 -51 40 -21 22 -52 47 -68 55 -16 9 -36
29 -44 45 -9 17 -20 30 -25 30 -20 0 -59 47 -57 71 2 27 110 139 134 139 8 0
133 118 278 263 255 255 322 317 343 317 14 0 78 73 98 112 9 18 36 50 60 72
24 21 44 43 45 50 0 6 27 33 60 59 38 31 59 56 59 69 0 12 3 19 6 15 4 -3 36
24 71 61 36 37 79 82 97 99 17 18 34 33 39 33 4 0 7 4 7 10 0 5 10 20 23 34
12 13 31 36 42 50 11 14 24 26 29 26 5 0 28 17 51 38 84 73 134 112 144 112 5
0 43 36 83 80 40 45 89 90 108 102 19 12 51 35 70 53 19 17 46 38 60 47 23 15
27 14 50 -4 14 -10 41 -29 60 -42z m2174 -1985 c186 -183 260 -254 324 -309
29 -25 66 -62 82 -82 l29 -37 -62 -68 c-34 -38 -89 -93 -122 -124 -32 -31 -86
-85 -120 -121 -33 -36 -85 -91 -115 -122 -30 -31 -60 -62 -66 -70 -7 -7 -38
-31 -69 -53 -32 -22 -106 -89 -164 -150 -58 -60 -135 -138 -171 -172 -137
-131 -173 -169 -183 -190 -6 -13 -15 -23 -20 -23 -6 0 -31 -19 -55 -42 -25
-24 -61 -58 -80 -75 -19 -18 -35 -33 -37 -33 -2 0 -25 -22 -51 -49 -27 -28
-80 -80 -119 -118 -38 -37 -102 -100 -141 -140 -39 -39 -85 -80 -102 -90 -49
-30 -122 -96 -122 -110 0 -7 -4 -13 -10 -13 -5 0 -27 -17 -48 -37 -20 -21 -64
-61 -98 -90 -48 -42 -64 -51 -84 -46 -31 8 -110 62 -110 75 0 13 -206 218
-220 218 -5 0 -10 4 -10 10 0 5 -27 38 -60 72 -33 35 -62 70 -65 80 -3 9 -17
23 -30 32 -14 10 -25 26 -25 39 0 26 96 128 175 187 30 22 55 44 55 48 0 6
107 118 142 148 7 7 48 48 92 92 43 44 91 86 107 92 16 7 29 17 29 22 0 12
108 126 200 212 77 72 177 172 206 207 11 13 36 38 55 54 49 44 159 165 159
176 0 5 6 9 13 9 7 0 69 59 137 132 69 73 135 141 148 153 37 32 384 380 414
414 15 17 33 31 39 31 7 0 76 -63 153 -139z m-4405 -200 c31 -31 71 -69 90
-84 19 -15 92 -83 163 -150 70 -67 136 -126 147 -132 30 -16 83 -67 129 -123
24 -28 50 -52 58 -52 8 0 14 -4 14 -8 0 -4 18 -28 41 -52 22 -25 59 -66 82
-92 63 -71 118 -128 124 -128 3 0 26 -23 52 -52 77 -86 355 -360 417 -411 33
-27 76 -70 98 -95 21 -26 55 -58 76 -72 64 -43 200 -186 200 -211 0 -21 -138
-162 -240 -245 -19 -16 -66 -57 -105 -91 -38 -35 -75 -63 -81 -63 -7 0 -41 28
-76 63 -35 34 -121 117 -191 183 -70 67 -127 125 -127 129 0 5 -57 66 -127
136 -71 70 -137 138 -148 151 -11 13 -42 41 -70 63 -27 22 -129 119 -227 215
-97 96 -230 227 -297 290 -66 63 -142 140 -169 170 -49 57 -199 201 -291 280
l-52 45 50 47 c27 25 62 65 77 87 15 23 32 41 39 41 7 0 30 19 51 43 21 23 74
74 118 113 59 53 85 70 100 66 11 -3 45 -31 75 -61z m5936 -536 c181 -7 891
-11 1385 -8 146 1 371 2 500 2 190 1 367 6 500 13 8 0 36 -2 63 -6 26 -3 47
-2 47 2 0 5 26 7 58 4 58 -5 81 -5 142 0 44 4 50 -18 15 -58 -15 -16 -41 -51
-60 -79 -18 -27 -56 -75 -84 -105 -29 -30 -59 -70 -68 -88 -9 -18 -45 -56 -81
-85 -80 -63 -366 -349 -389 -388 -10 -16 -20 -29 -23 -29 -3 0 -31 -22 -61
-50 -29 -27 -57 -50 -61 -50 -4 0 -21 -20 -38 -45 -28 -40 -247 -265 -258
-265 -10 0 -162 -159 -162 -169 0 -6 -16 -21 -34 -33 -19 -13 -37 -30 -39 -40
-3 -9 -30 -33 -61 -53 -30 -21 -58 -45 -61 -54 -3 -9 -22 -29 -42 -46 -30 -24
-220 -212 -253 -250 -23 -26 -120 -124 -165 -166 -27 -26 -61 -58 -74 -72 -76
-78 -155 -158 -197 -198 -27 -26 -59 -57 -71 -70 -66 -72 -81 -82 -149 -95
-38 -7 -115 -13 -170 -14 -56 0 -146 -4 -200 -10 -55 -5 -200 -12 -324 -15
-124 -4 -259 -10 -300 -14 -41 -4 -85 -4 -96 0 -12 4 -24 6 -26 4 -8 -8 -396
-15 -1198 -20 -443 -4 -924 -9 -1070 -12 -355 -8 -348 -8 -356 -1 -8 9 92 145
117 159 11 5 19 16 19 23 0 14 93 106 108 106 5 0 23 22 40 49 16 27 43 57 59
67 33 22 83 66 170 151 34 34 91 83 125 109 65 49 165 148 231 228 21 25 72
69 114 97 42 28 114 90 162 138 47 47 119 112 159 144 40 32 95 86 123 121 27
35 70 77 94 94 24 17 70 64 102 104 32 40 101 113 153 163 52 49 120 116 150
147 30 31 74 72 97 90 95 76 423 380 441 410 12 18 53 62 93 98 l73 65 246 5
c273 6 327 5 585 -5z m-3897 -1430 c11 -14 24 -25 29 -25 11 0 64 -56 227
-238 60 -67 113 -122 117 -122 13 0 69 -92 69 -114 0 -10 -14 -35 -30 -55 -17
-20 -34 -40 -38 -46 -5 -5 -21 -21 -38 -35 -16 -14 -80 -80 -142 -147 -66 -71
-125 -126 -142 -132 -27 -9 -34 -6 -77 30 -53 43 -50 40 -146 151 -37 43 -96
107 -130 142 -77 80 -140 154 -156 184 -11 20 -7 28 30 72 23 28 46 50 51 50
4 0 79 70 165 155 86 85 164 155 174 155 10 0 26 -11 37 -25z"/>
</g>
</svg>
