<?xml version="1.0" encoding="utf-8"?>
<!-- Generator: Adobe Illustrator 15.0.0, SVG Export Plug-In  -->
<!DOCTYPE svg PUBLIC "-//W3C//DTD SVG 1.1//EN" "http://www.w3.org/Graphics/SVG/1.1/DTD/svg11.dtd">
<svg version="1.1"
     xmlns="http://www.w3.org/2000/svg" xmlns:xlink="http://www.w3.org/1999/xlink" xmlns:a="http://ns.adobe.com/AdobeSVGViewerExtensions/3.0/"
     x="0px" y="0px" width="371px" height="65px" viewBox="-0.75 -0.338 371 65"
     overflow="visible" enable-background="new -0.75 -0.338 371 65" xml:space="preserve">
  <defs>
    <style type="text/css">
      @font-face {
      font-family: 'ComfortaaBold';
      src: url('fonts/comfortaa/comfortaa_bold-webfont.eot');
      src: url('fonts/comfortaa/comfortaa_bold-webfont.eot?#iefix') format('embedded-opentype'),
           url('fonts/comfortaa/comfortaa_bold-webfont.woff') format('woff'),
           url('fonts/comfortaa/comfortaa_bold-webfont.ttf') format('truetype'),
           url('fonts/comfortaa/comfortaa_bold-webfont.svg#comfortaabold') format('svg');
      font-weight: normal;
      font-style: normal;
      }
      @font-face {
      font-family: 'ComfortaaRegular';
      src: url('fonts/comfortaa/comfortaa_regular-webfont.eot');
      src: url('fonts/comfortaa/comfortaa_regular-webfont.eot?#iefix') format('embedded-opentype'),
           url('fonts/comfortaa/comfortaa_regular-webfont.woff') format('woff'),
           url('fonts/comfortaa/comfortaa_regular-webfont.ttf') format('truetype'),
           url('fonts/comfortaa/comfortaa_regular-webfont.svg#comfortaaregular') format('svg');
      font-weight: normal;
      font-style: normal;
      }
      @font-face {
      font-family: 'ComfortaaThin';
      src: url('fonts/comfortaa/comfortaa_thin-webfont.eot');
      src: url('fonts/comfortaa/comfortaa_thin-webfont.eot?#iefix') format('embedded-opentype'),
           url('fonts/comfortaa/comfortaa_thin-webfont.woff') format('woff'),
           url('fonts/comfortaa/comfortaa_thin-webfont.ttf') format('truetype'),
           url('fonts/comfortaa/comfortaa_thin-webfont.svg#comfortaathin') format('svg');
      font-weight: normal;
      font-style: normal;
      }
    </style>
  </defs>
  <polyline fill="#4C5CC5" points="169.104,49.054 196.744,49.054 197.207,49.054 214.533,30.307 189.934,30.307 "/>
  <polyline fill="#4C5CC5" points="169.893,11.096 182.887,23.594 195.022,12.154 "/>
  <path d="M168.852,9.343c-0.244,0.106-1.004,0.827-1.004,0.945c0,0.047-0.126,0.16-0.279,0.259c-0.324,0.211-0.496,0.384-0.548,0.556
	   c-0.021,0.059-0.173,0.192-0.331,0.291c-0.165,0.092-0.297,0.211-0.297,0.264c0,0.052-0.021,0.092-0.047,0.085
	   c-0.033-0.005-0.35,0.285-0.714,0.649c-0.363,0.363-1.005,0.992-1.421,1.396c-0.418,0.402-0.985,0.971-1.256,1.262
	   c-0.272,0.292-0.517,0.517-0.543,0.503c-0.02-0.012-0.099,0.08-0.178,0.206c-0.073,0.125-0.16,0.232-0.193,0.232
	   c-0.033,0-0.145,0.125-0.251,0.278c-0.337,0.501-1.488,1.547-1.62,1.467c-0.033-0.012-0.072,0.033-0.092,0.12
	   c-0.047,0.185-0.827,0.964-1.171,1.169c-0.139,0.08-0.271,0.192-0.297,0.239c-0.034,0.046-0.232,0.271-0.442,0.502
	   c-0.219,0.225-0.477,0.536-0.576,0.681c-0.231,0.344-0.515,0.628-1.125,1.131c-0.265,0.217-0.687,0.596-0.944,0.84
	   c-0.259,0.243-0.536,0.496-0.616,0.548c-0.085,0.059-0.152,0.158-0.152,0.218c0,0.06-0.08,0.193-0.186,0.292
	   c-0.483,0.482-1.064,1.012-1.302,1.19c-0.139,0.105-0.404,0.317-0.576,0.468c-0.172,0.153-0.404,0.345-0.508,0.425
	   c-0.106,0.086-0.285,0.291-0.396,0.463c-0.114,0.17-0.371,0.456-0.577,0.634c-0.205,0.186-0.396,0.404-0.43,0.49
	   c-0.033,0.086-0.113,0.171-0.172,0.199c-0.118,0.045-0.688,0.529-1.818,1.567c-0.569,0.516-0.979,1.036-0.979,1.248
	   c0,0.042,0.092,0.253,0.206,0.472c0.145,0.289,0.324,0.508,0.634,0.768c0.238,0.197,0.589,0.508,0.781,0.693
	   c0.198,0.178,0.482,0.449,0.635,0.596c0.159,0.145,0.423,0.369,0.588,0.495c0.356,0.271,3.108,3.028,3.108,3.114
	   c0,0.027,0.073,0.094,0.165,0.145c0.092,0.047,0.384,0.346,0.648,0.656c0.265,0.312,0.708,0.766,0.992,1.012
	   c0.278,0.238,0.509,0.463,0.509,0.489c0,0.091,1.177,1.257,1.375,1.355c0.112,0.058,0.271,0.199,0.351,0.317
	   c0.085,0.119,0.225,0.289,0.303,0.385c0.087,0.092,0.153,0.191,0.153,0.23c0,0.078,0.827,0.932,1.044,1.076
	   c0.08,0.055,0.146,0.141,0.146,0.186c0,0.055,0.026,0.094,0.059,0.094c0.033,0,0.225,0.146,0.423,0.331
	   c0.198,0.179,0.39,0.331,0.417,0.331c0.066,0,0.812,0.721,1.857,1.791c0.689,0.707,0.827,0.826,1.032,0.893
	   c0.059,0.027,0.113,0.073,0.113,0.121c0,0.038,0.218,0.283,0.476,0.547c0.807,0.799,1.137,1.164,1.329,1.455
	   c0.099,0.152,0.371,0.45,0.595,0.662c0.225,0.211,0.502,0.5,0.609,0.647c0.343,0.464,0.938,1.092,1.032,1.092
	   c0.026,0,0.119,0.11,0.204,0.249c0.094,0.133,0.298,0.34,0.457,0.445c0.159,0.105,0.397,0.291,0.535,0.414l0.238,0.227l0.655-0.033
	   c0.358-0.02,0.887-0.073,1.178-0.111c0.529-0.072,1.157-0.1,4.001-0.166c1.778-0.039,1.381-0.039,7.704-0.014
	   c2.803,0.014,5.165-0.006,5.251-0.033c0.085-0.033,0.186-0.033,0.219,0c0.065,0.065,1.547,0.041,2.664-0.047
	   c0.438-0.033,0.867-0.058,0.958-0.058c0.093-0.008,0.464-0.02,0.827-0.046c0.808-0.049,0.67-0.041,1.818-0.033
	   c3.234,0.033,3.428,0,4.1-0.623c0.166-0.152,0.391-0.33,0.505-0.397c0.112-0.066,0.265-0.218,0.331-0.331
	   c0.065-0.111,0.243-0.335,0.402-0.496c0.159-0.158,0.283-0.33,0.283-0.383c0-0.052,0.033-0.072,0.066-0.052
	   c0.041,0.019,0.065,0,0.065-0.061c0-0.054,0.113-0.21,0.253-0.356c0.781-0.821,1.666-1.812,1.666-1.885
	   c0-0.027,0.04-0.045,0.086-0.045c0.045,0,0.132-0.055,0.191-0.121c0.061-0.059,0.184-0.164,0.277-0.231
	   c0.094-0.065,0.172-0.178,0.172-0.243c0-0.072,0.041-0.133,0.087-0.133s0.191-0.119,0.317-0.271
	   c0.125-0.146,0.322-0.312,0.443-0.356c0.111-0.055,0.21-0.121,0.21-0.161c0-0.032,0.199-0.231,0.452-0.442
	   c0.242-0.205,0.501-0.463,0.581-0.561c0.073-0.109,0.157-0.174,0.179-0.147c0.025,0.021,0.045-0.007,0.045-0.06
	   c0-0.059,0.087-0.178,0.191-0.266c0.1-0.084,0.238-0.235,0.298-0.336c0.066-0.093,0.204-0.211,0.313-0.258
	   c0.104-0.046,0.189-0.105,0.189-0.125c0-0.026,0.285-0.33,0.628-0.683c0.345-0.343,0.628-0.661,0.628-0.699
	   c0-0.034,0.033-0.066,0.074-0.066c0.091,0,0.893-0.8,0.866-0.874c-0.006-0.033,0.013-0.047,0.04-0.025
	   c0.066,0.039,0.714-0.621,0.688-0.707c-0.006-0.027,0.094-0.1,0.217-0.152c0.126-0.055,0.231-0.121,0.231-0.146
	   c0-0.052,0.1-0.15,0.782-0.787c0.186-0.184,0.342-0.363,0.342-0.409s0.027-0.067,0.055-0.046c0.033,0.019,0.157-0.088,0.285-0.239
	   c0.123-0.146,0.396-0.431,0.607-0.634c0.204-0.199,0.375-0.393,0.375-0.416c0-0.034,0.067-0.126,0.154-0.22
	   c0.077-0.087,0.276-0.31,0.441-0.496c0.443-0.501,0.543-0.606,0.887-0.897c0.18-0.147,0.363-0.318,0.424-0.379
	   c0.054-0.059,0.125-0.1,0.152-0.08c0.033,0.014,0.1-0.053,0.15-0.152c0.054-0.099,0.232-0.302,0.396-0.447
	   c0.695-0.602,1.021-0.941,1.125-1.139c0.053-0.111,0.192-0.278,0.298-0.364c0.214-0.157,0.668-0.733,0.668-0.827
	   c0-0.032,0.126-0.165,0.285-0.297c0.303-0.25,0.402-0.477,0.483-1.091c0.037-0.323,0.033-0.356-0.16-0.53
	   c-0.105-0.098-0.289-0.381-0.401-0.619c-0.153-0.33-0.292-0.509-0.563-0.728c-0.197-0.159-0.363-0.317-0.371-0.344
	   c-0.008-0.127-1.098-1.237-1.216-1.237c-0.04,0-0.147-0.073-0.239-0.152c-0.256-0.226-1.23-1.45-1.281-1.607
	   c-0.042-0.133-0.959-1.012-1.265-1.216c-0.087-0.06-0.224-0.18-0.316-0.265c-0.087-0.093-0.364-0.364-0.616-0.609
	   c-0.25-0.244-0.561-0.562-0.688-0.713c-0.124-0.146-0.271-0.312-0.31-0.357c-0.046-0.054-0.179-0.153-0.297-0.225
	   c-0.364-0.232-2.046-1.938-2.355-2.394c-0.186-0.272-0.716-0.78-1.196-1.157c-0.186-0.146-0.411-0.371-0.504-0.496
	   c-0.092-0.125-0.331-0.383-0.535-0.562c-0.205-0.185-0.596-0.562-0.873-0.847c-0.278-0.278-0.773-0.781-1.104-1.112
	   c-0.323-0.331-0.64-0.621-0.701-0.647c-0.179-0.066-1.435-1.271-1.731-1.66c-0.152-0.198-0.436-0.522-0.629-0.721
	   c-0.191-0.198-0.391-0.456-0.444-0.576c-0.044-0.119-0.157-0.251-0.243-0.298c-0.078-0.045-0.463-0.383-0.848-0.753
	   c-0.667-0.643-0.713-0.675-1.189-0.813c-0.271-0.08-0.614-0.16-0.762-0.187c-0.144-0.025-0.316-0.073-0.375-0.099
	   c-0.111-0.059-1.297-0.066-3.327-0.019c-0.653,0.012-1.367,0.019-1.588,0.012c-0.574-0.012-0.661-0.012-1.322,0.04
	   c-0.322,0.026-1.083,0.054-1.687,0.054c-0.64,0-1.124,0.026-1.17,0.066c-0.06,0.045-0.111,0.045-0.164,0
	   c-0.055-0.04-1.058-0.066-2.699-0.073c-1.435-0.006-2.935-0.026-3.339-0.047c-0.397-0.02-0.893-0.033-1.091-0.026
	   c-0.504,0.013-0.438,0.013-1.653-0.02c-0.603-0.021-1.105-0.04-1.125-0.046c-0.021-0.007-0.054-0.014-0.08-0.007
	   c-0.066,0.007-3.961,0.099-4.152,0.092c-0.86-0.013-2.99-0.092-3.175-0.118C169.17,9.258,168.971,9.291,168.852,9.343z
	   M176.794,12.088c0.265-0.014,0.701-0.008,0.973,0.006c0.271,0.013,0.853,0.02,1.29,0.027c0.449,0,0.813,0.025,0.839,0.066
	   c0.033,0.046,0.054,0.04,0.054,0c0-0.073,5.232-0.08,5.421-0.007c0.114,0.04,3.579,0.007,6.382-0.059l1.917-0.047l-0.132,0.153
	   c-0.072,0.085-0.355,0.376-0.628,0.655c-0.271,0.271-0.601,0.635-0.733,0.793c-0.316,0.397-0.846,0.912-1.539,1.521
	   c-0.312,0.271-0.676,0.654-0.809,0.845c-0.133,0.193-0.376,0.451-0.549,0.577c-0.164,0.118-1.011,0.932-1.878,1.799
	   c-0.859,0.865-1.725,1.725-1.917,1.904c-0.186,0.184-0.403,0.41-0.478,0.496c-0.073,0.092-0.37,0.37-0.653,0.628
	   c-0.285,0.25-0.643,0.575-0.779,0.708c-0.246,0.237-0.583,0.343-0.583,0.185c0-0.041-0.033-0.066-0.073-0.066
	   c-0.092,0-0.456-0.364-0.456-0.457c0-0.04-0.026-0.073-0.066-0.073c-0.034,0-0.173-0.113-0.312-0.25
	   c-0.416-0.404-0.806-0.728-0.933-0.774c-0.119-0.041-0.739-0.595-0.739-0.662c0-0.02-0.146-0.192-0.331-0.378
	   c-0.179-0.184-0.331-0.356-0.331-0.39c0-0.026-0.245-0.251-0.542-0.489c-0.305-0.239-0.575-0.463-0.615-0.503
	   c-0.033-0.04-0.179-0.185-0.324-0.317c-0.458-0.423-1.323-1.289-1.502-1.494c-0.092-0.113-0.291-0.305-0.43-0.43
	   c-0.146-0.126-0.469-0.457-0.727-0.728c-0.568-0.595-0.642-0.661-1.005-0.886c-0.159-0.099-0.298-0.219-0.317-0.271
	   c-0.019-0.053-0.106-0.114-0.179-0.14c-0.078-0.025-0.237-0.145-0.351-0.265c-0.112-0.125-0.224-0.224-0.25-0.224
	   c-0.105,0-1.217-1.098-1.376-1.355c-0.033-0.053,0.596-0.08,1.984-0.086c1.112-0.007,2.038-0.027,2.05-0.046
	   c0.021-0.014,0.06-0.014,0.093,0.007C176.291,12.08,176.53,12.094,176.794,12.088z M196.976,13.37
	   c0.331,0.331,0.676,0.687,0.77,0.801c0.099,0.105,0.396,0.377,0.674,0.595c0.271,0.217,0.574,0.521,0.674,0.675
	   c0.146,0.224,0.536,0.621,1.046,1.063c0.025,0.027,0.402,0.411,0.838,0.854c0.431,0.45,0.873,0.865,0.973,0.926
	   c0.107,0.066,0.398,0.343,0.647,0.615c0.259,0.271,0.562,0.595,0.676,0.713c0.118,0.12,0.218,0.238,0.218,0.271
	   c0,0.026,0.174,0.191,0.385,0.357c0.203,0.165,0.596,0.51,0.859,0.767c0.265,0.257,0.508,0.47,0.55,0.47
	   c0.071,0,1.843,1.759,1.843,1.837c0,0.047,0.213,0.264,1.442,1.476c0.171,0.166,0.391,0.35,0.489,0.409
	   c0.094,0.061,0.26,0.231,0.363,0.384c0.099,0.152,0.43,0.529,0.727,0.839c0.299,0.304,0.563,0.616,0.582,0.682
	   c0.027,0.073,0.066,0.125,0.1,0.125c0.075,0,0.543,0.496,0.803,0.852c0.281,0.398,0.216,0.489-0.379,0.55
	   c-2.902,0.29-5.654,0.383-9.219,0.318c-0.674-0.015-1.996-0.007-2.942,0.018c-1.017,0.027-2.388,0.02-3.341-0.024
	   c-0.892-0.041-1.856-0.087-2.148-0.099c-0.289-0.014-0.912-0.021-1.389-0.014c-2.202,0.02-2.216,0.02-2.533-0.397
	   c-0.084-0.107-0.277-0.259-0.429-0.337c-0.298-0.153-0.841-0.609-0.841-0.708c-0.006-0.073-0.343-0.404-0.66-0.635
	   c-0.125-0.092-0.442-0.376-0.695-0.622c-0.256-0.25-0.628-0.607-0.833-0.8c-0.204-0.184-0.391-0.383-0.409-0.436
	   c-0.021-0.054-0.152-0.179-0.291-0.285c-0.55-0.404-0.556-0.542-0.006-1.025c0.225-0.199,0.574-0.536,0.787-0.753
	   c0.204-0.219,0.415-0.43,0.463-0.477c0.217-0.184,1.401-1.356,1.93-1.904c0.854-0.874,1.369-1.37,1.687-1.62
	   c0.153-0.119,0.276-0.246,0.276-0.279c0-0.026,0.431-0.482,0.959-1.011c0.53-0.529,1.125-1.184,1.322-1.455
	   c0.207-0.271,0.396-0.496,0.424-0.496c0.106,0,1.768-1.68,1.918-1.938c0.086-0.132,0.172-0.245,0.193-0.245
	   c0.025,0,0.176-0.159,0.336-0.357c0.225-0.271,0.326-0.345,0.43-0.318C196.322,12.755,196.654,13.04,196.976,13.37z M169.567,13.701
	   c0.125,0.087,0.304,0.239,0.396,0.338c0.092,0.099,0.251,0.217,0.35,0.278c0.105,0.053,0.304,0.198,0.443,0.324
	   c0.139,0.126,0.343,0.297,0.456,0.376c0.384,0.278,1.304,1.098,2.07,1.846c0.424,0.409,0.926,0.886,1.125,1.051
	   c0.193,0.172,0.516,0.449,0.715,0.622c0.515,0.449,1.447,1.415,1.627,1.686c0.085,0.125,0.331,0.397,0.555,0.595
	   c0.218,0.199,0.588,0.542,0.819,0.76c0.231,0.217,0.482,0.443,0.562,0.496c0.074,0.052,0.14,0.118,0.14,0.151
	   c0,0.066,0.271,0.304,0.35,0.312c0.059,0,0.086,0.019,0.609,0.463c0.779,0.654,1.282,1.158,1.29,1.275
	   c0,0.12-0.451,0.595-2.725,2.897c-0.503,0.503-0.912,0.938-0.912,0.972c0,0.033-0.291,0.325-0.642,0.642
	   c-0.357,0.315-0.886,0.84-1.176,1.158c-0.489,0.528-0.985,1.004-2.844,2.744c-0.39,0.363-0.847,0.832-1.012,1.037
	   c-0.159,0.212-0.457,0.502-0.648,0.648c-0.198,0.151-0.436,0.383-0.529,0.529c-0.092,0.139-0.344,0.39-0.555,0.557
	   c-0.212,0.164-0.555,0.469-0.768,0.672c-0.205,0.205-0.463,0.425-0.562,0.484c-0.105,0.066-0.25,0.189-0.323,0.289
	   c-0.225,0.285-0.417,0.24-0.88-0.217c-0.225-0.218-0.43-0.396-0.456-0.396s-0.376-0.318-0.78-0.709
	   c-0.404-0.389-0.807-0.766-0.907-0.839c-0.555-0.437-1.573-1.435-2.036-1.989c-0.146-0.181-0.384-0.445-0.537-0.59
	   c-0.146-0.153-0.37-0.402-0.496-0.568c-0.278-0.364-0.662-0.747-1.355-1.355c-0.284-0.252-0.701-0.662-0.918-0.908
	   c-0.219-0.242-0.741-0.751-1.157-1.123c-0.418-0.369-0.754-0.713-0.754-0.761c0.005-0.045-0.027-0.085-0.08-0.085
	   c-0.052,0-0.092-0.047-0.092-0.099c0-0.053-0.034-0.099-0.08-0.099c-0.04,0-0.192-0.119-0.338-0.264
	   c-0.138-0.146-0.343-0.312-0.449-0.364c-0.105-0.059-0.238-0.192-0.29-0.297c-0.06-0.113-0.133-0.198-0.166-0.198
	   c-0.132,0-0.39-0.312-0.377-0.47c0.014-0.178,0.728-0.918,0.886-0.918c0.054,0,0.88-0.78,1.839-1.739
	   c1.687-1.686,2.128-2.096,2.268-2.096c0.092,0,0.517-0.482,0.649-0.742c0.059-0.118,0.237-0.331,0.396-0.475
	   c0.159-0.139,0.291-0.285,0.298-0.331c0-0.04,0.178-0.219,0.397-0.39c0.25-0.205,0.39-0.371,0.39-0.458
	   c0-0.078,0.019-0.125,0.04-0.099c0.026,0.021,0.237-0.158,0.468-0.402c0.238-0.245,0.523-0.542,0.642-0.656
	   c0.113-0.118,0.225-0.217,0.258-0.217c0.026,0,0.047-0.027,0.047-0.066c0-0.033,0.066-0.132,0.152-0.225
	   c0.08-0.087,0.205-0.238,0.278-0.331c0.073-0.092,0.158-0.171,0.191-0.171s0.185-0.114,0.338-0.251
	   c0.554-0.483,0.885-0.74,0.951-0.74c0.033,0,0.284-0.239,0.549-0.529c0.264-0.297,0.589-0.595,0.715-0.676
	   c0.125-0.078,0.338-0.231,0.463-0.349c0.125-0.113,0.305-0.251,0.397-0.312c0.151-0.099,0.177-0.092,0.331,0.028
	   C169.262,13.49,169.441,13.615,169.567,13.701z M183.942,26.827c1.229,1.211,1.72,1.68,2.144,2.042
	   c0.191,0.166,0.436,0.412,0.541,0.545l0.191,0.244l-0.408,0.449c-0.225,0.25-0.588,0.613-0.809,0.82
	   c-0.21,0.205-0.568,0.562-0.793,0.801c-0.218,0.236-0.562,0.601-0.762,0.807c-0.197,0.203-0.396,0.41-0.436,0.462
	   c-0.045,0.048-0.249,0.204-0.455,0.352c-0.212,0.146-0.702,0.588-1.084,0.992c-0.384,0.396-0.893,0.911-1.131,1.137
	   c-0.907,0.864-1.145,1.116-1.211,1.256c-0.039,0.087-0.099,0.153-0.133,0.153c-0.038,0-0.203,0.125-0.363,0.277
	   c-0.166,0.157-0.402,0.384-0.529,0.494c-0.125,0.121-0.231,0.221-0.244,0.221c-0.014,0-0.166,0.145-0.338,0.323
	   c-0.179,0.185-0.529,0.53-0.786,0.779c-0.252,0.245-0.675,0.661-0.933,0.927c-0.257,0.256-0.562,0.529-0.675,0.595
	   c-0.324,0.198-0.806,0.634-0.806,0.728c0,0.046-0.026,0.087-0.065,0.087c-0.034,0-0.18,0.112-0.319,0.243
	   c-0.132,0.139-0.423,0.402-0.647,0.596c-0.317,0.278-0.423,0.336-0.555,0.304c-0.206-0.052-0.728-0.41-0.728-0.497
	   c0-0.084-1.363-1.439-1.455-1.439c-0.033,0-0.066-0.027-0.066-0.066c0-0.033-0.179-0.252-0.396-0.479
	   c-0.219-0.23-0.411-0.461-0.43-0.528c-0.021-0.058-0.113-0.149-0.198-0.212c-0.092-0.065-0.166-0.17-0.166-0.257
	   c0-0.173,0.635-0.845,1.157-1.235c0.198-0.147,0.364-0.293,0.364-0.317c0-0.04,0.707-0.781,0.938-0.979
	   c0.046-0.048,0.318-0.319,0.609-0.608c0.284-0.293,0.602-0.57,0.708-0.609c0.105-0.047,0.192-0.113,0.192-0.146
	   c0-0.079,0.713-0.832,1.323-1.402c0.508-0.475,1.169-1.135,1.362-1.367c0.072-0.087,0.237-0.252,0.364-0.357
	   c0.323-0.291,1.051-1.091,1.051-1.162c0-0.034,0.04-0.061,0.085-0.061c0.047,0,0.456-0.391,0.907-0.875
	   c0.456-0.48,0.893-0.931,0.978-1.01c0.245-0.212,2.539-2.513,2.738-2.738c0.099-0.113,0.219-0.205,0.258-0.205
	   C182.978,25.909,183.434,26.325,183.942,26.827z M154.812,28.15c0.206,0.206,0.47,0.456,0.595,0.554
	   c0.126,0.1,0.609,0.55,1.078,0.992c0.462,0.444,0.899,0.835,0.972,0.874c0.198,0.105,0.549,0.443,0.854,0.812
	   c0.159,0.186,0.331,0.346,0.384,0.346c0.052,0,0.092,0.025,0.092,0.051c0,0.028,0.118,0.186,0.271,0.346
	   c0.145,0.165,0.39,0.436,0.542,0.607c0.417,0.469,0.781,0.848,0.819,0.848c0.021,0,0.173,0.15,0.344,0.344
	   c0.51,0.566,2.347,2.379,2.759,2.716c0.217,0.181,0.501,0.464,0.647,0.628c0.14,0.175,0.364,0.385,0.503,0.479
	   c0.422,0.282,1.323,1.229,1.323,1.395c0,0.139-0.913,1.07-1.587,1.619c-0.125,0.107-0.437,0.377-0.694,0.604
	   c-0.252,0.23-0.496,0.416-0.537,0.416c-0.046,0-0.271-0.186-0.502-0.416c-0.232-0.227-0.801-0.773-1.264-1.21
	   c-0.463-0.444-0.839-0.827-0.839-0.853c0-0.034-0.377-0.438-0.841-0.899c-0.47-0.464-0.905-0.915-0.978-1.001
	   c-0.074-0.084-0.279-0.27-0.463-0.414c-0.179-0.147-0.853-0.789-1.501-1.422c-0.641-0.636-1.521-1.504-1.963-1.919
	   c-0.437-0.417-0.94-0.925-1.119-1.124c-0.323-0.379-1.315-1.328-1.923-1.852l-0.345-0.297l0.331-0.313
	   c0.18-0.164,0.411-0.429,0.511-0.574c0.099-0.153,0.21-0.271,0.257-0.271c0.045,0,0.198-0.125,0.337-0.284
	   c0.138-0.151,0.489-0.49,0.779-0.748c0.391-0.35,0.562-0.462,0.661-0.437C154.39,27.767,154.614,27.951,154.812,28.15z
	   M194.066,31.695c1.199,0.046,5.894,0.072,9.158,0.051c0.969-0.005,2.456-0.012,3.307-0.012c1.257-0.006,2.429-0.039,3.307-0.087
	   c0.055,0,0.24,0.015,0.418,0.04c0.172,0.02,0.311,0.014,0.311-0.014c0-0.032,0.172-0.045,0.385-0.026
	   c0.383,0.032,0.534,0.032,0.938,0c0.291-0.025,0.33,0.12,0.1,0.384c-0.1,0.107-0.271,0.338-0.397,0.523
	   c-0.119,0.178-0.37,0.496-0.554,0.694c-0.193,0.198-0.391,0.464-0.451,0.58c-0.06,0.119-0.297,0.372-0.535,0.562
	   c-0.53,0.418-2.419,2.311-2.572,2.567c-0.065,0.106-0.133,0.192-0.153,0.192c-0.019,0-0.204,0.145-0.403,0.33
	   c-0.191,0.178-0.377,0.331-0.402,0.331c-0.027,0-0.139,0.132-0.252,0.298c-0.185,0.265-1.633,1.753-1.707,1.753
	   c-0.065,0-1.07,1.051-1.07,1.118c0,0.039-0.105,0.138-0.224,0.217c-0.127,0.087-0.247,0.199-0.259,0.266
	   c-0.021,0.057-0.199,0.218-0.402,0.35c-0.198,0.138-0.385,0.297-0.405,0.357c-0.02,0.059-0.144,0.19-0.276,0.304
	   c-0.198,0.159-1.454,1.401-1.675,1.653c-0.151,0.172-0.792,0.82-1.091,1.098c-0.178,0.172-0.402,0.385-0.486,0.475
	   c-0.506,0.517-1.026,1.045-1.306,1.311c-0.178,0.172-0.391,0.376-0.468,0.462c-0.438,0.476-0.537,0.542-0.986,0.628
	   c-0.25,0.047-0.761,0.088-1.125,0.094c-0.369,0-0.963,0.027-1.322,0.067c-0.364,0.032-1.322,0.079-2.143,0.099
	   c-0.818,0.027-1.712,0.066-1.984,0.093c-0.271,0.024-0.562,0.024-0.635,0c-0.078-0.026-0.158-0.04-0.17-0.026
	   c-0.055,0.051-2.619,0.099-7.923,0.133c-2.931,0.025-6.11,0.059-7.076,0.078c-2.348,0.053-2.302,0.053-2.355,0.006
	   c-0.052-0.059,0.609-0.959,0.775-1.05c0.071-0.034,0.125-0.107,0.125-0.153c0-0.092,0.614-0.701,0.713-0.701
	   c0.034,0,0.153-0.146,0.265-0.324c0.105-0.178,0.285-0.375,0.39-0.441c0.219-0.146,0.549-0.438,1.124-1.001
	   c0.226-0.222,0.602-0.548,0.827-0.72c0.43-0.322,1.091-0.979,1.528-1.508c0.139-0.166,0.477-0.457,0.753-0.641
	   c0.278-0.186,0.755-0.595,1.072-0.914c0.312-0.309,0.787-0.738,1.051-0.951c0.265-0.211,0.628-0.568,0.814-0.801
	   c0.178-0.232,0.463-0.508,0.622-0.621c0.158-0.111,0.462-0.424,0.673-0.688c0.211-0.265,0.668-0.745,1.013-1.076
	   c0.344-0.325,0.792-0.768,0.991-0.974c0.198-0.204,0.489-0.477,0.643-0.596c0.628-0.502,2.795-2.513,2.916-2.711
	   c0.078-0.117,0.352-0.41,0.616-0.646l0.48-0.43l1.627-0.033C192.004,31.622,192.361,31.629,194.066,31.695z M168.296,41.15
	   c0.073,0.094,0.159,0.167,0.191,0.167c0.073,0,0.424,0.369,1.501,1.571c0.396,0.445,0.747,0.809,0.774,0.809
	   c0.085,0,0.457,0.608,0.457,0.754c0,0.066-0.092,0.232-0.199,0.363c-0.113,0.133-0.224,0.266-0.252,0.305
	   c-0.033,0.033-0.138,0.138-0.251,0.231c-0.105,0.093-0.529,0.528-0.939,0.972c-0.435,0.469-0.827,0.832-0.938,0.873
	   c-0.179,0.059-0.224,0.041-0.509-0.197c-0.35-0.286-0.331-0.265-0.966-1c-0.244-0.283-0.634-0.707-0.86-0.939
	   c-0.508-0.529-0.926-1.018-1.03-1.217c-0.073-0.131-0.047-0.184,0.198-0.475c0.151-0.186,0.303-0.331,0.336-0.331
	   c0.027,0,0.523-0.463,1.091-1.024c0.569-0.562,1.086-1.025,1.151-1.025C168.119,40.986,168.224,41.059,168.296,41.15z"/>
  <text transform="matrix(1 0 0 1 0 51.7656)" font-family="ComfortaaRegular" font-size="60">B L U</text>
  <rect x="241.376" y="9.271" fill="none" width="148" height="71"/>
  <text transform="matrix(1 0 0 1 241.376 51.2109)" font-family="ComfortaaRegular" font-size="60">P E N</text>
</svg>
