<?xml version="1.0" encoding="utf-8"?>
<!-- Generator: Adobe Illustrator 15.0.0, SVG Export Plug-In  -->
<!DOCTYPE svg PUBLIC "-//W3C//DTD SVG 1.1//EN" "http://www.w3.org/Graphics/SVG/1.1/DTD/svg11.dtd" [
	<!ENTITY ns_flows "http://ns.adobe.com/Flows/1.0/">
]>
<svg version="1.1"
	 xmlns="http://www.w3.org/2000/svg" xmlns:xlink="http://www.w3.org/1999/xlink" xmlns:a="http://ns.adobe.com/AdobeSVGViewerExtensions/3.0/"
	 x="0px" y="0px" width="55px" height="55px" viewBox="-1 -1 55 55" overflow="visible" enable-background="new -1 -1 55 55"
	 xml:space="preserve">
<defs>
</defs>
<rect fill="#010101" width="54" height="54"/>
<path fill="#FFFFFF" d="M28.258,17.728v-7.41h-4.784c-0.107,0.274-0.164,0.6-0.164,0.934c-0.052,0.16-0.107,0.275-0.107,0.439
	c-0.492,2.743-1.921,4.664-4.339,5.71c-0.714,0.327-1.371,0.38-2.085,0.327v5.98h3.513c0.059,8.403,0.059,12.739,0.059,12.959
	c0,0.166,0,0.332,0,0.498c0.44,3.674,2.36,5.871,5.765,6.694c1.371,0.388,2.85,0.551,4.34,0.551c1.916-0.056,3.785-0.384,5.657-0.99
	v-7.026c-1.097,0.329-2.095,0.604-2.968,0.874c-1.702,0.499-3.129,0.17-4.286-0.929c-0.109-0.164-0.274-0.385-0.333-0.604
	c-0.157-0.879-0.267-1.808-0.267-2.692V23.71h7.625v-5.982H28.258z"/>
</svg>
