<?xml version="1.0" encoding="utf-8"?>
<!-- Generator: Adobe Illustrator 15.0.0, SVG Export Plug-In  -->
<!DOCTYPE svg PUBLIC "-//W3C//DTD SVG 1.1//EN" "http://www.w3.org/Graphics/SVG/1.1/DTD/svg11.dtd" [
	<!ENTITY ns_flows "http://ns.adobe.com/Flows/1.0/">
]>
<svg version="1.1"
	 xmlns="http://www.w3.org/2000/svg" xmlns:xlink="http://www.w3.org/1999/xlink" xmlns:a="http://ns.adobe.com/AdobeSVGViewerExtensions/3.0/"
	 x="0px" y="0px" width="368px" height="114px" viewBox="-0.546 -0.057 368 114"
	 overflow="visible" enable-background="new -0.546 -0.057 368 114" xml:space="preserve">
<defs>
</defs>
<circle fill="#515FAB" cx="56.669" cy="56.669" r="56.669"/>
<polyline fill="#717080" stroke="#FFFFFF" stroke-miterlimit="10" points="39.213,29.772 56.898,47.022 74.714,29.772 "/>
<polygon fill="#717080" stroke="#FFFFFF" stroke-miterlimit="10" points="65.714,56.646 37.713,82.771 77.213,84.022 
	103.964,55.522 "/>
<path fill="#FFFFFF" d="M37.609,26.852c-0.347,0.15-1.425,1.172-1.425,1.34c0,0.066-0.178,0.226-0.394,0.366
	c-0.459,0.299-0.703,0.543-0.778,0.788c-0.028,0.084-0.244,0.271-0.469,0.412c-0.234,0.131-0.422,0.3-0.422,0.375
	s-0.028,0.131-0.065,0.122c-0.047-0.009-0.497,0.404-1.013,0.919s-1.425,1.406-2.016,1.978c-0.59,0.571-1.397,1.377-1.781,1.79
	c-0.384,0.413-0.731,0.732-0.769,0.712c-0.028-0.018-0.141,0.113-0.253,0.291c-0.103,0.178-0.225,0.328-0.271,0.328
	s-0.207,0.178-0.356,0.394c-0.478,0.712-2.109,2.194-2.297,2.081c-0.047-0.018-0.103,0.047-0.131,0.169
	c-0.065,0.262-1.172,1.368-1.659,1.659c-0.197,0.113-0.384,0.272-0.422,0.338c-0.047,0.066-0.328,0.385-0.628,0.713
	c-0.309,0.318-0.675,0.759-0.815,0.965c-0.328,0.488-0.731,0.891-1.594,1.604c-0.375,0.309-0.975,0.844-1.341,1.191
	c-0.365,0.346-0.759,0.703-0.872,0.778c-0.122,0.084-0.216,0.225-0.216,0.309c0,0.085-0.112,0.272-0.262,0.413
	c-0.685,0.684-1.51,1.434-1.847,1.688c-0.197,0.149-0.572,0.45-0.815,0.665c-0.244,0.216-0.572,0.488-0.722,0.601
	c-0.15,0.122-0.403,0.413-0.562,0.656c-0.159,0.243-0.525,0.647-0.815,0.899c-0.291,0.263-0.562,0.572-0.609,0.694
	c-0.047,0.122-0.159,0.243-0.244,0.281c-0.169,0.065-0.975,0.75-2.578,2.221c-0.806,0.732-1.388,1.473-1.388,1.772
	c0,0.056,0.131,0.357,0.291,0.666c0.207,0.413,0.459,0.723,0.9,1.088c0.337,0.281,0.834,0.723,1.106,0.984
	c0.281,0.254,0.685,0.637,0.9,0.844c0.225,0.207,0.6,0.525,0.834,0.703c0.506,0.385,4.406,4.293,4.406,4.416
	c0,0.037,0.103,0.131,0.234,0.205c0.131,0.066,0.544,0.488,0.919,0.93c0.375,0.439,1.003,1.086,1.406,1.434
	c0.394,0.338,0.722,0.656,0.722,0.693c0,0.131,1.669,1.781,1.95,1.922c0.159,0.084,0.384,0.281,0.497,0.451
	c0.122,0.168,0.319,0.412,0.432,0.543c0.122,0.131,0.215,0.271,0.215,0.328c0,0.113,1.172,1.322,1.481,1.527
	c0.112,0.076,0.206,0.197,0.206,0.264c0,0.074,0.038,0.131,0.084,0.131s0.319,0.207,0.6,0.469c0.281,0.254,0.553,0.469,0.59,0.469
	c0.094,0,1.153,1.021,2.635,2.541c0.975,1.002,1.172,1.172,1.462,1.266c0.084,0.037,0.159,0.104,0.159,0.168
	c0,0.057,0.31,0.404,0.675,0.779c1.144,1.133,1.612,1.648,1.884,2.062c0.141,0.215,0.525,0.637,0.844,0.938
	c0.319,0.299,0.712,0.711,0.862,0.918c0.488,0.656,1.332,1.547,1.462,1.547c0.038,0,0.169,0.16,0.291,0.355
	c0.131,0.188,0.422,0.479,0.646,0.629c0.225,0.15,0.562,0.412,0.76,0.59l0.337,0.32l0.928-0.047c0.506-0.029,1.256-0.104,1.668-0.16
	c0.75-0.104,1.641-0.141,5.672-0.234c2.522-0.057,1.959-0.057,10.922-0.02c3.975,0.02,7.322-0.008,7.443-0.047
	c0.123-0.047,0.263-0.047,0.31,0c0.094,0.094,2.193,0.057,3.778-0.064c0.618-0.047,1.228-0.084,1.359-0.084
	c0.13-0.01,0.656-0.029,1.172-0.066c1.144-0.066,0.946-0.057,2.578-0.047c4.583,0.047,4.856,0,5.812-0.881
	c0.234-0.217,0.552-0.469,0.712-0.562s0.375-0.311,0.469-0.469c0.094-0.16,0.347-0.479,0.572-0.703
	c0.225-0.225,0.403-0.469,0.403-0.545c0-0.074,0.047-0.102,0.094-0.074c0.056,0.027,0.094,0,0.094-0.084
	c0-0.076,0.159-0.301,0.356-0.506c1.106-1.164,2.362-2.57,2.362-2.672c0-0.039,0.057-0.066,0.123-0.066
	c0.065,0,0.188-0.074,0.272-0.168c0.084-0.086,0.262-0.234,0.394-0.328c0.131-0.094,0.243-0.254,0.243-0.348
	c0-0.104,0.057-0.188,0.123-0.188c0.065,0,0.272-0.168,0.45-0.385c0.178-0.205,0.459-0.439,0.628-0.506
	c0.159-0.074,0.299-0.168,0.299-0.225c0-0.047,0.281-0.328,0.638-0.629c0.346-0.291,0.712-0.656,0.825-0.797
	c0.104-0.15,0.225-0.244,0.253-0.205c0.038,0.027,0.065-0.01,0.065-0.086c0-0.084,0.123-0.252,0.272-0.375
	c0.141-0.121,0.337-0.336,0.422-0.477c0.094-0.133,0.29-0.301,0.44-0.367c0.15-0.064,0.271-0.148,0.271-0.178
	c0-0.037,0.404-0.469,0.891-0.965c0.488-0.488,0.891-0.938,0.891-0.994c0-0.047,0.047-0.094,0.104-0.094
	c0.131,0,1.266-1.135,1.229-1.238c-0.01-0.047,0.019-0.064,0.056-0.037c0.094,0.057,1.012-0.881,0.975-1.002
	c-0.01-0.039,0.131-0.141,0.309-0.217c0.179-0.074,0.328-0.168,0.328-0.205c0-0.076,0.141-0.217,1.107-1.117
	c0.262-0.262,0.487-0.516,0.487-0.58c0-0.066,0.038-0.094,0.076-0.066c0.047,0.029,0.225-0.121,0.403-0.338
	c0.178-0.205,0.562-0.609,0.863-0.898c0.291-0.281,0.534-0.555,0.534-0.592c0-0.047,0.094-0.178,0.216-0.309
	c0.112-0.123,0.393-0.441,0.627-0.703c0.629-0.713,0.77-0.863,1.257-1.275c0.253-0.207,0.516-0.449,0.6-0.535
	c0.075-0.084,0.178-0.141,0.215-0.111c0.047,0.018,0.141-0.076,0.216-0.217s0.328-0.43,0.562-0.637
	c0.984-0.854,1.444-1.332,1.594-1.613c0.075-0.158,0.272-0.393,0.422-0.516c0.3-0.225,0.946-1.039,0.946-1.172
	c0-0.047,0.179-0.234,0.404-0.422c0.431-0.355,0.572-0.674,0.684-1.546c0.057-0.459,0.047-0.506-0.225-0.75
	c-0.15-0.141-0.413-0.543-0.572-0.881c-0.215-0.469-0.412-0.721-0.797-1.031c-0.281-0.225-0.516-0.449-0.525-0.487
	c-0.009-0.179-1.556-1.753-1.725-1.753c-0.057,0-0.206-0.104-0.338-0.215c-0.365-0.319-1.743-2.054-1.818-2.279
	c-0.057-0.188-1.359-1.434-1.791-1.725c-0.121-0.084-0.318-0.253-0.449-0.375c-0.122-0.131-0.516-0.516-0.872-0.863
	c-0.356-0.346-0.797-0.797-0.976-1.012c-0.178-0.207-0.384-0.441-0.44-0.506c-0.066-0.076-0.253-0.216-0.422-0.319
	c-0.516-0.328-2.897-2.748-3.337-3.394c-0.263-0.385-1.013-1.106-1.697-1.641c-0.262-0.207-0.581-0.525-0.713-0.703
	c-0.131-0.178-0.469-0.543-0.759-0.797c-0.291-0.262-0.844-0.797-1.237-1.2c-0.395-0.394-1.098-1.107-1.566-1.576
	c-0.459-0.469-0.909-0.881-0.993-0.918c-0.253-0.094-2.034-1.801-2.456-2.354c-0.216-0.281-0.619-0.74-0.891-1.021
	c-0.272-0.281-0.553-0.647-0.628-0.816c-0.066-0.168-0.226-0.355-0.347-0.422c-0.113-0.065-0.656-0.543-1.2-1.068
	c-0.948-0.91-1.013-0.957-1.688-1.153c-0.385-0.113-0.872-0.226-1.078-0.263c-0.207-0.037-0.45-0.103-0.535-0.141
	c-0.16-0.084-1.837-0.094-4.715-0.027c-0.929,0.018-1.941,0.027-2.25,0.018c-0.816-0.018-0.938-0.018-1.875,0.056
	c-0.46,0.038-1.538,0.076-2.391,0.076c-0.91,0-1.594,0.038-1.66,0.094c-0.085,0.065-0.16,0.065-0.234,0
	c-0.075-0.056-1.5-0.094-3.825-0.103c-2.035-0.01-4.163-0.038-4.735-0.066c-0.562-0.027-1.266-0.047-1.547-0.037
	c-0.712,0.019-0.619,0.019-2.344-0.028c-0.853-0.029-1.565-0.056-1.594-0.066c-0.028-0.01-0.075-0.019-0.112-0.01
	c-0.094,0.01-5.616,0.141-5.888,0.131c-1.219-0.018-4.237-0.131-4.5-0.168C38.059,26.73,37.778,26.777,37.609,26.852z
	 M48.869,30.742c0.375-0.019,0.994-0.01,1.378,0.01c0.384,0.018,1.209,0.027,1.828,0.037c0.638,0,1.153,0.037,1.191,0.094
	c0.047,0.066,0.075,0.057,0.075,0c0-0.104,7.416-0.113,7.688-0.01c0.159,0.057,5.071,0.01,9.047-0.084l2.719-0.066l-0.188,0.216
	c-0.104,0.121-0.507,0.534-0.891,0.928c-0.385,0.385-0.854,0.9-1.042,1.125c-0.45,0.562-1.2,1.293-2.184,2.156
	c-0.441,0.385-0.957,0.928-1.144,1.2c-0.188,0.272-0.534,0.638-0.778,0.816c-0.234,0.168-1.434,1.322-2.662,2.55
	c-1.219,1.228-2.447,2.446-2.719,2.7c-0.263,0.262-0.572,0.582-0.675,0.703c-0.104,0.131-0.526,0.525-0.929,0.891
	c-0.403,0.356-0.91,0.816-1.106,1.003c-0.347,0.337-0.825,0.487-0.825,0.262c0-0.057-0.047-0.094-0.104-0.094
	c-0.13,0-0.646-0.516-0.646-0.646c0-0.057-0.038-0.104-0.094-0.104c-0.047,0-0.244-0.16-0.44-0.356
	c-0.591-0.572-1.144-1.031-1.322-1.097c-0.169-0.057-1.05-0.844-1.05-0.938c0-0.028-0.206-0.271-0.469-0.535
	c-0.253-0.262-0.469-0.506-0.469-0.553c0-0.037-0.347-0.355-0.769-0.693c-0.431-0.338-0.816-0.656-0.872-0.713
	c-0.047-0.056-0.253-0.262-0.459-0.449c-0.646-0.6-1.875-1.828-2.128-2.119c-0.131-0.16-0.413-0.432-0.609-0.609
	c-0.206-0.178-0.666-0.646-1.031-1.031c-0.806-0.844-0.909-0.938-1.425-1.256c-0.225-0.141-0.422-0.31-0.45-0.385
	s-0.15-0.16-0.253-0.197c-0.113-0.037-0.338-0.206-0.497-0.375c-0.159-0.178-0.319-0.318-0.356-0.318
	c-0.15,0-1.725-1.557-1.95-1.922c-0.047-0.075,0.844-0.113,2.812-0.122c1.575-0.009,2.887-0.038,2.906-0.066
	c0.028-0.019,0.084-0.019,0.131,0.01C48.156,30.732,48.494,30.752,48.869,30.742z M77.481,32.561
	c0.469,0.469,0.956,0.975,1.087,1.135c0.141,0.15,0.562,0.535,0.957,0.844c0.384,0.309,0.816,0.74,0.957,0.957
	c0.206,0.319,0.759,0.881,1.481,1.509c0.038,0.038,0.571,0.582,1.191,1.21c0.609,0.637,1.237,1.228,1.378,1.312
	c0.15,0.094,0.562,0.487,0.918,0.872c0.366,0.385,0.797,0.844,0.957,1.012c0.168,0.169,0.309,0.337,0.309,0.384
	c0,0.038,0.244,0.272,0.544,0.506c0.291,0.234,0.844,0.722,1.219,1.087c0.375,0.366,0.721,0.666,0.778,0.666
	c0.104,0,2.615,2.494,2.615,2.606c0,0.066,0.301,0.375,2.044,2.091c0.244,0.234,0.553,0.496,0.694,0.581
	c0.131,0.085,0.365,0.328,0.516,0.544c0.141,0.215,0.609,0.75,1.031,1.19c0.422,0.431,0.797,0.873,0.824,0.966
	c0.038,0.103,0.094,0.178,0.141,0.178c0.104,0,0.77,0.703,1.135,1.209c0.403,0.562,0.31,0.694-0.534,0.779
	c-4.116,0.413-8.016,0.543-13.069,0.45c-0.956-0.019-2.831-0.01-4.171,0.028c-1.444,0.038-3.385,0.029-4.734-0.038
	c-1.266-0.056-2.635-0.121-3.047-0.141c-0.413-0.018-1.294-0.027-1.969-0.018c-3.122,0.028-3.141,0.028-3.591-0.562
	c-0.123-0.15-0.394-0.366-0.609-0.478c-0.422-0.216-1.19-0.863-1.19-1.004c-0.01-0.103-0.488-0.572-0.938-0.9
	c-0.179-0.131-0.628-0.534-0.984-0.881c-0.366-0.355-0.891-0.862-1.182-1.134c-0.29-0.262-0.552-0.543-0.581-0.618
	c-0.029-0.076-0.216-0.253-0.413-0.404c-0.778-0.572-0.788-0.768-0.009-1.453c0.318-0.281,0.815-0.759,1.115-1.068
	c0.291-0.309,0.59-0.609,0.656-0.675c0.309-0.262,1.988-1.922,2.738-2.7c1.209-1.238,1.941-1.941,2.391-2.297
	c0.215-0.168,0.394-0.347,0.394-0.394c0-0.038,0.609-0.684,1.359-1.434s1.594-1.678,1.875-2.062c0.29-0.385,0.562-0.703,0.599-0.703
	c0.151,0,2.503-2.381,2.719-2.747c0.123-0.188,0.245-0.347,0.272-0.347c0.038,0,0.253-0.225,0.478-0.506
	c0.319-0.385,0.46-0.488,0.609-0.451C76.553,31.689,77.021,32.092,77.481,32.561z M38.622,33.029
	c0.178,0.123,0.431,0.338,0.562,0.479s0.356,0.309,0.497,0.394c0.15,0.075,0.431,0.281,0.628,0.459
	c0.197,0.178,0.488,0.422,0.647,0.534c0.544,0.394,1.847,1.556,2.935,2.616c0.6,0.581,1.312,1.256,1.594,1.491
	c0.271,0.244,0.731,0.637,1.012,0.881c0.731,0.637,2.053,2.006,2.306,2.391c0.122,0.178,0.469,0.562,0.788,0.844
	c0.31,0.281,0.834,0.769,1.163,1.078s0.685,0.628,0.797,0.703c0.103,0.075,0.197,0.168,0.197,0.215c0,0.094,0.384,0.431,0.497,0.441
	c0.084,0,0.122,0.028,0.862,0.656c1.106,0.928,1.819,1.641,1.828,1.809c0,0.169-0.637,0.844-3.862,4.107
	c-0.712,0.712-1.294,1.331-1.294,1.377s-0.413,0.46-0.909,0.91c-0.506,0.45-1.256,1.191-1.669,1.641
	c-0.694,0.75-1.397,1.425-4.031,3.891c-0.553,0.516-1.2,1.182-1.434,1.473c-0.225,0.299-0.647,0.711-0.919,0.918
	c-0.281,0.215-0.619,0.543-0.75,0.75c-0.131,0.197-0.487,0.553-0.788,0.787c-0.3,0.234-0.788,0.666-1.087,0.957
	c-0.291,0.291-0.656,0.6-0.797,0.684c-0.15,0.094-0.356,0.271-0.459,0.412c-0.319,0.404-0.59,0.338-1.247-0.309
	c-0.319-0.309-0.609-0.562-0.647-0.562s-0.535-0.449-1.106-1.004c-0.572-0.553-1.144-1.086-1.284-1.189
	c-0.788-0.619-2.231-2.035-2.888-2.822c-0.206-0.254-0.543-0.629-0.759-0.834c-0.206-0.217-0.525-0.572-0.703-0.807
	c-0.394-0.516-0.938-1.059-1.922-1.922c-0.403-0.356-0.994-0.938-1.303-1.285c-0.309-0.346-1.05-1.069-1.641-1.594
	c-0.59-0.524-1.069-1.012-1.069-1.078c0.01-0.065-0.037-0.122-0.112-0.122s-0.131-0.066-0.131-0.141s-0.047-0.141-0.112-0.141
	c-0.056,0-0.272-0.168-0.478-0.375c-0.197-0.207-0.488-0.441-0.638-0.516c-0.15-0.084-0.337-0.271-0.413-0.422
	c-0.084-0.16-0.188-0.281-0.234-0.281c-0.188,0-0.553-0.441-0.534-0.666c0.019-0.252,1.031-1.303,1.256-1.303
	c0.075,0,1.247-1.106,2.606-2.465c2.391-2.391,3.019-2.972,3.216-2.972c0.131,0,0.731-0.684,0.918-1.05
	c0.084-0.168,0.338-0.469,0.562-0.674c0.225-0.197,0.413-0.404,0.422-0.469c0-0.057,0.253-0.31,0.562-0.553
	c0.356-0.291,0.553-0.525,0.553-0.647c0-0.112,0.028-0.178,0.056-0.141c0.038,0.029,0.338-0.225,0.666-0.571
	c0.337-0.347,0.74-0.769,0.909-0.929c0.159-0.168,0.319-0.309,0.366-0.309c0.038,0,0.065-0.037,0.065-0.094
	c0-0.047,0.094-0.188,0.216-0.318c0.112-0.123,0.291-0.338,0.394-0.469c0.103-0.131,0.225-0.244,0.272-0.244s0.263-0.16,0.478-0.356
	c0.788-0.685,1.256-1.05,1.35-1.05c0.047,0,0.403-0.338,0.778-0.75c0.375-0.422,0.834-0.844,1.012-0.957
	c0.178-0.112,0.478-0.328,0.656-0.497c0.178-0.16,0.431-0.356,0.562-0.441c0.216-0.141,0.253-0.131,0.469,0.038
	C38.19,32.73,38.443,32.908,38.622,33.029z M59.002,51.639c1.745,1.716,2.438,2.381,3.038,2.897
	c0.272,0.234,0.618,0.582,0.769,0.769l0.271,0.347L62.5,56.289c-0.319,0.356-0.834,0.872-1.144,1.162
	c-0.3,0.291-0.807,0.797-1.125,1.135c-0.31,0.338-0.797,0.854-1.078,1.145c-0.281,0.289-0.562,0.58-0.62,0.656
	c-0.065,0.064-0.356,0.289-0.646,0.496c-0.3,0.207-0.994,0.834-1.538,1.406c-0.543,0.562-1.266,1.293-1.603,1.613
	c-1.284,1.227-1.622,1.584-1.715,1.781c-0.057,0.121-0.141,0.215-0.188,0.215c-0.057,0-0.291,0.178-0.516,0.395
	c-0.234,0.225-0.572,0.543-0.75,0.703c-0.178,0.168-0.328,0.309-0.347,0.309c-0.019,0-0.234,0.207-0.478,0.459
	c-0.253,0.264-0.75,0.75-1.116,1.107c-0.356,0.346-0.956,0.938-1.322,1.312c-0.366,0.365-0.797,0.75-0.956,0.844
	c-0.459,0.281-1.144,0.898-1.144,1.031c0,0.064-0.038,0.121-0.094,0.121c-0.047,0-0.253,0.16-0.45,0.348
	c-0.188,0.195-0.6,0.57-0.919,0.844c-0.45,0.393-0.6,0.477-0.788,0.43c-0.291-0.074-1.031-0.58-1.031-0.703
	c0-0.121-1.931-2.043-2.062-2.043c-0.047,0-0.094-0.037-0.094-0.094c0-0.047-0.253-0.355-0.562-0.676
	c-0.309-0.328-0.581-0.656-0.609-0.75c-0.028-0.084-0.159-0.215-0.281-0.299c-0.131-0.094-0.234-0.244-0.234-0.365
	c0-0.244,0.9-1.201,1.641-1.754c0.281-0.207,0.516-0.412,0.516-0.449c0-0.057,1.003-1.107,1.332-1.389
	c0.065-0.064,0.45-0.449,0.862-0.861c0.403-0.414,0.853-0.807,1.003-0.863c0.15-0.066,0.272-0.16,0.272-0.207
	c0-0.111,1.013-1.18,1.875-1.986c0.722-0.676,1.66-1.613,1.931-1.941c0.104-0.121,0.338-0.355,0.516-0.506
	c0.459-0.412,1.491-1.547,1.491-1.65c0-0.047,0.056-0.084,0.122-0.084c0.065,0,0.647-0.553,1.284-1.238
	c0.647-0.684,1.266-1.321,1.388-1.434c0.347-0.3,3.6-3.562,3.881-3.881c0.141-0.16,0.31-0.291,0.365-0.291
	C57.634,50.336,58.281,50.926,59.002,51.639z M17.706,53.514c0.291,0.291,0.666,0.647,0.844,0.788s0.862,0.779,1.528,1.406
	c0.656,0.628,1.275,1.181,1.378,1.238c0.281,0.15,0.778,0.628,1.209,1.152c0.225,0.264,0.469,0.488,0.543,0.488
	c0.075,0,0.131,0.037,0.131,0.074c0,0.039,0.169,0.264,0.384,0.488c0.207,0.234,0.553,0.619,0.769,0.863
	c0.59,0.664,1.106,1.199,1.163,1.199c0.028,0,0.244,0.215,0.487,0.488c0.722,0.805,3.328,3.375,3.909,3.852
	c0.31,0.254,0.713,0.656,0.919,0.891c0.197,0.244,0.516,0.545,0.712,0.676c0.6,0.402,1.875,1.744,1.875,1.979
	c0,0.197-1.293,1.518-2.25,2.297c-0.178,0.15-0.619,0.533-0.984,0.854c-0.356,0.328-0.703,0.59-0.759,0.59
	c-0.065,0-0.384-0.262-0.712-0.59c-0.328-0.32-1.134-1.098-1.791-1.717c-0.656-0.627-1.191-1.172-1.191-1.209
	c0-0.047-0.534-0.619-1.19-1.275c-0.666-0.656-1.285-1.293-1.388-1.416c-0.103-0.121-0.394-0.383-0.656-0.59
	c-0.253-0.207-1.209-1.115-2.128-2.016c-0.91-0.9-2.156-2.129-2.785-2.719c-0.619-0.59-1.331-1.312-1.584-1.594
	c-0.459-0.535-1.866-1.885-2.729-2.625l-0.487-0.422l0.469-0.441c0.253-0.234,0.581-0.609,0.722-0.815
	c0.141-0.216,0.3-0.385,0.366-0.385c0.066,0,0.281-0.178,0.478-0.403c0.197-0.216,0.694-0.694,1.106-1.06
	c0.553-0.496,0.797-0.656,0.938-0.619C17.106,52.971,17.425,53.232,17.706,53.514z M73.356,58.539
	c1.696,0.066,8.353,0.104,12.983,0.074c1.369-0.008,3.479-0.018,4.688-0.018c1.781-0.01,3.441-0.057,4.688-0.123
	c0.076,0,0.338,0.02,0.591,0.057c0.244,0.029,0.44,0.02,0.44-0.018c0-0.047,0.244-0.066,0.544-0.039
	c0.543,0.047,0.759,0.047,1.331,0c0.413-0.037,0.469,0.17,0.141,0.545c-0.141,0.15-0.384,0.479-0.562,0.74
	c-0.168,0.254-0.524,0.703-0.787,0.984c-0.271,0.281-0.553,0.656-0.637,0.824c-0.084,0.17-0.422,0.525-0.759,0.797
	c-0.75,0.592-3.432,3.273-3.647,3.639c-0.094,0.15-0.188,0.271-0.216,0.271c-0.027,0-0.29,0.207-0.571,0.469
	c-0.272,0.254-0.534,0.469-0.572,0.469s-0.197,0.188-0.357,0.422c-0.262,0.375-2.315,2.484-2.418,2.484
	c-0.094,0-1.52,1.49-1.52,1.584c0,0.057-0.149,0.197-0.318,0.311c-0.178,0.121-0.347,0.281-0.365,0.375
	c-0.028,0.084-0.281,0.309-0.572,0.496c-0.281,0.197-0.543,0.422-0.572,0.506c-0.027,0.084-0.206,0.271-0.393,0.432
	c-0.281,0.225-2.062,1.988-2.372,2.344c-0.216,0.244-1.125,1.162-1.547,1.557c-0.253,0.244-0.573,0.543-0.694,0.674
	c-0.712,0.732-1.453,1.482-1.847,1.857c-0.252,0.244-0.552,0.533-0.665,0.656c-0.619,0.674-0.759,0.768-1.397,0.891
	c-0.356,0.064-1.078,0.121-1.594,0.131c-0.524,0-1.368,0.037-1.875,0.094c-0.516,0.047-1.875,0.113-3.037,0.141
	c-1.163,0.037-2.429,0.094-2.812,0.131c-0.385,0.037-0.797,0.037-0.901,0c-0.112-0.037-0.224-0.057-0.243-0.037
	c-0.075,0.074-3.712,0.141-11.231,0.188c-4.153,0.037-8.663,0.084-10.031,0.113c-3.328,0.074-3.262,0.074-3.337,0.008
	c-0.075-0.084,0.862-1.359,1.097-1.49c0.104-0.047,0.178-0.15,0.178-0.215c0-0.131,0.872-0.994,1.013-0.994
	c0.047,0,0.215-0.207,0.375-0.459c0.15-0.254,0.403-0.535,0.553-0.629c0.309-0.205,0.778-0.619,1.594-1.416
	c0.318-0.318,0.853-0.777,1.172-1.021c0.609-0.459,1.547-1.387,2.166-2.137c0.197-0.234,0.675-0.646,1.069-0.91
	c0.394-0.262,1.068-0.844,1.519-1.293c0.44-0.441,1.116-1.051,1.491-1.35c0.375-0.301,0.891-0.807,1.153-1.135
	c0.253-0.328,0.656-0.723,0.881-0.881c0.225-0.16,0.656-0.602,0.957-0.977c0.3-0.375,0.947-1.059,1.435-1.527
	c0.487-0.459,1.125-1.088,1.406-1.379c0.281-0.289,0.693-0.674,0.909-0.844c0.891-0.711,3.966-3.562,4.134-3.844
	c0.113-0.168,0.497-0.58,0.872-0.918l0.684-0.609l2.307-0.047C70.431,58.436,70.938,58.445,73.356,58.539z M36.822,71.945
	c0.103,0.131,0.225,0.234,0.272,0.234c0.103,0,0.6,0.525,2.128,2.23c0.562,0.629,1.06,1.145,1.097,1.145
	c0.122,0,0.647,0.863,0.647,1.068c0,0.094-0.131,0.328-0.281,0.516c-0.159,0.188-0.319,0.375-0.356,0.432
	c-0.047,0.047-0.197,0.197-0.356,0.328c-0.15,0.131-0.75,0.75-1.331,1.379c-0.619,0.664-1.172,1.18-1.332,1.236
	c-0.253,0.084-0.319,0.057-0.722-0.281c-0.497-0.402-0.469-0.375-1.369-1.416c-0.347-0.402-0.9-1.002-1.219-1.33
	c-0.722-0.75-1.312-1.443-1.463-1.725c-0.103-0.188-0.065-0.264,0.281-0.676c0.216-0.262,0.432-0.469,0.479-0.469
	c0.037,0,0.74-0.656,1.547-1.453c0.806-0.797,1.537-1.453,1.631-1.453S36.719,71.814,36.822,71.945z"/>
<rect x="143.121" y="31.276" fill="none" width="387.333" height="85"/>
<text transform="matrix(1 0 0 1 143.1211 81.9697)"><tspan x="0" y="0" font-family="'Comfortaa-Bold'" font-size="71">B</tspan><tspan x="33.047" y="0" font-family="'Comfortaa-Bold'" font-size="71">l</tspan><tspan x="49.09" y="0" font-family="'Comfortaa-Bold'" font-size="71" letter-spacing="21">u</tspan><tspan x="111.575" y="0" font-family="'Comfortaa-Bold'" font-size="71">P</tspan><tspan x="142.656" y="0" font-family="'Comfortaa-Bold'" font-size="71">en</tspan></text>
</svg>
