<?xml version="1.0" encoding="utf-8"?>
<!-- Generator: Adobe Illustrator 15.0.0, SVG Export Plug-In  -->
<!DOCTYPE svg PUBLIC "-//W3C//DTD SVG 1.1//EN" "http://www.w3.org/Graphics/SVG/1.1/DTD/svg11.dtd" >
<svg version="1.1"
     xmlns="http://www.w3.org/2000/svg"
     xmlns:xlink="http://www.w3.org/1999/xlink"
     xmlns:a="http://ns.adobe.com/AdobeSVGViewerExtensions/3.0/"
     viewBox="0 0 54 54">
  <defs>
  </defs>
  <rect fill="#010101" width="54" height="54"/>
  <path fill="#FFFFFF" d="M44.502,16.335c-1.324,0.587-2.746,0.985-4.24,1.165c1.523-0.914,2.693-2.363,3.246-4.084
    c-1.43,0.845-3.01,1.46-4.693,1.793c-1.348-1.439-3.264-2.334-5.391-2.334c-4.078,0-7.384,3.308-7.384,7.386
    c0,0.577,0.064,1.143,0.189,1.682c-6.137-0.308-11.58-3.249-15.223-7.717c-0.637,1.089-0.998,2.356-0.998,3.712
    c0,2.563,1.303,4.824,3.283,6.146c-1.209-0.041-2.35-0.373-3.346-0.928v0.093c0,3.579,2.548,6.562,5.924,7.243
    c-0.617,0.168-1.271,0.26-1.945,0.26c-0.477,0-0.938-0.049-1.391-0.137c0.939,2.936,3.668,5.072,6.898,5.132
    c-2.526,1.979-5.713,3.157-9.172,3.157c-0.597,0-1.184-0.035-1.763-0.102c3.27,2.098,7.149,3.322,11.321,3.322
    c13.587,0,21.015-11.254,21.015-21.015l-0.023-0.956C42.258,19.118,43.514,17.817,44.502,16.335z"/>
</svg>
