<?xml version="1.0" encoding="utf-8"?>
<!DOCTYPE svg PUBLIC "-//W3C//DTD SVG 1.1//EN" "http://www.w3.org/Graphics/SVG/1.1/DTD/svg11.dtd" >
<svg version="1.1"
	 xmlns="http://www.w3.org/2000/svg" xmlns:xlink="http://www.w3.org/1999/xlink" xmlns:a="http://ns.adobe.com/AdobeSVGViewerExtensions/3.0/"
viewBox="-0.5 -0.776 126 137">
<defs>
    <style type="text/css">
      @font-face {
      font-family: 'ComfortaaBold';
      src: url('fonts/comfortaa/comfortaa_bold-webfont.eot');
      src: url('fonts/comfortaa/comfortaa_bold-webfont.eot?#iefix') format('embedded-opentype'),
      url('fonts/comfortaa/comfortaa_bold-webfont.woff') format('woff'),
      url('fonts/comfortaa/comfortaa_bold-webfont.ttf') format('truetype'),
      url('fonts/comfortaa/comfortaa_bold-webfont.svg#comfortaabold') format('svg');
      font-weight: normal;
      font-style: normal;
      }
      @font-face {
      font-family: 'OswaldBold';
      src: url('../fonts/oswald/oswald-bold-webfont.eot');
      src: url('../fonts/oswald/oswald-bold-webfont.eot?#iefix') format('embedded-opentype'),
      url('../fonts/oswald/oswald-bold-webfont.woff') format('woff'),
      url('../fonts/oswald/oswald-bold-webfont.ttf') format('truetype'),
      url('../fonts/oswald/oswald-bold-webfont.svg#oswaldbold') format('svg');
      font-weight: normal;
      font-style: normal;
      }
      @font-face {
      font-family: 'OswaldBook';
      src: url('../fonts/oswald/oswald-regular-webfont.eot');
      src: url('../fonts/oswald/oswald-regular-webfont.eot?#iefix') format('embedded-opentype'),
      url('../fonts/oswald/oswald-regular-webfont.woff') format('woff'),
      url('../fonts/oswald/oswald-regular-webfont.ttf') format('truetype'),
      url('../fonts/oswald/oswald-regular-webfont.svg#oswaldbook') format('svg');
      font-weight: normal;
      font-style: normal;
      }
    </style>
</defs>
<polygon fill="#808184" points="89.5,99.224 89.766,135.224 125.5,99.224 "/>
<line fill="none" stroke="#231F20" stroke-miterlimit="10" x1="35.305" y1="134.316" x2="35.305" y2="34.236"/>
<rect x="0.5" y="0.5" fill="#FFFFFF" stroke="#58595B" stroke-miterlimit="10" width="90.195" height="134.724"/>
<rect x="0.695" y="18.224" fill="none" width="90" height="27"/>
<text transform="matrix(1 0 0 1 26.2847 34.0444)"><tspan x="0" y="0" fill="#231F20" font-family="'OswaldBold'" font-size="18">HAITI</tspan><tspan x="-18.396" y="10.8" fill="#231F20" font-family="'OswaldBook'" font-size="9">A VISUAL COLLECTION</tspan></text>
<circle opacity="0.75" fill="#B1005D" enable-background="new    " cx="14.083" cy="85.634" r="1.82"/>
<circle opacity="0.9" fill="#7D0043" enable-background="new    " cx="31.862" cy="110.891" r="1.821"/>
<circle opacity="0.75" fill="#B1005D" enable-background="new    " cx="43.536" cy="72.731" r="3.641"/>
<circle opacity="0.6" fill="#FF0084" enable-background="new    " cx="20.668" cy="81.628" r="1.821"/>
<circle opacity="0.6" fill="#FF0084" enable-background="new    " cx="68.93" cy="59.453" r="3.641"/>
<circle opacity="0.75" fill="#B1005D" stroke="#B10000" stroke-width="3" enable-background="new    " cx="15.945" cy="90.808" r="0.91"/>
<circle opacity="0.75" fill="#B1005D" stroke="#B10000" stroke-width="3" enable-background="new    " cx="39.069" cy="118.573" r="1.821"/>
<circle opacity="0.6" fill="#FF0084" stroke="#B10000" stroke-width="3" enable-background="new    " cx="19.49" cy="77.583" r="1.821"/>
<circle opacity="0.6" fill="#9BAAB8" enable-background="new    " cx="46.04" cy="100.027" r="1.82"/>
<circle opacity="0.6" fill="#FF0084" stroke="#B10000" stroke-width="3" enable-background="new    " cx="73.154" cy="74.685" r="3.641"/>
<circle opacity="0.75" fill="#B1005D" stroke="#B10000" stroke-width="3" enable-background="new    " cx="50.409" cy="105.477" r="3.642"/>
<circle opacity="0.75" fill="#B1005D" stroke="#B10000" stroke-width="3" enable-background="new    " cx="62.774" cy="71.464" r="1.82"/>
<circle opacity="0.75" fill="#B1005D" stroke="#B10000" stroke-width="3" enable-background="new    " cx="32.957" cy="119.017" r="1.82"/>
<circle opacity="0.75" fill="#B1005D" stroke="#B10000" stroke-width="3" enable-background="new    " cx="43.197" cy="114.131" r="3.642"/>
<circle opacity="0.6" fill="#FF0084" stroke="#B10000" stroke-width="3" enable-background="new    " cx="74.987" cy="63.788" r="3.642"/>
<circle opacity="0.9" fill="#7D0043" stroke="#B10000" stroke-width="3" enable-background="new    " cx="14.16" cy="77.324" r="1.82"/>
<circle opacity="0.75" fill="#B1005D" stroke="#B10000" stroke-width="3" enable-background="new    " cx="57.922" cy="94.127" r="3.642"/>
<circle opacity="0.75" fill="#71869A" enable-background="new    " cx="14.513" cy="115.657" r="1.821"/>
<circle opacity="0.9" fill="#7D0043" stroke="#B10000" stroke-width="3" enable-background="new    " cx="35.651" cy="111.458" r="1.82"/>
<circle opacity="0.75" fill="#B1005D" stroke="#B10000" stroke-width="3" enable-background="new    " cx="50.493" cy="93.538" r="3.641"/>
<circle opacity="0.9" fill="#7D0043" stroke="#B10000" stroke-width="3" enable-background="new    " cx="27.229" cy="119.363" r="0.91"/>
<circle opacity="0.75" fill="#B1005D" stroke="#B10000" stroke-width="3" enable-background="new    " cx="29.292" cy="114.808" r="0.91"/>
<circle opacity="0.75" fill="#71869A" enable-background="new    " cx="15.69" cy="108.833" r="0.91"/>
<circle opacity="0.75" fill="#B1005D" stroke="#B10000" stroke-width="3" enable-background="new    " cx="61.788" cy="83.634" r="1.82"/>
<circle opacity="0.9" fill="#32506D" enable-background="new    " cx="22.607" cy="98.457" r="0.91"/>
<circle opacity="0.9" fill="#7D0043" stroke="#B10000" stroke-width="3" enable-background="new    " cx="11.486" cy="98.369" r="0.91"/>
<circle opacity="0.6" fill="#FF0084" stroke="#B10000" stroke-width="3" enable-background="new    " cx="58.164" cy="84.524" r="1.821"/>
<circle opacity="0.75" fill="#71869A" enable-background="new    " cx="39.771" cy="97.767" r="3.641"/>
<circle opacity="0.75" fill="#71869A" stroke="#B10000" stroke-width="3" enable-background="new    " cx="18.688" cy="118.091" r="0.91"/>
<circle opacity="0.9" fill="#7D0043" stroke="#B10000" stroke-width="3" enable-background="new    " cx="45.888" cy="62.136" r="1.82"/>
<circle opacity="0.6" fill="#9BAAB8" stroke="#B10000" stroke-width="3" enable-background="new    " cx="50.469" cy="85.339" r="0.91"/>
<circle opacity="0.9" fill="#7D0043" stroke="#B10000" stroke-width="3" enable-background="new    " cx="45.933" cy="108.564" r="0.91"/>
<circle opacity="0.75" fill="#79DEFF" enable-background="new    " cx="27.366" cy="91.241" r="1.821"/>
<circle opacity="0.75" fill="#79DEFF" enable-background="new    " cx="12.874" cy="104.11" r="0.911"/>
<circle opacity="0.9" fill="#32506D" stroke="#B10000" stroke-width="3" enable-background="new    " cx="12.208" cy="89.903" r="1.821"/>
<circle opacity="0.75" fill="#79DEFF" enable-background="new    " cx="56.379" cy="104.642" r="1.82"/>
<circle opacity="0.9" fill="#1AB6E5" enable-background="new    " cx="64.218" cy="94.803" r="3.642"/>
<circle opacity="0.9" fill="#1AB6E5" enable-background="new    " cx="26.977" cy="104.957" r="0.91"/>
<circle opacity="0.6" fill="#9BAAB8" stroke="#B10000" stroke-width="3" enable-background="new    " cx="11.713" cy="107.458" r="0.91"/>
<circle opacity="0.9" fill="#32506D" stroke="#B10000" stroke-width="3" enable-background="new    " cx="25.87" cy="111.738" r="0.91"/>
<circle opacity="0.6" fill="#9BAAB8" stroke="#B10000" stroke-width="3" enable-background="new    " cx="34.114" cy="87.769" r="3.641"/>
<circle opacity="0.6" fill="#FF0084" stroke="#B10000" stroke-width="3" enable-background="new    " cx="20.976" cy="86.951" r="1.82"/>
<circle opacity="0.75" fill="#79DEFF" stroke="#B10000" stroke-width="3" enable-background="new    " cx="29.981" cy="94.007" r="0.91"/>
<circle opacity="0.75" fill="#71869A" stroke="#B10000" stroke-width="3" enable-background="new    " cx="51.095" cy="82.238" r="1.82"/>
<circle opacity="0.75" fill="#71869A" stroke="#B10000" stroke-width="3" enable-background="new    " cx="48.167" cy="87.017" r="1.82"/>
<circle opacity="0.75" fill="#71869A" stroke="#B10000" stroke-width="3" enable-background="new    " cx="43.386" cy="79.877" r="3.641"/>
<circle opacity="0.75" fill="#79DEFF" stroke="#B10000" stroke-width="3" enable-background="new    " cx="70.899" cy="93.854" r="1.821"/>
<circle opacity="0.6" fill="#9BAAB8" stroke="#B10000" stroke-width="3" enable-background="new    " cx="63.776" cy="88.022" r="1.821"/>
<circle opacity="0.75" fill="#79DEFF" stroke="#B10000" stroke-width="3" enable-background="new    " cx="22.853" cy="103.013" r="3.641"/>
<circle opacity="0.6" fill="#BEEDFF" stroke="#B10000" stroke-width="3" enable-background="new    " cx="33.544" cy="80.102" r="1.821"/>
<circle opacity="0.9" fill="#1AB6E5" stroke="#B10000" stroke-width="3" enable-background="new    " cx="75.479" cy="81.702" r="3.642"/>
<circle opacity="0.9" fill="#1AB6E5" stroke="#B10000" stroke-width="3" enable-background="new    " cx="57.849" cy="71.067" r="3.641"/>
<circle opacity="0.75" fill="#71869A" stroke="#B10000" stroke-width="3" enable-background="new    " cx="62.479" cy="58.42" r="3.642"/>
<circle opacity="0.75" fill="#71869A" stroke="#B10000" stroke-width="3" enable-background="new    " cx="25.435" cy="114.333" r="0.91"/>
<circle opacity="0.9" fill="#32506D" stroke="#B10000" stroke-width="3" enable-background="new    " cx="43.672" cy="101.307" r="1.821"/>
<circle opacity="0.75" fill="#71869A" stroke="#B10000" stroke-width="3" enable-background="new    " cx="44.211" cy="93.834" r="1.821"/>
<circle opacity="0.6" fill="#9BAAB8" stroke="#B10000" stroke-width="3" enable-background="new    " cx="51.577" cy="68.035" r="3.641"/>
<circle opacity="0.6" fill="#BEEDFF" stroke="#B10000" stroke-width="3" enable-background="new    " cx="46.045" cy="84.552" r="1.82"/>
<circle opacity="0.6" fill="#BEEDFF" stroke="#B10000" stroke-width="3" enable-background="new    " cx="26.261" cy="97.494" r="1.82"/>
<circle opacity="0.9" fill="#32506D" stroke="#B10000" stroke-width="3" enable-background="new    " cx="29.459" cy="80.694" r="0.911"/>
<circle opacity="0.6" fill="#BEEDFF" stroke="#B10000" stroke-width="3" enable-background="new    " cx="44.712" cy="104.845" r="1.82"/>
<circle opacity="0.9" fill="#32506D" stroke="#B10000" stroke-width="3" enable-background="new    " cx="34.001" cy="95.238" r="1.82"/>
<circle opacity="0.75" fill="#79DEFF" stroke="#B10000" stroke-width="3" enable-background="new    " cx="22.088" cy="115.404" r="0.91"/>
<circle opacity="0.6" fill="#9BAAB8" stroke="#B10000" stroke-width="3" enable-background="new    " cx="56.89" cy="80.22" r="1.82"/>
<circle opacity="0.75" fill="#71869A" stroke="#B10000" stroke-width="3" enable-background="new    " cx="30.37" cy="98.966" r="1.82"/>
<circle opacity="0.75" fill="#71869A" stroke="#B10000" stroke-width="3" enable-background="new    " cx="51.792" cy="78.925" r="1.82"/>
<circle opacity="0.6" fill="#9BAAB8" stroke="#B10000" stroke-width="3" enable-background="new    " cx="68.472" cy="67.452" r="3.642"/>
<circle opacity="0.9" fill="#32506D" stroke="#B10000" stroke-width="3" enable-background="new    " cx="21.446" cy="117.804" r="0.91"/>
<circle opacity="0.75" fill="#79DEFF" stroke="#B10000" stroke-width="3" enable-background="new    " cx="17.562" cy="117.033" r="0.91"/>
<circle opacity="0.9" fill="#1AB6E5" stroke="#B10000" stroke-width="3" enable-background="new    " cx="53.183" cy="87.83" r="1.821"/>
<circle opacity="0.6" fill="#9BAAB8" stroke="#B10000" stroke-width="3" enable-background="new    " cx="35.097" cy="105.052" r="3.641"/>
<circle opacity="0.9" fill="#1AB6E5" stroke="#B10000" stroke-width="3" enable-background="new    " cx="11.439" cy="104.968" r="0.91"/>
<circle opacity="0.75" fill="#71869A" stroke="#B10000" stroke-width="3" enable-background="new    " cx="18.819" cy="112.703" r="1.82"/>
<circle opacity="0.75" fill="#71869A" stroke="#B10000" stroke-width="3" enable-background="new    " cx="67.117" cy="72.938" r="3.641"/>
<circle opacity="0.9" fill="#32506D" stroke="#B10000" stroke-width="3" enable-background="new    " cx="22.249" cy="109.87" r="1.821"/>
<circle opacity="0.75" fill="#71869A" stroke="#B10000" stroke-width="3" enable-background="new    " cx="27.122" cy="108.986" r="1.82"/>
<circle opacity="0.6" fill="#9BAAB8" stroke="#B10000" stroke-width="3" enable-background="new    " cx="61.732" cy="77.533" r="3.641"/>
<circle opacity="0.75" fill="#71869A" stroke="#B10000" stroke-width="3" enable-background="new    " cx="67.143" cy="82.633" r="3.642"/>
<circle opacity="0.75" fill="#71869A" stroke="#B10000" stroke-width="3" enable-background="new    " cx="28.725" cy="106.541" r="0.91"/>
<circle opacity="0.75" fill="#71869A" stroke="#B10000" stroke-width="3" enable-background="new    " cx="14.591" cy="111.312" r="1.82"/>
<circle opacity="0.75" fill="#71869A" stroke="#B10000" stroke-width="3" enable-background="new    " cx="43.038" cy="86.118" r="1.821"/>
<circle opacity="0.9" fill="#32506D" stroke="#B10000" stroke-width="3" enable-background="new    " cx="18.903" cy="94.388" r="1.82"/>
<circle opacity="0.75" fill="#71869A" stroke="#B10000" stroke-width="3" enable-background="new    " cx="62.712" cy="64.438" r="3.642"/>
<circle opacity="0.75" fill="#CB5200" stroke="#B10000" stroke-width="3" enable-background="new    " cx="37.536" cy="91.708" r="1.821"/>
<circle opacity="0.75" fill="#CB5200" stroke="#B10000" stroke-width="3" enable-background="new    " cx="40.008" cy="90.736" r="1.821"/>
<circle opacity="0.75" fill="#CB5200" stroke="#B10000" stroke-width="3" enable-background="new    " cx="38.604" cy="87.343" r="1.82"/>
<circle opacity="0.75" fill="#CB5200" stroke="#B10000" stroke-width="3" enable-background="new    " cx="36.272" cy="83.041" r="1.82"/>
<circle opacity="0.9" fill="#32506D" stroke="#B10000" stroke-width="3" enable-background="new    " cx="51.546" cy="74.915" r="1.821"/>
<circle opacity="0.75" fill="#71869A" stroke="#B10000" stroke-width="3" enable-background="new    " cx="41.134" cy="104.406" r="1.82"/>
<circle opacity="0.9" fill="#32506D" stroke="#B10000" stroke-width="3" enable-background="new    " cx="29.473" cy="103.462" r="0.91"/>
<circle opacity="0.75" fill="#79DEFF" stroke="#B10000" stroke-width="3" enable-background="new    " cx="51.593" cy="57.866" r="3.642"/>
<g>
	<defs>
		<rect id="SVGID_1_" x="32.073" y="6.165" width="25.678" height="8.12"/>
	</defs>
	<clipPath id="SVGID_5_">
		<use xlink:href="#SVGID_1_"  overflow="visible"/>
	</clipPath>
	<g clip-path="url(#SVGID_5_)">
		<defs>
			<rect id="SVGID_2_" x="29.845" y="2.572" width="45.359" height="15.12"/>
		</defs>
		<clipPath id="SVGID_6_">
			<use xlink:href="#SVGID_2_"  overflow="visible"/>
		</clipPath>
		<path clip-path="url(#SVGID_6_)" fill="#6085FF" d="M40.007,10.132c0,2.191-1.775,3.967-3.967,3.967
			c-2.19,0-3.967-1.776-3.967-3.967c0-2.19,1.776-3.967,3.967-3.967C38.231,6.165,40.007,7.941,40.007,10.132"/>
		<g clip-path="url(#SVGID_6_)">
			<defs>
				<rect id="SVGID_3_" x="34.748" y="8.229" width="2.643" height="1.289"/>
			</defs>
			<clipPath id="SVGID_7_">
				<use xlink:href="#SVGID_3_"  overflow="visible"/>
			</clipPath>
			<g clip-path="url(#SVGID_7_)">
				<defs>
					<rect id="SVGID_4_" x="34.748" y="8.229" width="2.643" height="1.289"/>
				</defs>
				<clipPath id="SVGID_8_">
					<use xlink:href="#SVGID_4_"  overflow="visible"/>
				</clipPath>
				<polygon clip-path="url(#SVGID_8_)" fill="#727180" points="37.391,8.229 36.064,9.517 34.748,8.229 				"/>
			</g>
		</g>
		<polygon clip-path="url(#SVGID_6_)" fill="#727180" points="36.674,10.13 34.713,11.959 37.479,12.047 39.351,10.052 		"/>
		<path clip-path="url(#SVGID_6_)" fill="#FFFFFF" d="M34.706,8.045c-0.024,0.01-0.1,0.082-0.1,0.094
			c0,0.004-0.013,0.016-0.027,0.025c-0.032,0.021-0.05,0.038-0.055,0.055c-0.002,0.006-0.018,0.019-0.033,0.029
			c-0.017,0.009-0.029,0.021-0.029,0.026s-0.002,0.009-0.005,0.008c-0.003,0-0.034,0.028-0.07,0.064s-0.1,0.099-0.142,0.139
			c-0.041,0.04-0.098,0.096-0.124,0.125c-0.027,0.029-0.052,0.051-0.055,0.05c-0.002-0.001-0.01,0.008-0.018,0.021
			c-0.007,0.013-0.016,0.023-0.019,0.023c-0.004,0-0.015,0.013-0.025,0.028c-0.033,0.05-0.147,0.153-0.16,0.146
			c-0.004-0.001-0.008,0.003-0.01,0.012c-0.004,0.019-0.082,0.096-0.116,0.116c-0.014,0.008-0.026,0.019-0.029,0.024
			c-0.003,0.004-0.023,0.027-0.044,0.05c-0.021,0.022-0.047,0.053-0.058,0.067c-0.022,0.034-0.051,0.062-0.111,0.112
			c-0.026,0.021-0.068,0.059-0.094,0.083s-0.053,0.049-0.061,0.054c-0.009,0.006-0.016,0.016-0.016,0.022s-0.008,0.019-0.019,0.029
			c-0.048,0.048-0.105,0.1-0.129,0.118c-0.014,0.01-0.04,0.031-0.057,0.046c-0.018,0.015-0.04,0.034-0.051,0.042
			c-0.011,0.009-0.028,0.029-0.04,0.046c-0.011,0.017-0.036,0.045-0.057,0.063c-0.021,0.019-0.039,0.04-0.043,0.049
			c-0.003,0.008-0.011,0.017-0.017,0.02c-0.012,0.004-0.068,0.052-0.181,0.156c-0.057,0.051-0.097,0.103-0.097,0.124
			c0,0.004,0.009,0.024,0.021,0.046c0.014,0.029,0.031,0.05,0.062,0.076c0.023,0.02,0.059,0.05,0.077,0.069
			c0.021,0.018,0.048,0.044,0.063,0.059c0.016,0.014,0.042,0.037,0.059,0.049c0.035,0.027,0.308,0.3,0.308,0.309
			c0,0.002,0.008,0.009,0.017,0.014c0.01,0.005,0.038,0.034,0.064,0.065s0.07,0.076,0.099,0.101
			c0.027,0.023,0.051,0.046,0.051,0.048c0,0.009,0.116,0.125,0.136,0.135c0.012,0.006,0.027,0.02,0.035,0.031
			c0.009,0.012,0.022,0.029,0.03,0.038c0.009,0.009,0.015,0.019,0.015,0.023c0,0.008,0.082,0.093,0.104,0.107
			c0.008,0.005,0.014,0.014,0.014,0.019c0,0.005,0.003,0.009,0.006,0.009c0.004,0,0.022,0.015,0.042,0.033
			c0.021,0.018,0.039,0.033,0.042,0.033c0.007,0,0.08,0.072,0.185,0.178c0.068,0.07,0.082,0.082,0.102,0.088
			c0.006,0.002,0.012,0.007,0.012,0.012c0,0.004,0.021,0.028,0.047,0.055c0.08,0.079,0.113,0.115,0.132,0.144
			c0.01,0.015,0.037,0.045,0.06,0.066s0.05,0.05,0.061,0.064c0.034,0.046,0.093,0.108,0.102,0.108c0.003,0,0.013,0.011,0.021,0.025
			c0.01,0.013,0.03,0.034,0.046,0.044c0.016,0.01,0.039,0.029,0.053,0.041l0.023,0.022l0.065-0.003
			c0.035-0.002,0.088-0.007,0.116-0.011c0.053-0.007,0.115-0.01,0.397-0.016c0.177-0.004,0.137-0.004,0.765-0.001
			c0.278,0.001,0.513,0,0.521-0.003c0.009-0.003,0.019-0.003,0.022,0c0.006,0.007,0.153,0.004,0.264-0.004
			c0.044-0.003,0.086-0.006,0.096-0.006c0.009,0,0.046-0.002,0.082-0.005c0.08-0.004,0.066-0.004,0.181-0.003
			c0.32,0.003,0.34,0,0.406-0.062c0.017-0.015,0.039-0.033,0.05-0.039c0.012-0.007,0.026-0.022,0.033-0.033
			c0.007-0.012,0.024-0.034,0.04-0.049c0.016-0.016,0.028-0.033,0.028-0.039c0-0.005,0.003-0.007,0.007-0.005s0.006,0,0.006-0.006
			c0-0.005,0.012-0.021,0.025-0.036c0.077-0.082,0.165-0.18,0.165-0.187c0-0.002,0.004-0.004,0.009-0.004s0.013-0.005,0.019-0.012
			s0.019-0.017,0.028-0.023c0.009-0.007,0.017-0.018,0.017-0.024c0-0.007,0.004-0.013,0.009-0.013s0.019-0.012,0.031-0.027
			c0.013-0.015,0.032-0.031,0.044-0.036s0.021-0.012,0.021-0.016c0-0.003,0.02-0.023,0.044-0.044
			c0.024-0.021,0.05-0.046,0.058-0.056c0.008-0.011,0.017-0.017,0.019-0.015c0.002,0.002,0.004,0,0.004-0.006
			c0-0.006,0.009-0.018,0.02-0.026c0.01-0.008,0.023-0.023,0.029-0.033c0.007-0.009,0.021-0.021,0.031-0.026
			c0.01-0.004,0.019-0.01,0.019-0.012c0-0.002,0.028-0.033,0.062-0.068c0.034-0.034,0.062-0.065,0.062-0.069
			c0-0.003,0.003-0.007,0.007-0.007c0.01,0,0.089-0.079,0.086-0.086c-0.001-0.003,0.002-0.004,0.004-0.002
			c0.007,0.004,0.071-0.062,0.068-0.07c-0.001-0.003,0.009-0.01,0.021-0.015s0.023-0.012,0.023-0.014
			c0-0.005,0.01-0.016,0.077-0.079c0.019-0.018,0.034-0.036,0.034-0.041s0.003-0.006,0.005-0.004
			c0.004,0.002,0.017-0.009,0.028-0.024c0.013-0.014,0.04-0.042,0.061-0.063c0.021-0.02,0.037-0.039,0.037-0.041
			c0-0.003,0.007-0.013,0.016-0.022c0.008-0.008,0.027-0.031,0.044-0.049c0.044-0.05,0.054-0.061,0.088-0.089
			c0.018-0.015,0.036-0.032,0.042-0.038c0.005-0.006,0.013-0.01,0.015-0.008c0.004,0.001,0.01-0.005,0.016-0.015
			c0.005-0.01,0.022-0.03,0.039-0.044c0.069-0.06,0.102-0.093,0.111-0.113c0.006-0.011,0.02-0.027,0.03-0.036
			c0.021-0.016,0.066-0.072,0.066-0.082c0-0.003,0.012-0.016,0.027-0.029c0.03-0.025,0.04-0.047,0.048-0.108
			c0.005-0.032,0.004-0.035-0.016-0.052c-0.01-0.01-0.028-0.038-0.04-0.062c-0.015-0.033-0.028-0.05-0.056-0.072
			c-0.02-0.016-0.036-0.032-0.036-0.034c-0.001-0.013-0.109-0.123-0.121-0.123c-0.004,0-0.015-0.007-0.023-0.016
			c-0.025-0.022-0.122-0.144-0.128-0.159c-0.004-0.013-0.095-0.101-0.125-0.121c-0.009-0.006-0.022-0.018-0.031-0.026
			c-0.009-0.009-0.036-0.036-0.062-0.061c-0.024-0.024-0.056-0.056-0.068-0.071c-0.012-0.015-0.026-0.031-0.03-0.035
			c-0.005-0.005-0.018-0.015-0.029-0.022c-0.036-0.023-0.203-0.192-0.234-0.238c-0.018-0.027-0.07-0.077-0.118-0.115
			c-0.019-0.015-0.041-0.037-0.05-0.049c-0.01-0.012-0.033-0.038-0.054-0.056c-0.021-0.019-0.059-0.056-0.086-0.084
			c-0.028-0.027-0.077-0.078-0.11-0.11c-0.032-0.033-0.063-0.062-0.069-0.064c-0.018-0.007-0.143-0.126-0.172-0.165
			c-0.015-0.02-0.043-0.052-0.062-0.071c-0.019-0.02-0.038-0.045-0.044-0.057c-0.005-0.012-0.016-0.025-0.024-0.03
			c-0.008-0.004-0.046-0.038-0.084-0.075c-0.066-0.063-0.07-0.067-0.118-0.081c-0.026-0.008-0.061-0.016-0.075-0.019
			c-0.015-0.002-0.031-0.007-0.037-0.01c-0.012-0.006-0.129-0.007-0.33-0.002c-0.065,0.001-0.136,0.002-0.157,0.001
			c-0.058-0.001-0.066-0.001-0.132,0.004c-0.032,0.002-0.107,0.005-0.167,0.005c-0.064,0-0.111,0.003-0.116,0.007
			c-0.006,0.004-0.012,0.004-0.017,0c-0.005-0.004-0.105-0.007-0.268-0.007c-0.143,0-0.292-0.002-0.332-0.004
			c-0.039-0.002-0.088-0.003-0.107-0.003c-0.051,0.001-0.044,0.001-0.164-0.002c-0.061-0.002-0.11-0.004-0.112-0.004
			c-0.002-0.001-0.005-0.001-0.008-0.001c-0.007,0.001-0.393,0.01-0.412,0.009c-0.085-0.001-0.296-0.009-0.314-0.012
			C34.737,8.036,34.718,8.04,34.706,8.045 M35.494,8.317c0.026-0.001,0.069,0,0.097,0.001c0.026,0.001,0.085,0.002,0.128,0.002
			c0.045,0,0.08,0.002,0.083,0.006c0.004,0.005,0.006,0.004,0.006,0c0-0.007,0.519-0.008,0.538,0c0.011,0.004,0.354,0,0.633-0.006
			l0.19-0.004l-0.013,0.015c-0.008,0.008-0.036,0.037-0.062,0.065c-0.027,0.027-0.06,0.063-0.073,0.079
			c-0.031,0.04-0.084,0.09-0.153,0.151c-0.03,0.027-0.066,0.065-0.079,0.084c-0.014,0.019-0.038,0.045-0.055,0.057
			c-0.017,0.012-0.101,0.093-0.187,0.179c-0.085,0.086-0.172,0.171-0.19,0.189s-0.04,0.041-0.047,0.049
			c-0.008,0.009-0.037,0.037-0.065,0.062c-0.028,0.025-0.063,0.057-0.077,0.07c-0.024,0.023-0.058,0.034-0.058,0.019
			c0-0.004-0.004-0.007-0.008-0.007c-0.009,0-0.045-0.036-0.045-0.045c0-0.004-0.003-0.007-0.007-0.007
			c-0.003,0-0.017-0.011-0.03-0.025c-0.042-0.04-0.08-0.072-0.093-0.077c-0.012-0.004-0.073-0.059-0.073-0.065
			c0-0.002-0.015-0.019-0.033-0.038c-0.018-0.018-0.033-0.035-0.033-0.039c0-0.002-0.023-0.025-0.054-0.049
			c-0.03-0.023-0.057-0.046-0.061-0.05c-0.003-0.004-0.018-0.018-0.032-0.031c-0.045-0.042-0.131-0.128-0.149-0.148
			c-0.009-0.011-0.028-0.03-0.042-0.042c-0.015-0.013-0.047-0.045-0.072-0.072c-0.057-0.059-0.063-0.065-0.1-0.088
			c-0.017-0.01-0.03-0.022-0.032-0.027c-0.002-0.005-0.01-0.011-0.018-0.014c-0.008-0.003-0.023-0.015-0.034-0.026
			c-0.012-0.013-0.022-0.022-0.025-0.022c-0.011,0-0.121-0.109-0.137-0.135c-0.003-0.005,0.06-0.008,0.197-0.008
			c0.11,0,0.202-0.002,0.203-0.004c0.002-0.001,0.006-0.001,0.01,0C35.444,8.316,35.468,8.318,35.494,8.317 M37.497,8.444
			c0.033,0.033,0.067,0.068,0.076,0.08c0.01,0.01,0.039,0.037,0.066,0.059c0.027,0.021,0.058,0.052,0.067,0.067
			c0.015,0.022,0.053,0.062,0.104,0.105c0.003,0.003,0.04,0.041,0.084,0.085c0.042,0.044,0.086,0.086,0.096,0.092
			c0.011,0.006,0.04,0.034,0.064,0.061c0.025,0.027,0.056,0.059,0.067,0.071s0.021,0.023,0.021,0.027
			c0,0.002,0.017,0.019,0.038,0.035c0.021,0.017,0.059,0.051,0.085,0.076c0.026,0.026,0.051,0.047,0.055,0.047
			c0.007,0,0.183,0.174,0.183,0.182c0,0.005,0.021,0.026,0.144,0.146c0.017,0.017,0.039,0.035,0.049,0.041
			c0.009,0.006,0.025,0.022,0.036,0.038c0.01,0.015,0.042,0.052,0.072,0.083c0.029,0.03,0.056,0.061,0.058,0.068
			s0.006,0.012,0.01,0.012c0.007,0,0.054,0.049,0.079,0.085c0.028,0.039,0.021,0.048-0.037,0.054
			c-0.288,0.029-0.562,0.038-0.915,0.032c-0.067-0.001-0.198-0.001-0.292,0.002c-0.102,0.002-0.237,0.002-0.331-0.003
			c-0.089-0.004-0.185-0.008-0.214-0.01c-0.028-0.001-0.09-0.002-0.138-0.001c-0.219,0.002-0.22,0.002-0.251-0.039
			c-0.009-0.011-0.027-0.026-0.043-0.034c-0.029-0.015-0.083-0.061-0.083-0.07c-0.001-0.007-0.034-0.04-0.065-0.063
			c-0.013-0.009-0.045-0.037-0.069-0.062c-0.025-0.025-0.062-0.06-0.083-0.08c-0.021-0.018-0.038-0.038-0.04-0.043
			c-0.002-0.005-0.016-0.018-0.029-0.028c-0.055-0.04-0.055-0.054-0.001-0.102c0.022-0.02,0.058-0.053,0.078-0.075
			c0.021-0.021,0.042-0.042,0.046-0.047c0.022-0.019,0.14-0.135,0.192-0.189c0.084-0.087,0.136-0.136,0.167-0.161
			c0.015-0.012,0.027-0.024,0.027-0.027c0-0.003,0.043-0.048,0.096-0.101c0.052-0.052,0.111-0.117,0.131-0.144
			c0.021-0.027,0.039-0.049,0.042-0.049c0.011,0,0.176-0.167,0.19-0.192c0.009-0.013,0.017-0.024,0.019-0.024
			c0.003,0,0.019-0.016,0.034-0.035c0.022-0.027,0.032-0.034,0.042-0.032C37.432,8.383,37.465,8.412,37.497,8.444 M34.777,8.477
			c0.012,0.009,0.029,0.024,0.039,0.034c0.009,0.01,0.024,0.021,0.034,0.027c0.011,0.005,0.03,0.02,0.044,0.032
			c0.015,0.013,0.035,0.03,0.046,0.038c0.038,0.027,0.129,0.109,0.205,0.183c0.042,0.041,0.092,0.088,0.111,0.104
			c0.02,0.017,0.052,0.045,0.071,0.062c0.051,0.044,0.144,0.14,0.161,0.167c0.009,0.012,0.033,0.039,0.056,0.059
			c0.021,0.02,0.059,0.054,0.081,0.076c0.023,0.021,0.048,0.044,0.056,0.049c0.008,0.005,0.014,0.012,0.014,0.015
			c0,0.006,0.027,0.03,0.035,0.031c0.006,0,0.009,0.002,0.061,0.046c0.077,0.065,0.127,0.115,0.128,0.126
			c0,0.012-0.045,0.059-0.271,0.288c-0.05,0.05-0.091,0.093-0.091,0.097c0,0.003-0.028,0.032-0.063,0.063s-0.088,0.083-0.117,0.115
			c-0.048,0.052-0.098,0.1-0.281,0.272c-0.039,0.036-0.085,0.083-0.101,0.103c-0.017,0.021-0.046,0.05-0.064,0.064
			c-0.02,0.015-0.044,0.038-0.053,0.052c-0.009,0.014-0.034,0.039-0.055,0.055c-0.021,0.017-0.056,0.047-0.076,0.067
			c-0.021,0.021-0.046,0.042-0.056,0.048c-0.011,0.007-0.025,0.019-0.032,0.029c-0.022,0.028-0.042,0.024-0.088-0.021
			c-0.022-0.021-0.042-0.04-0.045-0.04s-0.037-0.031-0.077-0.07c-0.04-0.039-0.08-0.076-0.091-0.083
			c-0.055-0.043-0.155-0.143-0.202-0.198c-0.014-0.018-0.037-0.044-0.053-0.058c-0.015-0.015-0.037-0.04-0.049-0.057
			c-0.028-0.036-0.066-0.074-0.135-0.134c-0.028-0.025-0.069-0.066-0.092-0.09c-0.021-0.024-0.073-0.075-0.114-0.112
			s-0.075-0.071-0.075-0.076c0.001-0.004-0.002-0.008-0.008-0.008c-0.005,0-0.009-0.004-0.009-0.01s-0.004-0.01-0.008-0.01
			s-0.02-0.012-0.034-0.026c-0.014-0.015-0.033-0.031-0.044-0.036c-0.011-0.006-0.023-0.019-0.029-0.03s-0.013-0.02-0.017-0.02
			c-0.013,0-0.038-0.031-0.037-0.046c0.002-0.018,0.072-0.091,0.088-0.091c0.006,0,0.088-0.078,0.183-0.172
			c0.167-0.167,0.211-0.208,0.225-0.208c0.01,0,0.052-0.048,0.064-0.073c0.006-0.012,0.024-0.033,0.04-0.047
			c0.016-0.014,0.028-0.028,0.029-0.033c0-0.004,0.018-0.021,0.039-0.039c0.025-0.021,0.039-0.037,0.039-0.045
			c0-0.008,0.002-0.013,0.004-0.01c0.003,0.002,0.023-0.016,0.047-0.04s0.052-0.054,0.063-0.065
			c0.011-0.012,0.022-0.022,0.025-0.022s0.005-0.002,0.005-0.006c0-0.003,0.006-0.013,0.015-0.022
			c0.008-0.008,0.021-0.023,0.027-0.033c0.008-0.009,0.017-0.017,0.02-0.017s0.019-0.011,0.033-0.025
			c0.056-0.048,0.088-0.074,0.095-0.074c0.003,0,0.028-0.023,0.055-0.052c0.026-0.03,0.059-0.059,0.07-0.067
			c0.013-0.008,0.033-0.023,0.046-0.035c0.013-0.011,0.03-0.025,0.04-0.031c0.015-0.01,0.018-0.009,0.032,0.003
			C34.747,8.456,34.765,8.469,34.777,8.477 M36.203,9.78c0.123,0.12,0.171,0.167,0.213,0.203c0.02,0.017,0.044,0.041,0.054,0.054
			l0.02,0.024l-0.041,0.045c-0.022,0.025-0.059,0.061-0.08,0.081c-0.021,0.021-0.057,0.056-0.078,0.08
			c-0.022,0.023-0.057,0.06-0.076,0.08s-0.039,0.041-0.043,0.046c-0.005,0.004-0.025,0.021-0.045,0.035
			c-0.021,0.015-0.07,0.059-0.108,0.099c-0.038,0.04-0.088,0.09-0.112,0.113c-0.09,0.086-0.113,0.111-0.12,0.125
			c-0.004,0.009-0.01,0.015-0.013,0.015c-0.004,0-0.021,0.013-0.036,0.028c-0.017,0.016-0.04,0.038-0.053,0.049
			c-0.013,0.012-0.022,0.021-0.024,0.021c-0.001,0-0.016,0.015-0.033,0.032c-0.018,0.019-0.053,0.052-0.078,0.077
			c-0.024,0.024-0.066,0.066-0.093,0.092c-0.025,0.026-0.056,0.053-0.066,0.06c-0.032,0.02-0.08,0.062-0.08,0.072
			c0,0.005-0.003,0.009-0.007,0.009c-0.003,0-0.018,0.011-0.031,0.024s-0.042,0.04-0.064,0.059c-0.031,0.027-0.042,0.033-0.055,0.03
			c-0.021-0.005-0.072-0.041-0.072-0.049c0-0.008-0.136-0.143-0.145-0.143c-0.003,0-0.007-0.002-0.007-0.006
			c0-0.003-0.018-0.025-0.039-0.047c-0.021-0.023-0.041-0.046-0.043-0.052c-0.002-0.006-0.011-0.015-0.02-0.021
			c-0.01-0.007-0.017-0.017-0.017-0.026c0-0.017,0.063-0.084,0.115-0.123c0.02-0.015,0.036-0.029,0.036-0.031
			c0-0.004,0.07-0.078,0.093-0.097c0.005-0.005,0.031-0.032,0.061-0.061c0.028-0.029,0.06-0.057,0.07-0.061
			c0.011-0.004,0.019-0.011,0.019-0.015c0-0.007,0.071-0.082,0.132-0.139c0.05-0.047,0.116-0.113,0.135-0.136
			c0.008-0.009,0.023-0.025,0.036-0.036c0.032-0.029,0.104-0.108,0.104-0.116c0-0.003,0.004-0.006,0.009-0.006
			c0.004,0,0.045-0.039,0.09-0.086s0.089-0.092,0.097-0.101c0.024-0.021,0.252-0.249,0.271-0.271
			c0.011-0.011,0.022-0.021,0.026-0.021S36.153,9.73,36.203,9.78 M33.312,9.911c0.021,0.021,0.047,0.045,0.06,0.055
			s0.061,0.054,0.106,0.099c0.046,0.044,0.09,0.083,0.097,0.086c0.02,0.01,0.055,0.044,0.085,0.081
			c0.016,0.019,0.032,0.034,0.038,0.034c0.005,0,0.009,0.002,0.009,0.005c0,0.002,0.012,0.018,0.027,0.034
			c0.014,0.016,0.038,0.043,0.054,0.06c0.041,0.047,0.077,0.084,0.081,0.084c0.002,0,0.018,0.015,0.034,0.034
			c0.051,0.057,0.233,0.236,0.273,0.27c0.022,0.018,0.05,0.046,0.064,0.062c0.014,0.017,0.036,0.038,0.05,0.047
			c0.042,0.028,0.132,0.122,0.132,0.139c0,0.014-0.091,0.106-0.158,0.161c-0.012,0.011-0.043,0.037-0.068,0.06
			c-0.025,0.023-0.05,0.042-0.054,0.042s-0.026-0.019-0.05-0.042c-0.022-0.022-0.079-0.077-0.125-0.12
			c-0.046-0.044-0.083-0.082-0.083-0.084c0-0.003-0.038-0.043-0.084-0.089s-0.09-0.09-0.097-0.099
			c-0.008-0.008-0.027-0.027-0.046-0.042c-0.018-0.014-0.085-0.078-0.149-0.141c-0.063-0.063-0.15-0.149-0.194-0.19
			c-0.044-0.042-0.094-0.092-0.111-0.112c-0.032-0.038-0.131-0.132-0.191-0.184l-0.033-0.03l0.032-0.031
			c0.018-0.016,0.041-0.042,0.051-0.057s0.021-0.027,0.025-0.027s0.02-0.012,0.033-0.028c0.015-0.016,0.049-0.049,0.078-0.074
			c0.038-0.035,0.056-0.046,0.065-0.043C33.271,9.873,33.293,9.892,33.312,9.911 M37.208,10.263
			c0.119,0.005,0.585,0.007,0.909,0.005c0.096,0,0.243-0.001,0.328-0.001c0.125,0,0.241-0.004,0.328-0.008
			c0.005,0,0.023,0.001,0.041,0.004c0.018,0.002,0.031,0.001,0.031-0.001s0.017-0.004,0.038-0.002c0.038,0.003,0.053,0.003,0.093,0
			c0.029-0.003,0.033,0.012,0.01,0.038c-0.01,0.011-0.026,0.033-0.039,0.052c-0.012,0.018-0.037,0.049-0.055,0.069
			c-0.02,0.02-0.039,0.046-0.045,0.058c-0.006,0.012-0.029,0.037-0.053,0.056c-0.053,0.041-0.24,0.229-0.256,0.254
			c-0.007,0.011-0.013,0.019-0.015,0.019s-0.021,0.015-0.04,0.033s-0.038,0.033-0.04,0.033c-0.003,0-0.014,0.013-0.025,0.03
			c-0.019,0.026-0.162,0.174-0.169,0.174s-0.106,0.104-0.106,0.111c0,0.004-0.011,0.014-0.022,0.022
			c-0.013,0.008-0.024,0.02-0.025,0.026c-0.002,0.006-0.02,0.022-0.04,0.035c-0.02,0.014-0.038,0.029-0.04,0.035
			s-0.015,0.019-0.027,0.03c-0.021,0.016-0.145,0.139-0.166,0.164c-0.016,0.017-0.079,0.082-0.108,0.109
			c-0.018,0.017-0.04,0.038-0.049,0.047c-0.05,0.051-0.102,0.104-0.129,0.13c-0.019,0.017-0.039,0.037-0.047,0.046
			c-0.043,0.047-0.054,0.054-0.098,0.062c-0.025,0.004-0.075,0.008-0.111,0.009c-0.037,0-0.097,0.003-0.132,0.007
			c-0.036,0.003-0.131,0.008-0.213,0.01c-0.081,0.003-0.17,0.007-0.196,0.009c-0.027,0.002-0.056,0.002-0.063,0
			s-0.016-0.004-0.017-0.002c-0.005,0.005-0.26,0.01-0.786,0.013c-0.291,0.003-0.606,0.006-0.702,0.008
			c-0.233,0.005-0.229,0.005-0.233,0c-0.006-0.006,0.06-0.095,0.076-0.104c0.008-0.003,0.013-0.011,0.013-0.015
			c0-0.009,0.061-0.069,0.07-0.069c0.004,0,0.016-0.015,0.026-0.032s0.028-0.038,0.039-0.044c0.021-0.014,0.055-0.043,0.111-0.099
			c0.022-0.022,0.06-0.055,0.082-0.072c0.043-0.032,0.108-0.097,0.151-0.149c0.015-0.016,0.048-0.045,0.075-0.063
			c0.027-0.019,0.075-0.059,0.106-0.091c0.03-0.031,0.078-0.073,0.104-0.094s0.062-0.057,0.08-0.08
			c0.019-0.023,0.047-0.05,0.062-0.062s0.046-0.042,0.066-0.068c0.021-0.026,0.066-0.074,0.101-0.107
			c0.034-0.032,0.079-0.076,0.099-0.097c0.02-0.02,0.049-0.047,0.063-0.059c0.062-0.05,0.277-0.25,0.289-0.269
			c0.008-0.012,0.035-0.041,0.062-0.064l0.048-0.043l0.161-0.003C37.004,10.255,37.039,10.256,37.208,10.263 M34.65,11.201
			c0.008,0.009,0.017,0.017,0.02,0.017c0.007,0,0.042,0.037,0.148,0.156c0.04,0.044,0.074,0.08,0.077,0.08
			c0.009,0,0.046,0.061,0.046,0.075c0,0.006-0.01,0.023-0.021,0.036s-0.022,0.026-0.024,0.03c-0.004,0.003-0.014,0.014-0.025,0.023
			c-0.01,0.009-0.053,0.052-0.093,0.096c-0.044,0.047-0.082,0.083-0.094,0.087c-0.018,0.006-0.021,0.004-0.05-0.02
			c-0.035-0.028-0.033-0.026-0.096-0.099c-0.024-0.028-0.063-0.07-0.086-0.093c-0.05-0.053-0.092-0.101-0.103-0.121
			c-0.007-0.013-0.004-0.018,0.021-0.047c0.015-0.019,0.03-0.033,0.033-0.033s0.052-0.046,0.108-0.102
			c0.056-0.056,0.107-0.102,0.114-0.102C34.633,11.185,34.644,11.192,34.65,11.201"/>
	</g>
	<g clip-path="url(#SVGID_5_)">
		<text transform="matrix(1 0 0 1 42.0708 11.8838)" font-family="'ComfortaaBold'" font-size="4.97">B</text>
	</g>
	<g clip-path="url(#SVGID_5_)">
		<text transform="matrix(1 0 0 1 44.3823 11.8838)" font-family="'ComfortaaBold'" font-size="4.97">l</text>
	</g>
	<g clip-path="url(#SVGID_5_)">
		<text transform="matrix(1 0 0 1 45.5054 11.8838)" font-family="'ComfortaaBold'" font-size="4.97">u</text>
	</g>
	<g clip-path="url(#SVGID_5_)">
		<text transform="matrix(1 0 0 1 49.8794 11.8838)" font-family="'ComfortaaBold'" font-size="4.97">P</text>
	</g>
	<g clip-path="url(#SVGID_5_)">
		<text transform="matrix(1 0 0 1 52.0562 11.8838)" font-family="'ComfortaaBold'" font-size="4.97">en</text>
	</g>
</g>
</svg>
