<?xml version="1.0" encoding="utf-8"?>
<!-- Generator: Adobe Illustrator 15.0.0, SVG Export Plug-In  -->
<!DOCTYPE svg PUBLIC "-//W3C//DTD SVG 1.1//EN" "http://www.w3.org/Graphics/SVG/1.1/DTD/svg11.dtd" >
<svg version="1.1"
	 xmlns="http://www.w3.org/2000/svg" xmlns:xlink="http://www.w3.org/1999/xlink" xmlns:a="http://ns.adobe.com/AdobeSVGViewerExtensions/3.0/"
viewBox="-0.5 -0.775879 127 137">
<defs>
    <style type="text/css">
      @font-face {
      font-family: 'ComfortaaBold';
      src: url('fonts/comfortaa/comfortaa_bold-webfont.eot');
      src: url('fonts/comfortaa/comfortaa_bold-webfont.eot?#iefix') format('embedded-opentype'),
      url('fonts/comfortaa/comfortaa_bold-webfont.woff') format('woff'),
      url('fonts/comfortaa/comfortaa_bold-webfont.ttf') format('truetype'),
      url('fonts/comfortaa/comfortaa_bold-webfont.svg#comfortaabold') format('svg');
      font-weight: normal;
      font-style: normal;
      }
      @font-face {
      font-family: 'OswaldBold';
      src: url('fonts/oswald/oswald-bold-webfont.eot');
      src: url('fonts/oswald/oswald-bold-webfont.eot?#iefix') format('embedded-opentype'),
      url('fonts/oswald/oswald-bold-webfont.woff') format('woff'),
      url('fonts/oswald/oswald-bold-webfont.ttf') format('truetype'),
      url('fonts/oswald/oswald-bold-webfont.svg#oswaldbold') format('svg');
      font-weight: normal;
      font-style: normal;
      }
      @font-face {
      font-family: 'OswaldBook';
      src: url('fonts/oswald/oswald-regular-webfont.eot');
      src: url('fonts/oswald/oswald-regular-webfont.eot?#iefix') format('embedded-opentype'),
      url('fonts/oswald/oswald-regular-webfont.woff') format('woff'),
      url('fonts/oswald/oswald-regular-webfont.ttf') format('truetype'),
      url('fonts/oswald/oswald-regular-webfont.svg#oswaldbook') format('svg');
      font-weight: normal;
      font-style: normal;
      }
    </style>
</defs>
<polygon fill="#808184" points="90.5,99.224121 90.766602,135.224121 126.5,99.224121 "/>
<line fill="none" stroke="#231F20" stroke-miterlimit="10" x1="36.304688" y1="134.315918" x2="36.304688" y2="34.23584"/>
<rect x="0.5" y="0.5" fill="#FFFFFF" stroke="#58595B" stroke-miterlimit="10" width="90.195312" height="134.724121"/>
<rect x="0.695312" y="18.224121" fill="none" width="90" height="27"/>
<text class="bp-shell-collection" transform="matrix(1 0 0 1 13.336914 31.407715)"><tspan x="0" y="0" fill="#231F20" font-family="'OswaldBold'" font-size="15">ZIMBABWE</tspan><tspan x="-5.447754" y="10.799805" fill="#231F20" font-family="'OswaldBook'" font-size="9">A VISUAL COLLECTION</tspan></text>
<circle opacity="0.75" fill="#B1005D" enable-background="new    " cx="51.500977" cy="73.347168" r="5.941406"/>
<circle opacity="0.75" fill="#B1005D" enable-background="new    " cx="13.757812" cy="102.371582" r="1.485352"/>
<circle opacity="0.75" fill="#B1005D" enable-background="new    " cx="66.414062" cy="61.563965" r="2.970703"/>
<circle opacity="0.75" fill="#B1005D" enable-background="new    " cx="61.296875" cy="68.214355" r="2.970703"/>
<circle opacity="0.6" fill="#FF0084" enable-background="new    " cx="75.753906" cy="60.452637" r="5.941406"/>
<circle opacity="0.75" fill="#71869A" enable-background="new    " cx="30.201172" cy="91.997559" r="2.970703"/>
<circle opacity="0.75" fill="#71869A" enable-background="new    " cx="34.858398" cy="91.262207" r="1.485352"/>
<circle opacity="0.9" fill="#32506D" enable-background="new    " cx="26.551758" cy="96.180176" r="1.485352"/>
<circle opacity="0.6" fill="#9BAAB8" enable-background="new    " cx="27.5" cy="105.253418" r="2.970703"/>
<circle opacity="0.6" fill="#9BAAB8" enable-background="new    " cx="29.145508" cy="96.109863" r="1.485352"/>
<circle opacity="0.9" fill="#1AB6E5" enable-background="new    " cx="72.791016" cy="79.987793" r="5.941406"/>
<circle opacity="0.6" fill="#BEEDFF" enable-background="new    " cx="33.819336" cy="98.907715" r="2.970703"/>
<circle opacity="0.9" fill="#1AB6E5" enable-background="new    " cx="57.599609" cy="93.86084" r="2.970703"/>
<circle opacity="0.75" fill="#79DEFF" enable-background="new    " cx="43.96875" cy="95.205566" r="1.485352"/>
<circle opacity="0.6" fill="#BEEDFF" enable-background="new    " cx="34.415039" cy="74.07959" r="2.970703"/>
<circle opacity="0.75" fill="#CB5200" stroke="#B10000" stroke-width="3" enable-background="new    " cx="40.865234" cy="82.378418" r="2.970703"/>
<circle opacity="0.75" fill="#CB5200" stroke="#B10000" stroke-width="3" enable-background="new    " cx="44.265625" cy="85.089355" r="2.970703"/>
<circle opacity="0.75" fill="#CB5200" stroke="#B10000" stroke-width="3" enable-background="new    " cx="43.908203" cy="89.358887" r="2.970703"/>
<circle fill="#6085FF" cx="36.881348" cy="8.462891" r="3.966797"/>
<g id="XMLID_2_">
	<g>
		<polygon fill="#727180" points="38.231934,6.55957 36.90625,7.847656 35.589355,6.55957 		"/>
	</g>
	<g>
	</g>
</g>
<polygon fill="#727180" points="37.514648,8.460938 35.554688,10.289551 38.319824,10.377441 40.192383,8.382324 "/>
<path fill="#FFFFFF" d="M35.547363,6.375488c-0.024414,0.010742-0.099609,0.082031-0.099609,0.09375
	c0,0.004883-0.012695,0.015625-0.027832,0.025879c-0.032227,0.020996-0.049316,0.037598-0.054199,0.055176
	c-0.001953,0.005859-0.01709,0.018555-0.032715,0.02832c-0.016602,0.009277-0.029785,0.021484-0.029785,0.026367
	c0,0.005371-0.001953,0.009277-0.004395,0.008789c-0.003418-0.000977-0.035156,0.02832-0.071289,0.064453
	c-0.035645,0.036133-0.099609,0.098145-0.140625,0.138184c-0.041504,0.040039-0.098145,0.09668-0.125,0.125488
	s-0.05127,0.05127-0.053711,0.049805c-0.001953-0.001465-0.009766,0.007812-0.017578,0.020508
	c-0.007324,0.012207-0.016113,0.022949-0.019043,0.022949c-0.003418,0-0.014648,0.012207-0.024902,0.027344
	c-0.033691,0.049805-0.147949,0.153809-0.161133,0.145508c-0.00293-0.000977-0.006836,0.003418-0.008789,0.012207
	c-0.004883,0.018066-0.082031,0.095703-0.116211,0.116211c-0.01416,0.007812-0.027344,0.018555-0.029785,0.023438
	c-0.003418,0.004395-0.022949,0.026855-0.043945,0.049805c-0.021484,0.022461-0.047363,0.053223-0.057129,0.067383
	c-0.022949,0.03418-0.05127,0.0625-0.111328,0.112305C34.291992,7.611328,34.25,7.648438,34.224121,7.672852
	c-0.025391,0.024414-0.052734,0.049316-0.061035,0.054199c-0.008301,0.006348-0.014648,0.016113-0.014648,0.021973
	s-0.008301,0.019043-0.018555,0.028809c-0.047852,0.047852-0.105469,0.100586-0.129395,0.118164
	c-0.013672,0.010254-0.040039,0.03125-0.057129,0.046387s-0.040039,0.03418-0.050293,0.04248
	c-0.010742,0.008301-0.02832,0.028809-0.039551,0.045898c-0.01123,0.016602-0.036621,0.044922-0.057129,0.0625
	c-0.02002,0.018555-0.039551,0.040039-0.04248,0.048828c-0.003418,0.008301-0.01123,0.01709-0.01709,0.019531
	c-0.011719,0.004883-0.068359,0.052734-0.180664,0.155762C33.5,8.368652,33.458984,8.42041,33.458984,8.441406
	c0,0.003906,0.009277,0.024902,0.020508,0.046387c0.014648,0.028809,0.032227,0.050781,0.062988,0.076172
	c0.023438,0.019531,0.058594,0.050781,0.077637,0.068848c0.019531,0.018066,0.047852,0.044434,0.062988,0.059082
	c0.015625,0.014648,0.041992,0.037109,0.058105,0.049316c0.035645,0.026855,0.308594,0.300293,0.308594,0.309082
	c0,0.002441,0.007324,0.009277,0.016602,0.014648c0.008789,0.004395,0.038086,0.03418,0.063965,0.064941
	c0.026367,0.030762,0.070312,0.075684,0.098633,0.100098c0.027344,0.023926,0.050293,0.045898,0.050293,0.048828
	c0,0.008789,0.117188,0.124512,0.136719,0.134277c0.01123,0.005859,0.026855,0.02002,0.034668,0.031738
	c0.008789,0.011719,0.022461,0.028809,0.030273,0.038086c0.008301,0.008789,0.015137,0.019043,0.015137,0.022949
	c0,0.007812,0.082031,0.092285,0.103516,0.106934c0.007812,0.005371,0.014648,0.013672,0.014648,0.018555
	s0.002441,0.008789,0.005859,0.008789s0.022461,0.014648,0.041992,0.033203c0.019531,0.017578,0.038574,0.032715,0.041016,0.032715
	c0.006836,0,0.081055,0.071289,0.18457,0.177734c0.068359,0.070312,0.082031,0.082031,0.102539,0.088379
	c0.005859,0.00293,0.01123,0.007324,0.01123,0.011719s0.021484,0.02832,0.047363,0.054688
	c0.080078,0.07959,0.112793,0.115234,0.131836,0.144531c0.009766,0.015137,0.036621,0.044434,0.059082,0.06543
	c0.021973,0.020996,0.049805,0.049805,0.060059,0.064453c0.03418,0.045898,0.093262,0.108398,0.102539,0.108398
	c0.002441,0,0.011719,0.01123,0.020508,0.024902c0.008789,0.013184,0.029297,0.033203,0.044922,0.043945
	c0.016113,0.010254,0.039551,0.028809,0.053223,0.041016l0.023926,0.022461l0.064941-0.003418
	c0.035156-0.001953,0.087891-0.006836,0.116699-0.010742c0.052734-0.007324,0.114746-0.010254,0.396973-0.016602
	c0.17627-0.003906,0.137207-0.003906,0.764648-0.001465c0.27832,0.001465,0.512207-0.000488,0.520996-0.003418
	c0.008301-0.00293,0.018555-0.00293,0.021484,0c0.006836,0.006836,0.153809,0.003906,0.264648-0.004395
	c0.042969-0.003418,0.085938-0.005859,0.095215-0.005859c0.009277-0.000488,0.045898-0.001953,0.082031-0.004395
	c0.080078-0.004883,0.065918-0.003906,0.180176-0.003418c0.321289,0.003418,0.339844,0,0.407227-0.061523
	c0.016113-0.015137,0.038574-0.033203,0.049805-0.039551c0.01123-0.006836,0.026367-0.021484,0.032715-0.032715
	s0.024414-0.033691,0.040039-0.049316s0.02832-0.032715,0.02832-0.038086s0.003418-0.007324,0.006348-0.005371
	c0.003906,0.001953,0.006836,0,0.006836-0.005859c0-0.005371,0.010742-0.020996,0.024902-0.035156
	c0.077148-0.081543,0.165039-0.180176,0.165039-0.187012c0-0.00293,0.003906-0.004883,0.008789-0.004883
	c0.004395,0,0.013184-0.004883,0.019043-0.011719c0.005859-0.005859,0.018066-0.016602,0.027344-0.022949
	s0.01709-0.017578,0.01709-0.024414c0-0.007324,0.003906-0.013184,0.008789-0.013184c0.004395,0,0.019043-0.011719,0.03125-0.026855
	c0.012695-0.01416,0.032227-0.030762,0.043945-0.035156c0.01123-0.005371,0.020996-0.012207,0.020996-0.016113
	c0-0.00293,0.019531-0.022949,0.044922-0.043945c0.023926-0.020508,0.049805-0.045898,0.057617-0.055664
	c0.007324-0.010742,0.015625-0.01709,0.017578-0.01416c0.00293,0.001465,0.004883-0.000977,0.004883-0.006348
	c0-0.005859,0.008301-0.017578,0.019043-0.026367c0.009766-0.008301,0.023438-0.023438,0.029297-0.033203
	c0.006348-0.009277,0.020508-0.020996,0.030762-0.025391c0.010742-0.004883,0.019043-0.010742,0.019043-0.012695
	c0-0.002441,0.02832-0.032715,0.0625-0.067383c0.03418-0.03418,0.062012-0.065918,0.062012-0.069824
	c0-0.003418,0.003418-0.006348,0.007324-0.006348c0.009277,0,0.088867-0.07959,0.086426-0.086914
	c-0.000977-0.00293,0.000977-0.004395,0.003906-0.002441c0.006348,0.003906,0.070801-0.061523,0.067871-0.070312
	c-0.000488-0.002441,0.009277-0.009766,0.021973-0.015137c0.012207-0.004883,0.022949-0.011719,0.022949-0.01416
	c0-0.005371,0.009766-0.015137,0.077148-0.078125c0.018555-0.018555,0.03418-0.036133,0.03418-0.040527
	c0-0.004883,0.002441-0.006836,0.005371-0.004883c0.003418,0.001953,0.015625-0.008301,0.02832-0.023438
	c0.012207-0.014648,0.039062-0.042969,0.060059-0.062988c0.020508-0.02002,0.037598-0.039062,0.037598-0.041504
	c0-0.003418,0.006348-0.012695,0.015137-0.021484c0.007812-0.008789,0.027344-0.03125,0.043945-0.049316
	c0.043945-0.049805,0.053711-0.060547,0.087891-0.089355c0.017578-0.014648,0.036133-0.03125,0.041992-0.037598
	c0.005371-0.005859,0.012695-0.009766,0.015137-0.007812c0.003418,0.001465,0.009766-0.005371,0.015137-0.015137
	s0.022949-0.029785,0.039551-0.044434c0.068848-0.05957,0.100586-0.093262,0.111328-0.112793
	c0.005371-0.01123,0.019043-0.027832,0.029297-0.036133c0.020996-0.015625,0.066406-0.072754,0.066406-0.082031
	c0-0.003418,0.012695-0.016602,0.02832-0.029785c0.030273-0.024902,0.040039-0.046875,0.047852-0.10791
	c0.003906-0.032227,0.003418-0.035645-0.015625-0.052734C40.307617,8.39209,40.289551,8.36377,40.27832,8.340332
	c-0.015137-0.032715-0.028809-0.050781-0.055664-0.072266c-0.02002-0.015625-0.036133-0.03125-0.037109-0.03418
	c-0.000488-0.012695-0.108887-0.122559-0.120605-0.122559c-0.003906,0-0.01416-0.007324-0.023438-0.015137
	c-0.025879-0.022461-0.12207-0.143555-0.127441-0.159668c-0.003906-0.013184-0.095215-0.100098-0.125488-0.120605
	c-0.008301-0.005859-0.021973-0.017578-0.03125-0.026367c-0.008789-0.008789-0.036133-0.036133-0.061035-0.060547
	c-0.024902-0.023926-0.055664-0.055664-0.068359-0.070801c-0.012695-0.01416-0.026855-0.030762-0.030762-0.035156
	c-0.004883-0.005371-0.018066-0.015137-0.029785-0.022461c-0.036133-0.022949-0.202637-0.192383-0.233398-0.237305
	c-0.018555-0.026855-0.070801-0.077637-0.119141-0.115234c-0.018066-0.01416-0.040527-0.036621-0.049805-0.048828
	c-0.008789-0.012695-0.032715-0.038086-0.052734-0.056152C39.091797,7.125,39.053223,7.087402,39.025391,7.059082
	c-0.027344-0.027344-0.07666-0.077148-0.109375-0.110352c-0.032227-0.032715-0.063965-0.061523-0.069824-0.063965
	c-0.017578-0.006348-0.14209-0.125977-0.171875-0.164551c-0.015137-0.02002-0.043457-0.052246-0.062012-0.071777
	c-0.019531-0.019531-0.039062-0.04541-0.043945-0.057129s-0.016113-0.024902-0.024414-0.029297
	c-0.007812-0.004883-0.045898-0.038086-0.083984-0.075195c-0.066406-0.063477-0.071289-0.066895-0.118164-0.080566
	c-0.026855-0.007812-0.061035-0.015625-0.075684-0.018555c-0.01416-0.002441-0.03125-0.006836-0.037598-0.009766
	c-0.010742-0.005859-0.128418-0.006348-0.32959-0.001953c-0.06543,0.001465-0.13623,0.001953-0.157715,0.001465
	c-0.057129-0.001465-0.06543-0.001465-0.131348,0.003906c-0.032227,0.002441-0.107422,0.005371-0.16748,0.005371
	c-0.063477,0-0.111328,0.002441-0.116211,0.006348c-0.005859,0.004883-0.010742,0.004883-0.016113,0
	c-0.005371-0.003906-0.10498-0.006348-0.267578-0.006836c-0.142578-0.000977-0.291504-0.00293-0.331543-0.004883
	c-0.039551-0.001953-0.088867-0.003418-0.108398-0.002441c-0.049805,0.000977-0.043457,0.000977-0.164062-0.001953
	c-0.05957-0.002441-0.109375-0.003906-0.111328-0.004883c-0.001953-0.000488-0.005371-0.001465-0.007812-0.000488
	C36.3125,6.37207,35.925781,6.381348,35.907227,6.380859c-0.085449-0.001465-0.296875-0.009277-0.31543-0.012207
	C35.579102,6.366699,35.559082,6.370117,35.547363,6.375488z M36.335449,6.647949
	c0.026367-0.001465,0.069824-0.000977,0.09668,0.000488s0.084473,0.001953,0.12793,0.002441
	c0.044434,0,0.080566,0.00293,0.083496,0.006836c0.00293,0.004395,0.004883,0.003906,0.004883,0
	c0-0.007324,0.519043-0.007812,0.538086-0.000977c0.01123,0.003906,0.35498,0.000977,0.633301-0.005859l0.19043-0.004395
	L37.99707,6.661621c-0.007324,0.008301-0.035156,0.037109-0.0625,0.064941c-0.026855,0.026855-0.05957,0.062988-0.072754,0.078613
	c-0.03125,0.039551-0.083984,0.09082-0.152832,0.150879c-0.030762,0.026855-0.066895,0.064941-0.080078,0.083984
	s-0.037109,0.044922-0.054688,0.057129c-0.016113,0.011719-0.100098,0.092773-0.186035,0.178711
	c-0.085449,0.085938-0.171387,0.171387-0.19043,0.188965c-0.018066,0.018066-0.040039,0.040527-0.047363,0.049316
	c-0.006836,0.008789-0.036621,0.036621-0.064941,0.062012c-0.027832,0.024902-0.063477,0.057129-0.077148,0.070312
	c-0.024414,0.023926-0.058105,0.03418-0.058105,0.018555c0-0.003906-0.00293-0.006836-0.006836-0.006836
	c-0.009277,0-0.04541-0.035645-0.04541-0.044922c0-0.003906-0.002441-0.007324-0.006348-0.007324
	c-0.003418,0-0.017578-0.01123-0.03125-0.024902c-0.041016-0.040039-0.080078-0.072266-0.092285-0.07666
	c-0.011719-0.003906-0.07373-0.059082-0.07373-0.065918c0-0.001953-0.01416-0.019043-0.032715-0.037598
	c-0.017578-0.018066-0.032715-0.035156-0.032715-0.038574c0-0.002441-0.024414-0.024902-0.053711-0.04834
	c-0.030273-0.023926-0.057129-0.045898-0.061035-0.049805c-0.003418-0.003906-0.018066-0.018555-0.032227-0.031738
	c-0.04541-0.041992-0.131348-0.12793-0.148926-0.148438c-0.009277-0.01123-0.028809-0.029785-0.042969-0.04248
	c-0.01416-0.012207-0.046387-0.04541-0.072266-0.072266c-0.056152-0.059082-0.063477-0.06543-0.099609-0.087891
	c-0.015625-0.009766-0.029297-0.021484-0.03125-0.026855s-0.010742-0.01123-0.017578-0.013672
	c-0.008301-0.00293-0.023926-0.014648-0.035156-0.026367c-0.01123-0.012207-0.021973-0.022461-0.024902-0.022461
	c-0.010254,0-0.120605-0.108887-0.13623-0.134277c-0.003418-0.005371,0.058594-0.007812,0.196777-0.008789
	c0.109863-0.000488,0.202148-0.002441,0.203125-0.004395c0.001953-0.001465,0.006348-0.001465,0.009277,0.000488
	C36.285645,6.646973,36.309082,6.648438,36.335449,6.647949z M38.338379,6.774902
	c0.032715,0.033203,0.066895,0.068359,0.076172,0.07959c0.009766,0.010742,0.039551,0.037598,0.066895,0.059082
	c0.026855,0.021484,0.057129,0.051758,0.066895,0.066895c0.014648,0.022461,0.053223,0.062012,0.103516,0.105469
	c0.00293,0.00293,0.040039,0.041016,0.083496,0.084961c0.042969,0.044434,0.086914,0.085938,0.09668,0.091797
	c0.010254,0.006348,0.039062,0.03418,0.063965,0.061035c0.025879,0.026855,0.056152,0.059082,0.066895,0.070801
	c0.012207,0.011719,0.021973,0.023926,0.021973,0.026855s0.01709,0.019043,0.038086,0.035645
	c0.02002,0.016113,0.059082,0.050293,0.085449,0.076172c0.025879,0.025391,0.050293,0.046387,0.054199,0.046387
	c0.007324,0,0.183105,0.174805,0.183105,0.182617c0,0.004395,0.020996,0.026367,0.143066,0.146484
	c0.01709,0.016113,0.038574,0.034668,0.04834,0.040527c0.009277,0.005859,0.025879,0.022949,0.036133,0.038086
	s0.042969,0.052246,0.072266,0.083008c0.029785,0.030273,0.055664,0.061035,0.057617,0.067871
	c0.00293,0.007324,0.006836,0.012207,0.010254,0.012207c0.006836,0,0.053711,0.049316,0.079102,0.084961
	c0.02832,0.039062,0.021973,0.04834-0.037109,0.054199c-0.288086,0.029297-0.561035,0.038086-0.915039,0.031738
	c-0.066895-0.001465-0.198242-0.000488-0.291992,0.001953c-0.101074,0.002441-0.236816,0.001953-0.331543-0.002441
	c-0.088379-0.004395-0.184082-0.008789-0.212891-0.010254c-0.029297-0.000977-0.09082-0.001953-0.138184-0.000977
	c-0.218262,0.001953-0.219727,0.001953-0.250977-0.039551c-0.008789-0.010254-0.027832-0.025391-0.042969-0.033203
	C37.54248,8.221191,37.48877,8.17627,37.48877,8.166504c-0.000977-0.007324-0.03418-0.040039-0.065918-0.062988
	c-0.012695-0.009277-0.043945-0.037598-0.068848-0.062012c-0.025879-0.024902-0.0625-0.060059-0.08252-0.079102
	c-0.020508-0.018555-0.039062-0.038086-0.041016-0.043457s-0.015137-0.017578-0.028809-0.02832
	c-0.054199-0.040039-0.055176-0.053711-0.000488-0.101562c0.022461-0.02002,0.057129-0.053223,0.078125-0.074707
	c0.020508-0.021973,0.041016-0.042969,0.045898-0.047363c0.021484-0.018555,0.13916-0.134766,0.191406-0.188965
	c0.084961-0.086914,0.13623-0.135742,0.16748-0.161133c0.015137-0.011719,0.027832-0.023926,0.027832-0.027344
	c0-0.002441,0.04248-0.047852,0.094727-0.100586c0.052734-0.052246,0.111816-0.117188,0.131348-0.144043
	c0.020508-0.026855,0.039551-0.049316,0.041992-0.049316c0.010742,0,0.175293-0.166504,0.19043-0.192383
	c0.008301-0.013184,0.01709-0.024414,0.019043-0.024414c0.002441,0,0.017578-0.015625,0.033203-0.035156
	c0.022461-0.026855,0.032227-0.03418,0.042969-0.031738C38.273438,6.714355,38.306152,6.742188,38.338379,6.774902z
	 M35.618164,6.808105c0.012695,0.008301,0.030273,0.023438,0.039551,0.033203s0.024902,0.021484,0.034668,0.027832
	c0.010742,0.004883,0.030273,0.019531,0.043945,0.031738c0.013672,0.012695,0.03418,0.029785,0.04541,0.037598
	c0.038086,0.027832,0.129395,0.108887,0.205566,0.183105c0.041504,0.040527,0.091797,0.087891,0.111328,0.104492
	c0.019043,0.01709,0.05127,0.044434,0.070801,0.061523c0.05127,0.044434,0.143555,0.140625,0.161621,0.16748
	c0.008301,0.012207,0.032715,0.039062,0.055176,0.059082c0.021484,0.019531,0.058105,0.053711,0.081055,0.075195
	c0.022949,0.021973,0.047852,0.043945,0.056152,0.049316c0.006836,0.005371,0.013672,0.011719,0.013672,0.015137
	c0,0.006348,0.026855,0.030273,0.034668,0.030762c0.005859,0,0.008301,0.001953,0.060547,0.045898
	c0.077148,0.064941,0.126953,0.114746,0.12793,0.126953c0,0.011719-0.044922,0.059082-0.270508,0.287109
	c-0.049805,0.050293-0.090332,0.093262-0.090332,0.09668s-0.029297,0.032227-0.063965,0.063477
	c-0.035645,0.031738-0.087891,0.083496-0.116699,0.114746c-0.048828,0.052734-0.097656,0.100098-0.282227,0.272461
	c-0.038574,0.036133-0.083984,0.083008-0.100586,0.103027c-0.015625,0.020996-0.044922,0.049805-0.063965,0.064453
	c-0.02002,0.015137-0.043457,0.038086-0.052734,0.052246s-0.03418,0.039062-0.055176,0.055176
	c-0.020996,0.016602-0.055176,0.046875-0.076172,0.066895c-0.02002,0.020508-0.045898,0.041992-0.055664,0.047852
	C35.521484,9.088379,35.507324,9.100586,35.5,9.11084c-0.022461,0.02832-0.041016,0.023438-0.086914-0.021973
	c-0.022461-0.021484-0.042969-0.039062-0.04541-0.039062c-0.00293,0-0.037598-0.031738-0.077637-0.070312
	s-0.080078-0.076172-0.089844-0.083496c-0.055176-0.042969-0.15625-0.142578-0.202148-0.197266
	c-0.014648-0.018066-0.038086-0.043945-0.053223-0.058594c-0.01416-0.015137-0.036621-0.040039-0.049316-0.056641
	c-0.027344-0.036133-0.06543-0.07373-0.134277-0.134277c-0.02832-0.024902-0.069824-0.065918-0.091309-0.089844
	c-0.021484-0.024414-0.073242-0.074707-0.114746-0.111816c-0.041504-0.036621-0.074707-0.070801-0.074707-0.075195
	c0.000488-0.004883-0.00293-0.008789-0.007812-0.008789c-0.005371,0-0.009277-0.004395-0.009277-0.009766
	c0-0.004883-0.003418-0.009766-0.008301-0.009766c-0.003906,0-0.018555-0.011719-0.033203-0.026367
	c-0.013672-0.01416-0.03418-0.030762-0.044434-0.036133c-0.010742-0.005859-0.023926-0.019043-0.028809-0.029297
	c-0.006348-0.01123-0.013184-0.019531-0.016602-0.019531c-0.013184,0-0.039062-0.03125-0.037598-0.046875
	c0.001465-0.017578,0.072266-0.091309,0.087891-0.091309c0.005371,0,0.087402-0.077148,0.182617-0.172363
	c0.16748-0.16748,0.211426-0.208008,0.225098-0.208008c0.009277,0,0.05127-0.047852,0.064453-0.07373
	c0.005859-0.011719,0.023438-0.032715,0.039062-0.047363c0.016113-0.013672,0.029297-0.027832,0.029785-0.032715
	c0-0.003906,0.017578-0.021484,0.039062-0.038574c0.024902-0.020508,0.039062-0.036621,0.039062-0.04541
	c0-0.007812,0.001953-0.012207,0.003906-0.009766c0.002441,0.001953,0.023438-0.015625,0.046387-0.040039
	c0.023926-0.024414,0.051758-0.053711,0.063965-0.064941c0.010742-0.011719,0.021973-0.021484,0.025391-0.021484
	c0.002441,0,0.004395-0.00293,0.004395-0.006836c0-0.00293,0.006836-0.013184,0.015137-0.021973
	s0.020508-0.023926,0.027832-0.033203c0.006836-0.008789,0.015625-0.01709,0.019043-0.01709s0.018066-0.010742,0.033203-0.024902
	c0.055176-0.047852,0.087891-0.073242,0.094727-0.073242c0.003418,0,0.02832-0.023926,0.054199-0.052734
	c0.026367-0.029297,0.058594-0.059082,0.071289-0.066895c0.012207-0.007812,0.033203-0.022949,0.045898-0.034668
	c0.012207-0.01123,0.029785-0.024902,0.039062-0.030762c0.015137-0.009766,0.018066-0.009277,0.033203,0.002441
	C35.587891,6.787109,35.605469,6.799316,35.618164,6.808105z M37.044922,8.110352
	c0.12207,0.120605,0.17041,0.166992,0.212402,0.203125c0.019043,0.016113,0.043457,0.040527,0.054199,0.053711l0.019043,0.024414
	l-0.041016,0.044434c-0.021973,0.024902-0.058105,0.061035-0.080078,0.081543
	c-0.020996,0.02002-0.056152,0.055664-0.078613,0.079102c-0.021484,0.023926-0.055664,0.060059-0.075195,0.080078
	c-0.02002,0.020508-0.039551,0.040527-0.043457,0.046387c-0.004883,0.004395-0.024902,0.02002-0.04541,0.034668
	c-0.020996,0.01416-0.069336,0.058105-0.107422,0.098145c-0.038086,0.039551-0.088867,0.09082-0.112305,0.113281
	c-0.089844,0.085449-0.11377,0.110352-0.120117,0.124512c-0.003906,0.008301-0.009766,0.015137-0.013184,0.015137
	c-0.003906,0-0.020508,0.012207-0.036133,0.027344c-0.016113,0.015625-0.040039,0.038086-0.052246,0.049316
	c-0.012695,0.011719-0.023438,0.021484-0.024414,0.021484c-0.001465,0-0.016602,0.014648-0.033691,0.032227
	c-0.017578,0.018555-0.052246,0.052246-0.078125,0.077637c-0.024902,0.023926-0.066895,0.06543-0.092285,0.091797
	c-0.025391,0.025391-0.055664,0.052734-0.066895,0.059082c-0.032227,0.019531-0.080078,0.062988-0.080078,0.072266
	c0,0.004395-0.00293,0.008301-0.006836,0.008301c-0.00293,0-0.017578,0.01123-0.03125,0.024414
	c-0.013184,0.013672-0.041992,0.040039-0.064453,0.059082c-0.031738,0.027344-0.041992,0.033203-0.055176,0.029785
	c-0.020508-0.004883-0.072266-0.040527-0.072266-0.048828c0-0.008789-0.134766-0.143066-0.144043-0.143066
	c-0.003418,0-0.006836-0.002441-0.006836-0.006836c0-0.00293-0.017578-0.024902-0.039062-0.047363
	c-0.021973-0.022461-0.041016-0.045898-0.042969-0.052246c-0.001953-0.005859-0.01123-0.015137-0.019531-0.020996
	c-0.009277-0.006348-0.016602-0.01709-0.016602-0.025391c0-0.01709,0.062988-0.083984,0.115234-0.123047
	c0.019531-0.01416,0.035645-0.028809,0.035645-0.03125c0-0.003906,0.070312-0.077637,0.093262-0.097168
	c0.004883-0.004395,0.031738-0.031738,0.060547-0.060547c0.02832-0.028809,0.05957-0.056152,0.070312-0.060059
	c0.010254-0.004883,0.019043-0.01123,0.019043-0.014648c0-0.007812,0.070801-0.08252,0.131348-0.13916
	c0.050293-0.047363,0.115723-0.112793,0.134766-0.135742c0.007324-0.008301,0.023926-0.024902,0.036133-0.035645
	c0.032227-0.028809,0.104492-0.10791,0.104492-0.115234c0-0.003418,0.003906-0.005859,0.008301-0.005859
	c0.004883,0,0.04541-0.039062,0.090332-0.086914s0.088379-0.092285,0.097168-0.100098
	c0.023926-0.020996,0.251953-0.249512,0.271484-0.271973c0.009766-0.01123,0.021484-0.02002,0.025391-0.02002
	C36.949219,8.019531,36.994141,8.060547,37.044922,8.110352z M34.154297,8.241699
	c0.02002,0.020508,0.046387,0.04541,0.059082,0.055176c0.012207,0.009766,0.060059,0.054688,0.106934,0.098633
	c0.045898,0.043945,0.088867,0.08252,0.096191,0.086426c0.02002,0.010742,0.054688,0.043945,0.084961,0.080566
	c0.015625,0.018555,0.032715,0.03418,0.037598,0.03418c0.005371,0,0.009277,0.00293,0.009277,0.005371
	c0,0.00293,0.012207,0.018555,0.026855,0.03418c0.014648,0.016602,0.039062,0.043457,0.054199,0.060547
	c0.041016,0.046387,0.077148,0.083984,0.081055,0.083984c0.002441,0,0.01709,0.014648,0.03418,0.03418
	c0.050781,0.056152,0.23291,0.236328,0.273926,0.269531c0.021484,0.017578,0.049805,0.045898,0.063965,0.0625
	s0.036133,0.038086,0.050293,0.046875c0.041992,0.02832,0.130859,0.12207,0.130859,0.138672
	c0,0.013672-0.090332,0.106445-0.157227,0.160645c-0.012695,0.010742-0.043457,0.037598-0.068848,0.060059
	c-0.024902,0.022949-0.049316,0.041016-0.053223,0.041016c-0.004883,0-0.026855-0.018066-0.049805-0.041016
	c-0.022949-0.022461-0.07959-0.077148-0.125488-0.120117c-0.045898-0.043945-0.083496-0.082031-0.083496-0.084961
	s-0.037109-0.043457-0.083008-0.089355c-0.046875-0.045898-0.090332-0.090332-0.097168-0.099121
	c-0.007324-0.008301-0.027832-0.026367-0.045898-0.041016s-0.084961-0.078125-0.148926-0.141113
	s-0.151367-0.148926-0.195312-0.19043c-0.042969-0.041504-0.092773-0.091797-0.11084-0.111328
	c-0.032227-0.037598-0.130371-0.132324-0.190918-0.184082l-0.03418-0.029297l0.032715-0.030762
	c0.018066-0.016602,0.041016-0.042969,0.050781-0.057129c0.009766-0.015137,0.020996-0.026855,0.025391-0.026855
	c0.004883,0,0.02002-0.012695,0.033691-0.02832c0.013672-0.015137,0.04834-0.048828,0.077148-0.074219
	c0.039062-0.034668,0.056152-0.045898,0.065918-0.043457C34.112305,8.203613,34.134277,8.222168,34.154297,8.241699z
	 M38.049805,8.59375c0.118652,0.004395,0.584473,0.006836,0.908691,0.004883c0.095703-0.000488,0.243652-0.000977,0.328125-0.000977
	c0.124512-0.000977,0.240723-0.003906,0.328125-0.008789c0.005371,0,0.023438,0.001465,0.041504,0.003906
	c0.01709,0.001953,0.030762,0.001465,0.030762-0.000977c0-0.003418,0.01709-0.004883,0.038086-0.00293
	c0.038086,0.003418,0.053223,0.003418,0.093262,0c0.028809-0.002441,0.032715,0.011719,0.009766,0.038086
	c-0.009766,0.010742-0.026855,0.033691-0.039551,0.051758c-0.011719,0.018066-0.036621,0.049316-0.055176,0.068848
	c-0.019043,0.02002-0.038574,0.045898-0.044434,0.058105c-0.005859,0.011719-0.029785,0.036621-0.053223,0.055664
	c-0.052246,0.041504-0.240234,0.229004-0.255371,0.254395c-0.006348,0.010742-0.013184,0.019043-0.015137,0.019043
	s-0.02002,0.014648-0.040039,0.033203c-0.019043,0.017578-0.037109,0.032715-0.040039,0.032715
	c-0.002441,0-0.013672,0.013184-0.024902,0.029297c-0.018066,0.026367-0.162109,0.173828-0.168945,0.173828
	s-0.106445,0.104492-0.106445,0.111328c0,0.003906-0.010742,0.013672-0.022461,0.021484
	c-0.012207,0.008301-0.024414,0.019531-0.025391,0.026367c-0.001953,0.005859-0.02002,0.021484-0.040039,0.034668
	c-0.02002,0.013672-0.038086,0.029297-0.040039,0.035156c-0.001953,0.006348-0.014648,0.019043-0.027832,0.030273
	c-0.019531,0.016113-0.144043,0.13916-0.166016,0.164062c-0.015137,0.01709-0.078613,0.081543-0.10791,0.108887
	c-0.018066,0.017578-0.040527,0.038086-0.048828,0.047363c-0.049805,0.05127-0.101562,0.104004-0.129395,0.129883
	c-0.017578,0.01709-0.038574,0.037598-0.046387,0.045898c-0.043457,0.047363-0.053223,0.054199-0.097656,0.0625
	c-0.024902,0.004395-0.075684,0.008301-0.111816,0.009277c-0.036621,0-0.095703,0.002441-0.131348,0.006348
	c-0.036133,0.003418-0.131348,0.008301-0.212402,0.010254c-0.081543,0.002441-0.169922,0.006348-0.196777,0.008789
	c-0.026855,0.00293-0.056152,0.00293-0.062988,0c-0.007812-0.002441-0.015625-0.003906-0.01709-0.002441
	c-0.005371,0.005371-0.260254,0.009766-0.786133,0.013184c-0.291016,0.002441-0.606445,0.005859-0.702148,0.007812
	c-0.23291,0.005371-0.228516,0.005371-0.233887,0.000488c-0.005371-0.005859,0.060547-0.095215,0.07666-0.104004
	c0.007324-0.003418,0.012695-0.010742,0.012695-0.015137c0-0.009277,0.061035-0.069824,0.070801-0.069824
	c0.003418,0,0.015137-0.014648,0.026367-0.032227c0.010254-0.017578,0.02832-0.037109,0.038574-0.043945
	c0.021973-0.01416,0.054688-0.042969,0.111816-0.099121c0.021973-0.021973,0.05957-0.054199,0.082031-0.071289
	c0.04248-0.032227,0.10791-0.097168,0.151367-0.149902c0.013672-0.016113,0.047363-0.044922,0.074707-0.063477
	c0.027832-0.018555,0.074707-0.059082,0.106445-0.090332c0.030762-0.03125,0.078125-0.07373,0.104492-0.094727
	c0.025879-0.020996,0.062012-0.056152,0.080566-0.07959c0.017578-0.022949,0.045898-0.050293,0.061523-0.061523
	s0.045898-0.041992,0.066895-0.068359S36.909668,9.157715,36.943848,9.125c0.03418-0.032227,0.078613-0.076172,0.098633-0.096191
	c0.019531-0.020508,0.04834-0.047363,0.063477-0.059082c0.0625-0.049805,0.277832-0.249512,0.289551-0.269043
	c0.007812-0.011719,0.034668-0.041016,0.061035-0.064453l0.047852-0.04248l0.161621-0.003418
	C37.844727,8.586426,37.880371,8.586914,38.049805,8.59375z M35.492188,9.531738
	c0.007324,0.009277,0.015625,0.016602,0.019043,0.016602c0.007324,0,0.041992,0.036621,0.148926,0.15625
	c0.039551,0.043945,0.074219,0.080078,0.07666,0.080078c0.008789,0,0.04541,0.060547,0.04541,0.074707
	c0,0.006348-0.009277,0.022949-0.019531,0.036133c-0.01123,0.013184-0.022461,0.026367-0.024902,0.030273
	c-0.003418,0.003418-0.01416,0.013672-0.024902,0.022949s-0.052734,0.052734-0.093262,0.09668
	c-0.043457,0.046387-0.082031,0.08252-0.093262,0.086426c-0.017578,0.005859-0.022461,0.003906-0.050781-0.02002
	c-0.034668-0.027832-0.032715-0.025879-0.095703-0.098633c-0.023926-0.02832-0.062988-0.070312-0.084961-0.093262
	c-0.050781-0.052734-0.092285-0.101074-0.102539-0.120605c-0.007324-0.013184-0.004883-0.018555,0.019531-0.047363
	c0.015137-0.018555,0.030273-0.032715,0.033691-0.032715c0.002441,0,0.051758-0.045898,0.10791-0.102051
	c0.056641-0.055664,0.10791-0.101562,0.114258-0.101562C35.474609,9.515625,35.484863,9.522949,35.492188,9.531738z"/>
<rect x="42.912598" y="6.666016" fill="none" width="15.679199" height="5.950195"/>
<text transform="matrix(1 0 0 1 42.912598 10.214355)"><tspan x="0" y="0" font-family="'ComfortaaBold'" font-size="4.97">B</tspan><tspan x="2.313477" y="0" font-family="'ComfortaaBold'" font-size="4.97">l</tspan><tspan x="3.436523" y="0" font-family="'ComfortaaBold'" font-size="4.97" letter-spacing="1">u</tspan><tspan x="7.810547" y="0" font-family="'ComfortaaBold'" font-size="4.97">P</tspan><tspan x="9.98584" y="0" font-family="'ComfortaaBold'" font-size="4.97">en</tspan></text>
</svg>
