<?xml version="1.0" encoding="utf-8"?>
<!-- Generator: Adobe Illustrator 15.0.0, SVG Export Plug-In  -->
<!DOCTYPE svg PUBLIC "-//W3C//DTD SVG 1.1//EN" "http://www.w3.org/Graphics/SVG/1.1/DTD/svg11.dtd" >
<svg version="1.1"
	 xmlns="http://www.w3.org/2000/svg" xmlns:xlink="http://www.w3.org/1999/xlink" xmlns:a="http://ns.adobe.com/AdobeSVGViewerExtensions/3.0/"
         viewBox="0 -0.776 127 137">
<defs>
<style type="text/css">
@font-face {
    font-family: 'ComfortaaRegular';
    src: url('../fonts/comfortaa/comfortaa_regular-webfont.eot');
    src: url('../fonts/comfortaa/comfortaa_regular-webfont.eot?#iefix') format('embedded-opentype'),
         url('../fonts/comfortaa/comfortaa_regular-webfont.woff') format('woff'),
         url('../fonts/comfortaa/comfortaa_regular-webfont.ttf') format('truetype'),
         url('../fonts/comfortaa/comfortaa_regular-webfont.svg#comfortaaregular') format('svg');
    font-weight: normal;
    font-style: normal;
}
@font-face {
    font-family: 'OswaldBold';
    src: url('../fonts/oswald/oswald-bold-webfont.eot');
    src: url('../fonts/oswald/oswald-bold-webfont.eot?#iefix') format('embedded-opentype'),
         url('../fonts/oswald/oswald-bold-webfont.woff') format('woff'),
         url('../fonts/oswald/oswald-bold-webfont.ttf') format('truetype'),
         url('../fonts/oswald/oswald-bold-webfont.svg#oswaldbold') format('svg');
    font-weight: normal;
    font-style: normal;
}

@font-face {
    font-family: 'OswaldLight';
    src: url('../fonts/oswald/oswald-light-webfont.eot');
    src: url('../fonts/oswald/oswald-light-webfont.eot?#iefix') format('embedded-opentype'),
         url('../fonts/oswald/oswald-light-webfont.woff') format('woff'),
         url('../fonts/oswald/oswald-light-webfont.ttf') format('truetype'),
         url('../fonts/oswald/oswald-light-webfont.svg#oswaldlight') format('svg');
    font-weight: normal;
    font-style: normal;
}
</style>
</defs>
<polygon fill="#808184" points="36,99.224 35.734,135.224 0,99.224 "/>
<rect x="35.805" y="0.5" fill="#FFFFFF" stroke="#58595B" stroke-miterlimit="10" width="90.195" height="134.724"/>
<line fill="none" stroke="#231F20" stroke-miterlimit="10" x1="35.805" y1="134.316" x2="35.805" y2="34.236"/>
<polyline fill="#515FAA" points="79.043,8.985 81.807,8.985 81.854,8.985 83.586,7.11 81.126,7.11 "/>
<polyline fill="#515FAA" points="79.122,5.189 80.422,6.439 81.635,5.295 "/>
<path d="M79.018,5.014c-0.024,0.011-0.1,0.083-0.1,0.095c0,0.004-0.013,0.016-0.028,0.025c-0.032,0.021-0.05,0.038-0.055,0.056
	c-0.002,0.006-0.018,0.02-0.033,0.029c-0.017,0.009-0.03,0.021-0.03,0.026c0,0.005-0.002,0.009-0.004,0.009
	c-0.004-0.001-0.035,0.028-0.072,0.064c-0.036,0.036-0.1,0.1-0.142,0.14s-0.099,0.097-0.126,0.126
	c-0.026,0.029-0.051,0.052-0.054,0.051c-0.002-0.002-0.01,0.008-0.018,0.021s-0.017,0.023-0.02,0.023
	c-0.004,0-0.015,0.012-0.025,0.027c-0.033,0.05-0.148,0.155-0.162,0.146c-0.003-0.001-0.007,0.004-0.009,0.013
	c-0.005,0.018-0.083,0.096-0.117,0.116c-0.014,0.008-0.027,0.02-0.029,0.024c-0.004,0.004-0.023,0.027-0.045,0.05
	s-0.048,0.054-0.058,0.068c-0.022,0.034-0.051,0.062-0.112,0.113c-0.026,0.021-0.068,0.06-0.095,0.084
	c-0.025,0.024-0.054,0.05-0.062,0.055c-0.008,0.006-0.015,0.016-0.015,0.021s-0.008,0.02-0.019,0.029
	c-0.049,0.048-0.106,0.102-0.131,0.119c-0.014,0.011-0.04,0.031-0.058,0.047c-0.017,0.015-0.04,0.034-0.051,0.042
	c-0.01,0.009-0.028,0.029-0.039,0.047c-0.012,0.017-0.037,0.045-0.058,0.063s-0.04,0.04-0.043,0.049
	c-0.004,0.009-0.012,0.017-0.018,0.02c-0.012,0.005-0.068,0.053-0.182,0.157c-0.057,0.052-0.098,0.104-0.098,0.125
	c0,0.004,0.009,0.024,0.021,0.047c0.015,0.028,0.032,0.051,0.063,0.076c0.023,0.021,0.059,0.051,0.078,0.069s0.048,0.045,0.063,0.06
	s0.042,0.037,0.059,0.05c0.035,0.027,0.311,0.303,0.311,0.312c0,0.003,0.008,0.01,0.017,0.015c0.01,0.005,0.038,0.034,0.064,0.065
	c0.027,0.031,0.071,0.076,0.1,0.102c0.027,0.023,0.051,0.046,0.051,0.049c0,0.009,0.118,0.125,0.138,0.135
	c0.011,0.006,0.027,0.021,0.035,0.032c0.009,0.012,0.022,0.029,0.03,0.038c0.009,0.01,0.016,0.02,0.016,0.023
	c0,0.008,0.082,0.093,0.104,0.107c0.009,0.006,0.015,0.015,0.015,0.019c0,0.006,0.003,0.01,0.006,0.01
	c0.004,0,0.022,0.015,0.043,0.033c0.02,0.018,0.039,0.033,0.042,0.033c0.006,0,0.081,0.071,0.186,0.179
	c0.068,0.07,0.082,0.083,0.103,0.089c0.006,0.003,0.012,0.008,0.012,0.013c0,0.004,0.021,0.028,0.048,0.055
	c0.08,0.08,0.113,0.116,0.133,0.146c0.01,0.015,0.037,0.045,0.06,0.066c0.022,0.021,0.05,0.05,0.061,0.064
	c0.034,0.046,0.094,0.109,0.104,0.109c0.002,0,0.012,0.011,0.021,0.024s0.029,0.034,0.045,0.045c0.017,0.01,0.04,0.029,0.054,0.041
	l0.024,0.022l0.065-0.003c0.035-0.002,0.089-0.007,0.117-0.011c0.053-0.008,0.116-0.011,0.4-0.017
	c0.178-0.004,0.138-0.004,0.771-0.002c0.28,0.002,0.517,0,0.525-0.003c0.008-0.004,0.018-0.004,0.021,0
	c0.007,0.007,0.154,0.004,0.267-0.005c0.044-0.003,0.087-0.006,0.096-0.006c0.009-0.001,0.046-0.002,0.083-0.005
	c0.08-0.005,0.066-0.004,0.182-0.003c0.323,0.003,0.343,0,0.41-0.062c0.016-0.015,0.039-0.033,0.05-0.039
	c0.012-0.007,0.026-0.022,0.033-0.033c0.007-0.012,0.024-0.034,0.04-0.05c0.017-0.016,0.028-0.033,0.028-0.038
	c0-0.006,0.004-0.008,0.007-0.006c0.004,0.002,0.007,0,0.007-0.006c0-0.005,0.011-0.021,0.025-0.035
	c0.078-0.082,0.166-0.182,0.166-0.188c0-0.003,0.004-0.005,0.009-0.005s0.014-0.006,0.02-0.012s0.018-0.017,0.027-0.023
	s0.018-0.018,0.018-0.024s0.004-0.014,0.008-0.014c0.005,0,0.02-0.012,0.032-0.026s0.032-0.031,0.044-0.036s0.021-0.012,0.021-0.016
	s0.02-0.023,0.045-0.044c0.024-0.021,0.05-0.047,0.059-0.057c0.007-0.011,0.016-0.018,0.018-0.015
	c0.002,0.002,0.004-0.001,0.004-0.006c0-0.006,0.009-0.018,0.02-0.026c0.01-0.009,0.023-0.023,0.029-0.034
	c0.007-0.009,0.021-0.021,0.032-0.025c0.01-0.005,0.019-0.011,0.019-0.013c0-0.003,0.028-0.033,0.062-0.068
	c0.035-0.034,0.063-0.066,0.063-0.07c0-0.003,0.003-0.006,0.007-0.006c0.01,0,0.09-0.08,0.087-0.088
	c-0.001-0.003,0.001-0.005,0.004-0.002c0.007,0.004,0.071-0.062,0.068-0.071c0-0.003,0.01-0.01,0.022-0.015
	c0.012-0.006,0.022-0.013,0.022-0.015c0-0.006,0.011-0.016,0.078-0.079c0.019-0.019,0.034-0.036,0.034-0.041
	c0-0.004,0.003-0.007,0.006-0.004c0.003,0.002,0.016-0.009,0.028-0.024c0.013-0.015,0.04-0.043,0.061-0.063
	c0.021-0.02,0.038-0.039,0.038-0.041c0-0.004,0.007-0.013,0.016-0.022c0.007-0.009,0.027-0.031,0.044-0.05
	c0.044-0.05,0.054-0.061,0.089-0.09c0.018-0.015,0.036-0.031,0.042-0.037c0.005-0.006,0.013-0.011,0.015-0.009
	c0.004,0.002,0.011-0.005,0.016-0.015s0.023-0.03,0.039-0.045c0.07-0.061,0.103-0.094,0.113-0.114
	c0.005-0.011,0.019-0.027,0.029-0.036c0.021-0.016,0.066-0.073,0.066-0.083c0-0.003,0.013-0.016,0.029-0.029
	c0.03-0.025,0.04-0.048,0.048-0.109c0.004-0.032,0.003-0.035-0.016-0.053c-0.011-0.01-0.029-0.038-0.04-0.062
	c-0.016-0.033-0.029-0.051-0.057-0.073c-0.02-0.016-0.036-0.031-0.037-0.034c-0.001-0.013-0.109-0.124-0.121-0.124
	c-0.004,0-0.016-0.007-0.024-0.015c-0.025-0.022-0.123-0.146-0.128-0.161c-0.004-0.013-0.096-0.101-0.127-0.121
	c-0.008-0.007-0.022-0.019-0.031-0.027s-0.036-0.036-0.062-0.061s-0.056-0.056-0.069-0.071c-0.012-0.015-0.026-0.031-0.03-0.035
	c-0.005-0.006-0.019-0.016-0.03-0.023c-0.036-0.022-0.204-0.193-0.235-0.239c-0.019-0.026-0.071-0.078-0.119-0.115
	c-0.019-0.015-0.041-0.037-0.051-0.05c-0.009-0.013-0.033-0.038-0.054-0.056c-0.021-0.019-0.06-0.057-0.087-0.085
	c-0.028-0.028-0.077-0.078-0.11-0.111c-0.032-0.033-0.064-0.062-0.07-0.064c-0.018-0.007-0.144-0.127-0.173-0.166
	c-0.016-0.021-0.044-0.053-0.063-0.072c-0.019-0.02-0.039-0.046-0.044-0.058s-0.016-0.025-0.024-0.03
	c-0.008-0.004-0.046-0.038-0.085-0.075c-0.066-0.064-0.071-0.067-0.118-0.081c-0.027-0.008-0.062-0.016-0.076-0.019
	s-0.032-0.008-0.038-0.01c-0.011-0.006-0.13-0.007-0.333-0.002c-0.064,0.001-0.137,0.002-0.158,0.001
	c-0.058-0.001-0.066-0.001-0.133,0.004c-0.032,0.003-0.107,0.006-0.168,0.006c-0.064,0-0.113,0.002-0.117,0.006
	c-0.006,0.005-0.012,0.005-0.017,0c-0.006-0.004-0.105-0.006-0.27-0.007C80.381,5.024,80.23,5.022,80.19,5.02
	s-0.09-0.003-0.109-0.003c-0.051,0.002-0.044,0.002-0.165-0.002c-0.061-0.002-0.11-0.004-0.113-0.004
	c-0.002-0.001-0.005-0.002-0.008-0.001c-0.006,0.001-0.396,0.01-0.415,0.009c-0.086-0.001-0.299-0.009-0.317-0.012
	C79.05,5.005,79.029,5.008,79.018,5.014z M79.812,5.289c0.026-0.001,0.069-0.001,0.097,0.001c0.027,0.001,0.085,0.002,0.129,0.002
	c0.045,0,0.081,0.003,0.084,0.007c0.004,0.005,0.006,0.004,0.006,0c0-0.007,0.522-0.008,0.542-0.001
	c0.012,0.004,0.357,0.001,0.638-0.006L81.5,5.288l-0.014,0.015c-0.007,0.009-0.035,0.038-0.062,0.065s-0.061,0.063-0.073,0.079
	c-0.032,0.04-0.085,0.092-0.154,0.152c-0.031,0.027-0.067,0.065-0.081,0.085c-0.013,0.02-0.037,0.045-0.055,0.058
	c-0.017,0.012-0.101,0.093-0.188,0.18c-0.086,0.087-0.173,0.173-0.191,0.19c-0.02,0.019-0.041,0.041-0.049,0.05
	c-0.007,0.009-0.036,0.037-0.064,0.062c-0.029,0.025-0.064,0.058-0.078,0.071c-0.024,0.023-0.059,0.034-0.059,0.019
	c0-0.005-0.003-0.007-0.007-0.007c-0.01,0-0.046-0.037-0.046-0.046c0-0.004-0.003-0.007-0.007-0.007
	c-0.003,0-0.017-0.012-0.031-0.025c-0.041-0.04-0.08-0.073-0.093-0.077c-0.012-0.005-0.074-0.06-0.074-0.066
	c0-0.002-0.015-0.02-0.033-0.038c-0.018-0.019-0.033-0.035-0.033-0.039c0-0.002-0.024-0.025-0.054-0.049
	c-0.03-0.023-0.058-0.046-0.062-0.05s-0.018-0.019-0.032-0.032c-0.046-0.042-0.133-0.129-0.15-0.149
	c-0.009-0.011-0.029-0.03-0.043-0.043c-0.015-0.013-0.047-0.046-0.073-0.072c-0.057-0.06-0.063-0.066-0.1-0.089
	c-0.017-0.01-0.03-0.022-0.032-0.027s-0.011-0.012-0.018-0.014c-0.008-0.003-0.024-0.015-0.035-0.026
	c-0.012-0.013-0.022-0.022-0.025-0.022c-0.011,0-0.122-0.11-0.138-0.136c-0.003-0.005,0.06-0.008,0.199-0.009
	c0.11-0.001,0.203-0.003,0.204-0.005c0.003-0.001,0.007-0.001,0.01,0.001S79.785,5.29,79.812,5.289z M81.83,5.417
	c0.033,0.033,0.067,0.069,0.077,0.08s0.04,0.038,0.067,0.06s0.058,0.052,0.067,0.067c0.015,0.022,0.054,0.062,0.104,0.106
	c0.003,0.003,0.04,0.041,0.084,0.086c0.043,0.045,0.087,0.086,0.098,0.092c0.011,0.007,0.039,0.035,0.064,0.062
	c0.025,0.027,0.057,0.06,0.067,0.071c0.012,0.013,0.022,0.024,0.022,0.027s0.017,0.02,0.038,0.036
	c0.021,0.017,0.06,0.051,0.086,0.076c0.026,0.026,0.051,0.047,0.055,0.047c0.007,0,0.185,0.176,0.185,0.184
	c0,0.005,0.021,0.027,0.145,0.148c0.017,0.017,0.039,0.034,0.049,0.041c0.009,0.006,0.025,0.022,0.036,0.038
	c0.01,0.015,0.043,0.053,0.072,0.084c0.03,0.03,0.057,0.062,0.059,0.068c0.003,0.007,0.007,0.012,0.01,0.012
	c0.008,0,0.055,0.05,0.08,0.086c0.028,0.039,0.021,0.049-0.038,0.055c-0.29,0.029-0.564,0.038-0.922,0.032
	c-0.067-0.002-0.199-0.001-0.294,0.001c-0.102,0.003-0.238,0.002-0.334-0.002c-0.089-0.004-0.186-0.009-0.215-0.01
	c-0.028-0.002-0.091-0.002-0.139-0.002c-0.221,0.002-0.222,0.002-0.253-0.039c-0.009-0.011-0.028-0.026-0.043-0.034
	c-0.03-0.016-0.084-0.061-0.084-0.07c-0.001-0.008-0.035-0.041-0.066-0.063c-0.013-0.01-0.044-0.038-0.069-0.062
	c-0.026-0.025-0.063-0.061-0.084-0.08c-0.021-0.019-0.039-0.038-0.04-0.044c-0.003-0.005-0.016-0.018-0.029-0.028
	C80.63,6.5,80.63,6.487,80.685,6.438c0.022-0.02,0.058-0.054,0.079-0.075c0.021-0.021,0.041-0.043,0.046-0.048
	c0.021-0.019,0.14-0.136,0.193-0.19c0.085-0.087,0.137-0.137,0.169-0.162c0.015-0.012,0.027-0.024,0.027-0.027
	s0.043-0.048,0.096-0.102c0.053-0.053,0.112-0.118,0.132-0.146c0.021-0.026,0.04-0.049,0.043-0.049c0.011,0,0.177-0.168,0.191-0.194
	c0.009-0.013,0.018-0.024,0.02-0.024c0.003,0,0.018-0.016,0.033-0.036c0.022-0.026,0.033-0.034,0.043-0.031
	C81.765,5.355,81.798,5.383,81.83,5.417z M79.09,5.45c0.012,0.009,0.03,0.023,0.039,0.034c0.01,0.01,0.025,0.021,0.035,0.027
	c0.011,0.005,0.03,0.02,0.044,0.032c0.015,0.013,0.034,0.03,0.046,0.038c0.038,0.027,0.131,0.109,0.207,0.185
	c0.042,0.041,0.093,0.088,0.112,0.104c0.02,0.018,0.052,0.045,0.071,0.062c0.052,0.045,0.145,0.142,0.163,0.169
	c0.009,0.013,0.033,0.039,0.056,0.06c0.021,0.02,0.059,0.054,0.082,0.075c0.022,0.022,0.048,0.045,0.056,0.05
	c0.008,0.006,0.015,0.012,0.015,0.016c0,0.007,0.026,0.03,0.034,0.031c0.006,0,0.009,0.002,0.062,0.046
	c0.078,0.065,0.128,0.116,0.129,0.128c0,0.012-0.045,0.06-0.272,0.289c-0.051,0.051-0.092,0.094-0.092,0.098
	c0,0.003-0.028,0.032-0.063,0.064c-0.036,0.031-0.089,0.084-0.118,0.115c-0.049,0.053-0.099,0.101-0.284,0.274
	c-0.039,0.036-0.085,0.083-0.102,0.104c-0.016,0.021-0.045,0.051-0.064,0.065S79.2,7.555,79.191,7.57
	c-0.01,0.014-0.034,0.039-0.056,0.056s-0.056,0.047-0.077,0.067c-0.021,0.021-0.046,0.042-0.056,0.048
	c-0.011,0.007-0.025,0.02-0.032,0.029c-0.022,0.028-0.042,0.023-0.088-0.021c-0.022-0.022-0.043-0.04-0.046-0.04
	s-0.038-0.031-0.078-0.071c-0.04-0.038-0.081-0.076-0.091-0.083c-0.056-0.044-0.157-0.144-0.203-0.199
	c-0.015-0.019-0.039-0.045-0.054-0.06s-0.037-0.04-0.05-0.057c-0.028-0.036-0.066-0.074-0.136-0.135
	c-0.028-0.025-0.07-0.066-0.092-0.091s-0.074-0.075-0.115-0.112c-0.042-0.037-0.075-0.071-0.075-0.076s-0.003-0.009-0.009-0.009
	c-0.005,0-0.009-0.005-0.009-0.01c0-0.006-0.004-0.01-0.008-0.01s-0.02-0.012-0.034-0.026c-0.014-0.015-0.034-0.031-0.045-0.037
	s-0.023-0.019-0.029-0.029c-0.006-0.012-0.013-0.02-0.017-0.02c-0.013,0-0.039-0.031-0.037-0.047
	c0.001-0.019,0.072-0.092,0.089-0.092c0.005,0,0.088-0.078,0.184-0.174c0.169-0.169,0.213-0.21,0.227-0.21
	c0.009,0,0.052-0.048,0.065-0.074c0.006-0.012,0.023-0.033,0.039-0.048c0.016-0.014,0.029-0.028,0.03-0.033
	c0-0.004,0.018-0.021,0.039-0.039c0.025-0.021,0.039-0.037,0.039-0.045s0.002-0.013,0.004-0.011c0.003,0.003,0.024-0.016,0.047-0.04
	c0.024-0.024,0.053-0.054,0.064-0.065c0.011-0.012,0.022-0.021,0.025-0.021s0.005-0.003,0.005-0.007
	c0-0.003,0.007-0.013,0.016-0.022c0.008-0.009,0.021-0.023,0.027-0.033c0.008-0.009,0.016-0.017,0.02-0.017
	c0.003,0,0.019-0.012,0.033-0.025c0.056-0.049,0.089-0.074,0.096-0.074c0.003,0,0.028-0.023,0.055-0.053s0.059-0.06,0.071-0.067
	s0.034-0.023,0.047-0.035c0.012-0.012,0.03-0.025,0.039-0.031c0.016-0.01,0.018-0.009,0.033,0.003
	C79.059,5.428,79.077,5.441,79.09,5.45z M80.527,6.762c0.122,0.121,0.172,0.168,0.214,0.204c0.02,0.017,0.044,0.042,0.054,0.055
	l0.02,0.024L80.773,7.09c-0.022,0.025-0.059,0.062-0.081,0.082c-0.021,0.021-0.057,0.057-0.079,0.08
	c-0.021,0.023-0.056,0.061-0.076,0.081c-0.02,0.021-0.039,0.041-0.043,0.046c-0.005,0.005-0.025,0.021-0.046,0.035
	c-0.021,0.015-0.07,0.059-0.108,0.1c-0.038,0.039-0.09,0.091-0.113,0.113c-0.091,0.087-0.114,0.111-0.121,0.126
	c-0.004,0.009-0.01,0.015-0.014,0.015c-0.003,0-0.02,0.013-0.036,0.028s-0.04,0.038-0.053,0.049
	c-0.013,0.013-0.022,0.022-0.024,0.022c-0.001,0-0.017,0.015-0.033,0.032c-0.019,0.019-0.054,0.053-0.079,0.078
	c-0.025,0.024-0.067,0.065-0.093,0.093c-0.026,0.025-0.057,0.053-0.068,0.06c-0.032,0.02-0.08,0.063-0.08,0.072
	c0,0.005-0.003,0.009-0.007,0.009c-0.003,0-0.018,0.012-0.032,0.024c-0.013,0.014-0.042,0.04-0.064,0.06
	c-0.031,0.027-0.042,0.033-0.055,0.03c-0.021-0.005-0.073-0.041-0.073-0.05c0-0.008-0.137-0.144-0.146-0.144
	c-0.004,0-0.007-0.003-0.007-0.007c0-0.003-0.018-0.025-0.039-0.048c-0.022-0.022-0.042-0.046-0.043-0.053
	c-0.003-0.006-0.012-0.015-0.021-0.021c-0.009-0.006-0.017-0.017-0.017-0.025c0-0.018,0.063-0.085,0.116-0.124
	c0.02-0.015,0.036-0.029,0.036-0.031c0-0.004,0.071-0.078,0.094-0.098C79.373,7.72,79.4,7.693,79.43,7.665
	c0.027-0.029,0.06-0.058,0.07-0.062c0.011-0.005,0.02-0.011,0.02-0.015c0-0.008,0.071-0.083,0.132-0.14
	c0.051-0.048,0.117-0.114,0.136-0.137c0.008-0.009,0.024-0.025,0.037-0.036c0.032-0.029,0.105-0.109,0.105-0.116
	c0-0.003,0.004-0.006,0.008-0.006c0.005,0,0.046-0.039,0.091-0.088c0.046-0.048,0.089-0.093,0.098-0.101
	C80.15,6.944,80.38,6.714,80.4,6.692c0.01-0.012,0.021-0.021,0.025-0.021C80.431,6.67,80.477,6.712,80.527,6.762z M77.614,6.895
	c0.021,0.021,0.047,0.045,0.06,0.055c0.012,0.011,0.061,0.056,0.107,0.1c0.046,0.044,0.09,0.084,0.097,0.088
	c0.021,0.01,0.056,0.044,0.086,0.081c0.016,0.019,0.033,0.034,0.038,0.034c0.006,0,0.01,0.003,0.01,0.005
	c0,0.003,0.012,0.019,0.026,0.035s0.039,0.043,0.055,0.061c0.042,0.047,0.078,0.085,0.082,0.085c0.002,0,0.017,0.015,0.034,0.034
	c0.051,0.057,0.234,0.238,0.275,0.271c0.022,0.019,0.051,0.047,0.065,0.062c0.014,0.018,0.036,0.039,0.05,0.048
	c0.043,0.028,0.133,0.123,0.133,0.14c0,0.015-0.092,0.107-0.159,0.162c-0.013,0.011-0.044,0.038-0.069,0.061
	s-0.05,0.042-0.054,0.042c-0.005,0-0.027-0.02-0.05-0.042c-0.023-0.022-0.08-0.077-0.127-0.121
	c-0.046-0.044-0.084-0.083-0.084-0.085c0-0.004-0.037-0.044-0.084-0.09c-0.047-0.047-0.09-0.092-0.098-0.101
	c-0.007-0.009-0.027-0.027-0.046-0.041c-0.019-0.015-0.086-0.079-0.15-0.143s-0.152-0.15-0.196-0.191
	c-0.044-0.042-0.094-0.093-0.112-0.112c-0.032-0.038-0.131-0.133-0.191-0.186l-0.035-0.03l0.033-0.031
	c0.019-0.016,0.041-0.043,0.051-0.057c0.011-0.016,0.021-0.027,0.026-0.027c0.004,0,0.02-0.013,0.033-0.028s0.049-0.049,0.078-0.075
	c0.039-0.035,0.057-0.046,0.066-0.044C77.571,6.856,77.594,6.875,77.614,6.895z M81.539,7.25c0.12,0.004,0.59,0.007,0.916,0.005
	c0.097-0.001,0.246-0.001,0.331-0.001c0.125-0.001,0.242-0.004,0.33-0.009c0.006,0,0.024,0.001,0.042,0.004
	c0.018,0.002,0.031,0.001,0.031-0.002s0.018-0.004,0.038-0.002c0.038,0.003,0.054,0.003,0.094,0
	c0.029-0.003,0.033,0.012,0.011,0.038c-0.011,0.011-0.027,0.034-0.04,0.053c-0.012,0.018-0.037,0.049-0.056,0.069
	c-0.02,0.02-0.039,0.046-0.045,0.058S83.162,7.5,83.138,7.519c-0.053,0.041-0.241,0.23-0.257,0.257
	c-0.007,0.01-0.014,0.019-0.016,0.019s-0.021,0.015-0.04,0.033c-0.02,0.018-0.038,0.033-0.04,0.033
	c-0.003,0-0.014,0.013-0.025,0.029c-0.019,0.026-0.163,0.176-0.171,0.176c-0.007,0-0.106,0.104-0.106,0.111
	c0,0.004-0.011,0.015-0.022,0.022c-0.013,0.008-0.025,0.02-0.026,0.026c-0.002,0.006-0.02,0.021-0.04,0.035
	c-0.02,0.014-0.038,0.029-0.04,0.035s-0.015,0.02-0.028,0.03c-0.02,0.017-0.146,0.141-0.167,0.166
	c-0.016,0.017-0.079,0.082-0.109,0.109C82.031,8.62,82.009,8.641,82,8.65c-0.051,0.052-0.103,0.104-0.131,0.131
	c-0.018,0.018-0.039,0.037-0.046,0.046c-0.044,0.048-0.054,0.055-0.099,0.063c-0.025,0.004-0.076,0.009-0.113,0.009
	c-0.036,0-0.096,0.003-0.132,0.007c-0.036,0.003-0.132,0.008-0.214,0.01c-0.082,0.003-0.172,0.007-0.199,0.01
	c-0.026,0.002-0.056,0.002-0.062,0c-0.008-0.003-0.017-0.004-0.018-0.003c-0.006,0.005-0.262,0.01-0.792,0.014
	c-0.293,0.002-0.611,0.006-0.708,0.008c-0.234,0.005-0.23,0.005-0.235,0c-0.005-0.006,0.061-0.096,0.077-0.104
	c0.008-0.004,0.013-0.011,0.013-0.016c0-0.009,0.062-0.07,0.071-0.07c0.004,0,0.016-0.015,0.026-0.032s0.028-0.037,0.039-0.044
	c0.022-0.015,0.056-0.044,0.112-0.101c0.023-0.021,0.061-0.055,0.083-0.071c0.043-0.032,0.109-0.099,0.153-0.151
	c0.014-0.017,0.047-0.045,0.075-0.063c0.027-0.019,0.075-0.06,0.106-0.092c0.031-0.031,0.079-0.073,0.105-0.095
	s0.062-0.057,0.081-0.08s0.047-0.051,0.062-0.062c0.016-0.011,0.046-0.042,0.067-0.068c0.021-0.027,0.066-0.075,0.102-0.108
	c0.034-0.032,0.079-0.076,0.099-0.097c0.021-0.021,0.049-0.048,0.064-0.06c0.062-0.051,0.279-0.252,0.292-0.271
	c0.008-0.012,0.035-0.041,0.062-0.064L80.99,7.25l0.162-0.003C81.333,7.242,81.369,7.243,81.539,7.25z M78.962,8.195
	c0.008,0.009,0.017,0.017,0.02,0.017c0.007,0,0.042,0.037,0.15,0.157c0.039,0.044,0.074,0.081,0.077,0.081
	c0.009,0,0.046,0.061,0.046,0.075c0,0.007-0.01,0.023-0.021,0.036c-0.011,0.014-0.022,0.026-0.025,0.03s-0.014,0.014-0.024,0.023
	c-0.011,0.009-0.053,0.053-0.094,0.097c-0.044,0.047-0.083,0.084-0.094,0.088c-0.019,0.006-0.022,0.004-0.052-0.02
	c-0.034-0.029-0.033-0.026-0.096-0.101c-0.025-0.028-0.063-0.07-0.086-0.094c-0.051-0.053-0.093-0.102-0.104-0.121
	c-0.008-0.014-0.005-0.019,0.02-0.048c0.016-0.019,0.03-0.033,0.034-0.033c0.003,0,0.052-0.046,0.108-0.103
	c0.058-0.056,0.109-0.103,0.115-0.103C78.944,8.178,78.955,8.185,78.962,8.195z"/>
<text transform="matrix(1.0079 0 0 1 58.6826 9.2236)" font-family="'ComfortaaRegular'" font-size="5.9532">B</text>
<text transform="matrix(1.0079 0 0 1 62.2065 9.2236)" font-family="'ComfortaaRegular'" font-size="5.9532"> </text>
<text transform="matrix(1.0079 0 0 1 64.415 9.2236)" font-family="'ComfortaaRegular'" font-size="5.9532">L</text>
<text transform="matrix(1.0079 0 0 1 67.9355 9.2236)" font-family="'ComfortaaRegular'" font-size="5.9532"> </text>
<text transform="matrix(1.0079 0 0 1 69.9648 9.2236)" font-family="'ComfortaaRegular'" font-size="5.9532">U</text>
<text transform="matrix(1.0079 0 0 1 87.416 9.2236)" font-family="'ComfortaaRegular'" font-size="5.9532">P</text>
<text transform="matrix(1.0079 0 0 1 90.8379 9.2236)" font-family="'ComfortaaRegular'" font-size="5.9532"> </text>
<text transform="matrix(1.0079 0 0 1 92.9863 9.2236)" font-family="'ComfortaaRegular'" font-size="5.9532">E</text>
<text transform="matrix(1.0079 0 0 1 96.791 9.2236)" font-family="'ComfortaaRegular'" font-size="5.9532"> </text>
<text transform="matrix(1.0079 0 0 1 99 9.2236)" font-family="'ComfortaaRegular'" font-size="5.9532">N</text>
<rect x="36" y="18.224" fill="none" width="90" height="27"/>
<text transform="matrix(1 0 0 1 59.2251 34.0444)"><tspan x="0" y="0" fill="#231F20" font-family="'OswaldBold'" font-size="18">SYRIA</tspan><tspan x="-16.031" y="10.8" fill="#231F20" font-family="'OswaldLight'" font-size="9">A VISUAL COLLECTION</tspan></text>
<circle opacity="0.75" fill="#B1005D" enable-background="new    " cx="91.36" cy="69.248" r="1.256"/>
<circle opacity="0.75" fill="#B1005D" enable-background="new    " cx="101.019" cy="86.288" r="2.513"/>
<circle opacity="0.75" fill="#B1005D" enable-background="new    " cx="89.565" cy="79.147" r="2.513"/>
<circle opacity="0.6" fill="#FF0084" enable-background="new    " cx="113.079" cy="71.196" r="1.257"/>
<circle opacity="0.75" fill="#B1005D" enable-background="new    " cx="102.756" cy="64.544" r="5.025"/>
<circle opacity="0.75" fill="#71869A" enable-background="new    " cx="88.395" cy="73.083" r="2.513"/>
<circle opacity="0.6" fill="#9BAAB8" enable-background="new    " cx="62.753" cy="101.088" r="1.256"/>
<circle opacity="0.75" fill="#79DEFF" enable-background="new    " cx="59.341" cy="112.199" r="5.025"/>
<circle opacity="0.6" fill="#BEEDFF" enable-background="new    " cx="91.396" cy="95.272" r="2.513"/>
<circle opacity="0.6" fill="#9BAAB8" enable-background="new    " cx="59.55" cy="101.966" r="1.256"/>
<circle opacity="0.75" fill="#71869A" enable-background="new    " cx="64.652" cy="96.8" r="1.256"/>
<circle opacity="0.6" fill="#9BAAB8" enable-background="new    " cx="83.731" cy="92.702" r="2.513"/>
<circle opacity="0.9" fill="#1AB6E5" enable-background="new    " cx="82.825" cy="101.217" r="2.513"/>
<circle opacity="0.6" fill="#BEEDFF" enable-background="new    " cx="49.47" cy="104.885" r="1.256"/>
<circle opacity="0.75" fill="#79DEFF" enable-background="new    " cx="96.078" cy="82.82" r="5.025"/>
<circle opacity="0.75" fill="#71869A" stroke="#B10000" stroke-width="3" enable-background="new    " cx="87.433" cy="97.011" r="1.256"/>
<circle opacity="0.9" fill="#32506D" stroke="#B10000" stroke-width="3" enable-background="new    " cx="74.805" cy="92.547" r="2.513"/>
<circle opacity="0.75" fill="#71869A" stroke="#B10000" stroke-width="3" enable-background="new    " cx="106.784" cy="73.231" r="2.513"/>
<circle opacity="0.9" fill="#32506D" stroke="#B10000" stroke-width="3" enable-background="new    " cx="51.389" cy="104.697" r="1.256"/>
<circle opacity="0.6" fill="#9BAAB8" stroke="#B10000" stroke-width="3" enable-background="new    " cx="70.408" cy="105.804" r="2.513"/>
<circle opacity="0.75" fill="#71869A" stroke="#B10000" stroke-width="3" enable-background="new    " cx="94.665" cy="74.104" r="5.025"/>
<circle opacity="0.9" fill="#1AB6E5" stroke="#B10000" stroke-width="3" enable-background="new    " cx="50.025" cy="111.227" r="5.025"/>
<circle opacity="0.6" fill="#9BAAB8" stroke="#B10000" stroke-width="3" enable-background="new    " cx="114.457" cy="62.205" r="5.025"/>
<circle opacity="0.75" fill="#CB5200" stroke="#B10000" stroke-width="3" enable-background="new    " cx="77.905" cy="83.327" r="2.513"/>
<circle opacity="0.75" fill="#CB5200" stroke="#B10000" stroke-width="3" enable-background="new    " cx="80.147" cy="89.747" r="2.513"/>
<circle opacity="0.75" fill="#CB5200" stroke="#B10000" stroke-width="3" enable-background="new    " cx="79.818" cy="86.319" r="2.513"/>
<circle opacity="0.75" fill="#71869A" stroke="#B10000" stroke-width="3" enable-background="new    " cx="59.21" cy="94.317" r="2.513"/>
</svg>
