<?xml version="1.0" encoding="utf-8"?>
<!-- Generator: Adobe Illustrator 15.0.0, SVG Export Plug-In  -->
<!DOCTYPE svg PUBLIC "-//W3C//DTD SVG 1.1//EN" "http://www.w3.org/Graphics/SVG/1.1/DTD/svg11.dtd" >
<svg version="1.1"
	 xmlns="http://www.w3.org/2000/svg" xmlns:xlink="http://www.w3.org/1999/xlink" xmlns:a="http://ns.adobe.com/AdobeSVGViewerExtensions/3.0/"
viewBox="-0.5 -0.775879 127 137">
<defs>
    <style type="text/css">
      @font-face {
      font-family: 'ComfortaaBold';
      src: url('fonts/comfortaa/comfortaa_bold-webfont.eot');
      src: url('fonts/comfortaa/comfortaa_bold-webfont.eot?#iefix') format('embedded-opentype'),
      url('fonts/comfortaa/comfortaa_bold-webfont.woff') format('woff'),
      url('fonts/comfortaa/comfortaa_bold-webfont.ttf') format('truetype'),
      url('fonts/comfortaa/comfortaa_bold-webfont.svg#comfortaabold') format('svg');
      font-weight: normal;
      font-style: normal;
      }
      @font-face {
      font-family: 'OswaldBold';
      src: url('../fonts/oswald/oswald-bold-webfont.eot');
      src: url('../fonts/oswald/oswald-bold-webfont.eot?#iefix') format('embedded-opentype'),
      url('../fonts/oswald/oswald-bold-webfont.woff') format('woff'),
      url('../fonts/oswald/oswald-bold-webfont.ttf') format('truetype'),
      url('../fonts/oswald/oswald-bold-webfont.svg#oswaldbold') format('svg');
      font-weight: normal;
      font-style: normal;
      }
      @font-face {
      font-family: 'OswaldBook';
      src: url('../fonts/oswald/oswald-regular-webfont.eot');
      src: url('../fonts/oswald/oswald-regular-webfont.eot?#iefix') format('embedded-opentype'),
      url('../fonts/oswald/oswald-regular-webfont.woff') format('woff'),
      url('../fonts/oswald/oswald-regular-webfont.ttf') format('truetype'),
      url('../fonts/oswald/oswald-regular-webfont.svg#oswaldbook') format('svg');
      font-weight: normal;
      font-style: normal;
      }
    </style>
</defs>
<polygon fill="#808184" points="90.5,99.224121 90.765625,135.224121 126.5,99.224121 "/>
<line fill="none" stroke="#231F20" stroke-miterlimit="10" x1="36.304688" y1="134.315918" x2="36.304688" y2="34.23584"/>
<rect x="0.5" y="0.5" fill="#FFFFFF" stroke="#58595B" stroke-miterlimit="10" width="90.195312" height="134.724121"/>
<rect x="0.695312" y="18.224121" fill="none" width="90" height="27"/>
<text transform="matrix(1 0 0 1 23.001953 34.044434)"><tspan x="0" y="0" fill="#231F20" font-family="'OswaldBold'" font-size="18">JAPAN</tspan><tspan x="-15.112793" y="10.799805" fill="#231F20" font-family="'OswaldBook'" font-size="9">A VISUAL COLLECTION</tspan></text>
<circle opacity="0.75" fill="#B1005D" enable-background="new    " cx="66.598633" cy="86.636719" r="1.54248"/>
<circle opacity="0.75" fill="#B1005D" enable-background="new    " cx="73.394531" cy="66.280762" r="3.084961"/>
<circle opacity="0.6" fill="#FF0084" enable-background="new    " cx="67.743164" cy="81.184082" r="3.084961"/>
<circle opacity="0.9" fill="#7D0043" enable-background="new    " cx="51.167969" cy="100.951172" r="1.54248"/>
<circle opacity="0.9" fill="#7D0043" enable-background="new    " cx="55.884766" cy="96.76123" r="3.084961"/>
<circle opacity="0.9" fill="#32506D" enable-background="new    " cx="50.037109" cy="110.914062" r="1.54248"/>
<circle opacity="0.75" fill="#71869A" enable-background="new    " cx="78.851562" cy="64.81543" r="0.770996"/>
<circle opacity="0.75" fill="#71869A" enable-background="new    " cx="10.831055" cy="109.469238" r="0.771484"/>
<circle opacity="0.75" fill="#71869A" enable-background="new    " cx="17.448242" cy="121.702148" r="1.54248"/>
<circle opacity="0.75" fill="#71869A" enable-background="new    " cx="32.680664" cy="116.768066" r="1.542969"/>
<circle opacity="0.75" fill="#B1005D" stroke="#B10000" stroke-width="3" enable-background="new    " cx="14.807617" cy="98.258301" r="0.771484"/>
<circle opacity="0.6" fill="#FF0084" stroke="#B10000" stroke-width="3" enable-background="new    " cx="56.582031" cy="101.898438" r="3.085449"/>
<circle opacity="0.9" fill="#7D0043" stroke="#B10000" stroke-width="3" enable-background="new    " cx="19.493164" cy="100.908691" r="1.542969"/>
<circle opacity="0.75" fill="#B1005D" stroke="#B10000" stroke-width="3" enable-background="new    " cx="32.621094" cy="105.688477" r="1.54248"/>
<circle opacity="0.75" fill="#B1005D" stroke="#B10000" stroke-width="3" enable-background="new    " cx="37.383789" cy="118.972656" r="1.54248"/>
<circle opacity="0.6" fill="#9BAAB8" stroke="#B10000" stroke-width="3" enable-background="new    " cx="30.708984" cy="111.490234" r="0.770996"/>
<circle opacity="0.9" fill="#7D0043" stroke="#B10000" stroke-width="3" enable-background="new    " cx="32.630859" cy="121.826172" r="0.770996"/>
<circle opacity="0.9" fill="#7D0043" stroke="#B10000" stroke-width="3" enable-background="new    " cx="36.875977" cy="104.450195" r="1.54248"/>
<circle opacity="0.6" fill="#FF0084" stroke="#B10000" stroke-width="3" enable-background="new    " cx="73.056641" cy="74.147461" r="3.085449"/>
<circle opacity="0.6" fill="#FF0084" stroke="#B10000" stroke-width="3" enable-background="new    " cx="45.455078" cy="95.96875" r="1.54248"/>
<circle opacity="0.9" fill="#7D0043" stroke="#B10000" stroke-width="3" enable-background="new    " cx="65.896484" cy="97.663574" r="3.084961"/>
<circle opacity="0.75" fill="#B1005D" stroke="#B10000" stroke-width="3" enable-background="new    " cx="58.671875" cy="86.832031" r="3.085449"/>
<circle opacity="0.6" fill="#9BAAB8" stroke="#B10000" stroke-width="3" enable-background="new    " cx="37.636719" cy="112.834961" r="1.54248"/>
<circle opacity="0.75" fill="#B1005D" stroke="#B10000" stroke-width="3" enable-background="new    " cx="34.888672" cy="78.608398" r="1.54248"/>
<circle opacity="0.6" fill="#FF0084" stroke="#B10000" stroke-width="3" enable-background="new    " cx="77.53418" cy="68.775879" r="0.771484"/>
<circle opacity="0.75" fill="#B1005D" stroke="#B10000" stroke-width="3" enable-background="new    " cx="48.722656" cy="97.208008" r="1.54248"/>
<circle opacity="0.6" fill="#BEEDFF" stroke="#B10000" stroke-width="3" enable-background="new    " cx="64.46582" cy="57.309326" r="3.085205"/>
<circle opacity="0.75" fill="#B1005D" stroke="#B10000" stroke-width="3" enable-background="new    " cx="27.647461" cy="123.168945" r="1.54248"/>
<circle opacity="0.75" fill="#B1005D" stroke="#B10000" stroke-width="3" enable-background="new    " cx="76.478516" cy="60.433594" r="3.085449"/>
<circle opacity="0.6" fill="#FF0084" stroke="#B10000" stroke-width="3" enable-background="new    " cx="41.356445" cy="104.995605" r="0.771484"/>
<circle opacity="0.9" fill="#7D0043" stroke="#B10000" stroke-width="3" enable-background="new    " cx="11.238281" cy="111.488281" r="1.54248"/>
<circle opacity="0.75" fill="#B1005D" stroke="#B10000" stroke-width="3" enable-background="new    " cx="16.537109" cy="102.09375" r="1.54248"/>
<circle opacity="0.9" fill="#7D0043" stroke="#B10000" stroke-width="3" enable-background="new    " cx="70.265625" cy="87.890625" r="0.770996"/>
<circle opacity="0.6" fill="#FF0084" stroke="#B10000" stroke-width="3" enable-background="new    " cx="69.960938" cy="58.962158" r="1.542725"/>
<circle opacity="0.75" fill="#B1005D" stroke="#B10000" stroke-width="3" enable-background="new    " cx="43.621094" cy="100.843262" r="3.084961"/>
<circle opacity="0.75" fill="#B1005D" stroke="#B10000" stroke-width="3" enable-background="new    " cx="45.674805" cy="62.980469" r="0.770996"/>
<circle opacity="0.6" fill="#FF0084" stroke="#B10000" stroke-width="3" enable-background="new    " cx="51.990234" cy="72.26709" r="3.084961"/>
<circle opacity="0.75" fill="#B1005D" stroke="#B10000" stroke-width="3" enable-background="new    " cx="15.24707" cy="70.901855" r="0.771484"/>
<circle opacity="0.75" fill="#71869A" stroke="#B10000" stroke-width="3" enable-background="new    " cx="30.042969" cy="93.26123" r="0.771484"/>
<circle opacity="0.75" fill="#79DEFF" enable-background="new    " cx="53.330078" cy="107.660156" r="1.54248"/>
<circle opacity="0.75" fill="#71869A" stroke="#B10000" stroke-width="3" enable-background="new    " cx="40.203125" cy="114.963379" r="0.771484"/>
<circle opacity="0.9" fill="#7D0043" stroke="#B10000" stroke-width="3" enable-background="new    " cx="28.736328" cy="113.069336" r="1.54248"/>
<circle opacity="0.75" fill="#71869A" stroke="#B10000" stroke-width="3" enable-background="new    " cx="44.693359" cy="89.540039" r="0.770996"/>
<circle opacity="0.75" fill="#71869A" stroke="#B10000" stroke-width="3" enable-background="new    " cx="51.699219" cy="88.399414" r="1.54248"/>
<circle opacity="0.75" fill="#79DEFF" enable-background="new    " cx="16.678711" cy="104.615234" r="1.54248"/>
<circle opacity="0.6" fill="#9BAAB8" stroke="#B10000" stroke-width="3" enable-background="new    " cx="43.053711" cy="68.385742" r="3.085449"/>
<circle opacity="0.75" fill="#71869A" stroke="#B10000" stroke-width="3" enable-background="new    " cx="36.074219" cy="84.645508" r="3.085449"/>
<circle opacity="0.75" fill="#79DEFF" enable-background="new    " cx="70.819336" cy="61.797607" r="0.77124"/>
<circle opacity="0.9" fill="#32506D" stroke="#B10000" stroke-width="3" enable-background="new    " cx="19.475586" cy="81.720703" r="1.54248"/>
<circle opacity="0.6" fill="#9BAAB8" stroke="#B10000" stroke-width="3" enable-background="new    " cx="61.597656" cy="99.40332" r="1.54248"/>
<circle opacity="0.6" fill="#9BAAB8" stroke="#B10000" stroke-width="3" enable-background="new    " cx="29.816406" cy="97.503906" r="3.085449"/>
<circle opacity="0.75" fill="#71869A" stroke="#B10000" stroke-width="3" enable-background="new    " cx="13.650391" cy="114.681641" r="1.54248"/>
<circle opacity="0.75" fill="#71869A" stroke="#B10000" stroke-width="3" enable-background="new    " cx="47.966797" cy="103.818848" r="1.542969"/>
<circle opacity="0.75" fill="#71869A" stroke="#B10000" stroke-width="3" enable-background="new    " cx="56.320312" cy="81.302246" r="3.084961"/>
<circle opacity="0.6" fill="#BEEDFF" enable-background="new    " cx="47.473633" cy="75.519531" r="1.54248"/>
<circle opacity="0.75" fill="#71869A" stroke="#B10000" stroke-width="3" enable-background="new    " cx="11.568359" cy="114.986328" r="0.770996"/>
<circle opacity="0.6" fill="#BEEDFF" enable-background="new    " cx="63.630859" cy="86.253906" r="1.54248"/>
<circle opacity="0.75" fill="#71869A" stroke="#B10000" stroke-width="3" enable-background="new    " cx="43.682617" cy="81.382324" r="0.771484"/>
<circle opacity="0.9" fill="#32506D" stroke="#B10000" stroke-width="3" enable-background="new    " cx="39.408203" cy="94.491699" r="0.771484"/>
<circle opacity="0.75" fill="#71869A" stroke="#B10000" stroke-width="3" enable-background="new    " cx="10.81543" cy="102.233398" r="0.770996"/>
<circle opacity="0.75" fill="#71869A" stroke="#B10000" stroke-width="3" enable-background="new    " cx="53.598633" cy="77.083008" r="0.770996"/>
<circle opacity="0.75" fill="#79DEFF" stroke="#B10000" stroke-width="3" enable-background="new    " cx="14.412109" cy="116.525391" r="0.770996"/>
<circle opacity="0.75" fill="#71869A" stroke="#B10000" stroke-width="3" enable-background="new    " cx="13.636719" cy="106.662109" r="1.54248"/>
<circle opacity="0.6" fill="#BEEDFF" stroke="#B10000" stroke-width="3" enable-background="new    " cx="60.108398" cy="75.770996" r="3.084961"/>
<circle opacity="0.9" fill="#32506D" stroke="#B10000" stroke-width="3" enable-background="new    " cx="20.27832" cy="123.163086" r="0.770996"/>
<circle opacity="0.9" fill="#32506D" stroke="#B10000" stroke-width="3" enable-background="new    " cx="52.608398" cy="83.124512" r="1.542969"/>
<circle opacity="0.9" fill="#32506D" stroke="#B10000" stroke-width="3" enable-background="new    " cx="42.224609" cy="90.998535" r="1.542969"/>
<circle opacity="0.75" fill="#71869A" stroke="#B10000" stroke-width="3" enable-background="new    " cx="59.888672" cy="66.968262" r="3.084961"/>
<circle opacity="0.75" fill="#71869A" stroke="#B10000" stroke-width="3" enable-background="new    " cx="68.455078" cy="71.851562" r="1.54248"/>
<circle opacity="0.75" fill="#71869A" stroke="#B10000" stroke-width="3" enable-background="new    " cx="69.464844" cy="92.456543" r="3.084961"/>
<circle opacity="0.6" fill="#9BAAB8" stroke="#B10000" stroke-width="3" enable-background="new    " cx="47.855469" cy="86.063477" r="3.085449"/>
<circle opacity="0.75" fill="#71869A" stroke="#B10000" stroke-width="3" enable-background="new    " cx="67.347656" cy="66.837891" r="1.54248"/>
<circle opacity="0.75" fill="#79DEFF" stroke="#B10000" stroke-width="3" enable-background="new    " cx="44.082031" cy="107.926758" r="1.54248"/>
<circle opacity="0.75" fill="#71869A" stroke="#B10000" stroke-width="3" enable-background="new    " cx="42.294922" cy="117.647461" r="0.770996"/>
<circle opacity="0.6" fill="#9BAAB8" stroke="#B10000" stroke-width="3" enable-background="new    " cx="17.264648" cy="107.606445" r="1.54248"/>
<circle opacity="0.6" fill="#BEEDFF" stroke="#B10000" stroke-width="3" enable-background="new    " cx="79.882812" cy="79.652344" r="3.085449"/>
<circle opacity="0.9" fill="#1AB6E5" stroke="#B10000" stroke-width="3" enable-background="new    " cx="20.44043" cy="112.601074" r="3.084961"/>
<circle opacity="0.6" fill="#9BAAB8" stroke="#B10000" stroke-width="3" enable-background="new    " cx="63.911133" cy="69.855469" r="3.085449"/>
<circle opacity="0.75" fill="#71869A" stroke="#B10000" stroke-width="3" enable-background="new    " cx="31.25293" cy="108.539062" r="0.770996"/>
<circle opacity="0.75" fill="#71869A" stroke="#B10000" stroke-width="3" enable-background="new    " cx="64.130859" cy="64.125" r="3.085449"/>
<circle opacity="0.75" fill="#71869A" stroke="#B10000" stroke-width="3" enable-background="new    " cx="36.602539" cy="97.918457" r="1.542969"/>
<circle opacity="0.9" fill="#32506D" stroke="#B10000" stroke-width="3" enable-background="new    " cx="25.912109" cy="116.064453" r="1.54248"/>
<circle opacity="0.75" fill="#71869A" stroke="#B10000" stroke-width="3" enable-background="new    " cx="41.263672" cy="82.369141" r="1.54248"/>
<circle opacity="0.6" fill="#9BAAB8" stroke="#B10000" stroke-width="3" enable-background="new    " cx="65.22168" cy="74.516113" r="3.084961"/>
<circle opacity="0.6" fill="#9BAAB8" stroke="#B10000" stroke-width="3" enable-background="new    " cx="50.505859" cy="78.725586" r="3.085449"/>
<circle opacity="0.9" fill="#32506D" stroke="#B10000" stroke-width="3" enable-background="new    " cx="71.421875" cy="82.050293" r="1.542969"/>
<circle opacity="0.75" fill="#71869A" stroke="#B10000" stroke-width="3" enable-background="new    " cx="31.527344" cy="102.711914" r="1.54248"/>
<circle opacity="0.9" fill="#32506D" stroke="#B10000" stroke-width="3" enable-background="new    " cx="29.939453" cy="88.185547" r="3.085449"/>
<circle opacity="0.75" fill="#71869A" stroke="#B10000" stroke-width="3" enable-background="new    " cx="62.918945" cy="91.247559" r="3.084961"/>
<circle opacity="0.75" fill="#71869A" stroke="#B10000" stroke-width="3" enable-background="new    " cx="45.657227" cy="104.144531" r="0.770996"/>
<circle opacity="0.9" fill="#1AB6E5" stroke="#B10000" stroke-width="3" enable-background="new    " cx="22.3125" cy="107.204102" r="1.54248"/>
<circle opacity="0.6" fill="#9BAAB8" stroke="#B10000" stroke-width="3" enable-background="new    " cx="61.875977" cy="83.67041" r="1.542969"/>
<circle opacity="0.6" fill="#BEEDFF" stroke="#B10000" stroke-width="3" enable-background="new    " cx="37.285156" cy="94.042969" r="1.54248"/>
<circle opacity="0.75" fill="#71869A" stroke="#B10000" stroke-width="3" enable-background="new    " cx="48.353516" cy="92.01416" r="1.542969"/>
<circle opacity="0.9" fill="#32506D" stroke="#B10000" stroke-width="3" enable-background="new    " cx="33.006836" cy="93.398438" r="1.54248"/>
<circle opacity="0.75" fill="#79DEFF" stroke="#B10000" stroke-width="3" enable-background="new    " cx="60.686523" cy="57.225586" r="1.54248"/>
<circle opacity="0.6" fill="#9BAAB8" stroke="#B10000" stroke-width="3" enable-background="new    " cx="67.317383" cy="89.254883" r="1.54248"/>
<circle opacity="0.75" fill="#79DEFF" stroke="#B10000" stroke-width="3" enable-background="new    " cx="50.464844" cy="105.695312" r="1.54248"/>
<circle opacity="0.75" fill="#79DEFF" stroke="#B10000" stroke-width="3" enable-background="new    " cx="46.584961" cy="78.016602" r="0.770996"/>
<circle opacity="0.6" fill="#9BAAB8" stroke="#B10000" stroke-width="3" enable-background="new    " cx="69.694336" cy="84.196289" r="1.54248"/>
<circle opacity="0.9" fill="#32506D" stroke="#B10000" stroke-width="3" enable-background="new    " cx="16.242188" cy="118.678711" r="1.54248"/>
<circle opacity="0.75" fill="#71869A" stroke="#B10000" stroke-width="3" enable-background="new    " cx="27.060547" cy="119.449219" r="1.54248"/>
<circle opacity="0.9" fill="#32506D" stroke="#B10000" stroke-width="3" enable-background="new    " cx="21.163086" cy="94.458008" r="1.54248"/>
<circle opacity="0.75" fill="#79DEFF" stroke="#B10000" stroke-width="3" enable-background="new    " cx="23.859375" cy="100.581055" r="1.54248"/>
<circle opacity="0.75" fill="#71869A" stroke="#B10000" stroke-width="3" enable-background="new    " cx="43.481445" cy="112.516113" r="1.542969"/>
<circle opacity="0.6" fill="#BEEDFF" stroke="#B10000" stroke-width="3" enable-background="new    " cx="45.198242" cy="109.537598" r="0.771484"/>
<circle opacity="0.6" fill="#9BAAB8" stroke="#B10000" stroke-width="3" enable-background="new    " cx="53.675781" cy="91.89502" r="3.084961"/>
<circle opacity="0.9" fill="#32506D" stroke="#B10000" stroke-width="3" enable-background="new    " cx="68.258789" cy="69.367188" r="1.54248"/>
<circle opacity="0.9" fill="#32506D" stroke="#B10000" stroke-width="3" enable-background="new    " cx="59.50293" cy="62.467041" r="1.542236"/>
<circle opacity="0.75" fill="#79DEFF" stroke="#B10000" stroke-width="3" enable-background="new    " cx="24.387695" cy="87.174805" r="1.54248"/>
<circle opacity="0.75" fill="#71869A" stroke="#B10000" stroke-width="3" enable-background="new    " cx="30.022461" cy="116.587891" r="0.770996"/>
<circle opacity="0.6" fill="#9BAAB8" stroke="#B10000" stroke-width="3" enable-background="new    " cx="26.488281" cy="105.668457" r="3.084961"/>
<circle opacity="0.9" fill="#32506D" stroke="#B10000" stroke-width="3" enable-background="new    " cx="23.814453" cy="113.797852" r="0.770996"/>
<circle opacity="0.75" fill="#71869A" stroke="#B10000" stroke-width="3" enable-background="new    " cx="69.600586" cy="77.287598" r="3.084961"/>
<circle opacity="0.75" fill="#79DEFF" stroke="#B10000" stroke-width="3" enable-background="new    " cx="16.05957" cy="109.700684" r="0.771484"/>
<circle opacity="0.6" fill="#BEEDFF" stroke="#B10000" stroke-width="3" enable-background="new    " cx="51.924805" cy="66.709961" r="3.085449"/>
<circle opacity="0.9" fill="#1AB6E5" stroke="#B10000" stroke-width="3" enable-background="new    " cx="12.058594" cy="117.979004" r="0.771484"/>
<circle opacity="0.75" fill="#79DEFF" stroke="#B10000" stroke-width="3" enable-background="new    " cx="55.219727" cy="107.328613" r="0.771484"/>
<circle opacity="0.75" fill="#CB5200" stroke="#B10000" stroke-width="3" enable-background="new    " cx="40.563477" cy="97.258301" r="1.542969"/>
<circle opacity="0.75" fill="#CB5200" stroke="#B10000" stroke-width="3" enable-background="new    " cx="39.546875" cy="88.482422" r="1.54248"/>
<circle opacity="0.75" fill="#CB5200" stroke="#B10000" stroke-width="3" enable-background="new    " cx="41.232422" cy="94.424805" r="1.54248"/>
<circle opacity="0.75" fill="#CB5200" stroke="#B10000" stroke-width="3" enable-background="new    " cx="39.482422" cy="91.082031" r="1.54248"/>
<circle opacity="0.6" fill="#9BAAB8" stroke="#B10000" stroke-width="3" enable-background="new    " cx="46.995117" cy="64.806641" r="1.54248"/>
<circle opacity="0.9" fill="#32506D" stroke="#B10000" stroke-width="3" enable-background="new    " cx="42.27832" cy="106.806641" r="0.770996"/>
<circle opacity="0.75" fill="#71869A" stroke="#B10000" stroke-width="3" enable-background="new    " cx="13.230469" cy="95.719727" r="1.54248"/>
<circle opacity="0.75" fill="#71869A" stroke="#B10000" stroke-width="3" enable-background="new    " cx="21.425781" cy="118.531738" r="3.084961"/>
<circle opacity="0.9" fill="#32506D" stroke="#B10000" stroke-width="3" enable-background="new    " cx="25.897461" cy="91.949707" r="1.542969"/>
<circle opacity="0.9" fill="#32506D" stroke="#B10000" stroke-width="3" enable-background="new    " cx="22.446289" cy="97.550781" r="1.54248"/>
<circle opacity="0.9" fill="#1AB6E5" stroke="#B10000" stroke-width="3" enable-background="new    " cx="38.698242" cy="109.787598" r="1.542969"/>
<circle opacity="0.75" fill="#79DEFF" stroke="#B10000" stroke-width="3" enable-background="new    " cx="76.953125" cy="85.112305" r="3.085449"/>
<circle opacity="0.9" fill="#1AB6E5" stroke="#B10000" stroke-width="3" enable-background="new    " cx="33.930664" cy="113.477539" r="1.54248"/>
<circle opacity="0.9" fill="#1AB6E5" stroke="#B10000" stroke-width="3" enable-background="new    " cx="63.555664" cy="106.054688" r="1.54248"/>
<circle opacity="0.75" fill="#79DEFF" stroke="#B10000" stroke-width="3" enable-background="new    " cx="30.536133" cy="75.145508" r="1.54248"/>
<circle fill="#6085FF" cx="36.880859" cy="9.462891" r="3.966797"/>
<g id="XMLID_2_">
	<g>
		<polygon fill="#727180" points="38.232422,7.55957 36.90625,8.848145 35.589844,7.55957 		"/>
	</g>
	<g>
	</g>
</g>
<polygon fill="#727180" points="37.514648,9.460938 35.554688,11.289551 38.320312,11.377441 40.192383,9.382324 "/>
<path fill="#FFFFFF" d="M35.546875,7.375488c-0.023438,0.010742-0.099609,0.082031-0.099609,0.09375
	c0,0.004883-0.011719,0.015625-0.027344,0.025879c-0.032227,0.020996-0.048828,0.037598-0.054688,0.055176
	c-0.001953,0.005859-0.016602,0.018555-0.032227,0.02832c-0.016602,0.009277-0.030273,0.021484-0.030273,0.026367
	c0,0.005371-0.001953,0.009277-0.003906,0.008789c-0.003906-0.000977-0.035156,0.02832-0.071289,0.064453
	s-0.099609,0.098145-0.140625,0.138184c-0.041992,0.040039-0.098633,0.09668-0.125,0.125488s-0.051758,0.05127-0.053711,0.049805
	s-0.009766,0.007812-0.017578,0.020508C34.882812,8.024414,34.875,8.035156,34.871094,8.035156
	c-0.00293,0-0.013672,0.012207-0.024414,0.027344c-0.03418,0.049805-0.147461,0.153809-0.161133,0.145508
	c-0.00293-0.000977-0.006836,0.003418-0.008789,0.012207c-0.004883,0.018066-0.082031,0.095703-0.116211,0.116211
	c-0.013672,0.007812-0.027344,0.018555-0.029297,0.023438c-0.003906,0.004395-0.023438,0.026855-0.044922,0.049805
	c-0.021484,0.022461-0.046875,0.053223-0.056641,0.067383c-0.023438,0.03418-0.050781,0.0625-0.111328,0.112305
	C34.291992,8.611328,34.25,8.648438,34.224609,8.672852s-0.052734,0.049316-0.061523,0.054199
	c-0.008789,0.006348-0.014648,0.016113-0.014648,0.021973s-0.007812,0.019043-0.018555,0.028809
	C34.082031,8.825684,34.024414,8.878418,34,8.895996c-0.013672,0.010254-0.039062,0.03125-0.056641,0.046387
	s-0.040039,0.03418-0.050781,0.04248c-0.009766,0.008301-0.027344,0.028809-0.039062,0.045898
	c-0.011719,0.016602-0.037109,0.044922-0.056641,0.0625c-0.020508,0.018555-0.040039,0.040039-0.042969,0.048828
	C33.75,9.150391,33.742188,9.15918,33.736328,9.161621c-0.011719,0.004883-0.068359,0.052734-0.179688,0.155762
	C33.5,9.368652,33.458984,9.42041,33.458984,9.441406c0,0.003906,0.009766,0.024902,0.020508,0.046387
	c0.014648,0.028809,0.032227,0.050781,0.063477,0.076172c0.023438,0.019531,0.058594,0.050781,0.077148,0.068848
	c0.019531,0.018066,0.047852,0.044434,0.063477,0.059082s0.041016,0.037109,0.057617,0.049316
	c0.036133,0.026855,0.308594,0.300293,0.308594,0.309082c0,0.002441,0.006836,0.009277,0.016602,0.014648
	c0.008789,0.004395,0.038086,0.03418,0.064453,0.064941c0.025391,0.030762,0.070312,0.075684,0.097656,0.100098
	c0.027344,0.023926,0.050781,0.045898,0.050781,0.048828c0,0.008789,0.117188,0.124512,0.136719,0.134277
	c0.011719,0.005859,0.027344,0.02002,0.035156,0.031738s0.021484,0.028809,0.029297,0.038086
	c0.008789,0.008789,0.015625,0.019043,0.015625,0.022949c0,0.007812,0.082031,0.092285,0.103516,0.106934
	c0.007812,0.005371,0.014648,0.013672,0.014648,0.018555s0.00293,0.008789,0.005859,0.008789s0.022461,0.014648,0.041992,0.033203
	c0.019531,0.017578,0.039062,0.032715,0.041016,0.032715c0.006836,0,0.081055,0.071289,0.18457,0.177734
	c0.068359,0.070312,0.082031,0.082031,0.102539,0.088379c0.005859,0.00293,0.011719,0.007324,0.011719,0.011719
	s0.021484,0.02832,0.046875,0.054688c0.080078,0.07959,0.113281,0.115234,0.131836,0.144531
	c0.009766,0.015137,0.036133,0.044434,0.05957,0.06543c0.021484,0.020996,0.048828,0.049805,0.05957,0.064453
	c0.03418,0.045898,0.092773,0.108398,0.102539,0.108398c0.001953,0,0.011719,0.01123,0.020508,0.024902
	c0.008789,0.013184,0.029297,0.033203,0.044922,0.043945c0.016602,0.010254,0.040039,0.028809,0.053711,0.041016l0.023438,0.022461
	l0.064453-0.003418c0.035156-0.001953,0.087891-0.006836,0.117188-0.010742c0.052734-0.007324,0.115234-0.010254,0.396484-0.016602
	c0.176758-0.003906,0.137695-0.003906,0.765625-0.001465c0.277344,0.001465,0.511719-0.000488,0.520508-0.003418
	s0.018555-0.00293,0.021484,0c0.006836,0.006836,0.15332,0.003906,0.264648-0.004395
	c0.042969-0.003418,0.085938-0.005859,0.095703-0.005859c0.008789-0.000488,0.044922-0.001953,0.082031-0.004395
	c0.080078-0.004883,0.06543-0.003906,0.179688-0.003418c0.321289,0.003418,0.339844,0,0.407227-0.061523
	c0.016602-0.015137,0.038086-0.033203,0.049805-0.039551c0.011719-0.006836,0.026367-0.021484,0.033203-0.032715
	c0.005859-0.01123,0.023438-0.033691,0.039062-0.049316s0.029297-0.032715,0.029297-0.038086s0.00293-0.007324,0.005859-0.005371
	c0.003906,0.001953,0.006836,0,0.006836-0.005859c0-0.005371,0.010742-0.020996,0.024414-0.035156
	c0.078125-0.081543,0.166016-0.180176,0.166016-0.187012c0-0.00293,0.003906-0.004883,0.007812-0.004883
	c0.004883,0,0.013672-0.004883,0.019531-0.011719c0.005859-0.005859,0.017578-0.016602,0.027344-0.022949
	s0.017578-0.017578,0.017578-0.024414c0-0.007324,0.003906-0.013184,0.007812-0.013184
	c0.004883,0,0.019531-0.011719,0.03125-0.026855c0.013672-0.01416,0.033203-0.030762,0.044922-0.035156
	c0.010742-0.005371,0.020508-0.012207,0.020508-0.016113c0-0.00293,0.019531-0.022949,0.044922-0.043945
	c0.024414-0.020508,0.049805-0.045898,0.057617-0.055664c0.007812-0.010742,0.015625-0.01709,0.017578-0.01416
	c0.00293,0.001465,0.004883-0.000977,0.004883-0.006348c0-0.005859,0.008789-0.017578,0.018555-0.026367
	c0.009766-0.008301,0.023438-0.023438,0.029297-0.033203c0.006836-0.009277,0.021484-0.020996,0.03125-0.025391
	c0.010742-0.004883,0.019531-0.010742,0.019531-0.012695c0-0.002441,0.027344-0.032715,0.0625-0.067383
	c0.033203-0.03418,0.061523-0.065918,0.061523-0.069824c0-0.003418,0.00293-0.006348,0.006836-0.006348
	c0.009766,0,0.089844-0.07959,0.086914-0.086914c-0.000977-0.00293,0.000977-0.004395,0.003906-0.002441
	c0.006836,0.003906,0.071289-0.061523,0.067383-0.070312c0-0.002441,0.009766-0.009766,0.022461-0.015137
	c0.012695-0.004883,0.022461-0.011719,0.022461-0.01416c0-0.005371,0.009766-0.015137,0.078125-0.078125
	c0.017578-0.018555,0.033203-0.036133,0.033203-0.040527c0-0.004883,0.00293-0.006836,0.005859-0.004883
	c0.003906,0.001953,0.015625-0.008301,0.02832-0.023438c0.012695-0.014648,0.039062-0.042969,0.05957-0.062988
	c0.021484-0.02002,0.038086-0.039062,0.038086-0.041504c0-0.003418,0.006836-0.012695,0.014648-0.021484
	s0.027344-0.03125,0.044922-0.049316c0.042969-0.049805,0.052734-0.060547,0.087891-0.089355
	c0.017578-0.014648,0.035156-0.03125,0.041016-0.037598c0.005859-0.005859,0.013672-0.009766,0.015625-0.007812
	C40,9.884277,40.005859,9.877441,40.011719,9.867676c0.004883-0.009766,0.022461-0.029785,0.039062-0.044434
	c0.068359-0.05957,0.100586-0.093262,0.111328-0.112793c0.005859-0.01123,0.019531-0.027832,0.029297-0.036133
	c0.021484-0.015625,0.066406-0.072754,0.066406-0.082031c0-0.003418,0.012695-0.016602,0.02832-0.029785
	c0.030273-0.024902,0.040039-0.046875,0.047852-0.10791c0.003906-0.032227,0.003906-0.035645-0.015625-0.052734
	C40.307617,9.39209,40.289062,9.36377,40.27832,9.340332C40.263672,9.307617,40.25,9.289551,40.222656,9.268066
	c-0.019531-0.015625-0.036133-0.03125-0.037109-0.03418c0-0.012695-0.109375-0.122559-0.121094-0.122559
	c-0.003906,0-0.013672-0.007324-0.023438-0.015137c-0.025391-0.022461-0.121094-0.143555-0.126953-0.159668
	c-0.003906-0.013184-0.095703-0.100098-0.125-0.120605c-0.008789-0.005859-0.022461-0.017578-0.03125-0.026367
	c-0.009766-0.008789-0.037109-0.036133-0.061523-0.060547c-0.024414-0.023926-0.055664-0.055664-0.068359-0.070801
	c-0.012695-0.01416-0.026367-0.030762-0.030273-0.035156c-0.005859-0.005371-0.018555-0.015137-0.030273-0.022461
	c-0.036133-0.022949-0.202148-0.192383-0.233398-0.237305c-0.018555-0.026855-0.070312-0.077637-0.119141-0.115234
	c-0.017578-0.01416-0.041016-0.036621-0.049805-0.048828c-0.008789-0.012695-0.032227-0.038086-0.052734-0.056152
	s-0.05957-0.055664-0.086914-0.083984c-0.027344-0.027344-0.076172-0.077148-0.109375-0.110352
	c-0.032227-0.032715-0.064453-0.061523-0.070312-0.063965c-0.017578-0.006348-0.141602-0.125977-0.171875-0.164551
	c-0.014648-0.02002-0.042969-0.052246-0.061523-0.071777c-0.019531-0.019531-0.039062-0.04541-0.043945-0.057129
	s-0.015625-0.024902-0.024414-0.029297c-0.007812-0.004883-0.045898-0.038086-0.083984-0.075195
	c-0.066406-0.063477-0.071289-0.066895-0.118164-0.080566c-0.027344-0.007812-0.060547-0.015625-0.076172-0.018555
	c-0.013672-0.002441-0.03125-0.006836-0.037109-0.009766c-0.010742-0.005859-0.128906-0.006348-0.330078-0.001953
	c-0.064453,0.001465-0.135742,0.001953-0.157227,0.001465c-0.057617-0.001465-0.06543-0.001465-0.131836,0.003906
	c-0.03125,0.002441-0.107422,0.005371-0.166992,0.005371c-0.063477,0-0.111328,0.002441-0.116211,0.006348
	c-0.005859,0.004883-0.010742,0.004883-0.015625,0c-0.005859-0.003906-0.105469-0.006348-0.267578-0.006836
	c-0.142578-0.000977-0.291992-0.00293-0.332031-0.004883c-0.039062-0.001953-0.088867-0.003418-0.108398-0.002441
	c-0.049805,0.000977-0.043945,0.000977-0.164062-0.001953c-0.05957-0.002441-0.109375-0.003906-0.111328-0.004883
	c-0.001953-0.000488-0.004883-0.001465-0.007812-0.000488C36.3125,7.37207,35.925781,7.381348,35.907227,7.380859
	c-0.084961-0.001465-0.296875-0.009277-0.31543-0.012207C35.579102,7.366699,35.558594,7.370117,35.546875,7.375488z
	 M36.335938,7.647949c0.025391-0.001465,0.069336-0.000977,0.095703,0.000488
	c0.027344,0.001465,0.084961,0.001953,0.128906,0.002441c0.043945,0,0.080078,0.00293,0.083008,0.006836
	c0.00293,0.004395,0.004883,0.003906,0.004883,0c0-0.007324,0.519531-0.007812,0.538086-0.000977
	c0.010742,0.003906,0.354492,0.000977,0.633789-0.005859l0.189453-0.004395L37.99707,7.661621
	c-0.006836,0.008301-0.035156,0.037109-0.0625,0.064941c-0.026367,0.026855-0.05957,0.062988-0.073242,0.078613
	c-0.03125,0.039551-0.083984,0.09082-0.152344,0.150879c-0.03125,0.026855-0.066406,0.064941-0.080078,0.083984
	s-0.037109,0.044922-0.054688,0.057129c-0.015625,0.011719-0.099609,0.092773-0.185547,0.178711
	s-0.171875,0.171387-0.191406,0.188965c-0.017578,0.018066-0.039062,0.040527-0.046875,0.049316
	c-0.006836,0.008789-0.037109,0.036621-0.064453,0.062012c-0.02832,0.024902-0.064453,0.057129-0.078125,0.070312
	c-0.023438,0.023926-0.057617,0.03418-0.057617,0.018555c0-0.003906-0.00293-0.006836-0.006836-0.006836
	c-0.009766,0-0.044922-0.035645-0.044922-0.044922c0-0.003906-0.00293-0.007324-0.006836-0.007324
	c-0.00293,0-0.017578-0.01123-0.03125-0.024902c-0.041016-0.040039-0.080078-0.072266-0.092773-0.07666
	c-0.011719-0.003906-0.073242-0.059082-0.073242-0.065918c0-0.001953-0.014648-0.019043-0.032227-0.037598
	c-0.017578-0.018066-0.033203-0.035156-0.033203-0.038574c0-0.002441-0.024414-0.024902-0.053711-0.04834
	c-0.030273-0.023926-0.057617-0.045898-0.061523-0.049805c-0.00293-0.003906-0.017578-0.018555-0.03125-0.031738
	c-0.045898-0.041992-0.131836-0.12793-0.149414-0.148438c-0.008789-0.01123-0.02832-0.029785-0.042969-0.04248
	c-0.014648-0.012207-0.045898-0.04541-0.072266-0.072266c-0.055664-0.059082-0.063477-0.06543-0.099609-0.087891
	c-0.015625-0.009766-0.029297-0.021484-0.03125-0.026855s-0.010742-0.01123-0.017578-0.013672
	c-0.008789-0.00293-0.024414-0.014648-0.035156-0.026367c-0.010742-0.012207-0.022461-0.022461-0.024414-0.022461
	c-0.010742,0-0.121094-0.108887-0.136719-0.134277c-0.003906-0.005371,0.058594-0.007812,0.197266-0.008789
	c0.109375-0.000488,0.201172-0.002441,0.203125-0.004395c0.001953-0.001465,0.005859-0.001465,0.008789,0.000488
	S36.308594,7.648438,36.335938,7.647949z M38.337891,7.774902c0.033203,0.033203,0.067383,0.068359,0.076172,0.07959
	c0.009766,0.010742,0.040039,0.037598,0.067383,0.059082c0.026367,0.021484,0.057617,0.051758,0.067383,0.066895
	C38.5625,8.00293,38.601562,8.04248,38.652344,8.085938c0.001953,0.00293,0.039062,0.041016,0.083008,0.084961
	c0.042969,0.044434,0.086914,0.085938,0.09668,0.091797c0.009766,0.006348,0.039062,0.03418,0.064453,0.061035
	s0.055664,0.059082,0.066406,0.070801c0.011719,0.011719,0.021484,0.023926,0.021484,0.026855s0.017578,0.019043,0.039062,0.035645
	c0.019531,0.016113,0.058594,0.050293,0.084961,0.076172c0.026367,0.025391,0.049805,0.046387,0.053711,0.046387
	c0.007812,0,0.183594,0.174805,0.183594,0.182617c0,0.004395,0.021484,0.026367,0.142578,0.146484
	c0.017578,0.016113,0.039062,0.034668,0.048828,0.040527s0.025391,0.022949,0.036133,0.038086s0.042969,0.052246,0.072266,0.083008
	c0.030273,0.030273,0.055664,0.061035,0.057617,0.067871c0.00293,0.007324,0.006836,0.012207,0.009766,0.012207
	c0.007812,0,0.054688,0.049316,0.080078,0.084961c0.027344,0.039062,0.021484,0.04834-0.037109,0.054199
	c-0.289062,0.029297-0.561523,0.038086-0.916016,0.031738c-0.066406-0.001465-0.197266-0.000488-0.291016,0.001953
	c-0.101562,0.002441-0.237305,0.001953-0.332031-0.002441c-0.087891-0.004395-0.183594-0.008789-0.212891-0.010254
	c-0.029297-0.000977-0.09082-0.001953-0.138672-0.000977c-0.217773,0.001953-0.21875,0.001953-0.25-0.039551
	c-0.009766-0.010254-0.02832-0.025391-0.042969-0.033203c-0.029297-0.015625-0.083984-0.060547-0.083984-0.070312
	c0-0.007324-0.033203-0.040039-0.06543-0.062988c-0.012695-0.009277-0.043945-0.037598-0.069336-0.062012
	c-0.025391-0.024902-0.0625-0.060059-0.082031-0.079102c-0.020508-0.018555-0.039062-0.038086-0.041016-0.043457
	s-0.015625-0.017578-0.029297-0.02832c-0.053711-0.040039-0.054688-0.053711,0-0.101562
	c0.022461-0.02002,0.056641-0.053223,0.078125-0.074707c0.020508-0.021973,0.041016-0.042969,0.045898-0.047363
	c0.021484-0.018555,0.139648-0.134766,0.191406-0.188965c0.084961-0.086914,0.135742-0.135742,0.166992-0.161133
	c0.015625-0.011719,0.02832-0.023926,0.02832-0.027344c0-0.002441,0.041992-0.047852,0.094727-0.100586
	c0.052734-0.052246,0.111328-0.117188,0.130859-0.144043c0.021484-0.026855,0.040039-0.049316,0.042969-0.049316
	c0.009766,0,0.174805-0.166504,0.189453-0.192383c0.008789-0.013184,0.017578-0.024414,0.019531-0.024414
	s0.017578-0.015625,0.033203-0.035156c0.022461-0.026855,0.032227-0.03418,0.042969-0.031738
	C38.273438,7.714355,38.306641,7.742188,38.337891,7.774902z M35.618164,7.808105
	c0.012695,0.008301,0.030273,0.023438,0.040039,0.033203c0.008789,0.009766,0.024414,0.021484,0.03418,0.027832
	c0.010742,0.004883,0.030273,0.019531,0.043945,0.031738C35.75,7.913574,35.770508,7.930664,35.78125,7.938477
	c0.039062,0.027832,0.129883,0.108887,0.206055,0.183105c0.041992,0.040527,0.091797,0.087891,0.111328,0.104492
	c0.018555,0.01709,0.051758,0.044434,0.071289,0.061523c0.050781,0.044434,0.142578,0.140625,0.161133,0.16748
	c0.008789,0.012207,0.032227,0.039062,0.055664,0.059082c0.021484,0.019531,0.057617,0.053711,0.080078,0.075195
	c0.023438,0.021973,0.048828,0.043945,0.056641,0.049316c0.006836,0.005371,0.013672,0.011719,0.013672,0.015137
	c0,0.006348,0.027344,0.030273,0.035156,0.030762c0.005859,0,0.007812,0.001953,0.060547,0.045898
	c0.076172,0.064941,0.126953,0.114746,0.126953,0.126953c0,0.011719-0.044922,0.059082-0.269531,0.287109
	c-0.050781,0.050293-0.09082,0.093262-0.09082,0.09668s-0.029297,0.032227-0.063477,0.063477
	c-0.036133,0.031738-0.087891,0.083496-0.117188,0.114746c-0.048828,0.052734-0.097656,0.100098-0.282227,0.272461
	c-0.038086,0.036133-0.083984,0.083008-0.100586,0.103027c-0.015625,0.020996-0.044922,0.049805-0.064453,0.064453
	c-0.019531,0.015137-0.042969,0.038086-0.052734,0.052246c-0.008789,0.01416-0.033203,0.039062-0.054688,0.055176
	c-0.021484,0.016602-0.054688,0.046875-0.076172,0.066895c-0.019531,0.020508-0.045898,0.041992-0.055664,0.047852
	C35.521484,10.088379,35.507812,10.100586,35.5,10.11084c-0.022461,0.02832-0.041016,0.023438-0.086914-0.021973
	c-0.022461-0.021484-0.042969-0.039062-0.045898-0.039062c-0.001953,0-0.037109-0.031738-0.077148-0.070312
	s-0.080078-0.076172-0.089844-0.083496c-0.055664-0.042969-0.15625-0.142578-0.202148-0.197266
	c-0.014648-0.018066-0.038086-0.043945-0.052734-0.058594C34.930664,9.625,34.908203,9.600098,34.895508,9.583496
	c-0.027344-0.036133-0.06543-0.07373-0.133789-0.134277c-0.029297-0.024902-0.070312-0.065918-0.091797-0.089844
	c-0.021484-0.024414-0.073242-0.074707-0.115234-0.111816c-0.041016-0.036621-0.074219-0.070801-0.074219-0.075195
	c0-0.004883-0.00293-0.008789-0.007812-0.008789c-0.005859,0-0.009766-0.004395-0.009766-0.009766
	c0-0.004883-0.00293-0.009766-0.007812-0.009766c-0.003906,0-0.018555-0.011719-0.033203-0.026367
	c-0.013672-0.01416-0.03418-0.030762-0.044922-0.036133c-0.009766-0.005859-0.023438-0.019043-0.02832-0.029297
	c-0.006836-0.01123-0.012695-0.019531-0.016602-0.019531c-0.013672,0-0.039062-0.03125-0.037109-0.046875
	c0.000977-0.017578,0.072266-0.091309,0.087891-0.091309c0.004883,0,0.086914-0.077148,0.181641-0.172363
	c0.167969-0.16748,0.211914-0.208008,0.225586-0.208008c0.008789,0,0.051758-0.047852,0.064453-0.07373
	c0.005859-0.011719,0.023438-0.032715,0.039062-0.047363c0.016602-0.013672,0.029297-0.027832,0.030273-0.032715
	c0-0.003906,0.017578-0.021484,0.039062-0.038574c0.024414-0.020508,0.039062-0.036621,0.039062-0.04541
	c0-0.007812,0.001953-0.012207,0.003906-0.009766c0.001953,0.001953,0.023438-0.015625,0.045898-0.040039
	c0.024414-0.024414,0.051758-0.053711,0.063477-0.064941c0.011719-0.011719,0.022461-0.021484,0.025391-0.021484
	s0.004883-0.00293,0.004883-0.006836c0-0.00293,0.006836-0.013184,0.014648-0.021973
	c0.008789-0.008789,0.021484-0.023926,0.02832-0.033203c0.006836-0.008789,0.015625-0.01709,0.018555-0.01709
	c0.003906,0,0.018555-0.010742,0.033203-0.024902c0.055664-0.047852,0.087891-0.073242,0.095703-0.073242
	c0.00293,0,0.027344-0.023926,0.053711-0.052734c0.026367-0.029297,0.058594-0.059082,0.071289-0.066895
	c0.011719-0.007812,0.033203-0.022949,0.045898-0.034668c0.012695-0.01123,0.030273-0.024902,0.039062-0.030762
	c0.014648-0.009766,0.018555-0.009277,0.033203,0.002441C35.587891,7.787109,35.605469,7.799316,35.618164,7.808105z
	 M37.044922,9.110352c0.12207,0.120605,0.169922,0.166992,0.212891,0.203125c0.018555,0.016113,0.042969,0.040527,0.053711,0.053711
	l0.018555,0.024414l-0.041016,0.044434c-0.021484,0.024902-0.057617,0.061035-0.080078,0.081543
	c-0.020508,0.02002-0.055664,0.055664-0.078125,0.079102c-0.021484,0.023926-0.055664,0.060059-0.075195,0.080078
	c-0.020508,0.020508-0.040039,0.040527-0.043945,0.046387c-0.003906,0.004395-0.024414,0.02002-0.044922,0.034668
	c-0.021484,0.01416-0.069336,0.058105-0.107422,0.098145c-0.038086,0.039551-0.088867,0.09082-0.112305,0.113281
	c-0.089844,0.085449-0.114258,0.110352-0.120117,0.124512c-0.003906,0.008301-0.009766,0.015137-0.013672,0.015137
	s-0.019531,0.012207-0.035156,0.027344c-0.016602,0.015625-0.041016,0.038086-0.052734,0.049316
	c-0.012695,0.011719-0.023438,0.021484-0.024414,0.021484s-0.016602,0.014648-0.03418,0.032227
	c-0.017578,0.018555-0.051758,0.052246-0.078125,0.077637c-0.024414,0.023926-0.066406,0.06543-0.091797,0.091797
	c-0.025391,0.025391-0.055664,0.052734-0.066406,0.059082c-0.033203,0.019531-0.080078,0.062988-0.080078,0.072266
	c0,0.004395-0.003906,0.008301-0.007812,0.008301c-0.001953,0-0.017578,0.01123-0.03125,0.024414
	c-0.012695,0.013672-0.041016,0.040039-0.064453,0.059082c-0.03125,0.027344-0.041016,0.033203-0.054688,0.029785
	c-0.020508-0.004883-0.072266-0.040527-0.072266-0.048828c0-0.008789-0.134766-0.143066-0.144531-0.143066
	c-0.00293,0-0.005859-0.002441-0.005859-0.006836c0-0.00293-0.017578-0.024902-0.039062-0.047363
	c-0.022461-0.022461-0.041016-0.045898-0.042969-0.052246c-0.001953-0.005859-0.011719-0.015137-0.019531-0.020996
	c-0.009766-0.006348-0.017578-0.01709-0.017578-0.025391c0-0.01709,0.063477-0.083984,0.115234-0.123047
	c0.019531-0.01416,0.036133-0.028809,0.036133-0.03125c0-0.003906,0.070312-0.077637,0.092773-0.097168
	c0.005859-0.004395,0.032227-0.031738,0.060547-0.060547c0.029297-0.028809,0.060547-0.056152,0.070312-0.060059
	c0.010742-0.004883,0.019531-0.01123,0.019531-0.014648c0-0.007812,0.070312-0.08252,0.130859-0.13916
	c0.050781-0.047363,0.116211-0.112793,0.134766-0.135742c0.007812-0.008301,0.024414-0.024902,0.037109-0.035645
	c0.03125-0.028809,0.103516-0.10791,0.103516-0.115234c0-0.003418,0.003906-0.005859,0.008789-0.005859
	s0.045898-0.039062,0.09082-0.086914s0.087891-0.092285,0.09668-0.100098c0.024414-0.020996,0.251953-0.249512,0.271484-0.271973
	c0.009766-0.01123,0.021484-0.02002,0.025391-0.02002C36.949219,9.019531,36.994141,9.060547,37.044922,9.110352z
	 M34.154297,9.241699c0.019531,0.020508,0.046875,0.04541,0.058594,0.055176c0.012695,0.009766,0.060547,0.054688,0.107422,0.098633
	c0.045898,0.043945,0.088867,0.08252,0.095703,0.086426c0.020508,0.010742,0.054688,0.043945,0.085938,0.080566
	c0.015625,0.018555,0.032227,0.03418,0.037109,0.03418c0.005859,0,0.009766,0.00293,0.009766,0.005371
	c0,0.00293,0.011719,0.018555,0.026367,0.03418c0.014648,0.016602,0.039062,0.043457,0.053711,0.060547
	c0.041016,0.046387,0.078125,0.083984,0.082031,0.083984c0.001953,0,0.016602,0.014648,0.033203,0.03418
	c0.050781,0.056152,0.233398,0.236328,0.274414,0.269531c0.021484,0.017578,0.049805,0.045898,0.063477,0.0625
	c0.014648,0.016602,0.037109,0.038086,0.050781,0.046875c0.041992,0.02832,0.130859,0.12207,0.130859,0.138672
	c0,0.013672-0.089844,0.106445-0.157227,0.160645c-0.012695,0.010742-0.043945,0.037598-0.069336,0.060059
	c-0.024414,0.022949-0.048828,0.041016-0.052734,0.041016c-0.004883,0-0.027344-0.018066-0.049805-0.041016
	c-0.022461-0.022461-0.079102-0.077148-0.125977-0.120117c-0.044922-0.043945-0.083008-0.082031-0.083008-0.084961
	s-0.037109-0.043457-0.083008-0.089355c-0.046875-0.045898-0.089844-0.090332-0.097656-0.099121
	c-0.006836-0.008301-0.027344-0.026367-0.044922-0.041016c-0.018555-0.014648-0.085938-0.078125-0.149414-0.141113
	s-0.151367-0.148926-0.195312-0.19043c-0.042969-0.041504-0.092773-0.091797-0.110352-0.111328
	c-0.033203-0.037598-0.130859-0.132324-0.191406-0.184082l-0.03418-0.029297l0.032227-0.030762
	c0.018555-0.016602,0.041016-0.042969,0.050781-0.057129c0.009766-0.015137,0.021484-0.026855,0.025391-0.026855
	c0.005859,0,0.020508-0.012695,0.03418-0.02832c0.013672-0.015137,0.047852-0.048828,0.077148-0.074219
	c0.039062-0.034668,0.056641-0.045898,0.066406-0.043457C34.112305,9.203613,34.134766,9.222168,34.154297,9.241699z
	 M38.049805,9.59375c0.118164,0.004395,0.584961,0.006836,0.90918,0.004883c0.095703-0.000488,0.243164-0.000977,0.328125-0.000977
	c0.124023-0.000977,0.240234-0.003906,0.328125-0.008789c0.004883,0,0.023438,0.001465,0.041016,0.003906
	c0.017578,0.001953,0.03125,0.001465,0.03125-0.000977c0-0.003418,0.016602-0.004883,0.037109-0.00293
	c0.039062,0.003418,0.053711,0.003418,0.09375,0c0.029297-0.002441,0.033203,0.011719,0.009766,0.038086
	c-0.009766,0.010742-0.027344,0.033691-0.039062,0.051758s-0.037109,0.049316-0.055664,0.068848
	c-0.018555,0.02002-0.038086,0.045898-0.043945,0.058105c-0.005859,0.011719-0.030273,0.036621-0.053711,0.055664
	c-0.051758,0.041504-0.240234,0.229004-0.254883,0.254395c-0.006836,0.010742-0.013672,0.019043-0.015625,0.019043
	s-0.019531,0.014648-0.040039,0.033203c-0.018555,0.017578-0.037109,0.032715-0.040039,0.032715
	c-0.001953,0-0.013672,0.013184-0.025391,0.029297c-0.017578,0.026367-0.162109,0.173828-0.167969,0.173828
	c-0.007812,0-0.107422,0.104492-0.107422,0.111328c0,0.003906-0.009766,0.013672-0.021484,0.021484
	c-0.012695,0.008301-0.025391,0.019531-0.025391,0.026367c-0.001953,0.005859-0.020508,0.021484-0.041016,0.034668
	c-0.019531,0.013672-0.037109,0.029297-0.039062,0.035156c-0.001953,0.006348-0.015625,0.019043-0.02832,0.030273
	c-0.019531,0.016113-0.143555,0.13916-0.166016,0.164062c-0.014648,0.01709-0.079102,0.081543-0.108398,0.108887
	c-0.017578,0.017578-0.040039,0.038086-0.048828,0.047363c-0.048828,0.05127-0.101562,0.104004-0.128906,0.129883
	c-0.017578,0.01709-0.039062,0.037598-0.046875,0.045898c-0.042969,0.047363-0.052734,0.054199-0.097656,0.0625
	c-0.024414,0.004395-0.075195,0.008301-0.111328,0.009277c-0.037109,0-0.095703,0.002441-0.130859,0.006348
	c-0.037109,0.003418-0.131836,0.008301-0.212891,0.010254c-0.082031,0.002441-0.169922,0.006348-0.197266,0.008789
	c-0.026367,0.00293-0.055664,0.00293-0.0625,0c-0.007812-0.002441-0.015625-0.003906-0.017578-0.002441
	c-0.004883,0.005371-0.259766,0.009766-0.785156,0.013184c-0.291016,0.002441-0.607422,0.005859-0.703125,0.007812
	c-0.232422,0.005371-0.228516,0.005371-0.233398,0.000488c-0.004883-0.005859,0.060547-0.095215,0.077148-0.104004
	c0.006836-0.003418,0.011719-0.010742,0.011719-0.015137c0-0.009277,0.061523-0.069824,0.071289-0.069824
	c0.00293,0,0.014648-0.014648,0.026367-0.032227c0.009766-0.017578,0.02832-0.037109,0.039062-0.043945
	c0.021484-0.01416,0.054688-0.042969,0.111328-0.099121c0.021484-0.021973,0.05957-0.054199,0.082031-0.071289
	c0.042969-0.032227,0.107422-0.097168,0.151367-0.149902c0.013672-0.016113,0.047852-0.044922,0.075195-0.063477
	s0.074219-0.059082,0.105469-0.090332s0.078125-0.07373,0.105469-0.094727c0.025391-0.020996,0.061523-0.056152,0.080078-0.07959
	c0.017578-0.022949,0.045898-0.050293,0.061523-0.061523s0.045898-0.041992,0.067383-0.068359
	c0.020508-0.026367,0.066406-0.074219,0.099609-0.106934c0.035156-0.032227,0.079102-0.076172,0.099609-0.096191
	c0.019531-0.020508,0.047852-0.047363,0.0625-0.059082c0.0625-0.049805,0.27832-0.249512,0.290039-0.269043
	c0.007812-0.011719,0.03418-0.041016,0.061523-0.064453l0.046875-0.04248l0.162109-0.003418
	C37.844727,9.586426,37.880859,9.586914,38.049805,9.59375z M35.492188,10.531738
	C35.5,10.541016,35.507812,10.54834,35.511719,10.54834c0.006836,0,0.041016,0.036621,0.148438,0.15625
	c0.039062,0.043945,0.074219,0.080078,0.076172,0.080078c0.009766,0,0.045898,0.060547,0.045898,0.074707
	c0,0.006348-0.008789,0.022949-0.019531,0.036133s-0.022461,0.026367-0.024414,0.030273
	c-0.003906,0.003418-0.014648,0.013672-0.025391,0.022949s-0.052734,0.052734-0.09375,0.09668
	c-0.042969,0.046387-0.082031,0.08252-0.092773,0.086426c-0.017578,0.005859-0.022461,0.003906-0.050781-0.02002
	c-0.03418-0.027832-0.032227-0.025879-0.095703-0.098633c-0.024414-0.02832-0.063477-0.070312-0.084961-0.093262
	c-0.050781-0.052734-0.091797-0.101074-0.102539-0.120605c-0.006836-0.013184-0.004883-0.018555,0.019531-0.047363
	c0.014648-0.018555,0.030273-0.032715,0.03418-0.032715c0.001953,0,0.050781-0.045898,0.107422-0.102051
	c0.056641-0.055664,0.107422-0.101562,0.114258-0.101562S35.484375,10.522949,35.492188,10.531738z"/>
<rect x="42.912109" y="7.666016" fill="none" width="15.679688" height="5.950195"/>
<text transform="matrix(1 0 0 1 42.912598 11.214355)"><tspan x="0" y="0" font-family="'ComfortaaBold'" font-size="4.97">B</tspan><tspan x="2.313477" y="0" font-family="'ComfortaaBold'" font-size="4.97">l</tspan><tspan x="3.436523" y="0" font-family="'ComfortaaBold'" font-size="4.97" letter-spacing="1">u</tspan><tspan x="7.810547" y="0" font-family="'ComfortaaBold'" font-size="4.97">P</tspan><tspan x="9.98584" y="0" font-family="'ComfortaaBold'" font-size="4.97">en</tspan></text>
</svg>
