<?xml version="1.0" encoding="utf-8"?>
<!-- Generator: Adobe Illustrator 15.0.0, SVG Export Plug-In  -->
<!DOCTYPE svg PUBLIC "-//W3C//DTD SVG 1.1//EN" "http://www.w3.org/Graphics/SVG/1.1/DTD/svg11.dtd" >
<svg version="1.1"
	 xmlns="http://www.w3.org/2000/svg" xmlns:xlink="http://www.w3.org/1999/xlink" xmlns:a="http://ns.adobe.com/AdobeSVGViewerExtensions/3.0/"
viewBox="-0.5 -0.775879 127 137">
<defs>
    <style type="text/css">
      @font-face {
      font-family: 'ComfortaaBold';
      src: url('fonts/comfortaa/comfortaa_bold-webfont.eot');
      src: url('fonts/comfortaa/comfortaa_bold-webfont.eot?#iefix') format('embedded-opentype'),
      url('fonts/comfortaa/comfortaa_bold-webfont.woff') format('woff'),
      url('fonts/comfortaa/comfortaa_bold-webfont.ttf') format('truetype'),
      url('fonts/comfortaa/comfortaa_bold-webfont.svg#comfortaabold') format('svg');
      font-weight: normal;
      font-style: normal;
      }
      @font-face {
      font-family: 'OswaldBold';
      src: url('../fonts/oswald/oswald-bold-webfont.eot');
      src: url('../fonts/oswald/oswald-bold-webfont.eot?#iefix') format('embedded-opentype'),
      url('../fonts/oswald/oswald-bold-webfont.woff') format('woff'),
      url('../fonts/oswald/oswald-bold-webfont.ttf') format('truetype'),
      url('../fonts/oswald/oswald-bold-webfont.svg#oswaldbold') format('svg');
      font-weight: normal;
      font-style: normal;
      }
      @font-face {
      font-family: 'OswaldBook';
      src: url('../fonts/oswald/oswald-regular-webfont.eot');
      src: url('../fonts/oswald/oswald-regular-webfont.eot?#iefix') format('embedded-opentype'),
      url('../fonts/oswald/oswald-regular-webfont.woff') format('woff'),
      url('../fonts/oswald/oswald-regular-webfont.ttf') format('truetype'),
      url('../fonts/oswald/oswald-regular-webfont.svg#oswaldbook') format('svg');
      font-weight: normal;
      font-style: normal;
      }
    </style>
</defs>
<polygon fill="#808184" points="90.5,99.224121 90.765625,135.224121 126.5,99.224121 "/>
<line fill="none" stroke="#231F20" stroke-miterlimit="10" x1="36.304688" y1="134.315918" x2="36.304688" y2="34.23584"/>
<rect x="0.5" y="0.5" fill="#FFFFFF" stroke="#58595B" stroke-miterlimit="10" width="90.195312" height="134.724121"/>
<rect x="0.695312" y="18.224121" fill="none" width="90" height="27"/>
<text class="bp-shell-collection" transform="matrix(1 0 0 1 2.706055 31.407715)"><tspan x="0" y="0" fill="#231F20" font-family="'OswaldBold'" font-size="15">SOUTH SUDAN</tspan><tspan x="5.183105" y="10.799805" fill="#231F20" font-family="'OswaldBook'" font-size="9">A VISUAL COLLECTION</tspan></text>
<circle opacity="0.6" fill="#FF0084" enable-background="new    " cx="68.678711" cy="69.50293" r="4.210449"/>
<circle opacity="0.75" fill="#B1005D" enable-background="new    " cx="18.370117" cy="62.635742" r="2.10498"/>
<circle opacity="0.6" fill="#FF0084" enable-background="new    " cx="75.393555" cy="58.43457" r="4.210449"/>
<circle opacity="0.75" fill="#B1005D" enable-background="new    " cx="50.480469" cy="87.070801" r="1.052734"/>
<circle opacity="0.6" fill="#9BAAB8" enable-background="new    " cx="34.754883" cy="96.883789" r="1.052246"/>
<circle opacity="0.9" fill="#32506D" enable-background="new    " cx="29.943359" cy="100.782715" r="1.052734"/>
<circle opacity="0.6" fill="#9BAAB8" enable-background="new    " cx="57.061523" cy="80.672852" r="2.10498"/>
<circle opacity="0.6" fill="#9BAAB8" enable-background="new    " cx="31.0625" cy="93.860352" r="2.10498"/>
<circle opacity="0.75" fill="#71869A" enable-background="new    " cx="58.644531" cy="75.436523" r="2.10498"/>
<circle opacity="0.9" fill="#7D0043" enable-background="new    " cx="24.320312" cy="97.080078" r="1.052246"/>
<circle opacity="0.9" fill="#1AB6E5" enable-background="new    " cx="34.359375" cy="85.529785" r="2.105469"/>
<circle opacity="0.9" fill="#7D0043" stroke="#B10000" stroke-width="3" enable-background="new    " cx="18.339844" cy="104.303711" r="4.210449"/>
<circle opacity="0.6" fill="#BEEDFF" enable-background="new    " cx="46.489258" cy="96.868164" r="2.10498"/>
<circle opacity="0.75" fill="#79DEFF" enable-background="new    " cx="50.025391" cy="66.232422" r="2.10498"/>
<circle opacity="0.9" fill="#1AB6E5" enable-background="new    " cx="61.90625" cy="88.704102" r="4.210449"/>
<circle opacity="0.75" fill="#79DEFF" enable-background="new    " cx="35.568359" cy="88.918457" r="2.105469"/>
<circle opacity="0.6" fill="#9BAAB8" stroke="#B10000" stroke-width="3" enable-background="new    " cx="17.712891" cy="76.380371" r="2.105469"/>
<circle opacity="0.75" fill="#71869A" stroke="#B10000" stroke-width="3" enable-background="new    " cx="51.4375" cy="89.271973" r="1.052734"/>
<circle opacity="0.75" fill="#71869A" stroke="#B10000" stroke-width="3" enable-background="new    " cx="57.327148" cy="68.335938" r="4.210449"/>
<circle opacity="0.75" fill="#71869A" stroke="#B10000" stroke-width="3" enable-background="new    " cx="65.049805" cy="58.972656" r="2.10498"/>
<circle opacity="0.9" fill="#32506D" stroke="#B10000" stroke-width="3" enable-background="new    " cx="27.410156" cy="105.646973" r="1.052734"/>
<circle opacity="0.6" fill="#9BAAB8" stroke="#B10000" stroke-width="3" enable-background="new    " cx="77.485352" cy="65.448242" r="4.210449"/>
<circle opacity="0.75" fill="#79DEFF" stroke="#B10000" stroke-width="3" enable-background="new    " cx="17.410156" cy="99.074219" r="2.10498"/>
<circle opacity="0.9" fill="#1AB6E5" stroke="#B10000" stroke-width="3" enable-background="new    " cx="76.526367" cy="84.001953" r="4.210449"/>
<circle opacity="0.75" fill="#71869A" stroke="#B10000" stroke-width="3" enable-background="new    " cx="41.912109" cy="94.16748" r="2.105469"/>
<circle opacity="0.6" fill="#BEEDFF" stroke="#B10000" stroke-width="3" enable-background="new    " cx="42.665039" cy="83.864746" r="1.052734"/>
<circle opacity="0.9" fill="#32506D" stroke="#B10000" stroke-width="3" enable-background="new    " cx="34.514648" cy="100.368164" r="2.10498"/>
<circle opacity="0.75" fill="#CB5200" stroke="#B10000" stroke-width="3" enable-background="new    " cx="47.049805" cy="83.692383" r="2.10498"/>
<circle opacity="0.75" fill="#CB5200" stroke="#B10000" stroke-width="3" enable-background="new    " cx="44.216797" cy="81.930664" r="2.10498"/>
<circle opacity="0.75" fill="#CB5200" stroke="#B10000" stroke-width="3" enable-background="new    " cx="42.291016" cy="76.002441" r="2.105469"/>
<circle opacity="0.75" fill="#CB5200" stroke="#B10000" stroke-width="3" enable-background="new    " cx="42.099609" cy="79.722656" r="2.10498"/>
<circle opacity="0.75" fill="#CB5200" stroke="#B10000" stroke-width="3" enable-background="new    " cx="45.351562" cy="86.4375" r="2.10498"/>
<circle opacity="0.75" fill="#CB5200" stroke="#B10000" stroke-width="3" enable-background="new    " cx="46.863281" cy="79.598633" r="2.10498"/>
<circle opacity="0.75" fill="#CB5200" stroke="#B10000" stroke-width="3" enable-background="new    " cx="45.273438" cy="76.152344" r="2.10498"/>
<circle fill="#6085FF" cx="36.880859" cy="8.462402" r="3.966797"/>
<g id="XMLID_2_">
	<g>
		<polygon fill="#727180" points="38.232422,6.560059 36.906738,7.848145 35.589844,6.560059 		"/>
	</g>
	<g>
	</g>
</g>
<polygon fill="#727180" points="37.514648,8.460449 35.554688,10.289551 38.320312,10.377441 40.192383,8.382324 "/>
<path fill="#FFFFFF" d="M35.546875,6.375488c-0.023438,0.010742-0.099609,0.082031-0.099609,0.09375
	c0,0.004883-0.011719,0.015625-0.027344,0.026367c-0.032227,0.020508-0.048828,0.037109-0.054688,0.054688
	c-0.001953,0.005859-0.016602,0.018555-0.032227,0.02832c-0.016602,0.008789-0.030273,0.021484-0.030273,0.026367
	c0,0.005859-0.001953,0.009766-0.003906,0.008789c-0.003906-0.000977-0.035156,0.02832-0.071289,0.064453
	s-0.099609,0.098633-0.140625,0.137695c-0.041992,0.041016-0.098633,0.097656-0.125,0.125977s-0.051758,0.051758-0.053711,0.049805
	s-0.009766,0.007812-0.017578,0.020508S34.875,7.034668,34.871094,7.034668c-0.00293,0-0.013672,0.012695-0.024414,0.027344
	c-0.03418,0.050781-0.147461,0.154297-0.161133,0.146484c-0.00293-0.001953-0.006836,0.00293-0.008789,0.011719
	c-0.004883,0.017578-0.082031,0.095703-0.116211,0.116211c-0.013672,0.007812-0.027344,0.018555-0.029297,0.023438
	c-0.003906,0.004883-0.023438,0.026367-0.044922,0.049805c-0.021484,0.022461-0.046875,0.052734-0.056641,0.067383
	c-0.023438,0.03418-0.050781,0.0625-0.111328,0.112305C34.291992,7.61084,34.25,7.647949,34.224609,7.67334
	c-0.025391,0.023438-0.052734,0.048828-0.061523,0.053711c-0.008789,0.006836-0.014648,0.016602-0.014648,0.022461
	s-0.007812,0.018555-0.018555,0.02832C34.082031,7.825684,34.024414,7.878418,34,7.895996
	c-0.013672,0.009766-0.039062,0.03125-0.056641,0.046875c-0.017578,0.014648-0.040039,0.033203-0.050781,0.041992
	c-0.009766,0.008789-0.027344,0.02832-0.039062,0.045898c-0.011719,0.016602-0.037109,0.044922-0.056641,0.0625
	c-0.020508,0.018555-0.040039,0.040039-0.042969,0.048828C33.75,8.149902,33.742188,8.159668,33.736328,8.161621
	c-0.011719,0.004883-0.068359,0.052734-0.179688,0.15625C33.5,8.368652,33.458984,8.42041,33.458984,8.440918
	c0,0.003906,0.009766,0.025391,0.020508,0.046875c0.014648,0.029297,0.032227,0.050781,0.063477,0.076172
	c0.023438,0.019531,0.058594,0.050781,0.077148,0.068359c0.019531,0.018555,0.047852,0.044922,0.063477,0.05957
	s0.041016,0.037109,0.057617,0.049805c0.036133,0.026367,0.308594,0.299805,0.308594,0.308594
	c0,0.001953,0.006836,0.009766,0.016602,0.014648c0.008789,0.004883,0.038086,0.03418,0.064453,0.06543
	c0.025391,0.030273,0.070312,0.075195,0.097656,0.099609c0.027344,0.023438,0.050781,0.045898,0.050781,0.048828
	c0,0.008789,0.117188,0.125,0.136719,0.134766c0.011719,0.005859,0.027344,0.019531,0.035156,0.03125
	s0.021484,0.029297,0.029297,0.038086c0.008789,0.008789,0.015625,0.018555,0.015625,0.022461
	c0,0.007812,0.082031,0.092773,0.103516,0.107422c0.007812,0.005859,0.014648,0.013672,0.014648,0.018555
	s0.00293,0.008789,0.005859,0.008789s0.022461,0.014648,0.041992,0.033203c0.019531,0.017578,0.039062,0.033203,0.041016,0.033203
	c0.006836,0,0.081055,0.070312,0.18457,0.177734c0.068359,0.070312,0.082031,0.082031,0.102539,0.087891
	c0.005859,0.00293,0.011719,0.007812,0.011719,0.011719s0.021484,0.02832,0.046875,0.054688
	c0.080078,0.080078,0.113281,0.115234,0.131836,0.144531c0.009766,0.015625,0.036133,0.044922,0.05957,0.06543
	c0.021484,0.020508,0.048828,0.049805,0.05957,0.064453c0.03418,0.045898,0.092773,0.108398,0.102539,0.108398
	c0.001953,0,0.011719,0.011719,0.020508,0.025391c0.008789,0.012695,0.029297,0.033203,0.044922,0.042969
	c0.016602,0.010742,0.040039,0.029297,0.053711,0.041016l0.023438,0.023438l0.064453-0.003906
	c0.035156-0.001953,0.087891-0.006836,0.117188-0.010742c0.052734-0.006836,0.115234-0.010742,0.396484-0.016602
	c0.176758-0.003906,0.137695-0.003906,0.765625-0.001953c0.277344,0.001953,0.511719,0,0.520508-0.00293
	s0.018555-0.00293,0.021484,0c0.006836,0.006836,0.15332,0.003906,0.264648-0.004883
	c0.042969-0.00293,0.085938-0.005859,0.095703-0.005859c0.008789,0,0.044922-0.001953,0.082031-0.003906
	c0.080078-0.004883,0.06543-0.003906,0.179688-0.003906c0.321289,0.003906,0.339844,0,0.407227-0.060547
	c0.016602-0.015625,0.038086-0.033203,0.049805-0.040039s0.026367-0.021484,0.033203-0.032227
	c0.005859-0.011719,0.023438-0.03418,0.039062-0.049805s0.029297-0.032227,0.029297-0.038086s0.00293-0.007812,0.005859-0.005859
	c0.003906,0.001953,0.006836,0,0.006836-0.005859c0-0.004883,0.010742-0.020508,0.024414-0.035156
	c0.078125-0.081055,0.166016-0.179688,0.166016-0.186523c0-0.00293,0.003906-0.004883,0.007812-0.004883
	c0.004883,0,0.013672-0.004883,0.019531-0.011719c0.005859-0.005859,0.017578-0.016602,0.027344-0.023438
	c0.009766-0.005859,0.017578-0.017578,0.017578-0.023438c0-0.007812,0.003906-0.013672,0.007812-0.013672
	c0.004883,0,0.019531-0.011719,0.03125-0.027344c0.013672-0.013672,0.033203-0.030273,0.044922-0.035156
	c0.010742-0.004883,0.020508-0.011719,0.020508-0.015625c0-0.00293,0.019531-0.023438,0.044922-0.043945
	c0.024414-0.020508,0.049805-0.045898,0.057617-0.055664c0.007812-0.010742,0.015625-0.017578,0.017578-0.013672
	c0.00293,0.000977,0.004883-0.001953,0.004883-0.006836c0-0.005859,0.008789-0.017578,0.018555-0.026367
	c0.009766-0.007812,0.023438-0.023438,0.029297-0.033203c0.006836-0.009766,0.021484-0.021484,0.03125-0.025391
	c0.010742-0.004883,0.019531-0.010742,0.019531-0.012695c0-0.00293,0.027344-0.032227,0.0625-0.067383
	c0.033203-0.03418,0.061523-0.066406,0.061523-0.070312c0-0.00293,0.00293-0.005859,0.006836-0.005859
	c0.009766,0,0.089844-0.080078,0.086914-0.086914c-0.000977-0.00293,0.000977-0.004883,0.003906-0.00293
	c0.006836,0.003906,0.071289-0.060547,0.067383-0.070312c0-0.001953,0.009766-0.009766,0.022461-0.014648
	s0.022461-0.011719,0.022461-0.014648c0-0.004883,0.009766-0.014648,0.078125-0.078125
	c0.017578-0.017578,0.033203-0.035156,0.033203-0.040039s0.00293-0.006836,0.005859-0.004883
	c0.003906,0.001953,0.015625-0.007812,0.02832-0.023438c0.012695-0.014648,0.039062-0.042969,0.05957-0.0625
	c0.021484-0.020508,0.038086-0.039062,0.038086-0.041992s0.006836-0.012695,0.014648-0.021484s0.027344-0.03125,0.044922-0.049805
	c0.042969-0.048828,0.052734-0.060547,0.087891-0.088867c0.017578-0.014648,0.035156-0.03125,0.041016-0.038086
	c0.005859-0.005859,0.013672-0.009766,0.015625-0.007812C40,8.884277,40.005859,8.877441,40.011719,8.867676
	c0.004883-0.009766,0.022461-0.030273,0.039062-0.043945c0.068359-0.060547,0.100586-0.09375,0.111328-0.113281
	c0.005859-0.011719,0.019531-0.027344,0.029297-0.036133c0.021484-0.015625,0.066406-0.073242,0.066406-0.082031
	c0-0.00293,0.012695-0.016602,0.02832-0.030273c0.030273-0.024414,0.040039-0.046875,0.047852-0.107422
	c0.003906-0.032227,0.003906-0.035156-0.015625-0.052734C40.307617,8.39209,40.289062,8.36377,40.27832,8.340332
	C40.263672,8.308105,40.25,8.289551,40.222656,8.268066c-0.019531-0.015625-0.036133-0.03125-0.037109-0.03418
	c0-0.012695-0.109375-0.123047-0.121094-0.123047c-0.003906,0-0.013672-0.006836-0.023438-0.014648
	c-0.025391-0.022461-0.121094-0.143555-0.126953-0.15918c-0.003906-0.013672-0.095703-0.100586-0.125-0.121094
	c-0.008789-0.005859-0.022461-0.017578-0.03125-0.026367c-0.009766-0.008789-0.037109-0.036133-0.061523-0.060547
	S39.640625,7.67334,39.62793,7.657715c-0.012695-0.013672-0.026367-0.030273-0.030273-0.035156
	c-0.005859-0.004883-0.018555-0.014648-0.030273-0.021484c-0.036133-0.023438-0.202148-0.193359-0.233398-0.238281
	c-0.018555-0.026367-0.070312-0.077148-0.119141-0.115234c-0.017578-0.013672-0.041016-0.036133-0.049805-0.048828
	c-0.008789-0.011719-0.032227-0.037109-0.052734-0.055664s-0.05957-0.055664-0.086914-0.083984
	c-0.027344-0.027344-0.076172-0.077148-0.109375-0.110352c-0.032227-0.033203-0.064453-0.061523-0.070312-0.064453
	c-0.017578-0.005859-0.141602-0.125-0.171875-0.164062c-0.014648-0.019531-0.042969-0.052734-0.061523-0.072266
	c-0.019531-0.019531-0.039062-0.044922-0.043945-0.056641s-0.015625-0.025391-0.024414-0.029297
	c-0.007812-0.004883-0.045898-0.038086-0.083984-0.075195c-0.066406-0.063477-0.071289-0.067383-0.118164-0.081055
	c-0.027344-0.007812-0.060547-0.015625-0.076172-0.017578c-0.013672-0.00293-0.03125-0.007812-0.037109-0.009766
	c-0.010742-0.005859-0.128906-0.006836-0.330078-0.001953c-0.064453,0.000977-0.135742,0.001953-0.157227,0.000977
	c-0.057617-0.000977-0.06543-0.000977-0.131836,0.003906c-0.03125,0.00293-0.107422,0.004883-0.166992,0.004883
	c-0.063477,0-0.111328,0.00293-0.116211,0.006836c-0.005859,0.004883-0.010742,0.004883-0.015625,0
	C37.304688,6.38916,37.205078,6.38623,37.042969,6.38623c-0.142578-0.000977-0.291992-0.00293-0.332031-0.004883
	c-0.039062-0.001953-0.088867-0.00293-0.108398-0.00293c-0.049805,0.001953-0.043945,0.001953-0.164062-0.001953
	c-0.05957-0.001953-0.109375-0.003906-0.111328-0.003906c-0.001953-0.000977-0.004883-0.001953-0.007812-0.000977
	c-0.006836,0.000977-0.393555,0.009766-0.412109,0.008789c-0.084961-0.000977-0.296875-0.008789-0.31543-0.011719
	C35.579102,6.366699,35.558594,6.370605,35.546875,6.375488z M36.335938,6.647949c0.025391-0.001953,0.069336-0.000977,0.095703,0
	c0.027344,0.001953,0.084961,0.001953,0.128906,0.00293c0.043945,0,0.080078,0.00293,0.083008,0.006836
	s0.004883,0.003906,0.004883,0c0-0.007812,0.519531-0.007812,0.538086-0.000977
	c0.010742,0.003906,0.354492,0.000977,0.633789-0.005859l0.189453-0.004883L37.99707,6.661621
	c-0.006836,0.007812-0.035156,0.037109-0.0625,0.064453c-0.026367,0.027344-0.05957,0.063477-0.073242,0.079102
	c-0.03125,0.040039-0.083984,0.09082-0.152344,0.151367c-0.03125,0.026367-0.066406,0.064453-0.080078,0.083984
	c-0.013672,0.018555-0.037109,0.044922-0.054688,0.056641c-0.015625,0.011719-0.099609,0.092773-0.185547,0.178711
	s-0.171875,0.170898-0.191406,0.188477c-0.017578,0.018555-0.039062,0.041016-0.046875,0.049805
	c-0.006836,0.008789-0.037109,0.036133-0.064453,0.061523c-0.02832,0.025391-0.064453,0.057617-0.078125,0.070312
	c-0.023438,0.024414-0.057617,0.035156-0.057617,0.019531c0-0.003906-0.00293-0.007812-0.006836-0.007812
	c-0.009766,0-0.044922-0.035156-0.044922-0.044922c0-0.003906-0.00293-0.006836-0.006836-0.006836
	c-0.00293,0-0.017578-0.010742-0.03125-0.024414c-0.041016-0.041016-0.080078-0.072266-0.092773-0.077148
	c-0.011719-0.003906-0.073242-0.05957-0.073242-0.06543c0-0.001953-0.014648-0.019531-0.032227-0.038086
	s-0.033203-0.035156-0.033203-0.038086s-0.024414-0.025391-0.053711-0.048828
	c-0.030273-0.023438-0.057617-0.045898-0.061523-0.049805c-0.00293-0.003906-0.017578-0.018555-0.03125-0.032227
	c-0.045898-0.041016-0.131836-0.126953-0.149414-0.148438c-0.008789-0.010742-0.02832-0.029297-0.042969-0.041992
	s-0.045898-0.045898-0.072266-0.072266c-0.055664-0.05957-0.063477-0.06543-0.099609-0.087891
	c-0.015625-0.009766-0.029297-0.021484-0.03125-0.026367c-0.001953-0.005859-0.010742-0.011719-0.017578-0.013672
	c-0.008789-0.003906-0.024414-0.015625-0.035156-0.027344S36.011719,6.79248,36.009766,6.79248
	c-0.010742,0-0.121094-0.109375-0.136719-0.134766c-0.003906-0.005859,0.058594-0.007812,0.197266-0.008789
	c0.109375-0.000977,0.201172-0.00293,0.203125-0.004883c0.001953-0.000977,0.005859-0.000977,0.008789,0.000977
	S36.308594,6.647949,36.335938,6.647949z M38.337891,6.774902c0.033203,0.033203,0.067383,0.068359,0.076172,0.080078
	c0.009766,0.009766,0.040039,0.037109,0.067383,0.058594c0.026367,0.021484,0.057617,0.051758,0.067383,0.066406
	c0.013672,0.023438,0.052734,0.0625,0.103516,0.105469c0.001953,0.003906,0.039062,0.041016,0.083008,0.085938
	c0.042969,0.043945,0.086914,0.085938,0.09668,0.091797s0.039062,0.033203,0.064453,0.060547s0.055664,0.058594,0.066406,0.070312
	c0.011719,0.011719,0.021484,0.024414,0.021484,0.027344s0.017578,0.019531,0.039062,0.035156
	c0.019531,0.016602,0.058594,0.050781,0.084961,0.076172s0.049805,0.046875,0.053711,0.046875
	c0.007812,0,0.183594,0.174805,0.183594,0.182617c0,0.004883,0.021484,0.026367,0.142578,0.146484
	c0.017578,0.016602,0.039062,0.03418,0.048828,0.040039s0.025391,0.023438,0.036133,0.039062
	c0.010742,0.014648,0.042969,0.051758,0.072266,0.082031c0.030273,0.03125,0.055664,0.061523,0.057617,0.068359
	c0.00293,0.007812,0.006836,0.011719,0.009766,0.011719c0.007812,0,0.054688,0.049805,0.080078,0.085938
	c0.027344,0.039062,0.021484,0.047852-0.037109,0.053711c-0.289062,0.029297-0.561523,0.038086-0.916016,0.032227
	c-0.066406-0.001953-0.197266-0.000977-0.291016,0.001953c-0.101562,0.001953-0.237305,0.001953-0.332031-0.00293
	c-0.087891-0.004883-0.183594-0.008789-0.212891-0.010742c-0.029297,0-0.09082-0.001953-0.138672,0
	c-0.217773,0.001953-0.21875,0.001953-0.25-0.040039c-0.009766-0.010742-0.02832-0.025391-0.042969-0.033203
	c-0.029297-0.015625-0.083984-0.060547-0.083984-0.070312c0-0.006836-0.033203-0.040039-0.06543-0.063477
	c-0.012695-0.008789-0.043945-0.037109-0.069336-0.061523s-0.0625-0.05957-0.082031-0.079102
	c-0.020508-0.018555-0.039062-0.038086-0.041016-0.042969c-0.001953-0.005859-0.015625-0.017578-0.029297-0.029297
	c-0.053711-0.039062-0.054688-0.052734,0-0.101562c0.022461-0.019531,0.056641-0.052734,0.078125-0.074219
	c0.020508-0.021484,0.041016-0.042969,0.045898-0.046875c0.021484-0.019531,0.139648-0.134766,0.191406-0.189453
	c0.084961-0.086914,0.135742-0.135742,0.166992-0.161133c0.015625-0.011719,0.02832-0.024414,0.02832-0.027344
	s0.041992-0.047852,0.094727-0.100586s0.111328-0.117188,0.130859-0.144531c0.021484-0.026367,0.040039-0.048828,0.042969-0.048828
	c0.009766,0,0.174805-0.166016,0.189453-0.192383c0.008789-0.012695,0.017578-0.024414,0.019531-0.024414
	s0.017578-0.015625,0.033203-0.035156c0.022461-0.027344,0.032227-0.03418,0.042969-0.03125
	C38.273438,6.714355,38.306641,6.741699,38.337891,6.774902z M35.618164,6.808105
	c0.012695,0.007812,0.030273,0.023438,0.040039,0.033203c0.008789,0.009766,0.024414,0.021484,0.03418,0.027344
	c0.010742,0.005859,0.030273,0.019531,0.043945,0.032227s0.03418,0.030273,0.044922,0.038086
	c0.039062,0.027344,0.129883,0.108398,0.206055,0.182617c0.041992,0.040039,0.091797,0.087891,0.111328,0.104492
	c0.018555,0.017578,0.051758,0.044922,0.071289,0.061523c0.050781,0.043945,0.142578,0.140625,0.161133,0.166992
	c0.008789,0.012695,0.032227,0.039062,0.055664,0.05957c0.021484,0.019531,0.057617,0.053711,0.080078,0.075195
	c0.023438,0.021484,0.048828,0.043945,0.056641,0.048828c0.006836,0.005859,0.013672,0.011719,0.013672,0.015625
	c0,0.005859,0.027344,0.030273,0.035156,0.03125c0.005859,0,0.007812,0.001953,0.060547,0.044922
	c0.076172,0.06543,0.126953,0.115234,0.126953,0.126953s-0.044922,0.05957-0.269531,0.287109
	c-0.050781,0.050781-0.09082,0.09375-0.09082,0.097656c0,0.00293-0.029297,0.03125-0.063477,0.0625
	c-0.036133,0.032227-0.087891,0.083984-0.117188,0.115234c-0.048828,0.052734-0.097656,0.099609-0.282227,0.272461
	c-0.038086,0.036133-0.083984,0.083008-0.100586,0.102539c-0.015625,0.021484-0.044922,0.050781-0.064453,0.064453
	c-0.019531,0.015625-0.042969,0.039062-0.052734,0.052734c-0.008789,0.013672-0.033203,0.039062-0.054688,0.054688
	c-0.021484,0.017578-0.054688,0.046875-0.076172,0.067383c-0.019531,0.020508-0.045898,0.041992-0.055664,0.047852
	C35.521484,9.088379,35.507812,9.101074,35.5,9.11084c-0.022461,0.02832-0.041016,0.023438-0.086914-0.021484
	c-0.022461-0.021484-0.042969-0.039062-0.045898-0.039062c-0.001953,0-0.037109-0.032227-0.077148-0.070312
	C35.25,8.940918,35.209961,8.903809,35.200195,8.895996c-0.055664-0.042969-0.15625-0.142578-0.202148-0.197266
	c-0.014648-0.017578-0.038086-0.043945-0.052734-0.058594c-0.014648-0.015625-0.037109-0.040039-0.049805-0.056641
	c-0.027344-0.036133-0.06543-0.074219-0.133789-0.134766c-0.029297-0.024414-0.070312-0.06543-0.091797-0.089844
	c-0.021484-0.023438-0.073242-0.074219-0.115234-0.111328c-0.041016-0.037109-0.074219-0.070312-0.074219-0.075195
	s-0.00293-0.008789-0.007812-0.008789c-0.005859,0-0.009766-0.003906-0.009766-0.009766
	c0-0.004883-0.00293-0.009766-0.007812-0.009766c-0.003906,0-0.018555-0.011719-0.033203-0.026367
	c-0.013672-0.014648-0.03418-0.030273-0.044922-0.036133c-0.009766-0.005859-0.023438-0.019531-0.02832-0.029297
	c-0.006836-0.011719-0.012695-0.019531-0.016602-0.019531c-0.013672,0-0.039062-0.03125-0.037109-0.046875
	c0.000977-0.017578,0.072266-0.091797,0.087891-0.091797c0.004883,0,0.086914-0.076172,0.181641-0.171875
	c0.167969-0.167969,0.211914-0.208008,0.225586-0.208008c0.008789,0,0.051758-0.047852,0.064453-0.073242
	c0.005859-0.011719,0.023438-0.033203,0.039062-0.047852c0.016602-0.013672,0.029297-0.02832,0.030273-0.032227
	c0-0.003906,0.017578-0.021484,0.039062-0.039062c0.024414-0.020508,0.039062-0.037109,0.039062-0.044922
	s0.001953-0.012695,0.003906-0.009766c0.001953,0.001953,0.023438-0.015625,0.045898-0.041016
	c0.024414-0.023438,0.051758-0.052734,0.063477-0.064453s0.022461-0.021484,0.025391-0.021484s0.004883-0.00293,0.004883-0.006836
	c0-0.00293,0.006836-0.012695,0.014648-0.022461c0.008789-0.007812,0.021484-0.023438,0.02832-0.033203
	c0.006836-0.007812,0.015625-0.016602,0.018555-0.016602c0.003906,0,0.018555-0.010742,0.033203-0.024414
	c0.055664-0.048828,0.087891-0.074219,0.095703-0.074219c0.00293,0,0.027344-0.023438,0.053711-0.052734
	s0.058594-0.058594,0.071289-0.066406c0.011719-0.007812,0.033203-0.023438,0.045898-0.035156
	c0.012695-0.010742,0.030273-0.024414,0.039062-0.030273c0.014648-0.009766,0.018555-0.008789,0.033203,0.00293
	C35.587891,6.786621,35.605469,6.799316,35.618164,6.808105z M37.044922,8.11084
	c0.12207,0.120117,0.169922,0.166016,0.212891,0.203125c0.018555,0.015625,0.042969,0.040039,0.053711,0.052734l0.018555,0.025391
	l-0.041016,0.043945c-0.021484,0.024414-0.057617,0.061523-0.080078,0.081055
	c-0.020508,0.020508-0.055664,0.056641-0.078125,0.080078c-0.021484,0.023438-0.055664,0.05957-0.075195,0.080078
	c-0.020508,0.019531-0.040039,0.040039-0.043945,0.045898c-0.003906,0.004883-0.024414,0.020508-0.044922,0.03418
	c-0.021484,0.014648-0.069336,0.058594-0.107422,0.098633s-0.088867,0.09082-0.112305,0.113281
	c-0.089844,0.084961-0.114258,0.110352-0.120117,0.124023c-0.003906,0.008789-0.009766,0.015625-0.013672,0.015625
	S36.59375,9.120605,36.578125,9.13623c-0.016602,0.015625-0.041016,0.038086-0.052734,0.048828
	c-0.012695,0.011719-0.023438,0.021484-0.024414,0.021484s-0.016602,0.015625-0.03418,0.033203
	s-0.051758,0.051758-0.078125,0.077148c-0.024414,0.024414-0.066406,0.06543-0.091797,0.091797
	c-0.025391,0.025391-0.055664,0.052734-0.066406,0.05957c-0.033203,0.019531-0.080078,0.0625-0.080078,0.072266
	c0,0.003906-0.003906,0.007812-0.007812,0.007812c-0.001953,0-0.017578,0.011719-0.03125,0.024414
	c-0.012695,0.013672-0.041016,0.040039-0.064453,0.05957c-0.03125,0.027344-0.041016,0.033203-0.054688,0.029297
	c-0.020508-0.004883-0.072266-0.041016-0.072266-0.048828c0-0.008789-0.134766-0.142578-0.144531-0.142578
	c-0.00293,0-0.005859-0.00293-0.005859-0.007812c0-0.001953-0.017578-0.024414-0.039062-0.046875
	c-0.022461-0.022461-0.041016-0.045898-0.042969-0.052734c-0.001953-0.005859-0.011719-0.014648-0.019531-0.020508
	c-0.009766-0.006836-0.017578-0.016602-0.017578-0.025391c0-0.016602,0.063477-0.083984,0.115234-0.123047
	c0.019531-0.014648,0.036133-0.02832,0.036133-0.03125c0-0.003906,0.070312-0.077148,0.092773-0.09668
	c0.005859-0.004883,0.032227-0.032227,0.060547-0.060547c0.029297-0.029297,0.060547-0.056641,0.070312-0.060547
	c0.010742-0.004883,0.019531-0.011719,0.019531-0.014648c0-0.007812,0.070312-0.083008,0.130859-0.139648
	c0.050781-0.046875,0.116211-0.112305,0.134766-0.134766c0.007812-0.008789,0.024414-0.025391,0.037109-0.036133
	c0.03125-0.02832,0.103516-0.108398,0.103516-0.115234c0-0.00293,0.003906-0.005859,0.008789-0.005859
	s0.045898-0.039062,0.09082-0.086914s0.087891-0.091797,0.09668-0.099609c0.024414-0.021484,0.251953-0.25,0.271484-0.272461
	c0.009766-0.010742,0.021484-0.020508,0.025391-0.020508C36.949219,8.019043,36.994141,8.060059,37.044922,8.11084z
	 M34.154297,8.241699c0.019531,0.020508,0.046875,0.044922,0.058594,0.054688
	c0.012695,0.009766,0.060547,0.054688,0.107422,0.099609c0.045898,0.042969,0.088867,0.082031,0.095703,0.085938
	c0.020508,0.010742,0.054688,0.043945,0.085938,0.080078c0.015625,0.019531,0.032227,0.035156,0.037109,0.035156
	c0.005859,0,0.009766,0.001953,0.009766,0.004883s0.011719,0.018555,0.026367,0.03418
	c0.014648,0.016602,0.039062,0.042969,0.053711,0.060547c0.041016,0.046875,0.078125,0.083984,0.082031,0.083984
	c0.001953,0,0.016602,0.014648,0.033203,0.03418c0.050781,0.055664,0.233398,0.236328,0.274414,0.269531
	c0.021484,0.017578,0.049805,0.045898,0.063477,0.0625c0.014648,0.016602,0.037109,0.038086,0.050781,0.046875
	c0.041992,0.02832,0.130859,0.12207,0.130859,0.138672c0,0.013672-0.089844,0.106445-0.157227,0.161133
	c-0.012695,0.009766-0.043945,0.037109-0.069336,0.05957c-0.024414,0.022461-0.048828,0.041016-0.052734,0.041016
	c-0.004883,0-0.027344-0.018555-0.049805-0.041016s-0.079102-0.077148-0.125977-0.120117
	c-0.044922-0.043945-0.083008-0.082031-0.083008-0.084961s-0.037109-0.043945-0.083008-0.088867
	c-0.046875-0.046875-0.089844-0.09082-0.097656-0.099609C34.538086,9.151855,34.517578,9.133301,34.5,9.118652
	c-0.018555-0.014648-0.085938-0.078125-0.149414-0.140625c-0.063477-0.063477-0.151367-0.149414-0.195312-0.191406
	c-0.042969-0.041016-0.092773-0.091797-0.110352-0.111328c-0.033203-0.037109-0.130859-0.131836-0.191406-0.183594
	l-0.03418-0.029297l0.032227-0.03125c0.018555-0.015625,0.041016-0.042969,0.050781-0.056641
	c0.009766-0.015625,0.021484-0.027344,0.025391-0.027344c0.005859,0,0.020508-0.011719,0.03418-0.027344
	s0.047852-0.048828,0.077148-0.074219c0.039062-0.035156,0.056641-0.046875,0.066406-0.043945
	C34.112305,8.203613,34.134766,8.222168,34.154297,8.241699z M38.049805,8.593262
	c0.118164,0.004883,0.584961,0.007812,0.90918,0.005859c0.095703-0.000977,0.243164-0.001953,0.328125-0.001953
	c0.124023,0,0.240234-0.003906,0.328125-0.007812c0.004883,0,0.023438,0.000977,0.041016,0.003906
	c0.017578,0.001953,0.03125,0.000977,0.03125-0.001953s0.016602-0.003906,0.037109-0.001953
	c0.039062,0.00293,0.053711,0.00293,0.09375,0c0.029297-0.00293,0.033203,0.011719,0.009766,0.037109
	c-0.009766,0.011719-0.027344,0.03418-0.039062,0.052734c-0.011719,0.017578-0.037109,0.048828-0.055664,0.068359
	s-0.038086,0.045898-0.043945,0.058594c-0.005859,0.011719-0.030273,0.036133-0.053711,0.054688
	c-0.051758,0.041992-0.240234,0.229492-0.254883,0.254883c-0.006836,0.010742-0.013672,0.018555-0.015625,0.018555
	s-0.019531,0.015625-0.040039,0.033203c-0.018555,0.017578-0.037109,0.033203-0.040039,0.033203
	c-0.001953,0-0.013672,0.013672-0.025391,0.029297c-0.017578,0.026367-0.162109,0.173828-0.167969,0.173828
	c-0.007812,0-0.107422,0.104492-0.107422,0.111328c0,0.003906-0.009766,0.013672-0.021484,0.021484
	C38.950195,9.544434,38.9375,9.556152,38.9375,9.562988c-0.001953,0.005859-0.020508,0.021484-0.041016,0.03418
	c-0.019531,0.013672-0.037109,0.029297-0.039062,0.035156c-0.001953,0.006836-0.015625,0.019531-0.02832,0.03125
	c-0.019531,0.015625-0.143555,0.138672-0.166016,0.164062c-0.014648,0.016602-0.079102,0.081055-0.108398,0.108398
	c-0.017578,0.017578-0.040039,0.038086-0.048828,0.047852c-0.048828,0.050781-0.101562,0.103516-0.128906,0.128906
	c-0.017578,0.017578-0.039062,0.038086-0.046875,0.046875c-0.042969,0.046875-0.052734,0.053711-0.097656,0.0625
	c-0.024414,0.003906-0.075195,0.007812-0.111328,0.008789c-0.037109,0-0.095703,0.00293-0.130859,0.006836
	c-0.037109,0.00293-0.131836,0.007812-0.212891,0.009766c-0.082031,0.001953-0.169922,0.005859-0.197266,0.008789
	c-0.026367,0.00293-0.055664,0.00293-0.0625,0c-0.007812-0.00293-0.015625-0.003906-0.017578-0.00293
	c-0.004883,0.005859-0.259766,0.009766-0.785156,0.013672c-0.291016,0.001953-0.607422,0.005859-0.703125,0.007812
	c-0.232422,0.005859-0.228516,0.005859-0.233398,0s0.060547-0.094727,0.077148-0.103516
	c0.006836-0.003906,0.011719-0.010742,0.011719-0.015625c0-0.008789,0.061523-0.069336,0.071289-0.069336
	c0.00293,0,0.014648-0.014648,0.026367-0.032227c0.009766-0.017578,0.02832-0.037109,0.039062-0.043945
	c0.021484-0.014648,0.054688-0.042969,0.111328-0.098633c0.021484-0.022461,0.05957-0.054688,0.082031-0.072266
	c0.042969-0.03125,0.107422-0.09668,0.151367-0.149414c0.013672-0.016602,0.047852-0.044922,0.075195-0.063477
	s0.074219-0.058594,0.105469-0.089844s0.078125-0.074219,0.105469-0.095703c0.025391-0.020508,0.061523-0.055664,0.080078-0.079102
	c0.017578-0.022461,0.045898-0.049805,0.061523-0.061523s0.045898-0.041992,0.067383-0.068359
	c0.020508-0.026367,0.066406-0.074219,0.099609-0.107422c0.035156-0.03125,0.079102-0.076172,0.099609-0.095703
	c0.019531-0.020508,0.047852-0.046875,0.0625-0.058594c0.0625-0.050781,0.27832-0.25,0.290039-0.269531
	c0.007812-0.011719,0.03418-0.041016,0.061523-0.064453l0.046875-0.042969l0.162109-0.00293
	C37.844727,8.586426,37.880859,8.587402,38.049805,8.593262z M35.492188,9.531738
	C35.5,9.540527,35.507812,9.54834,35.511719,9.54834c0.006836,0,0.041016,0.037109,0.148438,0.15625
	c0.039062,0.043945,0.074219,0.080078,0.076172,0.080078c0.009766,0,0.045898,0.060547,0.045898,0.074219
	c0,0.006836-0.008789,0.023438-0.019531,0.037109c-0.010742,0.012695-0.022461,0.025391-0.024414,0.029297
	c-0.003906,0.003906-0.014648,0.013672-0.025391,0.023438s-0.052734,0.052734-0.09375,0.09668
	c-0.042969,0.045898-0.082031,0.083008-0.092773,0.086914c-0.017578,0.005859-0.022461,0.003906-0.050781-0.020508
	c-0.03418-0.02832-0.032227-0.026367-0.095703-0.098633c-0.024414-0.02832-0.063477-0.070312-0.084961-0.09375
	c-0.050781-0.052734-0.091797-0.100586-0.102539-0.120117c-0.006836-0.012695-0.004883-0.018555,0.019531-0.047852
	c0.014648-0.017578,0.030273-0.032227,0.03418-0.032227c0.001953,0,0.050781-0.045898,0.107422-0.102539
	c0.056641-0.054688,0.107422-0.101562,0.114258-0.101562S35.484375,9.522949,35.492188,9.531738z"/>
<rect x="42.912109" y="6.665527" fill="none" width="15.679688" height="5.951172"/>
<text transform="matrix(1 0 0 1 42.912598 10.214355)"><tspan x="0" y="0" font-family="'ComfortaaBold'" font-size="4.97">B</tspan><tspan x="2.313477" y="0" font-family="'ComfortaaBold'" font-size="4.97">l</tspan><tspan x="3.436523" y="0" font-family="'ComfortaaBold'" font-size="4.97" letter-spacing="1">u</tspan><tspan x="7.810547" y="0" font-family="'ComfortaaBold'" font-size="4.97">P</tspan><tspan x="9.98584" y="0" font-family="'ComfortaaBold'" font-size="4.97">en</tspan></text>
</svg>
