<?xml version="1.0" encoding="utf-8"?>
<!-- Generator: Adobe Illustrator 15.0.0, SVG Export Plug-In  -->
<!DOCTYPE svg PUBLIC "-//W3C//DTD SVG 1.1//EN" "http://www.w3.org/Graphics/SVG/1.1/DTD/svg11.dtd" >
<svg version="1.1"
	 xmlns="http://www.w3.org/2000/svg" xmlns:xlink="http://www.w3.org/1999/xlink" xmlns:a="http://ns.adobe.com/AdobeSVGViewerExtensions/3.0/"
viewBox="-0.5 -0.776 127 137">
<defs>
    <style type="text/css">
      @font-face {
      font-family: 'ComfortaaBold';
      src: url('fonts/comfortaa/comfortaa_bold-webfont.eot');
      src: url('fonts/comfortaa/comfortaa_bold-webfont.eot?#iefix') format('embedded-opentype'),
      url('fonts/comfortaa/comfortaa_bold-webfont.woff') format('woff'),
      url('fonts/comfortaa/comfortaa_bold-webfont.ttf') format('truetype'),
      url('fonts/comfortaa/comfortaa_bold-webfont.svg#comfortaabold') format('svg');
      font-weight: normal;
      font-style: normal;
      }
      @font-face {
      font-family: 'OswaldBold';
      src: url('../fonts/oswald/oswald-bold-webfont.eot');
      src: url('../fonts/oswald/oswald-bold-webfont.eot?#iefix') format('embedded-opentype'),
      url('../fonts/oswald/oswald-bold-webfont.woff') format('woff'),
      url('../fonts/oswald/oswald-bold-webfont.ttf') format('truetype'),
      url('../fonts/oswald/oswald-bold-webfont.svg#oswaldbold') format('svg');
      font-weight: normal;
      font-style: normal;
      }
      @font-face {
      font-family: 'OswaldBook';
      src: url('../fonts/oswald/oswald-regular-webfont.eot');
      src: url('../fonts/oswald/oswald-regular-webfont.eot?#iefix') format('embedded-opentype'),
      url('../fonts/oswald/oswald-regular-webfont.woff') format('woff'),
      url('../fonts/oswald/oswald-regular-webfont.ttf') format('truetype'),
      url('../fonts/oswald/oswald-regular-webfont.svg#oswaldbook') format('svg');
      font-weight: normal;
      font-style: normal;
      }
    </style>
</defs>
<polygon fill="#808184" points="90.5,99.224 90.766,135.224 126.5,99.224 "/>
<line fill="none" stroke="#231F20" stroke-miterlimit="10" x1="36.305" y1="134.316" x2="36.305" y2="34.236"/>
<rect x="0.5" y="0.5" fill="#FFFFFF" stroke="#58595B" stroke-miterlimit="10" width="90.195" height="134.724"/>
<rect x="0.695" y="18.224" fill="none" width="90" height="27"/>
<text transform="matrix(1 0 0 1 1.6797 34.0444)"><tspan x="0" y="0" fill="#231F20" font-family="'OswaldBold'" font-size="18">PHILIPPINES</tspan><tspan x="6.209" y="10.8" fill="#231F20" font-family="'OswaldBook'" font-size="9">A VISUAL COLLECTION</tspan></text>
<circle opacity="0.75" fill="#B1005D" enable-background="new    " cx="48.037" cy="90.932" r="3.933"/>
<circle opacity="0.75" fill="#B1005D" enable-background="new    " cx="43.146" cy="66.389" r="0.983"/>
<circle opacity="0.6" fill="#FF0084" enable-background="new    " cx="73.455" cy="61.98" r="3.933"/>
<circle opacity="0.75" fill="#B1005D" enable-background="new    " cx="60.471" cy="80.038" r="3.933"/>
<circle opacity="0.75" fill="#B1005D" enable-background="new    " cx="64.929" cy="85.824" r="1.967"/>
<circle opacity="0.9" fill="#32506D" enable-background="new    " cx="48.261" cy="58.55" r="1.966"/>
<circle opacity="0.9" fill="#32506D" enable-background="new    " cx="23.49" cy="89.271" r="1.966"/>
<circle opacity="0.75" fill="#71869A" enable-background="new    " cx="48.468" cy="78.828" r="3.933"/>
<circle opacity="0.6" fill="#9BAAB8" enable-background="new    " cx="13.026" cy="96.654" r="0.983"/>
<circle opacity="0.75" fill="#71869A" enable-background="new    " cx="69.838" cy="83.227" r="0.983"/>
<circle opacity="0.9" fill="#1AB6E5" enable-background="new    " cx="20.009" cy="102.657" r="0.983"/>
<circle opacity="0.6" fill="#9BAAB8" stroke="#B10000" stroke-width="3" enable-background="new    " cx="64.297" cy="94.475" r="1.966"/>
<circle opacity="0.75" fill="#79DEFF" stroke="#B10000" stroke-width="3" enable-background="new    " cx="13.601" cy="81.673" r="0.983"/>
<circle opacity="0.75" fill="#79DEFF" enable-background="new    " cx="41.291" cy="103.576" r="1.966"/>
<circle opacity="0.75" fill="#71869A" stroke="#B10000" stroke-width="3" enable-background="new    " cx="43.514" cy="98.021" r="1.966"/>
<circle opacity="0.6" fill="#BEEDFF" enable-background="new    " cx="34.818" cy="104.921" r="1.967"/>
<circle opacity="0.75" fill="#71869A" stroke="#B10000" stroke-width="3" enable-background="new    " cx="31.697" cy="83.149" r="1.966"/>
<circle opacity="0.9" fill="#32506D" stroke="#B10000" stroke-width="3" enable-background="new    " cx="19.914" cy="110.785" r="0.983"/>
<circle opacity="0.75" fill="#71869A" stroke="#B10000" stroke-width="3" enable-background="new    " cx="53.328" cy="61.699" r="1.966"/>
<circle opacity="0.9" fill="#1AB6E5" enable-background="new    " cx="22.628" cy="82.737" r="0.983"/>
<circle opacity="0.6" fill="#9BAAB8" stroke="#B10000" stroke-width="3" enable-background="new    " cx="26.976" cy="102.841" r="0.983"/>
<circle opacity="0.9" fill="#32506D" stroke="#B10000" stroke-width="3" enable-background="new    " cx="21.028" cy="107.868" r="0.983"/>
<circle opacity="0.6" fill="#9BAAB8" stroke="#B10000" stroke-width="3" enable-background="new    " cx="64.311" cy="68.749" r="3.933"/>
<circle opacity="0.9" fill="#1AB6E5" enable-background="new    " cx="25.056" cy="105.562" r="1.966"/>
<circle opacity="0.75" fill="#71869A" stroke="#B10000" stroke-width="3" enable-background="new    " cx="52.312" cy="102.072" r="1.967"/>
<circle opacity="0.6" fill="#9BAAB8" stroke="#B10000" stroke-width="3" enable-background="new    " cx="58.939" cy="97.173" r="3.933"/>
<circle opacity="0.75" fill="#71869A" stroke="#B10000" stroke-width="3" enable-background="new    " cx="57.429" cy="58.157" r="3.933"/>
<circle opacity="0.75" fill="#79DEFF" stroke="#B10000" stroke-width="3" enable-background="new    " cx="44.529" cy="104.53" r="1.967"/>
<circle opacity="0.75" fill="#71869A" stroke="#B10000" stroke-width="3" enable-background="new    " cx="34.763" cy="98.751" r="1.966"/>
<circle opacity="0.75" fill="#71869A" stroke="#B10000" stroke-width="3" enable-background="new    " cx="26.667" cy="107.893" r="0.983"/>
<circle opacity="0.6" fill="#9BAAB8" stroke="#B10000" stroke-width="3" enable-background="new    " cx="62.214" cy="59.362" r="1.967"/>
<circle opacity="0.75" fill="#71869A" stroke="#B10000" stroke-width="3" enable-background="new    " cx="61.197" cy="62.657" r="1.966"/>
<circle opacity="0.9" fill="#32506D" stroke="#B10000" stroke-width="3" enable-background="new    " cx="30.898" cy="98.779" r="0.983"/>
<circle opacity="0.9" fill="#1AB6E5" stroke="#B10000" stroke-width="3" enable-background="new    " cx="49.635" cy="70.343" r="3.933"/>
<circle opacity="0.75" fill="#71869A" stroke="#B10000" stroke-width="3" enable-background="new    " cx="63.955" cy="63.572" r="1.967"/>
<circle opacity="0.6" fill="#BEEDFF" stroke="#B10000" stroke-width="3" enable-background="new    " cx="66.445" cy="57.71" r="1.967"/>
<circle opacity="0.75" fill="#71869A" stroke="#B10000" stroke-width="3" enable-background="new    " cx="38.197" cy="86.824" r="1.967"/>
<circle opacity="0.6" fill="#9BAAB8" stroke="#B10000" stroke-width="3" enable-background="new    " cx="54.285" cy="92.351" r="1.966"/>
<circle opacity="0.9" fill="#32506D" stroke="#B10000" stroke-width="3" enable-background="new    " cx="21.646" cy="104.931" r="0.983"/>
<circle opacity="0.9" fill="#1AB6E5" stroke="#B10000" stroke-width="3" enable-background="new    " cx="21.694" cy="100.634" r="0.983"/>
<circle opacity="0.9" fill="#32506D" stroke="#B10000" stroke-width="3" enable-background="new    " cx="54.463" cy="99.616" r="0.983"/>
<circle opacity="0.6" fill="#BEEDFF" stroke="#B10000" stroke-width="3" enable-background="new    " cx="34.645" cy="113.57" r="1.966"/>
<circle opacity="0.6" fill="#9BAAB8" stroke="#B10000" stroke-width="3" enable-background="new    " cx="30.271" cy="92.003" r="3.933"/>
<circle opacity="0.75" fill="#71869A" stroke="#B10000" stroke-width="3" enable-background="new    " cx="39.013" cy="92.61" r="3.933"/>
<circle opacity="0.9" fill="#32506D" stroke="#B10000" stroke-width="3" enable-background="new    " cx="14.519" cy="109.355" r="1.967"/>
<circle opacity="0.75" fill="#71869A" stroke="#B10000" stroke-width="3" enable-background="new    " cx="58.933" cy="71.825" r="3.933"/>
<circle opacity="0.6" fill="#9BAAB8" stroke="#B10000" stroke-width="3" enable-background="new    " cx="48.807" cy="98.341" r="3.933"/>
<circle opacity="0.9" fill="#32506D" stroke="#B10000" stroke-width="3" enable-background="new    " cx="14.373" cy="99.607" r="1.967"/>
<circle opacity="0.6" fill="#9BAAB8" stroke="#B10000" stroke-width="3" enable-background="new    " cx="65.606" cy="75.956" r="3.933"/>
<circle opacity="0.75" fill="#79DEFF" stroke="#B10000" stroke-width="3" enable-background="new    " cx="77.763" cy="70.6" r="3.933"/>
<circle opacity="0.9" fill="#32506D" stroke="#B10000" stroke-width="3" enable-background="new    " cx="29.354" cy="100.039" r="0.983"/>
<circle opacity="0.75" fill="#71869A" stroke="#B10000" stroke-width="3" enable-background="new    " cx="34.649" cy="85.862" r="1.966"/>
<circle opacity="0.75" fill="#71869A" stroke="#B10000" stroke-width="3" enable-background="new    " cx="58.904" cy="91.44" r="1.966"/>
<circle opacity="0.9" fill="#32506D" stroke="#B10000" stroke-width="3" enable-background="new    " cx="21.076" cy="96.046" r="0.983"/>
<circle opacity="0.75" fill="#71869A" stroke="#B10000" stroke-width="3" enable-background="new    " cx="26.401" cy="98.45" r="1.966"/>
<circle opacity="0.75" fill="#CB5200" stroke="#B10000" stroke-width="3" enable-background="new    " cx="39.46" cy="78.259" r="1.967"/>
<circle opacity="0.75" fill="#CB5200" stroke="#B10000" stroke-width="3" enable-background="new    " cx="42.354" cy="81.531" r="1.966"/>
<circle opacity="0.75" fill="#CB5200" stroke="#B10000" stroke-width="3" enable-background="new    " cx="43.155" cy="90.917" r="1.967"/>
<circle opacity="0.75" fill="#CB5200" stroke="#B10000" stroke-width="3" enable-background="new    " cx="42.554" cy="84.142" r="1.966"/>
<circle opacity="0.75" fill="#CB5200" stroke="#B10000" stroke-width="3" enable-background="new    " cx="35.898" cy="77.416" r="1.966"/>
<circle opacity="0.75" fill="#CB5200" stroke="#B10000" stroke-width="3" enable-background="new    " cx="40.439" cy="75.67" r="1.966"/>
<circle opacity="0.75" fill="#CB5200" stroke="#B10000" stroke-width="3" enable-background="new    " cx="38.912" cy="72.713" r="1.966"/>
<circle opacity="0.75" fill="#CB5200" stroke="#B10000" stroke-width="3" enable-background="new    " cx="42.771" cy="86.518" r="1.966"/>
<circle opacity="0.75" fill="#CB5200" stroke="#B10000" stroke-width="3" enable-background="new    " cx="36.73" cy="80.839" r="1.966"/>
<circle opacity="0.75" fill="#CB5200" stroke="#B10000" stroke-width="3" enable-background="new    " cx="39.623" cy="81.302" r="1.966"/>
<circle opacity="0.75" fill="#CB5200" stroke="#B10000" stroke-width="3" enable-background="new    " cx="36.377" cy="74.257" r="1.966"/>
<circle opacity="0.75" fill="#71869A" stroke="#B10000" stroke-width="3" enable-background="new    " cx="57.091" cy="65.196" r="3.933"/>
<circle opacity="0.75" fill="#71869A" stroke="#B10000" stroke-width="3" enable-background="new    " cx="16.897" cy="105.89" r="1.966"/>
<g>
	<defs>
		<rect id="SVGID_1_" x="32.924" y="4.697" width="29.692" height="7.934"/>
	</defs>
	<clipPath id="SVGID_5_">
		<use xlink:href="#SVGID_1_"  overflow="visible"/>
	</clipPath>
	<g clip-path="url(#SVGID_5_)">
		<defs>
			<rect id="SVGID_2_" x="30.695" y="1.104" width="45.359" height="15.12"/>
		</defs>
		<clipPath id="SVGID_6_">
			<use xlink:href="#SVGID_2_"  overflow="visible"/>
		</clipPath>
		<path clip-path="url(#SVGID_6_)" fill="#667EBD" d="M40.857,8.664c0,2.191-1.775,3.967-3.967,3.967
			c-2.19,0-3.967-1.775-3.967-3.967c0-2.19,1.776-3.967,3.967-3.967C39.082,4.697,40.857,6.473,40.857,8.664"/>
		<g clip-path="url(#SVGID_6_)">
			<defs>
				<rect id="SVGID_3_" x="35.599" y="6.761" width="2.643" height="1.288"/>
			</defs>
			<clipPath id="SVGID_7_">
				<use xlink:href="#SVGID_3_"  overflow="visible"/>
			</clipPath>
			<g clip-path="url(#SVGID_7_)">
				<defs>
					<rect id="SVGID_4_" x="35.599" y="6.761" width="2.643" height="1.288"/>
				</defs>
				<clipPath id="SVGID_8_">
					<use xlink:href="#SVGID_4_"  overflow="visible"/>
				</clipPath>
				<polygon clip-path="url(#SVGID_8_)" fill="#727180" points="35.599,6.761 38.241,6.761 36.915,8.049 				"/>
			</g>
		</g>
		<polygon clip-path="url(#SVGID_6_)" fill="#727180" points="37.523,8.663 35.564,10.492 38.329,10.579 40.201,8.583 		"/>
		<path clip-path="url(#SVGID_6_)" fill="#FFFFFF" d="M35.557,6.577c-0.024,0.011-0.1,0.082-0.1,0.094
			c0,0.005-0.013,0.017-0.027,0.026c-0.033,0.021-0.05,0.037-0.055,0.055c-0.002,0.006-0.018,0.02-0.033,0.029
			c-0.016,0.009-0.029,0.021-0.029,0.025c0,0.006-0.002,0.01-0.005,0.009s-0.034,0.028-0.07,0.064s-0.101,0.099-0.142,0.139
			s-0.098,0.097-0.125,0.125c-0.026,0.028-0.051,0.052-0.053,0.05c-0.002-0.001-0.01,0.008-0.019,0.021
			c-0.007,0.013-0.016,0.022-0.019,0.022c-0.004,0-0.015,0.013-0.025,0.028c-0.033,0.05-0.147,0.153-0.16,0.146
			c-0.004-0.002-0.008,0.003-0.01,0.012c-0.004,0.019-0.082,0.096-0.115,0.116c-0.015,0.008-0.027,0.019-0.03,0.023
			s-0.022,0.027-0.044,0.05s-0.047,0.053-0.057,0.068c-0.023,0.033-0.052,0.062-0.111,0.111c-0.027,0.021-0.068,0.06-0.095,0.084
			c-0.025,0.023-0.053,0.049-0.061,0.055c-0.009,0.006-0.016,0.016-0.016,0.021s-0.008,0.019-0.019,0.028
			c-0.047,0.048-0.105,0.101-0.129,0.118c-0.014,0.011-0.04,0.031-0.057,0.047c-0.018,0.016-0.041,0.034-0.051,0.042
			c-0.011,0.009-0.028,0.028-0.039,0.046c-0.012,0.018-0.037,0.045-0.058,0.062c-0.021,0.019-0.039,0.041-0.042,0.049
			c-0.004,0.009-0.012,0.018-0.018,0.02c-0.012,0.005-0.068,0.053-0.181,0.156c-0.056,0.051-0.097,0.103-0.097,0.123
			c0,0.004,0.009,0.025,0.02,0.047c0.016,0.029,0.033,0.051,0.063,0.076c0.023,0.02,0.059,0.051,0.077,0.069
			c0.02,0.018,0.049,0.044,0.063,0.059c0.016,0.015,0.042,0.037,0.058,0.05c0.036,0.026,0.309,0.301,0.309,0.309
			c0,0.003,0.008,0.01,0.017,0.015S34.113,9.3,34.14,9.332c0.026,0.03,0.07,0.076,0.099,0.1c0.027,0.023,0.051,0.047,0.051,0.049
			c0,0.01,0.116,0.125,0.137,0.135c0.011,0.006,0.026,0.02,0.034,0.031c0.009,0.012,0.022,0.029,0.03,0.038s0.016,0.019,0.016,0.022
			c0,0.008,0.082,0.093,0.104,0.107c0.008,0.006,0.014,0.014,0.014,0.019s0.003,0.009,0.006,0.009c0.004,0,0.023,0.015,0.043,0.033
			c0.02,0.018,0.038,0.033,0.041,0.033c0.006,0,0.08,0.071,0.184,0.178c0.068,0.07,0.082,0.082,0.104,0.088
			c0.006,0.003,0.011,0.008,0.011,0.012s0.021,0.029,0.047,0.055c0.08,0.08,0.113,0.115,0.132,0.145
			c0.01,0.016,0.037,0.045,0.06,0.065c0.022,0.021,0.05,0.05,0.06,0.064c0.035,0.046,0.094,0.108,0.104,0.108
			c0.002,0,0.012,0.012,0.02,0.025c0.01,0.013,0.029,0.033,0.045,0.043c0.017,0.012,0.04,0.029,0.054,0.042l0.023,0.022l0.065-0.004
			c0.035-0.002,0.088-0.007,0.117-0.011c0.052-0.007,0.114-0.01,0.396-0.017c0.177-0.004,0.137-0.004,0.765-0.001
			c0.278,0.001,0.513-0.001,0.521-0.003c0.009-0.004,0.019-0.004,0.021,0c0.008,0.006,0.154,0.004,0.266-0.006
			c0.043-0.002,0.086-0.006,0.095-0.006s0.046-0.002,0.082-0.004c0.08-0.004,0.066-0.004,0.181-0.004c0.32,0.004,0.34,0,0.406-0.061
			c0.017-0.016,0.039-0.033,0.051-0.04c0.011-0.007,0.025-0.021,0.032-0.032c0.007-0.012,0.024-0.033,0.04-0.05
			c0.016-0.016,0.028-0.032,0.028-0.038c0-0.005,0.003-0.007,0.007-0.005s0.006,0,0.006-0.006c0-0.005,0.012-0.021,0.025-0.036
			c0.077-0.081,0.165-0.18,0.165-0.187c0-0.003,0.004-0.005,0.009-0.005c0.004,0,0.014-0.005,0.02-0.012
			c0.006-0.006,0.018-0.016,0.027-0.022c0.009-0.007,0.017-0.019,0.017-0.024c0-0.008,0.004-0.014,0.009-0.014
			c0.004,0,0.02-0.012,0.031-0.026c0.013-0.015,0.032-0.031,0.044-0.036C38.99,10.102,39,10.095,39,10.091
			c0-0.003,0.021-0.022,0.045-0.043c0.024-0.021,0.051-0.047,0.059-0.057c0.007-0.01,0.016-0.018,0.018-0.014
			c0.002,0.002,0.004-0.001,0.004-0.007s0.009-0.018,0.02-0.026c0.01-0.008,0.023-0.023,0.029-0.033
			c0.007-0.009,0.021-0.021,0.031-0.025c0.01-0.004,0.019-0.01,0.019-0.013s0.028-0.032,0.062-0.067
			c0.034-0.034,0.062-0.065,0.062-0.069c0-0.003,0.003-0.007,0.007-0.007c0.01,0,0.089-0.08,0.086-0.086
			c0-0.004,0.002-0.006,0.004-0.003c0.007,0.003,0.071-0.062,0.068-0.07c0-0.003,0.01-0.01,0.021-0.015
			c0.013-0.006,0.023-0.013,0.023-0.016c0-0.005,0.01-0.015,0.077-0.078c0.019-0.018,0.034-0.035,0.034-0.04
			s0.003-0.007,0.006-0.005s0.016-0.008,0.027-0.023c0.013-0.015,0.039-0.043,0.061-0.062c0.021-0.02,0.037-0.039,0.037-0.042
			s0.007-0.013,0.016-0.021c0.008-0.009,0.027-0.03,0.044-0.05c0.044-0.049,0.054-0.06,0.088-0.089
			c0.018-0.015,0.036-0.031,0.042-0.037s0.013-0.01,0.016-0.008c0.003,0.001,0.01-0.005,0.015-0.015
			c0.005-0.011,0.022-0.031,0.039-0.045c0.069-0.061,0.101-0.094,0.112-0.113c0.005-0.011,0.019-0.027,0.029-0.036
			c0.021-0.016,0.066-0.073,0.066-0.082c0-0.003,0.012-0.017,0.027-0.029c0.031-0.024,0.041-0.048,0.049-0.108
			c0.004-0.032,0.003-0.035-0.016-0.053c-0.012-0.01-0.029-0.037-0.041-0.062c-0.015-0.032-0.028-0.05-0.055-0.072
			c-0.021-0.016-0.037-0.031-0.037-0.034c-0.001-0.012-0.109-0.123-0.121-0.123c-0.004,0-0.015-0.007-0.023-0.015
			c-0.025-0.022-0.122-0.144-0.127-0.159c-0.004-0.014-0.096-0.101-0.126-0.121C39.789,8.011,39.775,8,39.767,7.992
			c-0.009-0.01-0.036-0.037-0.062-0.061c-0.024-0.025-0.056-0.057-0.068-0.071c-0.012-0.015-0.026-0.03-0.03-0.036
			c-0.005-0.005-0.018-0.015-0.03-0.021c-0.035-0.023-0.202-0.192-0.232-0.238c-0.02-0.026-0.071-0.077-0.119-0.114
			c-0.019-0.015-0.041-0.037-0.051-0.05c-0.008-0.012-0.032-0.037-0.053-0.055c-0.02-0.02-0.059-0.057-0.086-0.084
			c-0.027-0.028-0.077-0.078-0.109-0.111c-0.033-0.032-0.064-0.061-0.07-0.064c-0.018-0.006-0.143-0.125-0.172-0.164
			c-0.016-0.02-0.043-0.052-0.062-0.071c-0.02-0.021-0.039-0.046-0.044-0.058s-0.016-0.025-0.024-0.029
			c-0.008-0.004-0.046-0.038-0.084-0.074c-0.066-0.064-0.07-0.067-0.117-0.081c-0.027-0.009-0.062-0.017-0.076-0.019
			c-0.015-0.003-0.031-0.008-0.037-0.01c-0.012-0.006-0.129-0.007-0.33-0.002c-0.065,0.001-0.137,0.002-0.158,0.001
			c-0.057-0.001-0.064-0.001-0.131,0.004c-0.032,0.003-0.107,0.005-0.167,0.005c-0.063,0-0.112,0.004-0.116,0.008
			c-0.006,0.004-0.012,0.004-0.017,0s-0.104-0.008-0.268-0.008c-0.143-0.001-0.292-0.003-0.331-0.005
			c-0.04-0.002-0.089-0.003-0.109-0.003c-0.049,0.002-0.043,0.002-0.164-0.002c-0.059-0.002-0.109-0.004-0.111-0.004
			c-0.002-0.001-0.005-0.002-0.008-0.001c-0.006,0.001-0.393,0.01-0.412,0.009c-0.085-0.001-0.297-0.009-0.314-0.012
			C35.588,6.568,35.568,6.572,35.557,6.577 M36.345,6.849c0.026-0.002,0.069,0,0.097,0.001s0.084,0.001,0.128,0.003
			c0.044,0,0.081,0.002,0.083,0.006c0.004,0.005,0.006,0.004,0.006,0c0-0.008,0.519-0.008,0.537,0c0.012,0.004,0.355,0,0.634-0.006
			l0.19-0.006l-0.014,0.016c-0.007,0.009-0.035,0.037-0.062,0.064c-0.027,0.027-0.06,0.063-0.073,0.079
			c-0.031,0.04-0.084,0.091-0.152,0.151c-0.031,0.027-0.067,0.064-0.08,0.084c-0.014,0.02-0.038,0.045-0.055,0.057
			s-0.101,0.093-0.187,0.179c-0.085,0.086-0.171,0.171-0.19,0.188c-0.019,0.02-0.04,0.041-0.047,0.05
			c-0.008,0.009-0.037,0.037-0.065,0.062c-0.028,0.024-0.063,0.058-0.077,0.07c-0.024,0.023-0.058,0.034-0.058,0.019
			c0-0.004-0.003-0.007-0.007-0.007c-0.01,0-0.046-0.036-0.046-0.046c0-0.004-0.003-0.007-0.007-0.007
			c-0.003,0-0.017-0.011-0.031-0.024c-0.041-0.041-0.08-0.072-0.092-0.077c-0.012-0.004-0.074-0.06-0.074-0.065
			c0-0.002-0.014-0.02-0.032-0.037c-0.018-0.02-0.032-0.036-0.032-0.039s-0.025-0.025-0.055-0.049s-0.057-0.046-0.061-0.05
			s-0.018-0.019-0.032-0.031c-0.046-0.042-0.132-0.128-0.149-0.148c-0.009-0.011-0.028-0.03-0.043-0.043
			c-0.014-0.013-0.046-0.045-0.071-0.071c-0.057-0.06-0.063-0.066-0.101-0.089c-0.016-0.01-0.029-0.021-0.031-0.026
			c-0.002-0.006-0.01-0.012-0.018-0.014c-0.008-0.003-0.023-0.015-0.035-0.027c-0.011-0.012-0.021-0.021-0.024-0.021
			c-0.011,0-0.12-0.109-0.136-0.135c-0.004-0.006,0.059-0.008,0.196-0.008c0.11-0.001,0.202-0.004,0.203-0.006
			c0.002-0.001,0.006-0.001,0.009,0.002C36.295,6.849,36.318,6.85,36.345,6.849 M38.348,6.976c0.033,0.033,0.066,0.068,0.076,0.08
			c0.01,0.01,0.039,0.037,0.066,0.059s0.058,0.052,0.067,0.067c0.015,0.022,0.054,0.062,0.104,0.105
			c0.003,0.003,0.04,0.04,0.083,0.085s0.087,0.086,0.098,0.092c0.01,0.006,0.039,0.033,0.063,0.061
			c0.026,0.027,0.056,0.059,0.067,0.071c0.012,0.012,0.021,0.023,0.021,0.026s0.018,0.02,0.038,0.035
			c0.021,0.018,0.06,0.051,0.085,0.076c0.026,0.026,0.051,0.047,0.055,0.047c0.008,0,0.184,0.175,0.184,0.183
			c0,0.005,0.021,0.026,0.143,0.146c0.018,0.017,0.039,0.034,0.049,0.04c0.009,0.006,0.025,0.023,0.035,0.039
			c0.011,0.015,0.043,0.053,0.072,0.083c0.03,0.03,0.057,0.062,0.059,0.067c0.002,0.008,0.006,0.013,0.01,0.013
			c0.007,0,0.054,0.05,0.079,0.085c0.028,0.039,0.022,0.049-0.037,0.055c-0.288,0.028-0.562,0.037-0.915,0.031
			c-0.066-0.002-0.198-0.001-0.292,0.002c-0.101,0.002-0.237,0.002-0.331-0.003c-0.089-0.004-0.185-0.009-0.213-0.01
			c-0.029-0.001-0.092-0.002-0.139-0.001c-0.219,0.002-0.22,0.002-0.251-0.04c-0.009-0.011-0.028-0.025-0.043-0.033
			c-0.029-0.015-0.083-0.061-0.083-0.07c-0.001-0.007-0.034-0.04-0.066-0.063c-0.012-0.009-0.043-0.037-0.068-0.061
			c-0.025-0.025-0.062-0.061-0.082-0.08c-0.021-0.019-0.039-0.038-0.041-0.043c-0.002-0.006-0.016-0.018-0.029-0.028
			c-0.055-0.04-0.055-0.054,0-0.103c0.021-0.02,0.057-0.053,0.078-0.074c0.02-0.021,0.041-0.043,0.045-0.047
			c0.021-0.019,0.14-0.135,0.191-0.189c0.086-0.086,0.137-0.136,0.168-0.16c0.016-0.012,0.027-0.025,0.027-0.028
			s0.043-0.048,0.096-0.101s0.111-0.117,0.131-0.145c0.021-0.026,0.039-0.049,0.042-0.049c0.011,0,0.175-0.166,0.19-0.191
			c0.008-0.014,0.018-0.025,0.02-0.025s0.018-0.016,0.033-0.035c0.021-0.027,0.031-0.034,0.043-0.031
			C38.283,6.916,38.315,6.944,38.348,6.976 M35.627,7.009c0.014,0.009,0.031,0.023,0.04,0.033s0.024,0.021,0.034,0.027
			c0.011,0.006,0.031,0.02,0.045,0.033c0.014,0.012,0.033,0.029,0.045,0.037c0.038,0.027,0.129,0.108,0.205,0.183
			c0.042,0.041,0.092,0.089,0.111,0.104c0.02,0.018,0.052,0.045,0.071,0.062c0.052,0.045,0.144,0.141,0.161,0.167
			c0.009,0.014,0.033,0.04,0.056,0.06c0.021,0.02,0.058,0.054,0.081,0.075s0.048,0.045,0.056,0.05
			c0.007,0.005,0.015,0.012,0.015,0.015c0,0.007,0.026,0.03,0.034,0.031c0.006,0,0.009,0.002,0.061,0.046
			c0.077,0.065,0.127,0.114,0.128,0.126c0,0.012-0.045,0.06-0.271,0.288c-0.05,0.05-0.091,0.093-0.091,0.097
			c0,0.003-0.029,0.031-0.063,0.063c-0.035,0.031-0.088,0.083-0.116,0.114c-0.049,0.053-0.099,0.1-0.283,0.272
			c-0.038,0.036-0.084,0.083-0.1,0.104s-0.045,0.05-0.064,0.063c-0.02,0.016-0.043,0.039-0.053,0.053s-0.034,0.039-0.055,0.056
			c-0.021,0.017-0.056,0.046-0.076,0.067c-0.021,0.02-0.047,0.041-0.057,0.047c-0.01,0.007-0.024,0.02-0.031,0.029
			c-0.022,0.028-0.042,0.023-0.088-0.021c-0.021-0.021-0.043-0.039-0.045-0.039c-0.003,0-0.037-0.031-0.078-0.07
			c-0.039-0.039-0.08-0.076-0.09-0.084c-0.055-0.043-0.156-0.143-0.201-0.197c-0.016-0.018-0.039-0.044-0.054-0.059
			c-0.015-0.016-0.036-0.04-0.05-0.057C34.877,8.75,34.84,8.71,34.771,8.65c-0.028-0.024-0.069-0.064-0.091-0.09
			c-0.021-0.023-0.074-0.074-0.115-0.111c-0.041-0.036-0.074-0.07-0.074-0.075s-0.004-0.009-0.009-0.009s-0.009-0.004-0.009-0.01
			c0-0.005-0.004-0.01-0.008-0.01s-0.02-0.012-0.033-0.026s-0.035-0.03-0.045-0.036c-0.011-0.006-0.023-0.019-0.029-0.029
			c-0.006-0.012-0.013-0.02-0.016-0.02c-0.014,0-0.039-0.031-0.038-0.047c0.001-0.018,0.072-0.091,0.088-0.091
			c0.005,0,0.087-0.077,0.183-0.173c0.168-0.167,0.211-0.208,0.225-0.208c0.01,0,0.052-0.048,0.064-0.073
			c0.006-0.012,0.023-0.033,0.039-0.047c0.017-0.015,0.029-0.029,0.03-0.033c0-0.004,0.018-0.021,0.039-0.039
			c0.025-0.02,0.039-0.037,0.039-0.045s0.002-0.013,0.004-0.01c0.003,0.002,0.023-0.016,0.046-0.041
			c0.024-0.023,0.053-0.053,0.064-0.064c0.011-0.012,0.021-0.021,0.025-0.021c0.002,0,0.005-0.002,0.005-0.006
			s0.007-0.014,0.015-0.023c0.008-0.008,0.021-0.023,0.027-0.032c0.008-0.009,0.016-0.017,0.02-0.017
			c0.003,0,0.018-0.012,0.033-0.025c0.055-0.048,0.088-0.074,0.095-0.074c0.003,0,0.028-0.023,0.054-0.052
			c0.027-0.03,0.059-0.06,0.072-0.067c0.012-0.008,0.033-0.022,0.045-0.035c0.013-0.011,0.03-0.024,0.039-0.03
			c0.016-0.01,0.019-0.009,0.033,0.003C35.598,6.988,35.615,7,35.627,7.009 M37.055,8.312c0.121,0.12,0.17,0.166,0.212,0.203
			c0.019,0.016,0.044,0.04,0.054,0.053l0.02,0.025l-0.041,0.044c-0.022,0.025-0.059,0.062-0.08,0.081
			c-0.021,0.021-0.057,0.057-0.078,0.08s-0.057,0.06-0.076,0.08c-0.02,0.02-0.039,0.041-0.043,0.046
			c-0.005,0.005-0.025,0.021-0.045,0.034c-0.021,0.016-0.07,0.059-0.107,0.1c-0.039,0.039-0.09,0.09-0.113,0.112
			c-0.09,0.086-0.113,0.11-0.119,0.124c-0.004,0.009-0.01,0.016-0.014,0.016s-0.021,0.013-0.036,0.027
			c-0.017,0.016-0.04,0.038-0.053,0.049c-0.013,0.013-0.022,0.022-0.024,0.022c-0.001,0-0.016,0.015-0.033,0.032
			s-0.053,0.053-0.078,0.077s-0.066,0.065-0.092,0.092c-0.026,0.026-0.057,0.053-0.067,0.06c-0.032,0.02-0.08,0.062-0.08,0.072
			c0,0.004-0.003,0.008-0.007,0.008c-0.003,0-0.018,0.012-0.031,0.024c-0.014,0.014-0.042,0.04-0.064,0.06
			c-0.031,0.027-0.042,0.033-0.055,0.029c-0.021-0.005-0.072-0.04-0.072-0.049c0-0.008-0.136-0.143-0.145-0.143
			c-0.004,0-0.007-0.003-0.007-0.007c0-0.003-0.018-0.024-0.039-0.048c-0.022-0.022-0.041-0.045-0.043-0.053
			c-0.002-0.006-0.011-0.015-0.02-0.021c-0.009-0.007-0.017-0.017-0.017-0.025c0-0.017,0.062-0.084,0.115-0.122
			c0.02-0.016,0.036-0.029,0.036-0.032c0-0.004,0.069-0.077,0.093-0.097c0.005-0.005,0.031-0.031,0.061-0.061
			c0.028-0.029,0.06-0.057,0.07-0.061c0.01-0.005,0.02-0.012,0.02-0.015c0-0.008,0.07-0.083,0.131-0.139
			c0.051-0.048,0.116-0.113,0.135-0.136c0.008-0.009,0.023-0.025,0.036-0.035c0.032-0.029,0.104-0.109,0.104-0.116
			c0-0.003,0.004-0.006,0.008-0.006c0.006,0,0.046-0.038,0.091-0.087c0.045-0.047,0.089-0.092,0.097-0.1
			c0.024-0.021,0.252-0.25,0.271-0.271c0.01-0.012,0.021-0.021,0.025-0.021C36.959,8.22,37.004,8.262,37.055,8.312 M34.164,8.443
			c0.02,0.021,0.046,0.045,0.059,0.055c0.012,0.011,0.061,0.055,0.107,0.1c0.045,0.043,0.089,0.082,0.096,0.086
			c0.02,0.011,0.055,0.045,0.085,0.081c0.016,0.019,0.032,0.034,0.038,0.034c0.005,0,0.009,0.002,0.009,0.005
			s0.013,0.019,0.026,0.034c0.016,0.017,0.039,0.043,0.055,0.061c0.041,0.047,0.077,0.084,0.081,0.084
			c0.002,0,0.017,0.016,0.034,0.034c0.051,0.056,0.232,0.236,0.273,0.27c0.021,0.018,0.051,0.046,0.064,0.062
			s0.036,0.038,0.05,0.048c0.042,0.027,0.132,0.121,0.132,0.138c0,0.015-0.091,0.106-0.158,0.161
			c-0.012,0.01-0.043,0.037-0.068,0.06s-0.049,0.042-0.053,0.042c-0.005,0-0.027-0.02-0.051-0.042
			c-0.022-0.022-0.079-0.077-0.125-0.12c-0.046-0.044-0.084-0.082-0.084-0.085s-0.037-0.043-0.082-0.089
			c-0.047-0.046-0.091-0.091-0.098-0.1c-0.008-0.008-0.027-0.026-0.046-0.041s-0.085-0.078-0.149-0.141
			c-0.063-0.063-0.15-0.149-0.195-0.191c-0.043-0.041-0.093-0.092-0.11-0.111c-0.032-0.037-0.13-0.131-0.19-0.184l-0.035-0.029
			l0.033-0.031c0.018-0.016,0.041-0.042,0.051-0.057c0.01-0.016,0.021-0.027,0.025-0.027c0.005,0,0.02-0.012,0.033-0.027
			s0.049-0.049,0.078-0.074c0.039-0.035,0.056-0.047,0.065-0.043C34.121,8.406,34.144,8.423,34.164,8.443 M38.059,8.794
			c0.119,0.005,0.585,0.008,0.909,0.006c0.096-0.001,0.243-0.002,0.328-0.002c0.124,0,0.241-0.004,0.328-0.008
			c0.005,0,0.023,0.001,0.042,0.004c0.017,0.002,0.03,0.001,0.03-0.002s0.017-0.004,0.038-0.002c0.038,0.003,0.053,0.003,0.094,0
			c0.028-0.003,0.032,0.012,0.01,0.038c-0.01,0.011-0.027,0.033-0.04,0.052c-0.012,0.018-0.036,0.049-0.056,0.068
			c-0.019,0.02-0.038,0.047-0.044,0.059s-0.03,0.036-0.054,0.055c-0.052,0.042-0.24,0.229-0.255,0.256
			c-0.007,0.01-0.013,0.019-0.015,0.019s-0.021,0.015-0.041,0.032c-0.019,0.018-0.037,0.033-0.039,0.033
			c-0.003,0-0.014,0.014-0.025,0.029c-0.018,0.026-0.162,0.174-0.169,0.174s-0.106,0.104-0.106,0.111
			c0,0.004-0.011,0.014-0.022,0.021c-0.013,0.009-0.024,0.02-0.025,0.026c-0.002,0.006-0.021,0.021-0.04,0.034
			c-0.02,0.015-0.038,0.03-0.04,0.036s-0.015,0.019-0.028,0.03c-0.02,0.016-0.144,0.139-0.166,0.164
			c-0.015,0.018-0.078,0.081-0.107,0.109c-0.018,0.017-0.04,0.037-0.049,0.047c-0.05,0.051-0.102,0.104-0.129,0.13
			c-0.018,0.017-0.039,0.037-0.047,0.046c-0.043,0.047-0.053,0.054-0.098,0.062c-0.025,0.004-0.076,0.008-0.111,0.009
			c-0.037,0-0.096,0.003-0.132,0.007c-0.036,0.003-0.131,0.008-0.212,0.01c-0.082,0.002-0.17,0.006-0.197,0.01
			c-0.027,0.002-0.056,0.002-0.062,0c-0.009-0.004-0.017-0.005-0.018-0.004c-0.006,0.006-0.26,0.01-0.786,0.014
			c-0.291,0.003-0.606,0.006-0.702,0.008c-0.233,0.006-0.229,0.006-0.234,0.001c-0.005-0.006,0.061-0.095,0.077-0.104
			c0.007-0.004,0.013-0.011,0.013-0.016c0-0.009,0.061-0.069,0.07-0.069c0.004,0,0.016-0.015,0.027-0.032
			c0.01-0.018,0.027-0.037,0.038-0.043c0.021-0.016,0.055-0.044,0.111-0.1c0.022-0.022,0.06-0.055,0.082-0.072
			c0.043-0.031,0.108-0.097,0.151-0.148c0.014-0.018,0.048-0.046,0.075-0.064c0.028-0.018,0.075-0.059,0.106-0.09
			s0.078-0.074,0.104-0.095c0.026-0.021,0.062-0.057,0.081-0.079c0.018-0.023,0.045-0.051,0.061-0.062
			c0.017-0.011,0.047-0.042,0.067-0.068c0.021-0.025,0.066-0.074,0.101-0.106s0.078-0.076,0.099-0.097
			c0.02-0.021,0.048-0.047,0.063-0.059c0.062-0.051,0.277-0.25,0.289-0.27c0.008-0.012,0.035-0.041,0.062-0.064l0.048-0.043
			l0.161-0.003C37.854,8.788,37.89,8.789,38.059,8.794 M35.502,9.734c0.007,0.009,0.016,0.016,0.019,0.016
			c0.007,0,0.042,0.037,0.149,0.156c0.039,0.044,0.074,0.08,0.076,0.08c0.009,0,0.045,0.061,0.045,0.075
			c0,0.007-0.009,0.022-0.02,0.036c-0.011,0.013-0.021,0.025-0.024,0.029s-0.014,0.014-0.025,0.023
			c-0.011,0.01-0.052,0.053-0.093,0.097c-0.043,0.046-0.082,0.083-0.094,0.087c-0.018,0.006-0.021,0.004-0.05-0.02
			c-0.035-0.029-0.033-0.027-0.097-0.1c-0.023-0.028-0.062-0.07-0.084-0.094c-0.051-0.052-0.093-0.101-0.104-0.12
			c-0.007-0.013-0.004-0.019,0.02-0.048c0.016-0.018,0.031-0.032,0.034-0.032s0.052-0.046,0.108-0.102s0.107-0.103,0.113-0.103
			C35.484,9.716,35.494,9.724,35.502,9.734"/>
	</g>
	<g clip-path="url(#SVGID_5_)">
		<text transform="matrix(1 0 0 1 42.9219 10.4155)" font-family="'ComfortaaBold'" font-size="4.97">B</text>
	</g>
	<g clip-path="url(#SVGID_5_)">
		<text transform="matrix(1 0 0 1 45.2329 10.4155)" font-family="'ComfortaaBold'" font-size="4.97">l</text>
	</g>
	<g clip-path="url(#SVGID_5_)">
		<text transform="matrix(1 0 0 1 46.356 10.4155)" font-family="'ComfortaaBold'" font-size="4.97">u</text>
	</g>
	<g clip-path="url(#SVGID_5_)">
		<text transform="matrix(1 0 0 1 50.7295 10.4155)" font-family="'ComfortaaBold'" font-size="4.97">P</text>
	</g>
	<g clip-path="url(#SVGID_5_)">
		<text transform="matrix(1 0 0 1 52.9062 10.4155)" font-family="'ComfortaaBold'" font-size="4.97">en</text>
	</g>
</g>
</svg>
