<?xml version="1.0" encoding="utf-8"?>
<!-- Generator: Adobe Illustrator 15.0.0, SVG Export Plug-In  -->
<!DOCTYPE svg PUBLIC "-//W3C//DTD SVG 1.1//EN" "http://www.w3.org/Graphics/SVG/1.1/DTD/svg11.dtd" >
<svg version="1.1"
	 xmlns="http://www.w3.org/2000/svg" xmlns:xlink="http://www.w3.org/1999/xlink" xmlns:a="http://ns.adobe.com/AdobeSVGViewerExtensions/3.0/"
viewBox="-0.5 -0.776 127 137">
<defs>
    <style type="text/css">
      @font-face {
      font-family: 'ComfortaaBold';
      src: url('fonts/comfortaa/comfortaa_bold-webfont.eot');
      src: url('fonts/comfortaa/comfortaa_bold-webfont.eot?#iefix') format('embedded-opentype'),
      url('fonts/comfortaa/comfortaa_bold-webfont.woff') format('woff'),
      url('fonts/comfortaa/comfortaa_bold-webfont.ttf') format('truetype'),
      url('fonts/comfortaa/comfortaa_bold-webfont.svg#comfortaabold') format('svg');
      font-weight: normal;
      font-style: normal;
      }
      @font-face {
      font-family: 'OswaldBold';
      src: url('../fonts/oswald/oswald-bold-webfont.eot');
      src: url('../fonts/oswald/oswald-bold-webfont.eot?#iefix') format('embedded-opentype'),
      url('../fonts/oswald/oswald-bold-webfont.woff') format('woff'),
      url('../fonts/oswald/oswald-bold-webfont.ttf') format('truetype'),
      url('../fonts/oswald/oswald-bold-webfont.svg#oswaldbold') format('svg');
      font-weight: normal;
      font-style: normal;
      }
      @font-face {
      font-family: 'OswaldBook';
      src: url('../fonts/oswald/oswald-regular-webfont.eot');
      src: url('../fonts/oswald/oswald-regular-webfont.eot?#iefix') format('embedded-opentype'),
      url('../fonts/oswald/oswald-regular-webfont.woff') format('woff'),
      url('../fonts/oswald/oswald-regular-webfont.ttf') format('truetype'),
      url('../fonts/oswald/oswald-regular-webfont.svg#oswaldbook') format('svg');
      font-weight: normal;
      font-style: normal;
      }
    </style>
</defs>
<polygon fill="#808184" points="90.5,99.224 90.766,135.224 126.5,99.224 "/>
<line fill="none" stroke="#231F20" stroke-miterlimit="10" x1="36.305" y1="134.316" x2="36.305" y2="34.236"/>
<rect x="0.5" y="0.5" fill="#FFFFFF" stroke="#58595B" stroke-miterlimit="10" width="90.195" height="134.724"/>
<rect x="0.695" y="18.224" fill="none" width="90" height="27"/>
<text transform="matrix(1 0 0 1 23.9204 34.0444)"><tspan x="0" y="0" fill="#231F20" font-family="'OswaldBold'" font-size="18">SYRIA</tspan><tspan x="-16.031" y="10.8" fill="#231F20" font-family="'OswaldBook'" font-size="9">A VISUAL COLLECTION</tspan></text>
<circle opacity="0.75" fill="#B1005D" enable-background="new    " cx="56.056" cy="69.248" r="1.256"/>
<circle opacity="0.75" fill="#B1005D" enable-background="new    " cx="65.714" cy="86.288" r="2.513"/>
<circle opacity="0.75" fill="#B1005D" enable-background="new    " cx="54.261" cy="79.147" r="2.513"/>
<circle opacity="0.6" fill="#FF0084" enable-background="new    " cx="77.774" cy="71.196" r="1.257"/>
<circle opacity="0.75" fill="#B1005D" enable-background="new    " cx="67.451" cy="64.544" r="5.025"/>
<circle opacity="0.75" fill="#71869A" enable-background="new    " cx="53.09" cy="73.083" r="2.513"/>
<circle opacity="0.6" fill="#9BAAB8" enable-background="new    " cx="27.448" cy="101.088" r="1.256"/>
<circle opacity="0.75" fill="#79DEFF" enable-background="new    " cx="24.037" cy="112.199" r="5.025"/>
<circle opacity="0.6" fill="#BEEDFF" enable-background="new    " cx="56.092" cy="95.272" r="2.513"/>
<circle opacity="0.6" fill="#9BAAB8" enable-background="new    " cx="24.245" cy="101.966" r="1.256"/>
<circle opacity="0.75" fill="#71869A" enable-background="new    " cx="29.348" cy="96.8" r="1.256"/>
<circle opacity="0.6" fill="#9BAAB8" enable-background="new    " cx="48.427" cy="92.702" r="2.513"/>
<circle opacity="0.9" fill="#1AB6E5" enable-background="new    " cx="47.521" cy="101.217" r="2.513"/>
<circle opacity="0.6" fill="#BEEDFF" enable-background="new    " cx="14.165" cy="104.885" r="1.256"/>
<circle opacity="0.75" fill="#79DEFF" enable-background="new    " cx="60.773" cy="82.82" r="5.025"/>
<circle opacity="0.75" fill="#71869A" stroke="#B10000" stroke-width="3" enable-background="new    " cx="52.128" cy="97.011" r="1.256"/>
<circle opacity="0.9" fill="#32506D" stroke="#B10000" stroke-width="3" enable-background="new    " cx="39.5" cy="92.547" r="2.513"/>
<circle opacity="0.75" fill="#71869A" stroke="#B10000" stroke-width="3" enable-background="new    " cx="71.479" cy="73.231" r="2.513"/>
<circle opacity="0.9" fill="#32506D" stroke="#B10000" stroke-width="3" enable-background="new    " cx="16.084" cy="104.697" r="1.256"/>
<circle opacity="0.6" fill="#9BAAB8" stroke="#B10000" stroke-width="3" enable-background="new    " cx="35.104" cy="105.804" r="2.513"/>
<circle opacity="0.75" fill="#71869A" stroke="#B10000" stroke-width="3" enable-background="new    " cx="59.36" cy="74.104" r="5.025"/>
<circle opacity="0.9" fill="#1AB6E5" stroke="#B10000" stroke-width="3" enable-background="new    " cx="14.721" cy="111.227" r="5.025"/>
<circle opacity="0.6" fill="#9BAAB8" stroke="#B10000" stroke-width="3" enable-background="new    " cx="79.152" cy="62.205" r="5.025"/>
<circle opacity="0.75" fill="#CB5200" stroke="#B10000" stroke-width="3" enable-background="new    " cx="42.601" cy="83.327" r="2.513"/>
<circle opacity="0.75" fill="#CB5200" stroke="#B10000" stroke-width="3" enable-background="new    " cx="44.843" cy="89.747" r="2.513"/>
<circle opacity="0.75" fill="#CB5200" stroke="#B10000" stroke-width="3" enable-background="new    " cx="44.514" cy="86.319" r="2.513"/>
<circle opacity="0.75" fill="#71869A" stroke="#B10000" stroke-width="3" enable-background="new    " cx="23.906" cy="94.317" r="2.513"/>
<g>
	<defs>
		<rect id="SVGID_1_" x="32.924" y="4.697" width="29.692" height="7.934"/>
	</defs>
	<clipPath id="SVGID_5_">
		<use xlink:href="#SVGID_1_"  overflow="visible"/>
	</clipPath>
	<g clip-path="url(#SVGID_5_)">
		<defs>
			<rect id="SVGID_2_" x="30.695" y="1.104" width="45.359" height="15.12"/>
		</defs>
		<clipPath id="SVGID_6_">
			<use xlink:href="#SVGID_2_"  overflow="visible"/>
		</clipPath>
		<path clip-path="url(#SVGID_6_)" fill="#667EBD" d="M40.857,8.664c0,2.191-1.775,3.967-3.967,3.967
			c-2.19,0-3.967-1.776-3.967-3.967s1.776-3.967,3.967-3.967C39.082,4.697,40.857,6.473,40.857,8.664"/>
		<g clip-path="url(#SVGID_6_)">
			<defs>
				<rect id="SVGID_3_" x="35.599" y="6.761" width="2.643" height="1.289"/>
			</defs>
			<clipPath id="SVGID_7_">
				<use xlink:href="#SVGID_3_"  overflow="visible"/>
			</clipPath>
			<g clip-path="url(#SVGID_7_)">
				<defs>
					<rect id="SVGID_4_" x="35.599" y="6.761" width="2.643" height="1.289"/>
				</defs>
				<clipPath id="SVGID_8_">
					<use xlink:href="#SVGID_4_"  overflow="visible"/>
				</clipPath>
				<polygon clip-path="url(#SVGID_8_)" fill="#727180" points="35.599,6.761 38.241,6.761 36.915,8.049 				"/>
			</g>
		</g>
		<polygon clip-path="url(#SVGID_6_)" fill="#727180" points="37.523,8.663 35.564,10.491 38.329,10.579 40.201,8.583 		"/>
		<path clip-path="url(#SVGID_6_)" fill="#FFFFFF" d="M35.557,6.577c-0.024,0.011-0.1,0.082-0.1,0.094
			c0,0.005-0.013,0.016-0.027,0.026c-0.033,0.021-0.05,0.038-0.055,0.055c-0.002,0.006-0.018,0.019-0.033,0.029
			c-0.016,0.009-0.029,0.021-0.029,0.026s-0.002,0.009-0.005,0.008c-0.003,0-0.034,0.028-0.07,0.064s-0.101,0.099-0.142,0.139
			c-0.041,0.04-0.098,0.096-0.125,0.125c-0.026,0.029-0.051,0.051-0.053,0.05c-0.002-0.001-0.01,0.008-0.019,0.021
			c-0.007,0.013-0.016,0.023-0.019,0.023c-0.004,0-0.015,0.012-0.025,0.028c-0.033,0.05-0.147,0.153-0.16,0.146
			c-0.004-0.001-0.008,0.003-0.01,0.012c-0.004,0.019-0.082,0.096-0.115,0.116c-0.015,0.008-0.027,0.019-0.03,0.023
			c-0.003,0.005-0.022,0.027-0.044,0.05s-0.047,0.053-0.057,0.068c-0.023,0.034-0.052,0.062-0.111,0.112
			c-0.027,0.021-0.068,0.059-0.095,0.083c-0.025,0.024-0.053,0.049-0.061,0.055c-0.009,0.006-0.016,0.016-0.016,0.021
			s-0.008,0.019-0.019,0.029c-0.047,0.048-0.105,0.101-0.129,0.118c-0.014,0.011-0.04,0.032-0.057,0.047
			c-0.018,0.015-0.041,0.034-0.051,0.042c-0.011,0.008-0.028,0.029-0.039,0.046c-0.012,0.017-0.037,0.045-0.058,0.063
			c-0.021,0.018-0.039,0.04-0.042,0.048c-0.004,0.009-0.012,0.017-0.018,0.02c-0.012,0.004-0.068,0.052-0.181,0.155
			c-0.056,0.051-0.097,0.103-0.097,0.124c0,0.004,0.009,0.025,0.02,0.046c0.016,0.029,0.033,0.051,0.063,0.076
			c0.023,0.02,0.059,0.051,0.077,0.069c0.02,0.018,0.049,0.044,0.063,0.059c0.016,0.015,0.042,0.037,0.058,0.049
			c0.036,0.027,0.309,0.301,0.309,0.309c0,0.003,0.008,0.009,0.017,0.015c0.009,0.004,0.038,0.034,0.064,0.065s0.07,0.076,0.099,0.1
			c0.027,0.024,0.051,0.046,0.051,0.049c0,0.009,0.116,0.125,0.137,0.135c0.011,0.006,0.026,0.02,0.034,0.031
			c0.009,0.012,0.022,0.029,0.03,0.038s0.016,0.019,0.016,0.023c0,0.008,0.082,0.092,0.104,0.107
			c0.008,0.005,0.014,0.014,0.014,0.019s0.003,0.009,0.006,0.009c0.004,0,0.023,0.014,0.043,0.033
			c0.02,0.018,0.038,0.033,0.041,0.033c0.006,0,0.08,0.072,0.184,0.178c0.068,0.07,0.082,0.082,0.104,0.089
			c0.006,0.002,0.011,0.007,0.011,0.012c0,0.004,0.021,0.028,0.047,0.054c0.08,0.08,0.113,0.116,0.132,0.145
			c0.01,0.015,0.037,0.045,0.06,0.065c0.022,0.021,0.05,0.05,0.06,0.064c0.035,0.046,0.094,0.108,0.104,0.108
			c0.002,0,0.012,0.011,0.02,0.025c0.01,0.013,0.029,0.034,0.045,0.044c0.017,0.011,0.04,0.029,0.054,0.042l0.023,0.022l0.065-0.003
			c0.035-0.002,0.088-0.007,0.117-0.011c0.052-0.007,0.114-0.01,0.396-0.017c0.177-0.004,0.137-0.004,0.765-0.001
			c0.278,0.001,0.513-0.001,0.521-0.003c0.009-0.003,0.019-0.003,0.021,0c0.008,0.006,0.154,0.004,0.266-0.005
			c0.043-0.003,0.086-0.006,0.095-0.006c0.009,0,0.046-0.002,0.082-0.004c0.08-0.004,0.066-0.004,0.181-0.003
			c0.32,0.003,0.34,0,0.406-0.062c0.017-0.015,0.039-0.033,0.051-0.04c0.011-0.006,0.025-0.021,0.032-0.033s0.024-0.033,0.04-0.049
			c0.016-0.016,0.028-0.033,0.028-0.038c0-0.005,0.003-0.007,0.007-0.005s0.006,0,0.006-0.006c0-0.005,0.012-0.021,0.025-0.036
			c0.077-0.082,0.165-0.18,0.165-0.187c0-0.003,0.004-0.004,0.009-0.004c0.004,0,0.014-0.005,0.02-0.012
			c0.006-0.006,0.018-0.016,0.027-0.022c0.009-0.007,0.017-0.018,0.017-0.024c0-0.008,0.004-0.014,0.009-0.014
			c0.004,0,0.02-0.012,0.031-0.026c0.013-0.015,0.032-0.031,0.044-0.036C38.99,10.102,39,10.096,39,10.092
			c0-0.003,0.021-0.023,0.045-0.044c0.024-0.021,0.051-0.046,0.059-0.056c0.007-0.01,0.016-0.017,0.018-0.014
			c0.002,0.002,0.004,0,0.004-0.006s0.009-0.018,0.02-0.026c0.01-0.008,0.023-0.023,0.029-0.034
			c0.007-0.009,0.021-0.021,0.031-0.025c0.01-0.004,0.019-0.01,0.019-0.013s0.028-0.033,0.062-0.067
			c0.034-0.034,0.062-0.065,0.062-0.069c0-0.003,0.003-0.007,0.007-0.007c0.01,0,0.089-0.08,0.086-0.086
			c0-0.003,0.002-0.005,0.004-0.002c0.007,0.003,0.071-0.062,0.068-0.07c0-0.003,0.01-0.01,0.021-0.015
			c0.013-0.005,0.023-0.012,0.023-0.015c0-0.005,0.01-0.015,0.077-0.078c0.019-0.018,0.034-0.036,0.034-0.041
			c0-0.005,0.003-0.007,0.006-0.005c0.003,0.002,0.016-0.008,0.027-0.023c0.013-0.015,0.039-0.043,0.061-0.063
			c0.021-0.02,0.037-0.039,0.037-0.042s0.007-0.012,0.016-0.021c0.008-0.009,0.027-0.031,0.044-0.049
			c0.044-0.05,0.054-0.06,0.088-0.089c0.018-0.014,0.036-0.031,0.042-0.037s0.013-0.01,0.016-0.008
			c0.003,0.001,0.01-0.005,0.015-0.015c0.005-0.01,0.022-0.03,0.039-0.045c0.069-0.06,0.101-0.093,0.112-0.113
			c0.005-0.011,0.019-0.027,0.029-0.036c0.021-0.016,0.066-0.073,0.066-0.082c0-0.003,0.012-0.017,0.027-0.029
			c0.031-0.025,0.041-0.047,0.049-0.108c0.004-0.032,0.003-0.035-0.016-0.053c-0.012-0.01-0.029-0.038-0.041-0.062
			c-0.015-0.033-0.028-0.05-0.055-0.072c-0.021-0.016-0.037-0.031-0.037-0.034c-0.001-0.012-0.109-0.123-0.121-0.123
			c-0.004,0-0.015-0.007-0.023-0.015c-0.025-0.022-0.122-0.144-0.127-0.159c-0.004-0.013-0.096-0.101-0.126-0.121
			C39.789,8.011,39.775,8,39.767,7.991c-0.009-0.009-0.036-0.036-0.062-0.061c-0.024-0.024-0.056-0.056-0.068-0.071
			c-0.012-0.015-0.026-0.031-0.03-0.036c-0.005-0.005-0.018-0.015-0.03-0.022c-0.035-0.023-0.202-0.192-0.232-0.238
			c-0.02-0.027-0.071-0.078-0.119-0.115c-0.019-0.015-0.041-0.037-0.051-0.049c-0.008-0.012-0.032-0.038-0.053-0.056
			c-0.02-0.019-0.059-0.056-0.086-0.084c-0.027-0.028-0.077-0.078-0.109-0.11c-0.033-0.033-0.064-0.062-0.07-0.064
			c-0.018-0.006-0.143-0.126-0.172-0.165c-0.016-0.02-0.043-0.052-0.062-0.071c-0.02-0.02-0.039-0.045-0.044-0.058
			c-0.005-0.012-0.016-0.025-0.024-0.029c-0.008-0.004-0.046-0.038-0.084-0.075c-0.066-0.064-0.07-0.067-0.117-0.081
			C38.324,6.6,38.29,6.592,38.275,6.589c-0.015-0.003-0.031-0.007-0.037-0.01c-0.012-0.006-0.129-0.007-0.33-0.002
			c-0.065,0.001-0.137,0.002-0.158,0.001c-0.057-0.001-0.064-0.001-0.131,0.004c-0.032,0.003-0.107,0.005-0.167,0.005
			c-0.063,0-0.112,0.003-0.116,0.007c-0.006,0.004-0.012,0.004-0.017,0c-0.005-0.004-0.104-0.007-0.268-0.007
			c-0.143-0.001-0.292-0.003-0.331-0.005c-0.04-0.002-0.089-0.003-0.109-0.002c-0.049,0.001-0.043,0.001-0.164-0.002
			c-0.059-0.002-0.109-0.004-0.111-0.004c-0.002-0.001-0.005-0.001-0.008-0.001c-0.006,0.001-0.393,0.01-0.412,0.009
			c-0.085-0.001-0.297-0.009-0.314-0.012C35.588,6.568,35.568,6.572,35.557,6.577 M36.345,6.849c0.026-0.001,0.069,0,0.097,0.001
			c0.027,0.001,0.084,0.001,0.128,0.002c0.044,0,0.081,0.002,0.083,0.006c0.004,0.005,0.006,0.004,0.006,0
			c0-0.007,0.519-0.008,0.537,0c0.012,0.004,0.355,0,0.634-0.006l0.19-0.005l-0.014,0.015c-0.007,0.009-0.035,0.038-0.062,0.065
			c-0.027,0.027-0.06,0.063-0.073,0.079c-0.031,0.04-0.084,0.091-0.152,0.151c-0.031,0.027-0.067,0.065-0.08,0.084
			c-0.014,0.019-0.038,0.044-0.055,0.057c-0.017,0.012-0.101,0.092-0.187,0.178c-0.085,0.086-0.171,0.171-0.19,0.189
			c-0.019,0.019-0.04,0.041-0.047,0.049c-0.008,0.009-0.037,0.037-0.065,0.062c-0.028,0.025-0.063,0.057-0.077,0.07
			c-0.024,0.023-0.058,0.034-0.058,0.018c0-0.004-0.003-0.006-0.007-0.006c-0.01,0-0.046-0.036-0.046-0.045
			c0-0.004-0.003-0.007-0.007-0.007c-0.003,0-0.017-0.011-0.031-0.025c-0.041-0.04-0.08-0.072-0.092-0.077
			c-0.012-0.004-0.074-0.059-0.074-0.065c0-0.002-0.014-0.019-0.032-0.038c-0.018-0.019-0.032-0.036-0.032-0.039
			s-0.025-0.025-0.055-0.049c-0.029-0.023-0.057-0.046-0.061-0.05s-0.018-0.019-0.032-0.031c-0.046-0.042-0.132-0.128-0.149-0.148
			c-0.009-0.011-0.028-0.03-0.043-0.043c-0.014-0.012-0.046-0.045-0.071-0.072c-0.057-0.059-0.063-0.066-0.101-0.088
			c-0.016-0.01-0.029-0.021-0.031-0.027c-0.002-0.005-0.01-0.011-0.018-0.014s-0.023-0.014-0.035-0.026
			c-0.011-0.012-0.021-0.022-0.024-0.022c-0.011,0-0.12-0.109-0.136-0.135c-0.004-0.005,0.059-0.008,0.196-0.008
			c0.11,0,0.202-0.003,0.203-0.005c0.002-0.001,0.006-0.001,0.009,0.001C36.295,6.849,36.318,6.85,36.345,6.849 M38.348,6.977
			c0.033,0.033,0.066,0.068,0.076,0.079c0.01,0.011,0.039,0.038,0.066,0.059c0.027,0.022,0.058,0.052,0.067,0.067
			c0.015,0.022,0.054,0.062,0.104,0.105c0.003,0.002,0.04,0.041,0.083,0.084c0.043,0.045,0.087,0.086,0.098,0.092
			c0.01,0.007,0.039,0.034,0.063,0.061c0.026,0.027,0.056,0.059,0.067,0.071c0.012,0.012,0.021,0.023,0.021,0.027
			c0,0.002,0.018,0.019,0.038,0.035c0.021,0.017,0.06,0.051,0.085,0.076c0.026,0.026,0.051,0.046,0.055,0.046
			c0.008,0,0.184,0.175,0.184,0.183c0,0.005,0.021,0.026,0.143,0.146c0.018,0.017,0.039,0.035,0.049,0.041
			c0.009,0.006,0.025,0.023,0.035,0.038c0.011,0.015,0.043,0.053,0.072,0.083c0.03,0.03,0.057,0.061,0.059,0.067
			c0.002,0.007,0.006,0.013,0.01,0.013c0.007,0,0.054,0.049,0.079,0.084c0.028,0.04,0.022,0.049-0.037,0.055
			c-0.288,0.029-0.562,0.038-0.915,0.031c-0.066-0.001-0.198,0-0.292,0.002c-0.101,0.003-0.237,0.002-0.331-0.002
			c-0.089-0.004-0.185-0.008-0.213-0.01c-0.029-0.001-0.092-0.002-0.139-0.001c-0.219,0.002-0.22,0.002-0.251-0.04
			c-0.009-0.01-0.028-0.025-0.043-0.033c-0.029-0.015-0.083-0.061-0.083-0.07c-0.001-0.007-0.034-0.04-0.066-0.063
			c-0.012-0.009-0.043-0.038-0.068-0.062c-0.025-0.025-0.062-0.061-0.082-0.08C37.26,8.145,37.242,8.125,37.24,8.12
			s-0.016-0.018-0.029-0.028c-0.055-0.04-0.055-0.054,0-0.102c0.021-0.02,0.057-0.053,0.078-0.075
			c0.02-0.021,0.041-0.042,0.045-0.047c0.021-0.018,0.14-0.134,0.191-0.189c0.086-0.086,0.137-0.136,0.168-0.161
			c0.016-0.012,0.027-0.024,0.027-0.028c0-0.002,0.043-0.048,0.096-0.1c0.053-0.053,0.111-0.118,0.131-0.145
			c0.021-0.027,0.039-0.049,0.042-0.049c0.011,0,0.175-0.167,0.19-0.192c0.008-0.013,0.018-0.024,0.02-0.024
			s0.018-0.016,0.033-0.036c0.021-0.027,0.031-0.034,0.043-0.031C38.283,6.916,38.315,6.944,38.348,6.977 M35.627,7.009
			c0.014,0.009,0.031,0.023,0.04,0.033c0.009,0.01,0.024,0.022,0.034,0.028c0.011,0.005,0.031,0.02,0.045,0.032
			c0.014,0.012,0.033,0.029,0.045,0.037c0.038,0.028,0.129,0.109,0.205,0.183c0.042,0.041,0.092,0.088,0.111,0.104
			c0.02,0.017,0.052,0.045,0.071,0.062c0.052,0.045,0.144,0.141,0.161,0.167c0.009,0.013,0.033,0.04,0.056,0.059
			c0.021,0.02,0.058,0.054,0.081,0.076c0.023,0.021,0.048,0.044,0.056,0.049c0.007,0.005,0.015,0.012,0.015,0.015
			c0,0.007,0.026,0.03,0.034,0.031c0.006,0,0.009,0.002,0.061,0.046c0.077,0.065,0.127,0.115,0.128,0.126
			c0,0.012-0.045,0.059-0.271,0.288c-0.05,0.05-0.091,0.093-0.091,0.096c0,0.003-0.029,0.032-0.063,0.064
			c-0.035,0.031-0.088,0.083-0.116,0.115c-0.049,0.052-0.099,0.1-0.283,0.272c-0.038,0.036-0.084,0.083-0.1,0.104
			s-0.045,0.05-0.064,0.064c-0.02,0.015-0.043,0.038-0.053,0.053c-0.01,0.014-0.034,0.039-0.055,0.055
			c-0.021,0.016-0.056,0.046-0.076,0.067c-0.021,0.02-0.047,0.042-0.057,0.048c-0.01,0.006-0.024,0.019-0.031,0.029
			c-0.022,0.028-0.042,0.023-0.088-0.021c-0.021-0.022-0.043-0.04-0.045-0.04c-0.003,0-0.037-0.031-0.078-0.07
			c-0.039-0.039-0.08-0.076-0.09-0.083c-0.055-0.043-0.156-0.143-0.201-0.198c-0.016-0.018-0.039-0.044-0.054-0.059
			c-0.015-0.015-0.036-0.04-0.05-0.056c-0.027-0.036-0.064-0.074-0.134-0.135c-0.028-0.025-0.069-0.065-0.091-0.09
			c-0.021-0.024-0.074-0.075-0.115-0.111S34.49,8.378,34.49,8.374c0-0.004-0.004-0.008-0.009-0.008s-0.009-0.005-0.009-0.01
			c0-0.005-0.004-0.01-0.008-0.01s-0.02-0.012-0.033-0.026c-0.014-0.014-0.035-0.031-0.045-0.036
			c-0.011-0.006-0.023-0.019-0.029-0.03c-0.006-0.011-0.013-0.02-0.016-0.02c-0.014,0-0.039-0.031-0.038-0.047
			c0.001-0.018,0.072-0.091,0.088-0.091c0.005,0,0.087-0.078,0.183-0.173c0.168-0.167,0.211-0.208,0.225-0.208
			c0.01,0,0.052-0.048,0.064-0.073c0.006-0.012,0.023-0.033,0.039-0.047c0.017-0.014,0.029-0.028,0.03-0.033
			c0-0.004,0.018-0.022,0.039-0.039c0.025-0.02,0.039-0.037,0.039-0.045c0-0.008,0.002-0.013,0.004-0.01
			c0.003,0.002,0.023-0.016,0.046-0.041c0.024-0.024,0.053-0.054,0.064-0.065c0.011-0.012,0.021-0.021,0.025-0.021
			c0.002,0,0.005-0.002,0.005-0.006c0-0.003,0.007-0.013,0.015-0.022c0.008-0.009,0.021-0.023,0.027-0.033
			c0.008-0.009,0.016-0.017,0.02-0.017c0.003,0,0.018-0.011,0.033-0.025c0.055-0.048,0.088-0.074,0.095-0.074
			c0.003,0,0.028-0.023,0.054-0.052c0.027-0.03,0.059-0.059,0.072-0.067c0.012-0.008,0.033-0.022,0.045-0.035
			c0.013-0.011,0.03-0.025,0.039-0.031c0.016-0.01,0.019-0.009,0.033,0.003C35.598,6.988,35.615,7,35.627,7.009 M37.055,8.312
			c0.121,0.12,0.17,0.167,0.212,0.203c0.019,0.017,0.044,0.041,0.054,0.054l0.02,0.024l-0.041,0.044
			c-0.022,0.025-0.059,0.061-0.08,0.082s-0.057,0.056-0.078,0.08c-0.021,0.023-0.057,0.06-0.076,0.08
			c-0.02,0.02-0.039,0.041-0.043,0.046c-0.005,0.004-0.025,0.02-0.045,0.035c-0.021,0.015-0.07,0.058-0.107,0.099
			c-0.039,0.039-0.09,0.09-0.113,0.113c-0.09,0.086-0.113,0.111-0.119,0.125c-0.004,0.008-0.01,0.015-0.014,0.015
			s-0.021,0.013-0.036,0.028c-0.017,0.016-0.04,0.038-0.053,0.049c-0.013,0.012-0.022,0.022-0.024,0.022
			c-0.001,0-0.016,0.014-0.033,0.032c-0.018,0.019-0.053,0.053-0.078,0.078c-0.025,0.024-0.066,0.065-0.092,0.092
			c-0.026,0.026-0.057,0.053-0.067,0.059c-0.032,0.02-0.08,0.063-0.08,0.072c0,0.004-0.003,0.008-0.007,0.008
			c-0.003,0-0.018,0.012-0.031,0.024c-0.014,0.014-0.042,0.04-0.064,0.059c-0.031,0.027-0.042,0.034-0.055,0.03
			c-0.021-0.005-0.072-0.041-0.072-0.049c0-0.008-0.136-0.143-0.145-0.143c-0.004,0-0.007-0.002-0.007-0.006
			c0-0.003-0.018-0.025-0.039-0.047c-0.022-0.023-0.041-0.046-0.043-0.053c-0.002-0.006-0.011-0.015-0.02-0.021
			c-0.009-0.006-0.017-0.017-0.017-0.025c0-0.017,0.062-0.084,0.115-0.123c0.02-0.015,0.036-0.029,0.036-0.032
			c0-0.004,0.069-0.077,0.093-0.097c0.005-0.004,0.031-0.031,0.061-0.06c0.028-0.029,0.06-0.057,0.07-0.061
			c0.01-0.005,0.02-0.011,0.02-0.015c0-0.008,0.07-0.083,0.131-0.139c0.051-0.047,0.116-0.113,0.135-0.136
			c0.008-0.008,0.023-0.025,0.036-0.035c0.032-0.029,0.104-0.108,0.104-0.116c0-0.003,0.004-0.006,0.008-0.006
			c0.006,0,0.046-0.039,0.091-0.086s0.089-0.093,0.097-0.101c0.024-0.021,0.252-0.25,0.271-0.271
			c0.01-0.011,0.021-0.021,0.025-0.021C36.959,8.221,37.004,8.262,37.055,8.312 M34.164,8.443c0.02,0.02,0.046,0.045,0.059,0.055
			c0.012,0.01,0.061,0.055,0.107,0.099c0.045,0.044,0.089,0.083,0.096,0.086c0.02,0.011,0.055,0.044,0.085,0.081
			c0.016,0.019,0.032,0.034,0.038,0.034c0.005,0,0.009,0.002,0.009,0.005c0,0.003,0.013,0.019,0.026,0.034
			c0.016,0.017,0.039,0.043,0.055,0.061c0.041,0.046,0.077,0.084,0.081,0.084c0.002,0,0.017,0.015,0.034,0.034
			c0.051,0.056,0.232,0.236,0.273,0.27c0.021,0.018,0.051,0.046,0.064,0.062c0.014,0.017,0.036,0.038,0.05,0.047
			c0.042,0.028,0.132,0.122,0.132,0.138c0,0.014-0.091,0.106-0.158,0.161c-0.012,0.01-0.043,0.037-0.068,0.06
			c-0.025,0.023-0.049,0.042-0.053,0.042c-0.005,0-0.027-0.019-0.051-0.042c-0.022-0.022-0.079-0.077-0.125-0.12
			c-0.046-0.044-0.084-0.082-0.084-0.085s-0.037-0.043-0.082-0.089c-0.047-0.046-0.091-0.091-0.098-0.099
			c-0.008-0.009-0.027-0.027-0.046-0.042s-0.085-0.078-0.149-0.141c-0.063-0.063-0.15-0.149-0.195-0.19
			c-0.043-0.041-0.093-0.092-0.11-0.111c-0.032-0.038-0.13-0.132-0.19-0.184l-0.035-0.03l0.033-0.031
			c0.018-0.017,0.041-0.042,0.051-0.057c0.01-0.015,0.021-0.027,0.025-0.027c0.005,0,0.02-0.012,0.033-0.028
			c0.014-0.015,0.049-0.048,0.078-0.074c0.039-0.035,0.056-0.046,0.065-0.043C34.121,8.405,34.144,8.423,34.164,8.443 M38.059,8.795
			c0.119,0.004,0.585,0.007,0.909,0.005c0.096-0.001,0.243-0.001,0.328-0.001c0.124,0,0.241-0.004,0.328-0.009
			c0.005,0,0.023,0.001,0.042,0.004c0.017,0.002,0.03,0.001,0.03-0.001c0-0.003,0.017-0.004,0.038-0.003
			c0.038,0.003,0.053,0.003,0.094,0c0.028-0.002,0.032,0.012,0.01,0.039c-0.01,0.01-0.027,0.033-0.04,0.052
			c-0.012,0.018-0.036,0.049-0.056,0.069c-0.019,0.02-0.038,0.046-0.044,0.058s-0.03,0.037-0.054,0.056
			c-0.052,0.042-0.24,0.229-0.255,0.255c-0.007,0.01-0.013,0.019-0.015,0.019s-0.021,0.014-0.041,0.033
			c-0.019,0.018-0.037,0.033-0.039,0.033c-0.003,0-0.014,0.013-0.025,0.029c-0.018,0.026-0.162,0.174-0.169,0.174
			s-0.106,0.104-0.106,0.111c0,0.004-0.011,0.014-0.022,0.021c-0.013,0.009-0.024,0.02-0.025,0.026
			c-0.002,0.006-0.021,0.021-0.04,0.035c-0.02,0.014-0.038,0.03-0.04,0.036s-0.015,0.019-0.028,0.03
			c-0.02,0.016-0.144,0.139-0.166,0.164c-0.015,0.017-0.078,0.081-0.107,0.109c-0.018,0.017-0.04,0.038-0.049,0.047
			c-0.05,0.052-0.102,0.104-0.129,0.13c-0.018,0.017-0.039,0.037-0.047,0.046c-0.043,0.047-0.053,0.054-0.098,0.062
			c-0.025,0.004-0.076,0.008-0.111,0.009c-0.037,0-0.096,0.002-0.132,0.007c-0.036,0.003-0.131,0.008-0.212,0.01
			c-0.082,0.002-0.17,0.006-0.197,0.009c-0.027,0.002-0.056,0.002-0.062,0c-0.009-0.003-0.017-0.004-0.018-0.003
			c-0.006,0.005-0.26,0.01-0.786,0.013c-0.291,0.003-0.606,0.006-0.702,0.008c-0.233,0.005-0.229,0.005-0.234,0.001
			c-0.005-0.006,0.061-0.095,0.077-0.104c0.007-0.003,0.013-0.011,0.013-0.015c0-0.009,0.061-0.07,0.07-0.07
			c0.004,0,0.016-0.014,0.027-0.032c0.01-0.018,0.027-0.038,0.038-0.044c0.021-0.015,0.055-0.043,0.111-0.099
			c0.022-0.022,0.06-0.055,0.082-0.072c0.043-0.032,0.108-0.097,0.151-0.149c0.014-0.017,0.048-0.045,0.075-0.064
			c0.028-0.018,0.075-0.059,0.106-0.09c0.031-0.031,0.078-0.074,0.104-0.094c0.026-0.021,0.062-0.057,0.081-0.08
			c0.018-0.023,0.045-0.051,0.061-0.062c0.017-0.011,0.047-0.042,0.067-0.068c0.021-0.026,0.066-0.074,0.101-0.106
			c0.034-0.032,0.078-0.076,0.099-0.097c0.02-0.021,0.048-0.047,0.063-0.059c0.062-0.05,0.277-0.25,0.289-0.269
			c0.008-0.012,0.035-0.041,0.062-0.064l0.048-0.042l0.161-0.003C37.854,8.788,37.89,8.789,38.059,8.795 M35.502,9.733
			c0.007,0.009,0.016,0.016,0.019,0.016c0.007,0,0.042,0.037,0.149,0.156c0.039,0.044,0.074,0.08,0.076,0.08
			c0.009,0,0.045,0.061,0.045,0.075c0,0.006-0.009,0.022-0.02,0.036s-0.021,0.026-0.024,0.03c-0.003,0.003-0.014,0.014-0.025,0.023
			c-0.011,0.009-0.052,0.053-0.093,0.097c-0.043,0.046-0.082,0.083-0.094,0.086c-0.018,0.006-0.021,0.004-0.05-0.02
			c-0.035-0.028-0.033-0.026-0.097-0.099c-0.023-0.028-0.062-0.07-0.084-0.093c-0.051-0.052-0.093-0.101-0.104-0.121
			c-0.007-0.013-0.004-0.019,0.02-0.047c0.016-0.018,0.031-0.033,0.034-0.033s0.052-0.046,0.108-0.102
			c0.057-0.056,0.107-0.102,0.113-0.102C35.484,9.717,35.494,9.724,35.502,9.733"/>
	</g>
	<g clip-path="url(#SVGID_5_)">
		<text transform="matrix(1 0 0 1 42.9219 10.4155)" font-family="'ComfortaaBold'" font-size="4.97">B</text>
	</g>
	<g clip-path="url(#SVGID_5_)">
		<text transform="matrix(1 0 0 1 45.2329 10.4155)" font-family="'ComfortaaBold'" font-size="4.97">l</text>
	</g>
	<g clip-path="url(#SVGID_5_)">
		<text transform="matrix(1 0 0 1 46.356 10.4155)" font-family="'ComfortaaBold'" font-size="4.97">u</text>
	</g>
	<g clip-path="url(#SVGID_5_)">
		<text transform="matrix(1 0 0 1 50.7295 10.4155)" font-family="'ComfortaaBold'" font-size="4.97">P</text>
	</g>
	<g clip-path="url(#SVGID_5_)">
		<text transform="matrix(1 0 0 1 52.9062 10.4155)" font-family="'ComfortaaBold'" font-size="4.97">en</text>
	</g>
</g>
</svg>
